<svg xmlns="http://www.w3.org/2000/svg" viewBox="0 0 91.12 89.9"><g id="Ebene_2" data-name="Ebene 2"><g id="OBJECTS"><path d="M74.68,13l1.61-1.17c.46.67,1.45,1,1.35,2.06,0,.08.35-.22.57-.23a4.2,4.2,0,0,1-1.46-2.18,4.22,4.22,0,0,1,1.78-1c.15.23,0,.51.48.73.75.37,1.68.64,2,1.63.13.36.57.57,1,.73s.65.23.52.69c-1.24,1.28-3,1.78-4.32,3a6.1,6.1,0,0,0-1,.94A27.86,27.86,0,0,1,75,20.27a3.1,3.1,0,0,0-1,.94,7.59,7.59,0,0,1-1.26,1.07,11.16,11.16,0,0,0-2.24,2.26,1.51,1.51,0,0,1-.74.69c-.61.18-1.26.5-1.18-.65.05-.69-.78-.89-.93-1.53-.2-.84-.93-.44-1.45-.49s-.76,0-.9-.5A2.77,2.77,0,0,1,66.22,21a14.82,14.82,0,0,0,1-1.21l.49-.49c.74-.49,1.25-1.25,2-1.77l.78-.75c.66-.41,1.1-1.07,1.73-1.51a3.31,3.31,0,0,1,1-1,2.65,2.65,0,0,1,1,.92c.4.51.78,1.06,1.51.47s.27-1.1,0-1.64a1.14,1.14,0,0,0-.28-.25c-.23-.17-.51-.25-.72-.44A.37.37,0,0,1,74.68,13Z" style="fill:#ababbd"/><path d="M24.75,78.79l-.24.19a4.38,4.38,0,0,1-1,.81l-.24.19a3.69,3.69,0,0,1-1,.81l-.71.48c-2.4.45-4-.81-5.33-2.55-.2-.26-.48-.48-.42-.86l1-.83a10.47,10.47,0,0,0,1-.74L18,76c.35-.22.65-.5,1-.75l2.54-2A27.07,27.07,0,0,0,25,69.75l.28-.13a13.13,13.13,0,0,1,1.6,3.06c.16.66.77.95,1.22,1.38a4.26,4.26,0,0,1,.74.73,9.5,9.5,0,0,1-2.62,2.74l-.49.44A4.22,4.22,0,0,1,24.75,78.79Z" style="fill:#a2a1b6"/><path d="M28,74.28c-1.76-1.06-2-3-2.73-4.67l0-.11c.25-.34.53-.66.77-1,.67-1,1.33-2,2-3a10.31,10.31,0,0,0,1-2c.18-.42.37-.83.55-1.25a3.3,3.3,0,0,0,2-1.5c.32-.58,1-.62,1.69-.51a4.67,4.67,0,0,1,1.13.53c.38.23.63.49,1.2.2s.93.09.73.78a43.07,43.07,0,0,1-2.13,5.43l-.41,1a5.26,5.26,0,0,1-.79,1.3l-.69,1A6.37,6.37,0,0,1,31.21,70c-.67-.32-1.22-.64-1.61.47-.25.69-.92,1.21-1.27,1.94S28.6,73.73,28,74.28Z" style="fill:#9897ae"/><path d="M74,47.89h-.21c-2.24-.26-4.49-.06-6.73-.11-1.21,0-2.42,0-3.62,0-.62,0-.68-.29-.32-.66a1.18,1.18,0,0,0,.19-1.72c-.31-.5-.09-1.24-.39-1.86-.1.67.64,1.32-.06,1.91-.72,0-.63-.75-1-1.08-.46.86.69.85.68,1.42-.36.49-.9.94-1.43.62s-.4-1.09-.34-1.74a1.4,1.4,0,0,1-1.5.07c.85-1,1.94-1.83,2.43-3.13,0-.07.18-.13.22-.09.77.73,1.43-.09,2.15-.12.9,0,1.2.41.93,1.27a1.7,1.7,0,0,1-.28.69c-.91.94,0,1.44.47,2.06.16.23.43.31.61,0,.49-.85,1.24-.6,2-.48,0-.4-.32-.52-.49-.74a.6.6,0,0,1-.06-.8A1.26,1.26,0,0,1,68.3,43a.48.48,0,0,1,.52.56c-.08.81.62,1,1.09,1.36-.61-.69-.7-1.69-1.49-2.33-.34-.28-.81-1,.19-1.3a44.22,44.22,0,0,1,5.4.14h0c.46.26,1,0,1.45.14.86.31,1.81.48,2.23,1.46s-.39,1.15-1.06,1.36c-.24.07-.68-.1-.62.36s.44.41.78.43c.61,0,1.26-.52,1.85.08.07.69-.46.68-.89.74a1.73,1.73,0,0,0-1.21.47c-.55.89-1.85.47-2.38,1.4Z" style="fill:#aeadbf"/><path d="M33.32,60.46c-1,0-1.72.08-2,1.34-.17.85-1.15.26-1.74.42a72.82,72.82,0,0,0,2.44-7.07c.35-.53-.09-1.19.28-1.72v0c.22-.91.1-1.85.35-2.77s-.14-1.32-1.1-1.15a4.57,4.57,0,0,1-.74,0c-.48-.09-.51-.42-.44-.81,1.6-1.73,5-1,6.21,1.31a16.19,16.19,0,0,1,1.06,2.79c-.47.72-.8,1.35.36,1.81.4.16.39.68.06,1v.78a1.53,1.53,0,0,0-.27.44c-.68.87-2,.82-2.6,1.42-.94,1-1.82.29-2.75.42C32.6,59.46,33.9,59.53,33.32,60.46Z" style="fill:#9b9ab0"/><path d="M31.81,35.14l-1-4.07a13.06,13.06,0,0,0-.48-1.23,4.79,4.79,0,0,1-.75-2.29.52.52,0,0,1-.08-.57,1.32,1.32,0,0,1,1.81-.19c1.19.94,1.5.95,2.59.12a1,1,0,0,0,0-1.54l-.78-.95c-.3-.63,0-1.32-.25-2-.09-.24.26-.34.52-.16a19.82,19.82,0,0,1,1.93,3.53c.33.36.33.86.56,1.26h0c.24.4.31.86.51,1.27h0a8.51,8.51,0,0,1,.5,1.3c.28,1.32.55,2.65.82,4,.15.26.4.5.18.85-1,.33-1.89.85-2.9,1.12a2.3,2.3,0,0,1-2.76,0C32,35.44,31.94,35.27,31.81,35.14Z" style="fill:#9897ae"/><path d="M73.76,77.8l-.28-.26c-.54-.37-.93-.92-1.48-1.27l-.77-.74c-.67-.65-1.54-1.12-1.86-2.08.14-.38.48-.42.81-.47a4.42,4.42,0,0,0,.73-.1,8.66,8.66,0,0,1,5.09-.7.61.61,0,0,1,.36.39,1.48,1.48,0,0,1-.52,1.09,1.52,1.52,0,0,0-.37,1.73,1.74,1.74,0,0,0,1.67,1.12,8.27,8.27,0,0,0,2.71-.15c.91-.35,1.67.33,2.46.68l3.2,1.8a3.42,3.42,0,0,1-3,1.22,5.53,5.53,0,0,0-3.52.45,1.42,1.42,0,0,1-1.44.06,9.61,9.61,0,0,1-2.79-2A9.8,9.8,0,0,0,73.76,77.8Z" style="fill:#9393aa"/><path d="M62.71,45.39c.51-.89-.34-1.57-.35-2.45.64,0,1.13.47,1,.92-.23,1.26,1.75,2.79-.44,3.78-.23.21-.56.39-.26.78a29.88,29.88,0,0,0,.71,3.51A1.56,1.56,0,0,1,61,51.48a20.52,20.52,0,0,1-1.63-2c-.37-.7-.9-.36-1.35,0s-.18.85-.72.93c-.41-.52-.15-1.17-.33-1.73s-.41-.87-1-.51h0a50.76,50.76,0,0,1-5.65.14c-.43,0-.59-.22-.5-.62s.35-.41.66-.35a4.7,4.7,0,0,0,1.06.26c.36,0,.54-.11.46-.5a1.41,1.41,0,0,1,.44-1.25,3.1,3.1,0,0,0,1-1.39c.18-.62.8-.46,1.29-.41.34,0,.8,0,.86-.33.25-1.24,1.41-1.49,2.17-2.17.52-.13,1.2.11.78.55-.84.89-.87,2.44-2.54,2.88a1.19,1.19,0,0,1,1.11.83c.31.9.83,1.2,1.71.72a1.05,1.05,0,0,1,.61-.09c.34,0,.43-.06.32-.4s0-.53-.4-.42a1,1,0,0,1-.24,0,1.06,1.06,0,0,1-1.1-.44.43.43,0,0,1,0-.57.87.87,0,0,1,1.24,0c.55-.06,1.16.18,1.67-.36.11.74.2,1.37.31,2.09l1.28-.73A.31.31,0,0,1,62.71,45.39Z" style="fill:#a9a8bb"/><path d="M69.7,84.31c-1.56,1.56-2.76,1.55-4.53.12a17.25,17.25,0,0,1-4-3.75,2.33,2.33,0,0,1-.5-1.38,2.15,2.15,0,0,1,0-1.5c0-.17.06-.33.08-.5,1.1,1.24,1.1,1.24,2.76.36,1.49-.78,1.49-.78,2.74.4a4.69,4.69,0,0,0,1.27.77,2.82,2.82,0,0,1,.87.85,1.86,1.86,0,0,0,1.09,1.37l.45.52A2.88,2.88,0,0,1,69.7,84.31Z" style="fill:#b7b7c7"/><path d="M77.51,80.57c1.27,0,2.26-1.32,3.52-1,1.66.44,3-.15,4.48-.75a11.33,11.33,0,0,1,3,1.54c1.86,1.55,1.42,3.61-.91,4.46a3.71,3.71,0,0,1-2,0,4.68,4.68,0,0,1-2.8-1,13,13,0,0,0-1.22-.5C80.2,82.4,78.64,81.8,77.51,80.57Z" style="fill:#bcbcca"/><path d="M56.92,40.12a24.25,24.25,0,0,1,2.78-8.78c1.09.59,2.34.32,3.48.65a2.52,2.52,0,0,1,1.73,1.06,36.76,36.76,0,0,0-2,5.21,4.82,4.82,0,0,0-.23,1.59.26.26,0,0,1-.31.06,1.13,1.13,0,0,0-1.65-.11,15.2,15.2,0,0,1-2.08,1.08,1.43,1.43,0,0,1-1.82-.06A.9.9,0,0,1,56.92,40.12Z" style="fill:#c6c5d2"/><path d="M52.9,20.28a9.92,9.92,0,0,1,1.51-4c1.22-.05,2.44-.12,3.65-.15.66.5,0,1.62.93,2a.7.7,0,0,1,.09,1c.18,0,.1-.14.18-.19.8-.78.92.1,1.25.5.18.22-.12.77.45.7s.42-.45.46-.77a4.37,4.37,0,0,1,.93-2.12c1.13-.74,1.75.09,2.41.79a.21.21,0,0,1-.09.32L62,22.54a1.49,1.49,0,0,1-.81.71,9.09,9.09,0,0,1-5.33-1.45c-.85-.53-2.05-.51-2.91-1.2A.22.22,0,0,1,52.9,20.28Z" style="fill:#a4a3b8"/><path d="M67,71.27c-2.52-3.31-5-6.61-6.5-10.56A5,5,0,0,1,63,61.4c.68.26-.15.87-.26,1.46.47-.19.78-.72,1.31-.41s.49.8.47,1.51c.55-.55.56-1.23,1.09-1.51a.75.75,0,0,1,1.21.4c-.21,2.15-.21,2.15,2.44,3.07.23.51.14,1.06.88,1.47s.48,1.57.4,2.36-.91.33-1.4.33-1-.37-1.61-.35c.08.5.34,1,.18,1.47a.85.85,0,0,1-.17.31C67.25,71.68,67.13,71.45,67,71.27Z" style="fill:#bebecc"/><path d="M9.21,84.62,9,84.33a3.61,3.61,0,0,1-.09-2.18c.41-.46,1.32-.5,1.17-1.42a.53.53,0,0,1,.4-.3c.67-.06,1.32.18,2,.1.25,0,.6,0,.7.19.59,1.16,1.49.67,2.36.52s1.71.18,2.55-.28c.34-.18.68.15.5.58-.45,1-.56,2.29-1.86,2.76l-.2.27a19.18,19.18,0,0,1-1.82.73,6.72,6.72,0,0,0-1.7.53,3.53,3.53,0,0,1-2,0c-.25-.08-.57,0-.77-.25A4.46,4.46,0,0,1,9.21,84.62Z" style="fill:#9897ae"/><path d="M65.29,22.06c1.61-.22,2.67.64,3.58,1.82.13.16.37.31.23.5-1.19,1.55.69.27.67.73.08.23-.14.3-.24.44l-2.3,3.27c-1.51-.62-3.29-.53-4.57-1.76a1,1,0,0,1-.37-.48A20.3,20.3,0,0,1,65.29,22.06Z" style="fill:#9f9fb4"/><path d="M62.29,26.58a12.84,12.84,0,0,0,4.61,1.77c.24,0,.3.26.33.47l-2.32,4.23a7.7,7.7,0,0,0-4.5-1c-.55.06-.74-.24-.71-.74A26.11,26.11,0,0,1,62.29,26.58Z" style="fill:#9897ae"/><path d="M25,26.31a4.23,4.23,0,0,1,1,2.25,4.13,4.13,0,0,1-1.38,1c-1.27.88-1.25,2.29-1.63,3.55a.41.41,0,0,1-.5-.07l-.26-.5a.85.85,0,0,0-1.2.06c-.44.36-.9.73-1.54.48a6.65,6.65,0,0,1-2.23-4.07c.34-2,1.24-2.44,3.19-1.66.45.22.5.84,1.05,1,.73.23,1.51.9,1.84-.46,0-.15.21-.37.33-.35C24.72,27.75,24.69,26.85,25,26.31Z" style="fill:#b7b7c7"/><path d="M53,20.53c.37-.28.58,0,.83.23a1.64,1.64,0,0,0,1.48.47c.18,0,.48-.06.57.05,1.49,1.6,3.52,1.52,5.44,1.77,0,.43-.35.54-.61.73a8,8,0,0,1-5.07,2,3.14,3.14,0,0,1-2.94-4C53,21.41,52.56,20.87,53,20.53Z" style="fill:#9897ae"/><path d="M75.25,89a4.08,4.08,0,0,1-3.23.79h0a3,3,0,0,1-1-1c-.87-1.39-.23-2.62.53-3.73S73.69,84,75,84.34a2.31,2.31,0,0,1,1,1,.5.5,0,0,0,.21.49,1.77,1.77,0,0,1,.06,1.49C75.93,87.9,75.59,88.47,75.25,89Z" style="fill:#b5b4c5"/><path d="M30.56,48.66c0,.29,0,.6.28.78.08.1.05.17-.05.21H30.3c-.73.33-1.55-.09-2.28.24l-.48,0c-1.08.34-2.21-.11-3.29.23A11.23,11.23,0,0,1,20,49.87c.12-.67.81-.41,1.16-.72-.17-.24-.58-.35-.44-.77a1.67,1.67,0,0,1,.95-.24c.86-.08,1.77.15,2.08-1.16a1.06,1.06,0,0,1,1.69-.63.88.88,0,0,0,1-.14c.33-.22.61-.61,1.1-.37A23.09,23.09,0,0,1,30,47.76C30.23,48,30.57,48.22,30.56,48.66Z" style="fill:#bab9c8"/><path d="M21.77,44.89h.5c.38-.28.88.07,1.25-.24l.51,0c.39-.26.88.07,1.26-.23l3.51-.51c.38-.28.88,0,1.26-.24h.24c.56-.32,1.22.09,1.77-.25h.25a.32.32,0,0,1,.34-.05,2.19,2.19,0,0,1,.88,1.61c-.06.5-.4.58-.82.54a9.91,9.91,0,0,0-1.09,0c-1.36.37-2.71.87-4.1.12-.28-.15-.38.08-.5.19-.27.23-.59.45-.91.33A2.18,2.18,0,0,0,24,46.4c-.45.27-1,.14-1.2,1s-1.49.84-2.37,1a1,1,0,0,1-.87-.27c-1.11-1.48-1-1.72.79-2.53-.22-.08-.5,0-.65-.21.2-.28.5-.23.78-.25C20.9,44.86,21.39,45.19,21.77,44.89Z" style="fill:#d9d8e1"/><path d="M16.69,84.3c-.19-.34.14-.47.31-.56.6-.32,1-.68.77-1.46-.14-.48.5-.6.58-1.17-1.2,1.2-2.83-.17-4.08.85a.61.61,0,0,1-.86-.27c-.28-1.12-1.06-1-1.84-.8-.47.09-.71-.42-1.15-.35-.08-.1-.06-.18.05-.23h0A6.21,6.21,0,0,1,12,79.56h0c.4-.24.87-.31,1.29-.51l.46-.25a12.64,12.64,0,0,0,1.58-.74l.46-.21c.66.68,1.32,1.36,2,2a2.86,2.86,0,0,0,3.39.91c.56-.21.33.24.39.45l-.51.48a3.87,3.87,0,0,1-1.05.79A9.92,9.92,0,0,1,16.69,84.3Z" style="fill:#9d9cb2"/><path d="M60.26,60.2c-.59-1.68-1.19-3.35-1.78-5,1.29-.68,2.23-1.83,3.52-2.51a3.28,3.28,0,0,1,0,2.55c-.39,1.31.72,1.73,1.2,2.47s1.1,0,1.64-.25a.34.34,0,0,1,.35,0l2,4.27c-1.32.14-2-.94-3-1.51a7.92,7.92,0,0,0-3-1.52c.1.46,1,.27.71.92C61.63,60.41,60.94,60.32,60.26,60.2Z" style="fill:#bebecc"/><path d="M73,4.71c.33-.47.07-1.22.73-1.54a4.29,4.29,0,0,1,1-1l.79-.76a3.29,3.29,0,0,1,1-1h0A.9.9,0,0,1,77,.23c.95.11.55.85.59,1.35s-.37.7-.79.79-.92,0-1.29.34-.69.42-.61.85.48.39.78.5.48.11.71.2a1.13,1.13,0,0,0,.95.1,4.72,4.72,0,0,0,.84,0c.11.13.12-.09.11-.09-.55-.16-.48-.66-.59-1.07A1.33,1.33,0,0,0,78,2.5c1.18-1.41,1.31-1.45,2.41-.68a.78.78,0,0,1,.23.63c-.54.84-.25,1.93-.81,2.75A3.86,3.86,0,0,1,77,7.47a3.87,3.87,0,0,1-2,0,.54.54,0,0,1-.51-.28.36.36,0,0,1-.06-.45c.41-1,.25-1.39-.75-1.73A1.53,1.53,0,0,1,73,4.71Z" style="fill:#bebecc"/><path d="M16.72,62.73a3.53,3.53,0,0,1,1-2.55,2.1,2.1,0,0,1,.77-.71h0c.49-.11.94-.51,1.48-.2l1.47.45a2.29,2.29,0,0,1,1.05,1h0a3.26,3.26,0,0,1-.06,3.5l-.22.25a2.93,2.93,0,0,0-.63.4c-.65.44-1.07.28-1-.52.05-.58,0-.95-.64-1.15a1.36,1.36,0,0,0-1.5.16,10.93,10.93,0,0,0-1.61,1.58,2,2,0,0,1-.1-.21A3.87,3.87,0,0,1,16.72,62.73Z" style="fill:#a9a8bb"/><path d="M15,6a1.26,1.26,0,0,0,.95.27,7.22,7.22,0,0,1,2.62,1.4c-.28.73.52,1.23.42,1.93a.6.6,0,0,1-.59.06c-.66-.35-1.32-1-1.74.29-.11.34-.57.2-.89.05-.15-.08-.31-.14-.45,0a.21.21,0,0,0,0,.23.41.41,0,0,0,.53.19,4.65,4.65,0,0,0,.8-.33c1-.47,1.85-.48,2.47.58-.35.95-.91,1.49-2,1-.2-.09-.51-.14-.53.09-.11,1.15-.87.41-1.34.49-.93-.11-1.51-1.06-2.5-1.05-1-1.51.93-.58,1-1.24s-1-.28-1-.93c-.32-.28.88-.08.15-.49-.11-.06-.23-.22-.18-.29.52-.72.19-1.56.36-2.33,0-.06.13-.07.22-.08C13.81,5.9,14.41,5.7,15,6Z" style="fill:#7c7a98"/><path d="M62,52.69a6,6,0,0,1-3.48,2.48,36,36,0,0,1-1.22-4.78c.22-.65.25-1.45,1.09-1.64.57-.13,1.17-.38,1.39.65S61.26,51,61.87,52c.14.21,1-.05,1.54-.09a1.68,1.68,0,0,1,.31,1C63.09,53.62,62.92,53.6,62,52.69Z" style="fill:#9f9fb4"/><path d="M29.56,27.07v.48a14,14,0,0,1-2-3,5.06,5.06,0,0,0,.94-.85c.17-.18.14-.34-.09-.45a1.13,1.13,0,0,1-.66-.95c.31-1.1.71-1.34,1.61-.92.08,0,.15.49.24,0,.19-1,.61-1.41,1.55-.56.27.25.59-.15.89-.27a5.84,5.84,0,0,1,1.26,1.77l-.23,0c.06.66.14,1.31.22,2-.16.71-.16.7-.61.44-.16-.09-.08-.6-.46-.27a.39.39,0,0,0-.07.63c.33.41,0,.71-.31.64C30.68,25.52,30.32,26.63,29.56,27.07Z" style="fill:#c1c0ce"/><path d="M70.23,8.2a.24.24,0,0,0,.23,0,.21.21,0,0,1,.09.19c0,.07,0,.11,0,.11-1,.43-2.1.19-3,.94a3.87,3.87,0,0,1-3,.7c.28.86.57,1.56,0,2.41-.36.54.42.67.84.65a4,4,0,0,1,2.07.14.32.32,0,0,1,.1.33,7.42,7.42,0,0,1-5.54.62,5,5,0,0,1-2.63-2.47c.07-.39.4-.47.7-.59a29.27,29.27,0,0,1,8.2-3A4,4,0,0,1,70.23,8.2Z" style="fill:#58567b"/><path d="M59.44,11.72A5,5,0,0,0,65.22,14a7.34,7.34,0,0,0,2.26-.55.74.74,0,0,1,1-.1.36.36,0,0,1,.11.37c-.4.53-1.05.51-1.61.71a20.25,20.25,0,0,0-2.05.3,30.66,30.66,0,0,1-3.6.2c-.66-.08-1.26.82-2,.67a3.13,3.13,0,0,0-2,.49.88.88,0,0,1-.36.1c-.66-.27-1.61.25-2-.74A7.85,7.85,0,0,1,58.44,12C58.77,11.86,59,11.43,59.44,11.72Z" style="fill:#616083"/><path d="M87.07,11.48a.77.77,0,0,1-.75.51l-.16-.08c-.7-1-1.91-1.25-2.85-1.91-.59-.41-1.34-.66-1.51-1.5a10.45,10.45,0,0,1,3.76-1.79,1.56,1.56,0,0,1,2,.73,4.63,4.63,0,0,0,.45.73c.85,1.3.75,1.85-.49,2.77A1.69,1.69,0,0,0,87.07,11.48Z" style="fill:#bab9c8"/><path d="M76,72.27c-.52.38-1,.73-1.61.06-.39-.42-.89-.06-1.26.14-1.17.61-2.51.61-3.69,1.13-.31,0-.51-.19-.73-.35s-.49-.48-.73-.73-.62-.53-.57-1h.06a1.44,1.44,0,0,1,1-.74,15.54,15.54,0,0,1,4.68-1.21c.61.12.92.66,1.37,1a1.57,1.57,0,0,0,.74.7C75.56,71.55,76.11,71.66,76,72.27Z" style="fill:#9b9ab0"/><path d="M82.54,14.24c-.4-.64-1.4-.38-1.73-1.13a4,4,0,0,0-2.36-1.9c-.52-.24.27-.47.08-.75a8.84,8.84,0,0,1,3-1.75c.79.52.11,1.41.5,2,1.56,0,2.81,1,4.26,1.28l0,0A14.61,14.61,0,0,1,82.54,14.24Z" style="fill:#bab9c8"/><path d="M28.54,15l.47.5c.22.32.6.54.6,1-.25.32-.77.5-.54,1.07.16.73.51,1.4.74,2.11.11.35.3.85-.16,1-.84.2-1.47.95-2.4.85A1.87,1.87,0,0,1,26,19.62a4.23,4.23,0,0,0-.16-1.32c-.7-.91-1-1.73.36-2.37.41-.2.42-.68.29-1.12s-.34-.68-.21-1.07c.63-.34,1,.09,1.16.55a.77.77,0,0,0,.86.53A.7.7,0,0,1,28.54,15Z" style="fill:#c1c0ce"/><path d="M26,18c.41.37.26.87.23,1.3a1.85,1.85,0,0,0,1,2c.62.06.59.6.75,1a.7.7,0,0,0,.75.75,1.59,1.59,0,0,1,0,.75c-.3.44-.55.95-1.22.75-.18-.34-.55-.56-.56-1a14,14,0,0,0-.74-1.24l-1.25-2c-.22-.76,0-1.83-1.31-1.82-1-.58-1.53-1.59-2.47-2.18L19.51,15a2.27,2.27,0,0,1,1.28-1.53A4,4,0,0,0,23,15.59a5.17,5.17,0,0,1,2.46,2C25.53,17.82,25.84,17.86,26,18Z" style="fill:#b0afc1"/><path d="M15,18.29a7.57,7.57,0,0,1,3.54,1.48c.11.4-.27.46-.45.65a1.37,1.37,0,0,0-.23,1.19c1.27-.27.56,2.64,2.3,1.43a2.6,2.6,0,0,1,2.13-.38.69.69,0,0,1,.34.39c0,.42-.27.55-.62.66-1.88.61-1.88.61-1.6,2.38a1.09,1.09,0,0,1-.68.79.5.5,0,0,1-.43-.53c0-1-.72-1.35-1.26-2-1-1.11-2-.4-3-.33l-.49-.31c-.43-.62-.19-1.38.36-1.37,1,0,1.08-.66,1.46-1.31a2.59,2.59,0,0,1-2.17-.85A2.24,2.24,0,0,1,15,18.29Z" style="fill:#b7b7c7"/><path d="M82.31,77,81,76.74c-.29-.07-.71-.28-.83-.17-.85.83-1.84,0-2.74.27a2,2,0,0,1-2.24-1.19,1.67,1.67,0,0,1,.45-2.24,2.18,2.18,0,0,0,.65-.91c.19-.12.36-.15.48.1a43.91,43.91,0,0,0,4.91,3.89C81.89,76.66,82.17,76.75,82.31,77Z" style="fill:#9b9ab0"/><path d="M4.15,10.22C2.41,10.57,1.16,9.8.47,8,.6,7.22.15,6.52.33,5.79S1.4,5.28,2,5.07c.81.12,1.33.43,1,1.38a2.16,2.16,0,0,0-1.2.11c.43.15.71-.31,1-.08.58.7,1.2.47,1.9.17.9-.39,1.12-.17.95.81,0,.09,0,.12,0,.18,1.32.92-.07,1.43-.33,2.1C5,10.18,4.5,10,4.15,10.22Z" style="fill:#a9a8bb"/><path d="M5.19,9.71c-.06-.43.2-.66.5-.92s.37-.67-.09-.91c-.25-.13-.76.33-.78-.22s.65-.35,1-.62c-.57-.51-1-.27-1.45.06-.9.6-1.49.34-1.72-.64h0c.55-.92-.34-1-.78-1.27-.07-.06-.08-.12,0-.17A.12.12,0,0,1,1.93,5h0a3.8,3.8,0,0,1,.94-.42c.36-.21.56-1,1.18-.36.12.12.31.07.48,0,1.72-.4,2-.22,2.14,1.63a.29.29,0,0,0,.14.22c.44-.14.28-.63.48-.9s.56-.55.81,0A2.44,2.44,0,0,1,7.9,7L7.19,8.19a2.45,2.45,0,0,1-1,1l-.74.54C5.33,9.84,5.25,9.82,5.19,9.71Z" style="fill:#aeadbf"/><path d="M19.76,26.8c0-.39.34-.49.5-.75a3.58,3.58,0,0,1,.24-1.22c.43-.95,1.24-1,1.84-.18a1.08,1.08,0,0,0,.58.42c.69.24.63.78.53,1.34.44-.17.45-.89,1.06-.85l.52.75a7.44,7.44,0,0,1,0,1.25c-.07.42-.06.91-.79.35s-.89.44-.88.77c0,.83-.4.78-.8.49-.69-.51-2-.26-2-1.61C20.31,27.25,19.62,27.44,19.76,26.8Z" style="fill:#b3b2c3"/><path d="M33.32,60.46c-.19-.37,0-1-.83-.88-.47.05-.48-.6-.38-1s.47-.31.79-.21.64.16.94.28.43.31.54.08c.7-1.49,2.65-.79,3.48-2,.09.42.28.85-.1,1.23-.23.21-.18.49-.18.75A5.52,5.52,0,0,1,37,60.2c-.23.51-.47,1-.7,1.52,0-.31-.11-.62-.45-.66-.5-.06-.5.46-.75.88C34.78,61.05,33.92,60.93,33.32,60.46Z" style="fill:#a2a1b6"/><path d="M19.76,26.8l.75.76a1,1,0,0,1-.25,0c-1.92-.34-1.92-.34-3,1.5a17,17,0,0,0-2.31-5c.3-.41.93-.24,1.22-.77s.68-.3.93.08a2,2,0,0,0,1,.73C19.35,24.59,19.51,25.72,19.76,26.8Z" style="fill:#bcbcca"/><path d="M62,52.69c.6-.06,1.07,1,1.76.23a34.24,34.24,0,0,1,1.51,4.52c-1.39,1.27-1.66,1.23-2.8-.45-.2-.29-.48-.28-.72-.42s-.42-.22-.23-.55C62.1,55,61.74,53.79,62,52.69Z" style="fill:#c6c5d2"/><path d="M78.53,45.14c-.65.11-1.3.24-2,.34a1,1,0,0,1-1.1-.94c0-.53.44-.58,1-.49s1.16-.08,1-.92c.68-.16,1.13-.73,1.76-1a5.1,5.1,0,0,1,3.47,1.5.42.42,0,0,1,.18.47c-.44,1-1,1.55-2.09.72-.31-.24-.62-.08-.93.09S79.05,45.5,78.53,45.14Z" style="fill:#b7b7c7"/><path d="M28,74.28a4.55,4.55,0,0,1,.24-2.72c.31-.76,1.64-1,1.13-2.13a1.53,1.53,0,0,1,.44-.12,2.77,2.77,0,0,1,2.47,1.21l-.77,1.21a8.55,8.55,0,0,1-.76,1h0A6.48,6.48,0,0,1,29.72,74l-.43.49c-.11.17-.17.42-.47.3A.81.81,0,0,1,28,74.28Z" style="fill:#9393aa"/><path d="M60.26,60.2c.4-.46,1.33.09,1.53-.79-.06-.06-.11-.13-.17-.15-.34-.09-.72.36-1-.09-.17-.26,0-.47.17-.65a.79.79,0,0,1,1.2-.05c.74.64,1.88.63,2.49,1.49a2.7,2.7,0,0,0-.28,1.44c1.3-.44,1.57.29,1.54,1.32a1.55,1.55,0,0,0-.53,1.06c0,.47-.6.52-1,.5s-.26-.37-.12-.61c.25-.41.31-.81-.19-1.05s-.61.21-.76.55-.45.33-.71.13a.55.55,0,0,1-.12-.78c.19-.3.67-.38.67-1a4.41,4.41,0,0,1-2.53-.84Z" style="fill:#b5b4c5"/><path d="M67,14.24c.44-.36,1-.32,1.51-.51.12.28,0,.46-.21.63C67.15,15,65.86,15.42,65.7,17a.6.6,0,0,0,0,.19,3.54,3.54,0,0,1-1,.84c-.8-.11-1.19-1.39-2.24-.75-.12.11-.32.2-.35.34-.41,1.69-1.36,1.65-2.59.84-.14-.09-.4,0-.57-.18-1.24-.29-.92-1.18-.76-2,1.94,1.21,2.35,1.12,4.29-.47,1.15-.94,2.67-1,4-1.41C66.67,14.34,66.85,14.38,67,14.24Z" style="fill:#9190a9"/><path d="M8,5c-.63.08-.47.57-.51,1s-.21.85-.75.74-.56-.46-.39-.88a1.3,1.3,0,0,0-.58-1.61c-.55-.43-.76.24-1.1.48-.61.43-.83-.07-1.06-.52-.2.31-.06.68-.38.83-.18-.9-1-1.56-1-2.51l1-.25a4.3,4.3,0,0,1,3.26.27h0a2.72,2.72,0,0,1,1,1l.48.74A.55.55,0,0,1,8,5Z" style="fill:#bebecc"/><path d="M16.84,64.94a2.76,2.76,0,0,1,3.81-1.89c.54.22.32.58.32.91s-.41.64,0,.88.48-.21.7-.38.38-.07.57,0a6.55,6.55,0,0,1-1.72,1.76A3,3,0,0,1,17.76,66h0a1.86,1.86,0,0,1-.78-.74Z" style="fill:#a2a1b6"/><path d="M73.3,69.72a27.14,27.14,0,0,0-5.81,1.8,10.19,10.19,0,0,0-.08-1.24c0-.35-.8-.45-.5-.86s.89,0,1.26.1a6.52,6.52,0,0,0,2.14.3c.35-.75-1-1.48.26-2.36-1.72.28-1.72-.46-1.34-1.47a.8.8,0,0,1,.77-.26c.68.43.77,1.34,1.44,1.78C72,68.31,73,68.74,73.3,69.72Z" style="fill:#b3b2c3"/><path d="M80.29,1.94c-1.12-.9-1.59.25-2.27.73a.58.58,0,0,1-.24.52c.39.35.26,1.27,1.23,1-.59.38-1.11.8-1.74.22a.55.55,0,0,1-.74,0,2.07,2.07,0,0,1-.5,0c-.6-.25-1.77,0-1.6-1a1.75,1.75,0,0,1,1.92-1.37c.42.06,1-.08.94-.32-.11-.45.43-1.08-.29-1.38.61-.72,1.33-.32,2-.21l1.24,1.23A.32.32,0,0,1,80.29,1.94Z" style="fill:#c8c8d4"/><path d="M67.52,79a2.6,2.6,0,0,1-1.82-1.16c-.38-.57-.83-.79-1.44-.26a16.4,16.4,0,0,1-1.69,1c-.92.61-1.42.2-1.81-1.28.15-.28.29-.56.44-.83a1.69,1.69,0,0,1,1.27-1.18h0a1.38,1.38,0,0,1,1.25,0h0a3.71,3.71,0,0,1,1.25.78h0a3.79,3.79,0,0,1,1.27,1.25,3.12,3.12,0,0,0,.93,1A.71.71,0,0,1,67.52,79Z" style="fill:#9d9cb2"/><path d="M78.53,45.14C79,45,79.64,45,80,44.5a.48.48,0,0,1,.83-.09c.84,1,1.42.48,2-.27.32.16.3.54.5.78-.09.56-.17,1.11-.26,1.67a2.21,2.21,0,0,1-1,1h0a2.94,2.94,0,0,1-1,.42c-.9.12-1.4-.59-2-1-.11-.41.43-.6.32-1.1a4.36,4.36,0,0,1-3,.43c.16-.75.76-.72,1.33-.76C78,45.62,78.46,45.74,78.53,45.14Z" style="fill:#a9a8bb"/><path d="M70,54.43c-.27-.5.13-1,0-1.5.06-.06.17-.14.21-.11,1.17,1.1,2.69.57,4,.87a1.81,1.81,0,0,1,1,.73c.11.63-.48.83-.77,1.2-.65.81-1.37,1.57-2,2.39a.47.47,0,0,1-.12,0c-.31-1.27-1.31-1.79-2.38-2.32C69.56,55.47,69.81,54.86,70,54.43Z" style="fill:#c8c8d4"/><path d="M15.23,12.24c.32-.57.63-.68.95.34,0-1.25.06-1.93,1.24-1.1.77.54,1.07-.46,1.58-.75s.45-1.43,1.42-1.36c.64,1.15.51,2-.5,2.6-.47.29-.61.58-.3,1,.9,1.15.91,1.14-.37,1.8l-.23,0c-.37-.19-.63-.54-1-.71Z" style="fill:#8887a1"/><path d="M87.32,7.71c-.2-1-1.08-.82-1.76-1a5.55,5.55,0,0,1,3.83-.59,2.1,2.1,0,0,1,1.67,1.52,1.77,1.77,0,0,1-1,2.1c-.85-.05-1.7,0-1.9-1.19C88.13,8.18,87.67,7.94,87.32,7.71Z" style="fill:#cfcfd9"/><path d="M74.27,53.93c-.87.17-1.71-.27-2.63.07-.72.27-.93-.92-1.64-1.07.55-1.18.68-2.74,2.51-2.75a3.36,3.36,0,0,0,1.75.73c.33.18.74.28.75.76-1.3.28-1.3.28-.76,1.66A.7.7,0,0,1,74.27,53.93Z" style="fill:#d4d4dd"/><path d="M22.26,22.79a4.93,4.93,0,0,0-2.37.72c-.25.19-1,.44-1,.16-.17-1.16-1.55-1.64-1.5-2.89,0-.75.8-.61,1.11-1,1.09.31,1.77,1.27,2.75,1.76C21.64,21.91,22.3,22.07,22.26,22.79Z" style="fill:#bcbcca"/><path d="M28,22.28l-.75-1c.88.09,1.28-1,2.24-.85.26.05.06-.36,0-.59-.24-.86-.88-1.61-.72-2.58a1.52,1.52,0,0,1,1.49.25,10.36,10.36,0,0,1,1.78,3c0,.49-.14.76-.7.78s-.9-.25-.83-1.09a2.8,2.8,0,0,0-.71,2c-.73.23-.29-1.24-1.24-.75C28.19,21.67,28,21.87,28,22.28Z" style="fill:#bab9c8"/><path d="M22.78,10.22c.63,0,.84.79,1.48.77.37.21.66.52,1,.75h0a2.26,2.26,0,0,1,.89.87,1,1,0,0,1,0,.87c-.41.37-.68,0-1.06-.14-.93-.42-1.83-1.15-3-.65-.19.12-.35.28-.52.41a1.92,1.92,0,0,1-.31.18.94.94,0,0,1-.7,0c-.75-1-.49-1.74,1.05-2.78C22,10.42,22.41,10.36,22.78,10.22Z" style="fill:#c3c3d0"/><path d="M67,14.24c-1.22.4-2.28,1.22-3.69,1.23-.49,0-1,.84-1.45,1.28a2.28,2.28,0,0,1-3.65-.49,17.79,17.79,0,0,1-3.25.3c-.3,0-.47,0-.52-.31l.07-.24c.9-.19,1.8.27,2.7,0h0A3.27,3.27,0,0,1,59,15.9a2.74,2.74,0,0,0,2.45-.54c.94-.79,2.2-.51,3.28-.85A5.74,5.74,0,0,1,67,14.24Z" style="fill:#8887a1"/><path d="M24.51,25.56a2.17,2.17,0,0,1-1.61,1.37c.49-.95.7-1.77-.75-1.67a.33.33,0,0,1-.26-.21c0-.3.55-.81-.35-.76-.69,0-.7.58-.92,1-.13.25.24.74-.36.75-.4-.28-.21-.78-.44-1.14-.38-.59,0-.85.51-1.11.7-.36,1.6-.09,2.19-.75.08-.1.16-.1.25,0Z" style="fill:#bcbcca"/><path d="M10,9.73C9.13,8,9.63,7,11.74,6c.25.34.08.71.07,1.07a3.6,3.6,0,0,0,.25,2.14,1.6,1.6,0,0,1-.29,1.72.85.85,0,0,1-1.08-.43A2.61,2.61,0,0,1,10,9.73Z" style="fill:#cacad6"/><path d="M86.3,12c-1,.48-1.88-.83-3-.33-.31.13.13-.6-.26-.83a2.56,2.56,0,0,1-.85.37c-.3,0-1.11.46-.59-.61a2.38,2.38,0,0,0-.07-1.86l.26-.21a10.76,10.76,0,0,0,3.38,2.11A1.62,1.62,0,0,1,86.3,12Z" style="fill:#aeadbf"/><path d="M20.51,9.47c-.44,0-.72.24-.74.68s-.35.6-.77.58c-1-1.08-2.05-.59-3.07,0a.66.66,0,0,1-1-.19.67.67,0,0,1,.06-1c.38-.41.59-.2.89.13s.73.2.74-.29c.05-1.39.61-1,1.25-.4a1.28,1.28,0,0,0,1.1.46c.3-.36.24-1.07,1-1a.74.74,0,0,1,.79.48C20.91,9.24,20.73,9.37,20.51,9.47Z" style="fill:#777694"/><path d="M14.23,20.27c.75.06,1.37.84,2.23.44.06,0,.34.24.41.42s-.11.29-.34.33c-.53.09-.18.65-.46.9s-.14.88-.92.3c-.58-.42-.62.58-.66,1.09A4.17,4.17,0,0,1,13,22.27C13.48,21.65,13.2,20.56,14.23,20.27Z" style="fill:#bcbcca"/><path d="M16.22,37.87l.29-.48c.53-.35.74,0,.93.42a9.78,9.78,0,0,0,1.73,2.95.82.82,0,0,1,0,1.22c-.38,0-.79.13-1.16-.11l-.5-.25C16,40.73,15.93,39.36,16.22,37.87Z" style="fill:#b7b7c7"/><path d="M26.28,31.58c-.43.72-.67,1.59-1.53,2-.45.09-.69-.18-.86-.53-.61-1.23.65-3.63,2-3.85a.4.4,0,0,1,.49.27A4.91,4.91,0,0,1,26.28,31.58Z" style="fill:#9b9ab0"/><path d="M70,65.73c-.18.3-.49.25-.77.26a3.27,3.27,0,0,1-1.69-.28c-1.3-.84-1.44-1.2-.82-2.74.22-.42.44-.83,1-.51A23.77,23.77,0,0,1,70,65.73Z" style="fill:#a2a1b6"/><path d="M26.26,29.32c-1.64.37-2,1.67-2.22,3.07a1.1,1.1,0,0,0,.71,1.18l-.22.27c-.78.32-1.16-.19-1.52-.73-.78-.66.43-1.13.16-1.75-.37-.83.27-1,.77-1.43A4.11,4.11,0,0,1,26,28.56l.26.26A.32.32,0,0,1,26.26,29.32Z" style="fill:#a7a6b9"/><path d="M20.51,9.47c.08-.17.17-.34.26-.51a1,1,0,0,1,.75.49c.47.35.65.76.24,1.27-.64.72-2.06,1.13-1,2.53a.14.14,0,0,1,.06.16c0,.05,0,.08,0,.08A3.64,3.64,0,0,1,19.51,15l-.26-.23a5.33,5.33,0,0,0,.82-.75c.22-.29.4-.59-.32-.56s-.57-.67-.71-1.09a.44.44,0,0,1,.43-.61c1.3-.09,1-1,.94-1.81A2.08,2.08,0,0,1,20.51,9.47Z" style="fill:#9897ae"/><path d="M14.23,20.27c-.75.46-.17,1.74-1.24,2a1.65,1.65,0,0,1-.52-2,2.35,2.35,0,0,1,1.3-1.7A2,2,0,0,1,15,18.29C15,19,14.28,19.54,14.23,20.27Z" style="fill:#7c7a98"/><path d="M70,54.43c-.09,1.19.44,1.7,1.64,1.52.31,0,.76.8.59,1.35s0,.52.31.63A.33.33,0,0,1,73,58a2,2,0,0,1-2.8-.75C69.66,56.39,69,55.43,70,54.43Z" style="fill:#d2d1db"/><path d="M67.74,62.46c-.44,0-.66.37-1,.51-.25-.42-.53-.73-1-.25a1.73,1.73,0,0,1-.33-.12c.16-1.1-.15-1.36-1.1-.67-.13.1-.54,0-.48-.22.19-.59-.38-1.48.65-1.75a11.33,11.33,0,0,0,2.78,1.75A.91.91,0,0,1,67.74,62.46Z" style="fill:#ababbd"/><path d="M19.75,47.92c.18.29.48.23.75.24.08.09.24.09.26.24,1,.92,1,.92-.75,1.47a1.38,1.38,0,0,1-1-.46,3.23,3.23,0,0,1-1-1h0a2.27,2.27,0,0,1,.08-1.94c.38-.28.54,0,.62.29A1.9,1.9,0,0,0,19.75,47.92Z" style="fill:#a4a3b8"/><path d="M11.77,10.91c.41-1.36-.71-2.59-.29-3.95.8.43.67,1.44,1.24,2a.7.7,0,0,0,.66.25.87.87,0,0,1,1,.89c0,.64-.62.36-1,.35-.57,0-.88.09-.65.73C12.34,11.33,12.12,10.91,11.77,10.91Z" style="fill:#9190a9"/><path d="M73,58l-.48,0c.4-1.57,1.84-2.32,2.72-3.51h0c.62.08.37.46.27.78-.26.57-.51,1.15-.77,1.72a1.44,1.44,0,0,1-.8.77Z" style="fill:#9f9fb4"/><path d="M12.72,9c-1-.3-.92-1.28-1.24-2,.08-.32.17-.65.26-1L12,5.93a1,1,0,0,1,1,0c.46.79.75,1.58-.26,2.35a2.35,2.35,0,0,0,.5,0c.27-.07.61-.23.69.19s-.27.42-.56.44Z" style="fill:#727190"/><path d="M68.23,14.24l.25-.51a1.43,1.43,0,0,0,0-.22c1-.64,1.79-1.63,3.16-1.4.25.85-.56,1-1,1.38l-2.77,2C67.44,15.05,67.48,14.88,68.23,14.24Z" style="fill:#a9a8bb"/><path d="M75.52,13.49c1.3.89,1.28,1.92,0,2.68-.43.26-.73.39-1-.13s-1-1-1.27-1.79l.26-.22c.6.28,1.43-.19,1.84.66C75.67,14.26,75.15,13.83,75.52,13.49Z" style="fill:#9d9cb2"/><path d="M71.76,12.26c-.84-.2-1.34.45-2,.79a9,9,0,0,1-1.26.46l-1,0h0c-.09-.41.26-.46.49-.58a3.74,3.74,0,0,1,.59-.21c2.55-.92,2.58-1,2.38-3.6a.51.51,0,0,1,.1-.46c.19-.06.36-.05.43.18l.19.18a2,2,0,0,1,.5,2.71c-.2.11-.19.29-.18.47S71.88,12.35,71.76,12.26Z" style="fill:#58567b"/><path d="M87.32,7.71c.08,0,.18,0,.24,0,.91.57,1.34,1.75,2.53,2-.8.94-2,1.14-3,1.74-.07-.25-.34-.47.06-.74,1.51-1,1.54-1.32.39-2.71A3.45,3.45,0,0,1,87.32,7.71Z" style="fill:#c6c5d2"/><path d="M68.23,14.24c-.06.43-.7.72-.27,1.25A10.05,10.05,0,0,1,65.7,17C65.47,15.52,66.26,14.66,68.23,14.24Z" style="fill:#9f9fb4"/><path d="M79.28,42.15c-.47.53-.73,1.45-1.76,1-.35-.93-1.46-.82-2-1.48a2.48,2.48,0,0,1,1.78,0h.22c.39.29.89,0,1.28.24Z" style="fill:#c6c5d2"/><path d="M73,4.71c.48.06,1-.16,1.44.22a1.3,1.3,0,0,1,0,2.27c-.74-.1-.89-.75-1.19-1.27.46-.49,0-.7-.29-1Z" style="fill:#b3b2c3"/><path d="M76.75,11.47l.6.12C77,12.92,78.33,13.11,79,14c-.82-.29-1.35.5-2.35.17,1.16-.4.89-.75.28-1.24-.31-.25-.77-.56-.65-1.12Z" style="fill:#9897ae"/><path d="M19.23,41.86c-.75-1.45-1.5-2.9-2.27-4.34-.05-.1-.3-.09-.45-.13l.73-.53c.7.06.15.76.51,1a1.52,1.52,0,0,0,.75,1.25c.36.48.62,1,1,1.51v.25c.14.32.54.58.24,1H19.5C19.4,42,19.32,42,19.23,41.86Z" style="fill:#e7e7ec"/><path d="M75.52,13.49a1.27,1.27,0,0,0,.35.77c.21.31.21.68-.17.82s-.67.2-.7-.36-.4-.22-.64-.23-.77.09-.84-.46l.24-.29c.33-.15.53-.53.94-.55S75.32,13.2,75.52,13.49Z" style="fill:#8a89a3"/><path d="M38.09,55.68c-.05-.37.16-.87-.46-1s-1-.39-1-1,.77-.33,1-.74c1.21-.3,1,.48.88,1.18-.11.51.21,1.09-.21,1.56h-.17Z" style="fill:#a4a3b8"/><path d="M19.75,47.92c-1.12.11-1.12-.88-1.48-1.51-.09,0-.12-.11-.1-.17s0-.09.07-.09a1.67,1.67,0,0,1,1.5-.77h.9c-.24.34-.36.69-.55.74C18.61,46.49,19.24,47.21,19.75,47.92Z" style="fill:#c6c5d2"/><path d="M26,13.49v-1c.09-.11.17-.11.25,0A6.2,6.2,0,0,0,27.77,14c.17.33.62.52.54,1l-.95.33c-.09-.72-.11-1.48-1.07-1.58C26.06,13.8,26,13.72,26,13.49Z" style="fill:#d2d1db"/><path d="M20,8.48c-.56.1-.31,1-1,1-.26-.55-1.55-.8-.5-1.73.18-.17.34-.2.49,0Z" style="fill:#85849f"/><path d="M23.74,18.29c.72-.47,1.1.24,1.45.54s-.35.91-.15,1.43c-.52-.26-.65-.85-1-1.24C23.9,18.79,23.65,18.6,23.74,18.29Z" style="fill:#c3c3d0"/><path d="M79.79,5.2c0-.59.31-1.12.11-1.77a.77.77,0,0,1,.63-1,2.43,2.43,0,0,1,0,1.76Z" style="fill:#c8c8d4"/><path d="M30.29,17.51a2.41,2.41,0,0,1-1.49-.25c-.2-.71.3-.75.78-.8.11-.07.18,0,.21.09Z" style="fill:#9897ae"/><path d="M57.18,16a3.26,3.26,0,0,1-2.7,0c0-.27.23-.39.43-.52A8.42,8.42,0,0,0,57.18,16Z" style="fill:#706e8e"/><path d="M74.26,50.91a1.13,1.13,0,0,1-1.75-.73A1.73,1.73,0,0,1,74.26,50.91Z" style="fill:#b7b7c7"/><path d="M.4,5.91c.2.67.61,1.34.07,2C.2,7.3-.24,6.67.16,5.91A.15.15,0,0,1,.4,5.91Z" style="fill:#aeadbf"/><path d="M21.76,10.72a2.25,2.25,0,0,0-.24-1.27,3.35,3.35,0,0,1,1.26.77C22.69,10.9,22.17,10.69,21.76,10.72Z" style="fill:#aeadbf"/><path d="M68.24,79.76l1.24,1.06a1.85,1.85,0,0,0,0,.23C68.48,81.2,68.28,80.56,68.24,79.76Z" style="fill:#a2a1b6"/><path d="M73,5c.36,0,.78,0,.88.41s-.23.54-.59.56C73.22,5.61,73.13,5.29,73,5Z" style="fill:#9b9ab0"/><path d="M75.78,52.93c0,.18-.09.49-.35.23A1.81,1.81,0,0,1,75,51.67h.23c.31.26.33.68.53,1A1.07,1.07,0,0,0,75.78,52.93Z" style="fill:#cdccd8"/><path d="M75.52,55.19c0-.28,0-.59-.27-.78,0-.18.07-.44.34-.34s.16.4.2.61Z" style="fill:#c8c8d4"/><path d="M57,41.13v-.26c1.34.18,2.35-.61,3.38-1.24s1.54-.74,2.16.26c-.33,1.24.12,1.63,1.4,1.52,1.44-.13,2.9,0,4.35,0,.13,1.24,1.39,1.79,1.81,2.9.14.37.45.65.15,1-.45.5-.49-.14-.75-.28-.73-.4-1.36-.74-.77-1.75a1.18,1.18,0,0,0-1.32.35c-.31.53.39.47.62.7a.85.85,0,0,1,.13,1.14c-.33.43-.5-.1-.76-.23-.48-.25-.92-.31-1.2.39s-.8.73-1.27.08c0-.07-.05-.19-.11-.22-1.48-.84-.65-1.84-.16-2.77.25-.46.51-.88-.21-1-.22,0-1.17-.72-.93.58.1.52-.56.34-.84-.07-.42-.62-1-.67-1.12.06-.15,1.51-1.25,1.87-2.31,2.37h-.63c-.2,0-.46,0-.5.25s.22.42.47.48c.08,0,.2.05.25,0,1.18-.79,1.2.38,1.54.94.22.35,0,.55-.37.52-.16,0-.36-.18-.47-.13-1.5.64-2.58.53-3-1.34-.14-.55-.65.3-1.13.13a2.3,2.3,0,0,1,1-1,1.12,1.12,0,0,0,.83-1A1.58,1.58,0,0,1,58,42.33c.74-.55.32-.7-.31-.71C57.2,41.82,57.15,41.36,57,41.13Z" style="fill:#b3b2c3"/><path d="M76.75,47.92A13.33,13.33,0,0,1,74,47.76c.25-.58.5-1.1,1.32-.89.39.11.61-.34,1-.47.88-.45,2.11.15,2.82-.9,0,0,.63.24.68.44.13.53-.41.69-.74,1A2.89,2.89,0,0,1,76.75,47.92Z" style="fill:#9f9fb4"/><path d="M62.71,45.39l-.26.25c-1.53-.52-1.6-.76-.44-1.86C62.45,44.23,62.21,45,62.71,45.39Z" style="fill:#b3b2c3"/><path d="M64.89,47.2c.53-.33.89-.47,1.29-.28.06,0,.12.29.08.32C65.89,47.53,65.51,47.42,64.89,47.2Z" style="fill:#a9a8bb"/><path d="M38.59,53.92l-.22,0a.8.8,0,0,0-.78-1c-.75-.43-.74-1.31-.9-2-.73-2.77-4.18-3.54-6.13-2.32-1-.56-1.5-1.87-2.8-2.11-.26,0-.2-.41-.22-.65,1.17.14,2.34-.33,3.53,0,.56.16-.1-.76.49-.76h1.25c.18.44.55.38.9.36a4.72,4.72,0,0,1,1.24.85,7.32,7.32,0,0,1,2,2.6c.2.63,1,.83,1.6,1a.73.73,0,0,1,.29.15c0,.34,0,.67,0,1C38.3,52,38.73,53,38.59,53.92Z" style="fill:#bcbcca"/><path d="M38.09,35.1c.07.5-.18,1.06.24,1.51.18,2,.35,4,.52,6-.37.14-.56-.13-.77-.35a5.7,5.7,0,0,0-3.75-2.19c-.76-.13-1.31.1-1.25,1a.63.63,0,0,1-.28.54c-.62-.94.15-2.1-.48-3-.09-.59.21-1.23-.25-1.76,0-.5,0-1,0-1.5a2.71,2.71,0,0,0,2.75,0c1.46-.19,1.8.12,1.37,1.22,0,0-.13.09,0,.08s.09-.1.16-.14c.32-.19.63-.33.62-.81s.43-.63.88-.61Z" style="fill:#cacad6"/><path d="M29.56,27.07c.09-.63,1.21-.84.69-1.75-.07-.11.37-.26.6-.08a1.22,1.22,0,0,0,1.28.22c-1.58-1,.66-1.11.19-1.94.63.33.2.84.55,1.07s.39,0,.45-.29a12.71,12.71,0,0,1,1,1.19,1,1,0,0,1-.27,1.57.37.37,0,0,1-.55,0c-.41-.48-.76-.55-1.16,0s-.71.24-1.06,0A1.59,1.59,0,0,0,29.56,27.07Z" style="fill:#bab9c8"/><path d="M35.83,36.6c.09-.25.57-.31.37-.69-.29-.57-.84-.59-1.39-.58,1-.25,1.85-1.13,3-1,0,.25,0,.5,0,.75s-.85.12-.49.94-.65.49-1.08.61A.3.3,0,0,1,35.83,36.6Z" style="fill:#c1c0ce"/><path d="M31.31,27.06c.2,0,.54.14.58.07.7-1.26,1.44-.71,2.19-.07C33.14,28.13,32.23,28.13,31.31,27.06Z" style="fill:#ababbd"/><path d="M33.25,32.9c-.11.25-.25.53-.58.53s-.28-.18-.2-.37.14-.61.54-.56C33.18,32.52,33.27,32.69,33.25,32.9Z" style="fill:#83829d"/><path d="M46.14,48.37h-.27a2.69,2.69,0,0,1-1-.48,4.77,4.77,0,0,0-3.25-1.37,2,2,0,0,1-2.06-2c0-.68.17-1.25,1-1.4a6.83,6.83,0,0,1,2.12.63c2.81.9,5.44,2.9,8.65,1.56a.64.64,0,0,1,.8.15c.23.27.12.53,0,.8s-.46.66.13.87c.3.32.68.69-.15.74a2.31,2.31,0,0,1-1.55-.26c-.62-.42-.51.19-.57.51l-1,0C48,48.45,47.05,48.1,46.14,48.37Z" style="fill:#9d9cb2"/><path d="M52.16,47.15c-.34.14-.73.45-1,0s.36-.37.41-.64.66-.55.34-.95-.57.14-.85.19a7.61,7.61,0,0,1-4,0,18.78,18.78,0,0,0-3.77-1.27c-.9-.11-1.66-1-2.69-1.12-.19-.49.28-.53.5-.74l.52-.24,4.25,0c.39.66-.26.83-.57,1.19.44.26,1,.22,1.4.48a1.3,1.3,0,0,0,1.8-.17,1.24,1.24,0,0,1,1.39-.29,2.78,2.78,0,0,0,2.57-.42c1.5-1,2.09-.61,2.21,1.24-.66-.15-1.42-.47-1.17.77.07.32-.22.38-.45.49A1.56,1.56,0,0,0,52.16,47.15Z" style="fill:#a4a3b8"/><path d="M54.67,44.39c-.74-.23.06-1.64-1.09-1.47a4,4,0,0,0-1.7,1,1.47,1.47,0,0,1-1.54.08,1.6,1.6,0,0,0-2,.39,1,1,0,0,1-1.53.1c-.67-.54-1.56-.44-2.43-.75.42-.59,1.48-.44,1.45-1.36a1.5,1.5,0,0,1,0-.22l10-.28c.53,0,1-.07,1.11-.73l.73.49a.75.75,0,0,1-.54.74c-.59.2-1.21.27-1.12,1.26C56.06,44.08,55.3,44.42,54.67,44.39Z" style="fill:#9d9cb2"/><path d="M58.94,18.26h.12c1.07,0,2.51,1.15,2.92-.94,0-.05.31,0,.47-.06a10.12,10.12,0,0,0-.8,2.71c-.09,1.19-1.12-.14-1.55.47a1.16,1.16,0,0,0-.31-1.67c-.28-.23-.32,0-.35.25a.52.52,0,0,1-.75,0C58.84,18.79,59.22,18.64,58.94,18.26Z" style="fill:#9b9ab0"/><path d="M58.69,19h.75c0,.32.06.74-.45.71S58.5,19.38,58.69,19Z" style="fill:#85849f"/><path d="M9.21,81.56l1-.83c.3.93,0,1.37-1,1.32C9.19,81.89,9.2,81.73,9.21,81.56Z" style="fill:#9d9cb2"/><path d="M32.8,41.65a2.18,2.18,0,0,0,0-.25c0-1.69.63-2.29,2.13-1.64,1.24.54,2.7,1,3.4,2.37-1.64-.05-2.43,1-3,2.31-.49,1-.91,1.16-1.71.58a.39.39,0,0,1-.27-.13c0-.6-.6-.94-.73-1.49C33,42.86,32.72,42.23,32.8,41.65Z" style="fill:#bcbcca"/><path d="M33.32,44.89h.25a.54.54,0,0,1,0,.75c-.55.28-.72,0-.76-.5C33.09,45.26,33.33,45.33,33.32,44.89Z" style="fill:#c6c5d2"/><path d="M77.78,3.19A.59.59,0,0,1,78,2.67c.18.06.47.05.38.33S78,3.17,77.78,3.19Z" style="fill:#9f9fb4"/><path d="M76.53,4.46h.74C77,4.83,76.79,5.27,76.53,4.46Z" style="fill:#a7a6b9"/><path d="M28.81,23.78a.6.6,0,0,1,0-.75c.19,0,.43,0,.44.27S29,23.67,28.81,23.78Z" style="fill:#8c8ba5"/><path d="M70.56,8.44a.42.42,0,0,1,.45.22c.59.76.19,1.74.56,2.58.18.4-.35.5-.62.63-1.15.56-2.31,1.09-3.47,1.62a17.75,17.75,0,0,1-2.63,0c-1.07-.15-1.19-.59-.44-1.35.5-.51.18-.92-.06-1.33s-.49-.58-.11-1,.61,0,.87,0a2.9,2.9,0,0,0,2-.47A4.66,4.66,0,0,1,70.56,8.44Z" style="fill:#535178"/><path d="M64.72,14.51a5.32,5.32,0,0,1-1.89.48c-.33.07-.72.07-.91.33-1,1.23-2.16,1.23-3.5.74a3.91,3.91,0,0,0-1.24,0l.78-.58c.31-.22.5-1.16,1,0,.14.32.88-.07,1.23-.29a2.24,2.24,0,0,1,2-.38C63,14.94,63.83,14.34,64.72,14.51Z" style="fill:#706e8e"/><path d="M26,13.49l.26.25a5.66,5.66,0,0,1,.52,1.12c.13.51.2,1.18-.41,1.36-1.37.41-1.08,1-.36,1.79-.24,0-.63,0-.7-.15-.82-1.55-2.59-1.81-3.81-2.82a1.66,1.66,0,0,1-.77-1.55c0-.08,0-.16,0-.24l.51-.26c.34.24.18.73.5,1,.86-.49.53-1,0-1.47,1.42-.77,2.54,0,3.62.79A1.38,1.38,0,0,0,26,13.49Z" style="fill:#b7b7c7"/><path d="M2.67,6.46c-.1.12-.2.25-.31.37-.21.28-.48.53-.8.22a.77.77,0,0,1-.2-.67.57.57,0,0,1,.82-.28,3.43,3.43,0,0,1,.49.36Z" style="fill:#8c8ba5"/><path d="M76.75,47.92c.86-.12,1.36-1,2.28-1s1.21,1,2,1a1.85,1.85,0,0,0,0,.23l-4.25,0A1.55,1.55,0,0,0,76.75,47.92Z" style="fill:#b3b2c3"/><path d="M21.77,12.49c.43,0,1,0,.92.55s-.17,1.47-1.17,1.46a2.15,2.15,0,0,1,0-1.52Z" style="fill:#9393aa"/><path d="M21.5,13c0,.51,0,1,0,1.52-.47-.44-.17-1-.26-1.51Z" style="fill:#b0afc1"/><path d="M66.81,64.11a.44.44,0,0,1,.55-.48c.39,0,.87.17,1,.58s-.26.65-.56.68C67.29,64.94,67,64.59,66.81,64.11Z" style="fill:#ababbd"/><path d="M12.51,7.37l-.28.23c-.06-.08-.19-.2-.17-.23a.89.89,0,0,1,.33-.31C12.52,7,12.57,7.15,12.51,7.37Z" style="fill:#7c7a98"/><path d="M33.57,45.64v-.75c.8.51,1.34.19,1.48-.62.17-1,1.1-1.46,1.61-2.22.4-.59,1.11-.09,1.68.08a.8.8,0,0,0,.51.49l2.25,0c-.16.25-.33.49-.5.74-1,.12-.79.86-.73,1.44a1.55,1.55,0,0,0,1.68,1.37c2-.22,3.07,1.1,4.32,2.18-.92.17-1.88-.18-2.77.27-1.33.1-2.7-.22-4,.25H39l-.12,0h-.18A3.26,3.26,0,0,1,37,47.52c-.54-.69-1.07-1.55-2.2-1.12C34.24,46.42,34,45.82,33.57,45.64Z" style="fill:#a9a8bb"/><path d="M46.14,48.37c.9-.46,1.86-.12,2.79-.2a1.74,1.74,0,0,0,0,.22Z" style="fill:#a9a8bb"/><path d="M38.82,50.15l-.22,0c-.31-.49-.55-1,.22-1.27h0Z" style="fill:#a9a8bb"/><path d="M67.18,42.81c-.09.21-.25.16-.38.07s-.2-.17-.19-.26.19-.23.35-.18A.3.3,0,0,1,67.18,42.81Z" style="fill:#aeadbf"/><path d="M38.82,48.9c-.37.37-.18.84-.22,1.27-1.13-.12-2.07-.5-2.26-1.78a1.29,1.29,0,0,0-.71-1c-.41-.24-.78-.5-.81-1,.24-.59.42-.79,1.14-.33C37.14,46.83,37.58,48.25,38.82,48.9Z" style="fill:#9f9fb4"/><path d="M35.83,36.6l.46,0c0,.41,0,1-.48.85S35.73,36.9,35.83,36.6Z" style="fill:#8f8ea7"/></g></g></svg>