<svg xmlns="http://www.w3.org/2000/svg" viewBox="0 0 84.26 81"><g id="Ebene_2" data-name="Ebene 2"><g id="OBJECTS"><path d="M61.28,77.13l-.51.23c-1,1.13-2.43,1.11-3.65,1.66a11.86,11.86,0,0,1-3,.73,3.87,3.87,0,0,0-1.31.21,4.61,4.61,0,0,1-2.23.33c-.25-.15-.25-.41-.27-.66-.06-.65-.3-1.06-1.05-.79s-1,.18-1.18-.68-1.12-1-1.86-1.23a1.11,1.11,0,0,0-1.44.62c-.3.5-.65,1.07-1.38.81s-.49-1-.46-1.51c0-.11,0-.23.07-.34A2.05,2.05,0,0,1,44.06,75c.44-.17.92,0,1.36-.17a4.73,4.73,0,0,1,.8-.35,1.87,1.87,0,0,1,.34-.08,6.93,6.93,0,0,0,1.36-.17,1.94,1.94,0,0,1,.33-.07A5.7,5.7,0,0,0,49.41,74l.33-.07a5.49,5.49,0,0,0,1.14-.16,2,2,0,0,1,.33-.09,4.81,4.81,0,0,0,1.18-.27A44.34,44.34,0,0,0,57.15,72a19,19,0,0,0,4-1.87,1,1,0,0,1,.34,0l.22.08c.18,0,.3.26.53.17a.78.78,0,0,1-.29-.48,1.43,1.43,0,0,1,1.36-.72c.55.45,1.39.52,1.69,1.3a2.06,2.06,0,0,1,.08.74c-.08,1.54.23,1.77,1.8,1.27a1.13,1.13,0,0,1,.6-.09.83.83,0,0,1,.43.77,1.23,1.23,0,0,1-.17.52,5.46,5.46,0,0,1-2.34,1.56,5,5,0,0,0-1.78,1A4.54,4.54,0,0,1,61.28,77.13Z" style="fill:#9d9cb2"/><path d="M42.72,1.35c.29,0,.59,0,.8-.23a.89.89,0,0,1,1-.21c.54.14,0,1.18.71,1s-.15-.87.22-1.25a2.05,2.05,0,0,1,2-.3l.49,0A1.43,1.43,0,0,1,49,0a6.14,6.14,0,0,0,3,.09h3A5.28,5.28,0,0,0,57.77,0a1.23,1.23,0,0,1,1,.38l.27.18A1.78,1.78,0,0,1,61,.59a3.44,3.44,0,0,1,1,.92,3.74,3.74,0,0,1,.74,2,1,1,0,0,1-.29.9c-.27.28-1.18.12-.84.6.55.78.29,2,1.34,2.45a.79.79,0,0,0,1.13-1c-.3-1.18-.1-1.87,1-2.08A5.38,5.38,0,0,0,67.36,3c.55.06,1,.24,1,.88a2.53,2.53,0,0,0-.87,2.67c.19.62-.24,1-.71,1.32.11.43.73.21.81.65-.15.38-.48.41-.81.47-.48,0-1,0-1.45,0s-.78,0-1.17,0L63,8.94c-.94,0-1.61-.5-1.62-1.4A3.17,3.17,0,0,0,59.5,4.78c-1.67-1-3.13-2.2-4.85-3.05a3.3,3.3,0,0,0-1-.29c.29.25.92.08.84.67-.06.41-.3.87-.75.9-.68.05-1.25.43-1.91.5-1.61-.8-2.61.37-3.59,1.24a12.59,12.59,0,0,0-1.72,2.1,2.93,2.93,0,0,0-.35,1.63,1.22,1.22,0,0,1-.77.15A1.43,1.43,0,0,1,45,8.54c-.8-.52-1.7-.25-2.55-.29s-1.91,0-2.87,0S39,7.42,39,7c0-.9-.25-1.22-1.11-1-.65-.87-.64-1.43.11-2,1-.75,2.07-1.57,3.5-1.35a1.8,1.8,0,0,0,1.06-.33c.65-.31,0-.48-.1-.7S42.47,1.29,42.72,1.35Z" style="fill:#bab9c8"/><path d="M34,53.33l-.31.41a3.31,3.31,0,0,1-.49,1A2.48,2.48,0,0,1,33,55a8.66,8.66,0,0,0-1.15,1.34,1.41,1.41,0,0,1-.34.35,7.1,7.1,0,0,0-1.13.92,1.38,1.38,0,0,1-.28.19c-.52.25-1,.59-1.48.87a2.33,2.33,0,0,1-.33.14A1.74,1.74,0,0,1,27,59a8.29,8.29,0,0,1-.14-3.06,3.18,3.18,0,0,0-.56-2.34,1,1,0,0,1-.11-1.18A23.14,23.14,0,0,0,29.33,48a11.22,11.22,0,0,0,1.27-5.41,4.73,4.73,0,0,1,.23-2.58c.74-.07.6.53.64.91.07.7,0,1.41,0,2.12,0,.44,0,.86.64.82s.84-.1,1-.72a2.61,2.61,0,0,1,4.26-1.55,14.08,14.08,0,0,1-.63,6.44c-.09.32-.21.62-.32.92a14,14,0,0,0-.78,1.77,2.92,2.92,0,0,1-.31.61c-.63.37-.56,1.16-1,1.67C34.24,53.16,34.07,53.21,34,53.33Z" style="fill:#4e4d74"/><path d="M43.22,76.68a4.94,4.94,0,0,1-.07.87c-.06.31,0,.51.3.59s.57.11.75-.24.22-.56.39-.6c.49-.11.09-1,.69-.81s1.26-.14,1.76.37a2.47,2.47,0,0,0,1.09.59c.23.07.58.16.43.46-.78,1.58.17.75.74.58.28-.09.62-.43.91,0a1.57,1.57,0,0,1,.3,1.73.85.85,0,0,1-.67.34,4.72,4.72,0,0,0-1.3.15,1.72,1.72,0,0,1-.38.08,6.41,6.41,0,0,0-1.57.23,2,2,0,0,1-.43,0,35.39,35.39,0,0,0-7.42,0,1.32,1.32,0,0,1-.44,0,4.65,4.65,0,0,0-1.66-.16c-1.53-.22-3.1-.22-4.47-1.09a.45.45,0,0,0-.2,0,8.38,8.38,0,0,1-4.06-1.08c-.25-.79.76-.54.86-1a2.73,2.73,0,0,0,.1-.48c.14-.9.42-1.81-.33-2.61a.51.51,0,0,1,0-.78.77.77,0,0,1,.93-.15c1.54.92,3.37,1.09,5,1.87a4,4,0,0,1,1.32.85c-.06-.36-.32-.61,0-.85a1.57,1.57,0,0,1,.86,0c1.58.32,3.16.78,4.78.26a1.17,1.17,0,0,1,.33.11A2.49,2.49,0,0,0,43.22,76.68Z" style="fill:#9b9ab0"/><path d="M80.66,34.49c.16.34.33.67.5,1,.55.24.67.8,1,1.24.33.72.72,1.4,1,2.12a27.14,27.14,0,0,1,.8,2.66,18.91,18.91,0,0,1,0,6.71.27.27,0,0,1-.34.08c-.31-.57-.51-1.15-1.3-1.36a.71.71,0,0,1-.26-1.34c.65-.53.53-.92.15-1.57a7.54,7.54,0,0,0-1.64-2.31,1.1,1.1,0,0,1-.4-.76c-.15-2.57-2.07-3.47-4.07-4.25a1.93,1.93,0,0,1-1-.82c-.29-.46-.64-.76-1.23-.57A3.38,3.38,0,0,1,71.7,33.2c.07-.52.27-1,.85-1.05s.67.52.88.91.39.76.91.7a.56.56,0,0,0,.5-.62c-.34-1.68.89-2.41,1.91-3.27a1.07,1.07,0,0,1,1,.4A18.65,18.65,0,0,1,79,31.64a5.92,5.92,0,0,0,.83,1C80.16,33.26,80.82,33.69,80.66,34.49Z" style="fill:#a7a6b9"/><path d="M57.54,23.19H58A3.11,3.11,0,0,1,60.82,25c.63.36,1.69.36,1.83,1.12.23,1.34,1.11,2.14,1.85,3.13.62.83.25,1.37-.85,1.6a4,4,0,0,0-.59.18,14,14,0,0,1-3.66.86c-.74-1.72-.25-2.87,1.66-3.85-.61.08-1.07-.06-1.17-.7a1.07,1.07,0,0,0-1.18-1,.9.9,0,0,1-.85-.45c-.2-.48-.43.07-.61-.09a1.07,1.07,0,0,1-.31-.45,6.33,6.33,0,0,1-.36-.8c-.15-.44-.84-.84-.44-1.28S57.06,23,57.54,23.19Z" style="fill:#a9a8bb"/><path d="M19.61,68.42a15.67,15.67,0,0,1,3.61,1.87,14.28,14.28,0,0,0,3.93,1.84l.5,0c.25,0,.32.08.27.31-.58.5-1.09,1.16-2,.82-.38-.07-.76-.23-1.13,0-.49.63-1,.69-1.37-.08a.84.84,0,0,0-.78-.44c-.67-.23-1.37-.39-2-.68A2.31,2.31,0,0,1,19.61,68.42Z" style="fill:#ababbd"/><path d="M57.54,23.19H56.25c.37.72.7,1.37,1,2A7.44,7.44,0,0,0,55,26a1.09,1.09,0,0,1-1.54-.37,1.27,1.27,0,0,0-1.85-.36,2.13,2.13,0,0,1-1.81.11c-.5-.69-1.37-1-1.88-1.64,0-.21,0-.34.29-.27H50c.48.33.9-.18,1.37-.1a9.43,9.43,0,0,0,2.7-.28,1.44,1.44,0,0,1,1.2.1C56,23.09,56.79,22.64,57.54,23.19Z" style="fill:#d2d1db"/><path d="M46,24.2c.1-.2.3-.23.5-.26h.25A.76.76,0,0,1,48,23.69c.64.45,1.77.31,1.76,1.51-1.41.25-.86,1.45-1.1,2.27a.78.78,0,0,1-.41.33.51.51,0,0,1-.34-.08C47.18,26.59,46.77,25.29,46,24.2Z" style="fill:#c3c3d0"/><path d="M1.53,30.73c.33-.58.24-1.41,1-1.75,1.58,1.49,1.23,3.16-.82,3.83a.45.45,0,0,1-.54-.18c0-.31-.12-.62.11-.9Z" style="fill:#a2a1b6"/><path d="M66.61,66.47l1-.84c.71-.42,1.15-1.13,1.81-1.61a1.25,1.25,0,0,1,1.09-.12,1.46,1.46,0,0,0,2-1,1.45,1.45,0,0,1,1.52-1c1,0,.94-.88,1.21-1.5.2-.46,0-1.32.94-1.12A3,3,0,0,1,75.05,63a4.92,4.92,0,0,0-2.49,3.35c-.11.46,0,.57.31.75a4.77,4.77,0,0,1,1.08.61c.06.19.06.36-.15.45l-.7.74a2.19,2.19,0,0,1-1,1l-.22.21a5.09,5.09,0,0,1-1,.8h0c-.35.24-.65.55-1,.76a3.1,3.1,0,0,0-1,.94c-.3.23-.48.69-1,.56l-.24-.74c-.56-.33-1.48.64-1.81-.5,1.09-.16,1-1,1-1.77,1.18-.51,1.28-.46,1.4.71,0,.31-.06.68.34,1,.69-.76.12-1.38-.23-2s-1.15-1-1.12-1.6A4.64,4.64,0,0,0,66.61,66.47Z" style="fill:#a9a8bb"/><path d="M38.43,74.69c.9.45,1.85.17,2.78.24h2.26l2,0c-.45.43-1,.16-1.51.24a5,5,0,0,1-2.25.75,1.59,1.59,0,0,0-.62,0c-1.91.89-3.64-.07-5.41-.52l-.15-.09c-.4-.54-.94-.22-1.43-.25a.93.93,0,0,1-.33-.12.91.91,0,0,1-.46-.91,1.71,1.71,0,0,1,.11-.14c1.19,0,2.28.6,3.48.51.39.28.9,0,1.29.24A.44.44,0,0,0,38.43,74.69Z" style="fill:#a4a3b8"/><path d="M66.83,70.16c.49.4-.25,1.3.92,1.48a4.07,4.07,0,0,1-1.92.28c-.61.29-.79-.08-.87-.58,0-.31.09-.64-.14-.93-.23-.74-1.42-.34-1.5-1.26l1.25-1,.48-.07a1.65,1.65,0,0,0,.44.22C67.06,68.54,67.06,68.54,66.83,70.16Z" style="fill:#aeadbf"/><path d="M64.82,70.41c.51.39-.06,1.5,1,1.51.44.67,1.27,0,1.76.5a2.85,2.85,0,0,1-.86.45,3.59,3.59,0,0,1-1.84-.06c-1.06-.4,0-.93-.06-1.4A4.76,4.76,0,0,1,64.82,70.41Z" style="fill:#a4a3b8"/><path d="M41.72,75.94A3.13,3.13,0,0,1,44,75.19c0,.55-.78.67-.76,1.25A1.38,1.38,0,0,1,41.73,76Z" style="fill:#9b9ab0"/><path d="M41.73,76l1.48.49c0,.08,0,.16,0,.24C42.42,77.05,41.93,76.79,41.73,76Z" style="fill:#807f9b"/><path d="M61.54,70.14c.1-.25.34-.19.53-.23l1.15.65C62.36,70.68,61.87,70.79,61.54,70.14Z" style="fill:#83829d"/><path d="M47.49,8.62l-.1,0h-.11c-.3-.25-.74.05-1-.26s-.73-.3-.32-1a10.62,10.62,0,0,1,4-4.15c.63-.36,1.31-.66,1.85.18a1.2,1.2,0,0,1,.89,1,1.6,1.6,0,0,0,.28.35c.12.1.25.19.36.3a1,1,0,0,1,.17.27,5.56,5.56,0,0,0,.68,1.46,1.75,1.75,0,0,1,.12.32c.13,1,1.08,1.44,1.46,2.26l.28.2a6.84,6.84,0,0,0,3.31,1.08c0,.61-.44.9-.76,1.3-2.75-.8-5.4-1.87-8.18-2.56-.54-.14-1.18,0-1.64-.45S47.85,8.93,47.49,8.62Z" style="fill:#a4a3b8"/><path d="M59.3,10.64a3.82,3.82,0,0,1-3.52-1,.6.6,0,0,1,.49-.19c.38,0,.7.27,1.08.33a2.79,2.79,0,0,0,2.89-2.86.94.94,0,0,0-.73-.78,1.69,1.69,0,0,1-1-.44c-.45-.31-.67,0-.85.33s-.24.79-.73.65-.39-.58-.42-.94a.7.7,0,0,0-.1-.38c-.79-.23-.78,1.06-1.56.87A.76.76,0,0,1,54.63,5a2.23,2.23,0,0,0,.51-1.76c-.25.74-.75,1.29-1.68.94-.49-.19-.66.2-.94.39-.36-.36-.23-1-.76-1.26.64-.11,1-.87,1.87-.56.39.15.38-.55.66-.78-.13-.26-.36-.13-.54-.16s-.69.12-.89-.27c0-.08,0-.3.06-.33a1.22,1.22,0,0,1,1.15-.11,22.24,22.24,0,0,1,3.82,2.27c1,.72,2.18,1.1,3,2.12.31.39.66.61.69,1.17.09,1.91.15,1.94,2.46,1.92l2,2.53a2.86,2.86,0,0,1,0,2.24l-1,1-.49,0c0-1.63-.93-2.89-1.66-4.22a1.09,1.09,0,0,0-1.76-.44A4.88,4.88,0,0,1,59.3,10.64Z" style="fill:#b3b2c3"/><path d="M36.69,1.85A44.51,44.51,0,0,0,42,1.6h.48c.37.07.92-.18,1,.47s-.47.4-.75.57a2.43,2.43,0,0,1-1.7.31c-1.28-.14-2.16.91-3.13,1.58-.34.24-.31.91.09,1.34s.08,1-.16,1.48c-.86.16-1.12-.36-1.22-1a.78.78,0,0,1,.11-.18.3.3,0,0,1-.22,0,1.33,1.33,0,0,1-.35-.52c-.71-1.31-1.37-1.56-2.74-1-.57.22-1.15.67-1.65-.09s0-1.16.46-1.59l3-.8c.39-.3.9,0,1.29-.25A.41.41,0,0,0,36.69,1.85Z" style="fill:#b5b4c5"/><path d="M66.84,2.85a.56.56,0,0,1,.5.25c-.47.73-.72,1.59-2,1.35-.8-.14-1.36,1.11-1,1.86.2.37.3.73,0,1s-.81.73-1.18.55S62,7.54,61.84,6.78c-.05-.33,0-.79-.13-1-1-.95-1.3-1.58.53-1.61.25,0,.23-.35.2-.62a8,8,0,0,0-.63-2,.37.37,0,0,1,.46.06c1.12,1.71,2.73,1.4,4.35,1.1C66.7,2.73,66.77,2.78,66.84,2.85Z" style="fill:#c3c3d0"/><path d="M68.34,3.85c1.94,1.71,1.6,3.7-.75,4.52-.21,0-.42,0-.62,0s-.74.12-.82-.34.28-.5.55-.57c.66-.18.66-.55.51-1.13C66.93,5.23,67,4.25,68.34,3.85Z" style="fill:#a7a6b9"/><path d="M66.84,2.85a2.51,2.51,0,0,1-3,.16c-.49-.31-.71.38-1.2.18-.12-.58-.08-1.31-.84-1.6a1.68,1.68,0,0,1-.76-.73C63.06,1.29,65.1,1.62,66.84,2.85Z" style="fill:#cdccd8"/><path d="M37.7,7.37A4.56,4.56,0,0,1,38,5.86c1.33-.64,1.39-.61,1.27.84,0,.47.39.94,0,1.4l-1,0C37.38,8.33,37.45,7.91,37.7,7.37Z" style="fill:#b0afc1"/><path d="M44.72,1.07c.2-.29.49-.22.77-.2a.39.39,0,0,0,.06.11c.36.39.59.81.19,1.31s-.72-.08-1-.19C43.78,1.77,45,1.43,44.72,1.07Z" style="fill:#b0afc1"/><path d="M30.9,40c-.76-1.6-1.36-3.3-2.72-4.54-.28-.73.33-.73.72-.81,1.7-.35,3.46-.2,5.18-.48a1.38,1.38,0,0,1,1.29.61l1.53,3.49a12.18,12.18,0,0,1,.28,3.24c-1.3-.16-2.62-.43-3.58.88-.16.22-.28.35-.2.63.32,1.11-.22,1.33-1.19,1.18a3.47,3.47,0,0,0-.95.11C30.91,42.9,31.55,41.41,30.9,40Z" style="fill:#494870"/><path d="M24.65,53.35l1.73-.81c0,.08-.09.19-.06.23,1.5,1.87.6,4.09.9,6.13,0,.33-.31.34-.54.41s-.64-.12-.55-.34c.5-1.29-.73-1.9-1-2.86S24.1,54.38,24.65,53.35Z" style="fill:#5f5e81"/><path d="M27.9,72.42l2.77.8a4.93,4.93,0,0,0,2.19.61c.42.31.54.9,1.07,1.1h0c.32.28.63.06.91,0,.57-.21.69.17.85.55a1.93,1.93,0,0,0,.11.34c.18.28,1,.15.65.66s-.74,0-1.13-.21a15.42,15.42,0,0,0-4.44-1.65c-.43-.07-1,0-1.27-.59a.54.54,0,0,0-.93-.13c-.35.35.12.46.3.64.81.86.24,1.8.17,2.72a.86.86,0,0,1-.75.15c.22.28.55.14.75.31,0,.85-.91.29-1.22.69-.39.15-.66-.22-1-.22-1.68-1-1.8-2.54-1.42-4.23a1.36,1.36,0,0,1,.4-1c.42.21.86.41,1.18-.13A.84.84,0,0,1,27.9,72.42Z" style="fill:#9695ac"/><path d="M29.15,77.68c-.19.07-.43.25-.56.19-.32-.16-1,0-.86-.63s.6-.12.93-.09l.49.07Z" style="fill:#706e8e"/><path d="M66.8,31a16.11,16.11,0,0,0-3.73-.29,2.46,2.46,0,0,1,.42-.23c.33-.11.91.18.94-.31A1.41,1.41,0,0,0,64,28.83c-.8-.51-1.68-.8-1.3-2.16.12-.45-.7-1.31-1.62-1.18-.3.05-.49.07-.5-.29l.75-.25c.48-.25,1-.06,1.49-.12.77.12.84.67.83,1.37a5.33,5.33,0,0,1,2.17-1.36.66.66,0,0,1,.34.06c1.17,0,1.42,1.4,2.36,1.59,1.86.37,1.86,1.73,1.92,3.13a.7.7,0,0,0,0,.25c.14.31-.12,1,.35.9.68-.11,0-.57,0-.88.09-.57.12-1.28.73-1.48s1,.37,1.22.86c.77,1.38,1.47,1.47,2.63.31a1,1,0,0,1,1-.3c.27.15.58.28.5.69-.34.43-.52.94-1.17,1.15s-.66.93-.51,1.6a1.16,1.16,0,0,1-.78,1.47c-.63.16-1.08-.3-1.29-.92-.11-.34-.12-.85-.53-.9s-.53.54-.76.86a16.59,16.59,0,0,0-4.3-2C67.53,30.49,67.08,31,66.8,31Z" style="fill:#aeadbf"/><path d="M75.33,37.28a.51.51,0,0,1-.23-.48,2.77,2.77,0,0,0-1.24-1.55h0c.39-.75.88-.45,1.12,0,.6,1.19,2,1.11,2.78,1.8,1.13.93,2.9,1.48,2.65,3.51a.92.92,0,0,0,.18.7,14.72,14.72,0,0,1,2.09,2.82c.55.78.42,1.15-.21,1.61-.22.16-.6.17-.51.58a.67.67,0,0,0,.76.51c.93,0,1,.58.93,1.27a8.15,8.15,0,0,0-1,1.16,1.64,1.64,0,0,1-1.44.84A3.2,3.2,0,0,0,79,51.21c-1,.94-1,1.42-.25,2.7.14.24.37.47.12.78-1.07.39-1.66-.34-2.3-1,.12-1.14-.28-2.43.9-3.27.5-.35-.12-.44-.12-.67.29-.78,1.1-.59,1.65-.87s1.62-.27,1.69-1.06a2.43,2.43,0,0,0-1.19-2.06c-.36-.25-.83-.42-.89-1,.36-.42.77-.15,1.16-.08s.69,0,.84-.35a.61.61,0,0,0-.25-.77,1.46,1.46,0,0,1-.75-1.09c-.07-.53-.5-.28-.8-.29-.81,0-.91-.42-.59-1.08s1-1,.42-1.65a2.83,2.83,0,0,0-2-1.05c-.25,0-.5,0-.69-.21h0C75.65,38,76,37.36,75.33,37.28Z" style="fill:#9f9fb4"/><path d="M78.89,54.59c-1.68-2.13-1.59-2.69.67-4.24a2.09,2.09,0,0,1,1.77-.56c.6.13,1-.39,1.23-.88a1.19,1.19,0,0,1,1.09-.84l0,.28c-.11,1-.23,2-.35,2.95l-.69,2.49c-.21.42-.22.93-.56,1.29a.49.49,0,0,0-.18.49,4.22,4.22,0,0,1-.81,1.52H81l-.1,0C79.38,57,78.76,56.24,78.89,54.59Z" style="fill:#9897ae"/><path d="M19.61,68.42c-.05.29-.1.57-.17.85a2,2,0,0,0,1.49,2.63,5.05,5.05,0,0,1,1.94.78,3,3,0,0,1,1.24,1.6,11.91,11.91,0,0,0,2.07,3.13.36.36,0,0,1,0,.46,16.59,16.59,0,0,1-6.55-3.21c-.11-.4-.27-.74-.76-.73-2-1-2.88-3-2-4.79a2.15,2.15,0,0,1,.77-.73A1.88,1.88,0,0,1,19.61,68.42Z" style="fill:#bebecc"/><path d="M9.57,69.17c-.35-.82-1.29-1.58-.26-2.53a2.45,2.45,0,0,0,1.11,0,10,10,0,0,1,3.92-.26h.22a3.12,3.12,0,0,1,0,2.25.52.52,0,0,0-.24.5,2.65,2.65,0,0,1-1,1c-1,.43-2.08.73-3-.24A2.67,2.67,0,0,1,9.57,69.17Z" style="fill:#c6c5d2"/><path d="M14.34,66.39c0,.35-.24.62-.57.44-1.29-.72-2.48.07-3.67.27-.61.11-.72,0-.79-.46-.22-.79.24-1.28.76-1.75s1.2-.89,2-.5h0a3.38,3.38,0,0,1,1.26.78C13.7,65.55,14.34,65.7,14.34,66.39Z" style="fill:#b3b2c3"/><path d="M26.17,77.87c-.1-.19-.14-.43-.29-.54-1.58-1.18-2-3.12-3-4.65.37-.38.63-.31.74.21.3,1.36.66.53,1,0,.34.34.69.65,1,1,.07.09.23.23.21.28-.75,1.61.19,2.77,1.06,3.94Z" style="fill:#a4a3b8"/><path d="M18.86,73.93a.47.47,0,0,1,.72-.11c.38.26.19.55,0,.84A1.36,1.36,0,0,1,18.86,73.93Z" style="fill:#9f9fb4"/><path d="M37.7,7.37c0,.38,0,.73.52.76,0,.08,0,.16,0,.23H38c-.47.31-1.06-.06-1.53.25-.43,0-.79.39-1.24.21A7.86,7.86,0,0,0,33.81,6.5a1.44,1.44,0,0,0-1.91-.23C30,7.33,29.81,8,30.4,10.34a23.54,23.54,0,0,0-4,1.78.28.28,0,0,1-.3.11c-.92-.41-1.8.09-2.7.09a1.07,1.07,0,0,1-.35-.06c-.21-.11-.44-.21-.49-.48.84-.73,1.45-1.8.73-2.64-1-1.19-.07-1.69.44-2.37.35-.49.78-.44,1.12.16-.12-.48-.29-.92.06-1.32l.25-.25a43.71,43.71,0,0,1,7-2.46,1,1,0,0,1-.31.77c-.31.32,0,.61.18.87s.42.14.65,0c2.51-1,3-.8,4,1.52h0C36.75,6.75,37.23,7.06,37.7,7.37Z" style="fill:#bab9c8"/><path d="M15.6,31.2a13.94,13.94,0,0,0-3.5.82.63.63,0,0,1-.2-.28,1.79,1.79,0,0,1,0-1.78c.26-.41-.75-2.31-1.25-2.41-.68-.13-1-.43-.83-1.11,0-.17,0,0,0-.13s0-.59-.31-.59c-1.49,0-.71-2.89-2.74-2.17a1.89,1.89,0,0,1-1.14-1.09.74.74,0,0,1,.15-.52,6.51,6.51,0,0,1,1.8-2.42c.66.07,1.1.57,1.66.84.21.1.41.38.65.19a.61.61,0,0,0,.1-.7c-.38-1.29-.38-1.29,1-1.11-.05-1.37,0-1.43,1.36-1.11a2.45,2.45,0,0,0,2.56-1.15c.15-.3.32-.52.64-.51.75,0,.83-.54,1-1.05.24-.17.44,0,.64.09.57.43.29,1.32.93,1.71a1,1,0,0,1,.31.39c.09.27-.1.41-.27.56l-.55.73a2,2,0,0,0-1.22.79c-.64.38-1.44.45-1.79,1.37-.25.63-1.07.24-1.58.1-.9-.24-1.1,0-1,.89.16,1.31-.49,2.48-.69,3.74,0,.11,0,.22,0,.33.52.5,1.26.8,1.35,1.65a.37.37,0,0,0,.48.3c1-.19,1.15.34.79,1.19,1.41-.33,2-.13,2.29.76C16.46,30.21,16.59,30.94,15.6,31.2Z" style="fill:#a4a3b8"/><path d="M12.08,31.73V32a1,1,0,0,1-.76.48,3.24,3.24,0,0,0-3.62-.94,14.29,14.29,0,0,1-2.44.51A2.29,2.29,0,0,0,3,34.67a7.42,7.42,0,0,1-.57,2.16c-.31.4-.5,1-1.22.67-.15-1.6.07-3.19.06-4.78h0c.73-.47,1.7-.63,2.12-1.52-.14-.4-1,.09-.69-.23.68-.82,0-1.34-.14-2v-.51c.12-.14.18-.32.33-.42a12.56,12.56,0,0,1,4.46-1.63c1.46.09,1.53.21,1,1.54A1.83,1.83,0,0,0,9.7,30.38,3,3,0,0,1,12.08,31.73Z" style="fill:#9b9ab0"/><path d="M16.6,14.92c.18.8.35,1.58-1,1.3-.28-.06-.6.05-.5.35.38,1.21-.83,1.2-1.22,1.2-.68,0-1.53.9-2.13-.19-.08-.14-.33-.1-.42.06a1,1,0,0,0-.2.57c0,.31.93.38.24.92-.52.4-.83-.13-1.23-.26a6.86,6.86,0,0,0-.68-.1A1.62,1.62,0,0,1,10,21.28c-.7-.74-1.81-.9-2.45-1.76l0-.1c.37-.55.92-.94,1.27-1.5l.5-.52c.37-.55.91-.94,1.27-1.5a17,17,0,0,1,2.24-2.25c.48-.22.71-.79,1.27-.89a9.25,9.25,0,0,0,2.28,1.69A.74.74,0,0,1,16.6,14.92Z" style="fill:#9d9cb2"/><path d="M25.12,5.58c-.47.67.1,1.42-.07,2.13-.44-.14-.37-.47-.44-.73s-.43-.46-.53-.23c-.24.57-.8.83-1.06,1.35-.07.16-.09.42.07.41.8-.06.5.43.64.89a1.82,1.82,0,0,1-1.1,2.49c-.1.34-.39.46-.67.6a6.65,6.65,0,0,1-3.73,1.37,1.52,1.52,0,0,1-.51-.25,1.16,1.16,0,0,1-.5-1c.21-.56.66-.58,1-.23.66.71,1.14.28,1.54-.21a5.59,5.59,0,0,1,1.61-1.34c-.58,0-.89.29-1.24.2-.58-.14-1.07-.35-.75-1.1s.2-1.34.76-1.82l3.52-2.06C24.12,5.9,24.5,5.38,25.12,5.58Z" style="fill:#c1c0ce"/><path d="M7.31,26.71c-1.61.2-3,1-4.5,1.51-.12-.38.1-.69.24-1a13.54,13.54,0,0,1,1.49-3c.61-.46.75-1.24,1.23-1.79l1,1.05c1.35.17,1.72,1.31,2.19,2.3.18.39,0,.83-.6.85C8,26.6,7.65,26.47,7.31,26.71Z" style="fill:#ababbd"/><path d="M20.12,8.15c-.1.57-.2,1.14-.31,1.7,0,.27-.61.46-.11.81a.74.74,0,0,0,1,0c.27-.25.56-.63.89-.13s-.25.89-.5.91c-1,.11-.94,1.42-1.91,1.6-.44.08-.82.7-1-.28-.08-.43-.52-.49-.86-.09-.6.16-1.15-.34-1.76-.16-.34-.05-.7-.08-.74-.54A35.93,35.93,0,0,1,20.12,8.15Z" style="fill:#cacad6"/><path d="M14.84,12l.75.43.11.11a2.16,2.16,0,0,0,.44,1,1.27,1.27,0,0,1,.18.27c.12.3.31.61,0,.93-.9-.43-1.93-.68-2.3-1.79-.09-.26.14-.34.27-.48A.75.75,0,0,1,14.84,12Z" style="fill:#b3b2c3"/><path d="M78.89,54.59a2.87,2.87,0,0,0,2,2.52,12.1,12.1,0,0,1-1.5,2.76c-.93-.32-1.2-1.56-2.29-1.66a2.28,2.28,0,0,1-.58-.62c-1.07-.33-1.41-1.41-2.13-2.1-.49-.44-.91-.92-.66-1.65a1,1,0,0,1,.59-.48,13.26,13.26,0,0,1,1.89-.15c.22,0,.29.22.42.35C77.34,54,77.92,54.72,78.89,54.59Z" style="fill:#dbdbe3"/><path d="M73.92,67.67c-1,.21-1.43-.67-2.47-.92A1.64,1.64,0,0,0,72.64,65a1.58,1.58,0,0,1,1.15-1.48,4.89,4.89,0,0,0,1.67-1.17c.67-.78.54-1.94.67-3a.59.59,0,0,1,.46-.64c.78-.21,2.38,1.3,2.31,2.17l-.55,1.23c-1.41.33-2,1.69-3.16,2.44.28.43,1,0,1,.53-.21.8-.94,1.18-1.39,1.79l-.21.23C74.44,67.37,74.35,67.73,73.92,67.67Z" style="fill:#9d9cb2"/><path d="M78.9,60.89c0-.54-.12-1-.78-1a.9.9,0,0,1-.76-.53c-.42-.75-.83-.4-1.23,0-.91.34-.65,1.29-.81,1.9a1.2,1.2,0,0,1-1.41,1c-.61-.07-.75,0-1,.58-.46,1-1,2.08-2.52,1.29-.26-.14-.66,0-1,0-.1,0-.13-.1-.11-.16s0-.1.08-.1l.5-.52c.3-.44.72-.78,1-1.24l1.31-1.72c.07,0,.15-.11.22-.1,2.07.13,2.9-1.44,3.87-2.81.17-.24.36-.33.61-.13.09.24.18.49.28.73a12.57,12.57,0,0,0,1.49,1.22c.35.23.78.52.53,1.08Z" style="fill:#b0afc1"/><path d="M76.12,65.11c-.38-.61-1,.81-1.28-.13-.2-.71.53-1,1-1.28a4.4,4.4,0,0,0,.81-.93c.46-.54,1-.94,1.73-.65l-2,3C76.29,65.21,76.2,65.22,76.12,65.11Z" style="fill:#a4a3b8"/><path d="M79.17,60.39a1.1,1.1,0,0,0-.92-1c-.74-.13-1-.67-1.1-1.29,1.37-.2,1.59,1.08,2.25,1.78C79.32,60.05,79.25,60.22,79.17,60.39Z" style="fill:#cacad6"/><path d="M11.83,50.82l.05.67c.15.55-.42.64-.61,1-.36.6-1,1.13-.17,1.89.35.31.16.77-.19,1.09-.87.23-1.44,1-2.31,1.28a8,8,0,0,1-2-1.39l-.24-.24a2.1,2.1,0,0,1-.76-.75c-.16-.17-.32-.33-.47-.5a8.66,8.66,0,0,1-1.41-2A1.08,1.08,0,0,1,3.79,51a2.12,2.12,0,0,0-.06-2.07,2.29,2.29,0,0,1,.09-2.78.69.69,0,0,0,.35-1A.74.74,0,0,1,5,44.63a1.62,1.62,0,0,1,.83.35c.3.62-.1,1-.46,1.42-1.09,1.26-.94,2.14.51,2.82.65.32,1.28.63,1.5,1.39s.72.41,1.15.44c.89.08,1.79.78,2.65-.08C11.38,50.84,11.58,50.69,11.83,50.82Z" style="fill:#5a597d"/><path d="M16.61,54.08a.49.49,0,0,1,.24,0c.11.12.27.22.31.38.25,1.17.6,1.36,1.78.93a23.67,23.67,0,0,1,2.43-1l2.54-.73A1.14,1.14,0,0,1,24.28,55c-.27.42-.87.34-1.16.73s-.52,1-1.14,1.19a7.17,7.17,0,0,0-1.13.17l-.33.08a2.36,2.36,0,0,1-2.38.07c-.56-.37-.85,0-1.06.44a2.25,2.25,0,0,0,0,1.93c.36.84.07,1-.7.74a8.79,8.79,0,0,1-3.73-1.12c.17-.55.66-.4,1-.44A3.26,3.26,0,0,0,15,58.43c.73-.45.72-.87,0-1.28a2.68,2.68,0,0,0-1.58-.28,5,5,0,0,1-1.49,0,1,1,0,0,1-.31-.16c-.18-.34.12-.51.26-.74l.11-.13a1.79,1.79,0,0,1,.25-.23c.69-.87,1.76-.91,2.69-1.23a1.22,1.22,0,0,1,.29-.17C15.64,54,16.15,54.38,16.61,54.08Z" style="fill:#b0afc1"/><path d="M5,44.79a.77.77,0,0,0-.75.51c-1.2.57-2.3.05-3.42-.32-.42-.4-.39-1-.59-1.46a.51.51,0,0,0,0-.24,3.73,3.73,0,0,1-.09-1.2,2.68,2.68,0,0,1,.12-1.16A5.41,5.41,0,0,0,.46,39a1.64,1.64,0,0,1,.84-1.49c.54,0,.54-.67,1-.81,1.16-1.88,3.57-1.81,5.23-1.56.25,0,.6.12.53.54a.18.18,0,0,1-.17.05,3.7,3.7,0,0,1-1.93.43,4.32,4.32,0,0,0-4.07,3.88c-.24,2.14-.24,2.14,1.94,2.71C5.17,43.15,5.36,43.45,5,44.79Z" style="fill:#535178"/><path d="M11.58,56.6c1.17.16,2.38-.39,3.53.25.41.23.87.43.89.94s-.52.66-.87.94c-.76.59-1.71.19-2.51.52a2.79,2.79,0,0,1-1.3-.64c-.28-.3-.8-.32-.93-.8A1.16,1.16,0,0,1,11.58,56.6Z" style="fill:#a2a1b6"/><path d="M4,46.29a2,2,0,0,0,0,2.59,1.88,1.88,0,0,1,0,2.39,3.85,3.85,0,0,0-.2.57c-.09.11-.17.1-.24,0h0a1.13,1.13,0,0,1-.21-.49,4.86,4.86,0,0,0-.28-2.44c-.21-.58-.53-.54-1-.45a.42.42,0,0,1-.29-.17v0c-.25-.38-.29-.86-.52-1.25a2.18,2.18,0,0,1-.43-1.52c1-.1,1.93.06,2.91,0C4.4,45.51,4.24,45.93,4,46.29Z" style="fill:#9393aa"/><path d="M2,48.32c.69-.49,1.18-.9,1.35.5.1.85.6,1.65.16,2.54-.52,0-.44-.57-.73-.79l-.25-.5C2.42,49.47,1.82,49,2,48.32Z" style="fill:#9f9fb4"/><path d="M4,46.29c.07-.51-.13-.63-.62-.51a3.9,3.9,0,0,1-2.56-.25l-.08-.24a.32.32,0,0,1,0-.51,25.26,25.26,0,0,0,3.47.52C4.92,45.81,4.49,46.05,4,46.29Z" style="fill:#83829d"/><path d="M11.58,56.6c-.36.41-1,.59-1,1.29a.38.38,0,0,1-.49,0c-.39-.32-1-.32-1.22-.91.17-.5.66-.48,1.05-.62a2.76,2.76,0,0,1,.57-.06,1.4,1.4,0,0,1,1.11.32Z" style="fill:#b0afc1"/><path d="M9.8,56.58l-1,.38-.29-.11c-.09-.06-.11-.11-.08-.17s0-.08.08-.08c.74-.45,1.22-1.35,2.26-1.26a.19.19,0,0,1,.3,0,.53.53,0,0,1,0,.35C10.81,56.16,10.26,56.31,9.8,56.58Z" style="fill:#6b6a8a"/><path d="M59.3,31.71l-1.2.55c-1.07-.12-1.18-.44-.44-1.6-.93.64-.54,2.38-2.11,2.15-.56-.53-1.12-1.05-1.68,0a1.91,1.91,0,0,1-2-1.4c0-.28.12-.55.38-.58,1.22-.16.81-1,.72-1.7-.12-1-.82-.88-1.51-.79a1.08,1.08,0,0,1-.5-.06.65.65,0,0,1-.31-.47c0-.55.51-.58.88-.74,1.44-.64,3.05-.82,4.47-1.55a1.19,1.19,0,0,1,1.3.18c.33-.15.18-.53.37-.77.3.51.34,1.22,1.33,1a1,1,0,0,1,1.18,1.25c-.14.65.33.68.85.37a.46.46,0,0,1,.73.22.5.5,0,0,1-.42.65,2.26,2.26,0,0,0-1.87,3C59.46,31.48,59.35,31.6,59.3,31.71Z" style="fill:#9f9fb4"/><path d="M57.28,25.7c-1.88-.08-3.42,1-5.13,1.56-.45.14-1.26-.14-1.42.69a1.54,1.54,0,0,1-2.23-.48,1.82,1.82,0,0,0,.07-.72c-.46-1.35-.4-1.44,1.18-1.55.75-.07,1.48.15,2.19-.55.37-.37,1.28.07,1.62.65a1,1,0,0,0,1.66.3c.63-1.06,1.38-.37,2.07-.4C57.29,25.37,57.28,25.53,57.28,25.7Z" style="fill:#cacad6"/><path d="M30.4,10.34c-.62-.26-.68-.63-.63-1.33a2.73,2.73,0,0,1,1.52-2.74,2.5,2.5,0,0,1,3.88,1.81,4.68,4.68,0,0,1,0,.75Z" style="fill:#b3b2c3"/><path d="M24.86,12.89a46.29,46.29,0,0,0-4.25,3,.42.42,0,0,1-.52.13A2.51,2.51,0,0,1,21,13.22a4.22,4.22,0,0,0,.81-.89c.44,0,.8-.47,1.28-.19S24.52,12.08,24.86,12.89Z" style="fill:#9897ae"/><path d="M16.35,14.66c-.09-.34-.17-.68-.25-1,.59,0,1.29.75,1.74-.24l.28.25c1,.63.91,1.77,1.35,2.67a.4.4,0,0,1-.11.33,1.7,1.7,0,0,0,0,.22c-.29.19-.52.6-1,.29l-.28-.25c-.9-.27-.29-1.39-1-1.76l-.5-.24Z" style="fill:#cacad6"/><path d="M24.86,12.89c-.53-.36-1.31-.15-1.73-.75.71-.14,1.42-.27,2.12-.43a.71.71,0,0,1,.89.42c-.21.44-.7.48-1,.75h-.25Z" style="fill:#b0afc1"/><path d="M46.49,21.18l-.51,0c-.83-1.78-2.26-.86-3.5-.76l-.26-.22a4.75,4.75,0,0,1-.5-1h0a5.13,5.13,0,0,1-.13-1.75,1.08,1.08,0,0,1,1.73.44c.48.94,1.44,1,2.26,1.11.62.08.4-.55.31-.95-.58-1.11.36-1.5,1-1.91s1.3-1.1,2-.13a3.69,3.69,0,0,1-.45,3.69h0a1.72,1.72,0,0,1-.77.76Z" style="fill:#a4a3b8"/><path d="M48.74,15.91a3.46,3.46,0,0,0-2.81,1.36c-.06.17.19.43.3.65a.57.57,0,0,1-.95-.14,4.6,4.6,0,0,0-2.71-2.26c-.11,0-.17-.17-.22-.29,0-.59.5-.8.92-1.06l1.45-.51a3.93,3.93,0,0,1,3,.75h0a2.65,2.65,0,0,1,1,1h0A.32.32,0,0,1,48.74,15.91Z" style="fill:#ababbd"/><path d="M42.45,15.11a7.25,7.25,0,0,1,2.35,1.42c.25.3.65.39.61.94s.48.41.82.45c0,.46.56,1-.06,1.36a1.28,1.28,0,0,1-1.53-.18,1.67,1.67,0,0,0-2-.12c1-1.54-.28-1.47-.94-1.81a.63.63,0,0,1-.05-.75c.1-.33-.06-.74.28-1C42.1,15.26,42.18,15,42.45,15.11Z" style="fill:#b5b4c5"/><path d="M42.48,20.4c1.46-1.25,3-.91,3.5.76H43.74a4.2,4.2,0,0,1-1-.5Z" style="fill:#9b9ab0"/><path d="M15.6,31.2a1.32,1.32,0,0,0,.27-1.87.83.83,0,0,0-1.13-.48c-.31.16-.45.86-1,.36s0-.91.22-1.54c-1.24.72-1.76.33-1.8-.91,0-.41-.41-.57-.84-.56s-.64-.06-.31-.5c.35-.09.7.31,1,0l1.23-.25c.6-.07,1.24.16,1.8-.24l.46,0h4.27c.46.31,1-.07,1.51.24a.55.55,0,0,0,.22,0,.9.9,0,0,1,.24.27c.3,1.42.8,2.68,2.46,3a1,1,0,0,1,.71.63,1.15,1.15,0,0,1,.07.36,6.37,6.37,0,0,1-.19,1.06c-.38.74.17,1.47,0,2.21A26.4,26.4,0,0,0,15.6,31.2Z" style="fill:#aeadbf"/><path d="M24.89,29.47a2.91,2.91,0,0,0-.81-.53c-1.73-.5-2.35-1.37-2.45-3.26.42-.1.85-.25,1.24.09l4.52,1.45A5.16,5.16,0,0,1,28.9,28l1.22.73a7.24,7.24,0,0,1,1.28,1.05l.49.46c.36.26.84.43.84,1-.33.27-.68.54-.64,1-.14.69.55.91.77,1.39s0,.79-.54.79a14.64,14.64,0,0,0-2.48-.05c-.45.08-.62-.33-.8-.66a4.66,4.66,0,0,0-2.41-2.26C25.68,31.12,25.41,30.19,24.89,29.47Z" style="fill:#a9a8bb"/><path d="M24.89,29.47c.17-.21.39-.23.46,0a3,3,0,0,0,2,2,2.81,2.81,0,0,1,1.45,1.32c.75,2,2.53.88,3.75,1.37.25.09.14-.29.1-.47.37-.81-.38-1.07-.75-1.51-.21-.66-.08-1.08.72-1a.78.78,0,0,1,.77.54c.66.91,1.31,1.83,2,2.75v.28c-1.75-.56-3.5,0-5.23.12-.63,0-1.52-.31-2,.56A14.48,14.48,0,0,0,24.89,33c-.4-.72-.77-1.44-.25-2.26.09-.33.39-.62.25-1Z" style="fill:#a2a1b6"/><path d="M75.86,28.72l.54.74c-.33,0-.84,0-.87.33-.15,2-1.6.44-2.33.86-.26.15-.51-.39-.54-.71a1.56,1.56,0,0,0-1-1.35c-.24-.11-.28.19-.36.38-.28.66-.51,1.29.6,1.75-.76.18-1.26.82-1.66.51s-.23-1-.25-1.53c0-.17,0-.37,0-.53.21-2-1.09-2.32-2.59-2.51-.41-.05-.41-.17-.09-1.09-.37-.34-1.18.24-1.3-.63a1,1,0,0,1,1,0l5,1.51c.4.24.9.24,1.26.56Z" style="fill:#b5b4c5"/><path d="M59.3,10.64c.59-.88,1.66-1,2.46-1.57.34-.23.74.09,1,.37a12.41,12.41,0,0,1,2.07,3.88,1.21,1.21,0,0,1-.23,1.06l-1.5,0c-1.8-.33-3-1.71-4.52-2.53C58.41,11.23,58.94,11,59.3,10.64Z" style="fill:#9897ae"/><path d="M25.64,73.93c-.57-.1-1.09-.26-1-1,.42-.29.84.09,1.26,0A1.55,1.55,0,0,1,25.64,73.93Z" style="fill:#8887a1"/><path d="M76.87,57.36c-.44.72-1.25,1.24-1.62,1.88a2.33,2.33,0,0,1-3.08,1.16l.69-1c.09-.59-.23-.38-.51-.25a3.14,3.14,0,0,1-1.51.49c-.38-.43-1.32-.78-.22-1.46.34-.21.14-.51,0-.76C70.36,57,70,56.6,70,56.05c.55-.47.73-1.27,1.45-1.58a.38.38,0,0,1,.27.19A3.15,3.15,0,0,0,73,57.14c.25-.32.38-.71.09-1s-.67-.53-.19-.94.84-.72,1.33-.07c.08.11.31.06.44.18s.58.36.61.57C75.4,56.87,76.19,57,76.87,57.36Z" style="fill:#bcbcca"/><path d="M70.09,56.09a9,9,0,0,0,.78,1.13c.87.93.3,1.22-.84,1.45.63.18,1,.39.81.94-.73.6-1.7.4-2.5.76-.48.3-1-.07-1.53.24H63.59l-.06-.22c.63-.61,1.44-.17,2.14-.39-.06-.28-.42-.16-.57-.35a.6.6,0,0,1,0-.69c.13-.27.39-.43.55-.66-1.2.22-1.42,0-1.09-1a2.44,2.44,0,0,1,.73-.77,1.8,1.8,0,0,1,1.21.12l.32.11a2.09,2.09,0,0,1,.63.37,1.4,1.4,0,0,0,.6.42,1.51,1.51,0,0,1,.5-1.48.76.76,0,0,1,.49-.11C69.35,56,69.75,55.91,70.09,56.09Z" style="fill:#b3b2c3"/><path d="M66.83,70.16a2.29,2.29,0,0,1-.22-.8c.09-.75.12-1.19-.82-.61-.69.42-.68-.22-.74-.66l1.25-1.45.31-.17c.34.48,1.78.51.67,1.62a4,4,0,0,0,.43.56,6.24,6.24,0,0,1,1.4,2.16c.14.48.22.87-.24,1.21-.19.14-.36.41-.63.3-.55-.2-.22-.69-.32-1C67.78,70.75,68.1,69.63,66.83,70.16Z" style="fill:#a4a3b8"/><path d="M19.38,60.6c-.11-.6.15-1.25-.23-1.8s.24-.51.36-.77c.22-.49.89-.6,1.06-1.15l.3,0a.68.68,0,0,1,.29.8c-.27.34-.71.58-.71,1.22,1-.28,1.82.25,2.75.3,0,1-.73,1-1.35,1.08.17.12.54-.17.78.12l-.5.26Z" style="fill:#bebecc"/><path d="M22.63,60.37h-1c.62-.31,1.26-.52,1.49-1.26s.8-1.64,1.93-1.58a1.36,1.36,0,0,1,.32,2.07C24.62,60.39,23.58,60.21,22.63,60.37Z" style="fill:#9d9cb2"/><path d="M25.39,59.6c-.06-.7.23-1.48-.51-2l-.1-.13c0-.06,0-.11,0-.17a1.3,1.3,0,0,0-.28-1.18,2,2,0,0,1-.27-.4,1.11,1.11,0,0,1-.08-.62c-.08-.49-.15-1-.23-1.46l.74-.28a5.72,5.72,0,0,0,.75,2.74c.25,1.1,1.28,2.07.51,3.32a.69.69,0,0,1,0,.2Z" style="fill:#85849f"/><path d="M54,37.52a32.45,32.45,0,0,0-1.78,4.26c-1,3.53.49,6.27,2.79,8.71a19.48,19.48,0,0,0,4.54,3.28c.12.67-.38.75-.82.86a6.61,6.61,0,0,1-7.08-1.89,1.49,1.49,0,0,1-.49-1.67,8.8,8.8,0,0,0,.3-2.1c0-.29.1-.67-.17-.82-1-.5-1-1.44-1.23-2.32-.34-1.19-1-1.46-2.44-1.3s-1.57,0-1.44-1.33c-.15-1,.3-1.94.27-2.93A3.78,3.78,0,0,1,47,38.5c.55-.8.44-1.36-.56-1.62a3.22,3.22,0,0,1,3-1.43,10,10,0,0,1,2.08.56c.5.23,1,.34,1.53.54S54.06,36.86,54,37.52Z" style="fill:#494870"/><path d="M41.54,32.2c-.24-1,.24-2,.17-3a5.3,5.3,0,0,1,1.26-3A6.19,6.19,0,0,1,44.18,25,3.25,3.25,0,0,1,46,24.2c1.31.8,1.49,2.25,2,3.51-.51.52-.51.9.28,1.11.48.13,1.12.09,1.13.86a.39.39,0,0,1-.34.34c-.3-.3-.72-.09-1-.24.3.15.67,0,1,.18a.91.91,0,0,1,.35.77c0,.59.32.86.91.58a.61.61,0,0,1,1,.41c.2.81,1.46.81,1.33,1.82a.78.78,0,0,1-.51.16,3.72,3.72,0,0,1-1.46-.59c-.24-.07-.51-.21-.72-.09-1.34.77-2-.15-2.72-1,0-.27.2-.4.41-.5s.37-.11.28-.29-.39-.25-.63-.19c-.46.46-1.42.8-.33,1.58.37.21.74.42.77.91s-.3.7-.63.67c-1.68-.14-1.94,1.23-2.51,2.27a4.45,4.45,0,0,1-2.32-2.22.29.29,0,0,1,0-.32c.93-.46.74-1.5,1.14-2.23.11-.19,0-.41-.26-.49a.45.45,0,0,0-.54.2c-.23.33-.36.76-.84.84Z" style="fill:#9f9fb4"/><path d="M41.72,32.23c.15-.33.46-.56.52-1,.11-.78.69-.59,1.12-.41s.77.52.33,1.06a1.71,1.71,0,0,0-.46,1.25c.08.78-.39.89-1,.83-.39-.08-.3-.51-.51-.72C41.3,32.92,41.56,32.58,41.72,32.23Z" style="fill:#85849f"/><path d="M44.49,36.45c0-.64-.15-1.37.65-1.71.6-.25-.06-.61,0-.89.83,0,1.68.56,2.3-.36.62.19.54.66.15.86-.91.45-1.13,1.29-1.46,2.1a.75.75,0,0,1-.41.37c-.41.17-.7-.13-1-.27Z" style="fill:#9190a9"/><path d="M45.68,36.83l.3-.33c.44-.4,1.13-.56,1.09-1.38,0-.56.53-.73.93-.88s.7.21.84.56.76.43.66,1c-1.27-.27-2.08.62-3,1.22a.36.36,0,0,1-.5.07l-.26,0-.1-.07Z" style="fill:#727190"/><path d="M32.92,73.93c-.8-.06-1.74.27-2.25-.71a8.85,8.85,0,0,1,2.76.71l0,0A.33.33,0,0,1,32.92,73.93Z" style="fill:#a4a3b8"/><path d="M74.84,10.93l1.28,1.72h0a2.45,2.45,0,0,1,0,1.75h0c-.18.33-.18.77-.56,1a5.06,5.06,0,0,1-1.94,1.28,6.42,6.42,0,0,1-2.75-.27h0a2.72,2.72,0,0,1-1-1h0a3.69,3.69,0,0,1,1.73-4.54A4.63,4.63,0,0,1,74.84,10.93Z" style="fill:#a2a1b6"/><path d="M65.33,56.6l-.51.75c-1,1-2.42,1.29-3.72,1.75-.4.09-.81,0-1.21.11s-.61.6-1.09.59c-.32.1-.51-.15-.74-.29.1-.37.58-.67.25-1.14a1.93,1.93,0,0,1,1-2.36,15.19,15.19,0,0,1,1.75-1.11,1.22,1.22,0,0,1,.7.17c.66.34.46-.19.5-.48a14.39,14.39,0,0,1,2.78.27,23.87,23.87,0,0,1,3.06,1.57c-.37.72-1,.36-1.57.42h0C66.2,56.61,65.82,56.31,65.33,56.6Z" style="fill:#9897ae"/><path d="M58.8,59.8l.76-.93a1.2,1.2,0,0,0,1.5,0l3.76-1.51c0,.27-.56.41-.21.7a.49.49,0,0,0,.76,0c.2-.28.51-.59.8-.25s-.2.59-.43.82c-.67.66-.68.66.17.91a.6.6,0,0,1,.47.65c0,.34-.39.21-.61.22l-2.24,0-2,0A8.18,8.18,0,0,1,58.8,59.8Z" style="fill:#a9a8bb"/><path d="M58.55,58.6c.94.9-.34.6-.49.91l-.33-.15c-.35-.25-.84-.26-1.12-.64a2.18,2.18,0,0,0-1.67-.91,1.92,1.92,0,0,1-.9-.5h0a.18.18,0,0,1-.08-.2c0-.07,0-.11.07-.11a2.8,2.8,0,0,1,2.07,0c.44.11.9.13,1.08-.34.5-1.29,1.64-1.71,2.78-2.14a.65.65,0,0,1,.34.07c.32,1-.59,1.12-1.1,1.49C58.09,56.86,57.91,57.48,58.55,58.6Z" style="fill:#7e7d99"/><path d="M55,57.64a1.52,1.52,0,0,1,1.8,1,.41.41,0,0,1-.48,0,2.29,2.29,0,0,1-1-.53C55.14,58,54.92,57.9,55,57.64Z" style="fill:#9190a9"/><path d="M11.1,25.5c-.13-1.3.78-2.44.6-3.77,0-.22,0-.47,0-.71-.11-.77-.07-1.34,1-.76a4.79,4.79,0,0,0,1.44.29c.15,0,.34.13.35-.15,0-1.43,1.14-1.09,2-1.21-.44.73-1.31,1.12-1.6,2l-.7.75a12.56,12.56,0,0,1-1.3,1.52,5.12,5.12,0,0,0-1.23,1.72C11.46,25.34,11.39,25.56,11.1,25.5Z" style="fill:#aeadbf"/><path d="M49.27,29.69c-.18-.73-.88-.57-1.32-.62-.71-.09-.76-.73-.8-1-.08-.54.54-.23.85-.33l.25,0a10.09,10.09,0,0,1,2.68.8.49.49,0,0,1,.16.3c-.12.78-1.21.27-1.35,1A.39.39,0,0,1,49.27,29.69Z" style="fill:#7c7a98"/><path d="M51,28.73c-.8,0-1.45-1.06-2.36-.38l-.39-.63c.08-.08.16-.17.25-.25a4.33,4.33,0,0,0,2.23.48l.28.27A.35.35,0,0,1,51,28.73Z" style="fill:#9f9fb4"/><path d="M.23,42.06A1.2,1.2,0,0,1,0,42,52.45,52.45,0,0,1,.3,36h0c.29-.39-.05-.89.25-1.27.11-.42-.16-.91.25-1.27l.48-.76a9.75,9.75,0,0,1,0,4.83c0,.55-.69.86-.53,1.47-.34.63.1,1.36-.26,2C.17,41.3.37,41.72.23,42.06Z" style="fill:#a2a1b6"/><path d="M65.82,24.71a1.7,1.7,0,0,0,0,.22c-.74.8-1.88,1-2.71,2.13,0-.9.48-1.57-.09-2.14-.08-.06-.11-.11-.07-.15a.12.12,0,0,1,.09-.06.65.65,0,0,0,.24,0Z" style="fill:#b5b4c5"/><path d="M49.54,53.3l-1-1.51-2-4.17c-.4-.29,0-.74-.24-1.07.08-1.12-.51-2.22,0-3.35-.09,1,.43,1.21,1.3,1,2.16-.41,3,.28,3.11,2.55,0,.21-.08.47.13.56,2.34.94.79,2.57.66,3.92,0,.4-.1.68.18,1,2.06,2.29,4.61,2.74,7.47,2a.78.78,0,0,0,.52-.51l.73.31a.41.41,0,0,1,.13.25.36.36,0,0,1-.15.23l-.24,0a12,12,0,0,1-3.86,1c-1.13,0-2,.88-3.18.81l-1.19-.82Z" style="fill:#4e4d74"/><path d="M35.69,75.44c-.39-.86-1.31.15-1.76-.51C34.56,75,35.47,74,35.69,75.44Z" style="fill:#9b9ab0"/><path d="M32.92,73.93l.48,0c0,.42.38.64.53,1A1,1,0,0,1,32.92,73.93Z" style="fill:#9b9ab0"/><path d="M56.28,9.63h-.75a1,1,0,0,1-.15-.83c.12-.39.12-.63-.35-.7-.7-.11-.87-.66-1-1.23h0c-.18-.35-.23-.66.17-.89a.6.6,0,0,1,.59.13c.08,0,.19,0,.23-.06.43-.49.61-1.42,1.5-1.16S56.44,6,57,6.5c.52-.44.44-2,1.77-1.14-.08.09-.23.18-.23.28C58.57,7.41,57.18,8.38,56.28,9.63Z" style="fill:#bab9c8"/><path d="M54.78,6.11h-.51c-.72,0-.88-.46-1-1h0c-.08-.25-.35-.14-.5-.25s-.17-.17-.25-.25c0-.63.07-1.29,1-.68.55.36.87.07,1.24-.36s.15-.93.82-1.12c-.14,1,.21,2-.73,2.74C54.48,5.47,54.8,5.81,54.78,6.11Z" style="fill:#bab9c8"/><path d="M54,6.87c.38,1,1.24,1,2.27,1.08-.46.57-.93,1-.76,1.68C55.16,8.64,53.82,8.17,54,6.87Z" style="fill:#b3b2c3"/><path d="M53.27,5.11a2.25,2.25,0,0,0,1,1c-.29.18-.24.48-.25.76A2,2,0,0,1,53.27,5.11Z" style="fill:#b3b2c3"/><path d="M52.77,4.86c.26,0,.35-.48.66-.26,0,0-.1.33-.16.51A.53.53,0,0,1,52.77,4.86Z" style="fill:#b3b2c3"/><path d="M56.28,9.63c-.42-1.17.69-1.48,1.27-1.79s.45-.39.35-.77c-.2-.82,0-1.47.89-1.71,0,.27.16.57.45.45,1-.42,1,.6,1.42,1s-.19.7-.4,1-.36.44-.35.64c.1,1.07-.68,1.38-1.41,1.6A2.24,2.24,0,0,1,56.28,9.63Z" style="fill:#c1c0ce"/><path d="M36.69,6.11c.05-.22.06-.51.41-.37.08,0,.1.17.15.27l-.56.1Z" style="fill:#bab9c8"/><path d="M5,44.79c0-1.35-.72-1.78-2-1.8-.59,0-1-.68-1.72-.53-.35.08-.36-.39-.2-.66a4.24,4.24,0,0,0,.39-1.92,4.56,4.56,0,0,1,4.34-4c.66,0,1.32-.09,2-.13,0,.77-.79,1.15-1,1.93,1.19.36,2.55.35,3.47,1.35.13.55-.14,1.13.29,1.67s0,.83-.39,1A11.47,11.47,0,0,1,7.74,43c-.76.16-1.2.5-1.23,1.32,0,.41-.09.87-.71.77C5.52,45,5.23,45.09,5,44.79Z" style="fill:#4c4a72"/><path d="M5.8,45a.66.66,0,0,0,.42-.9,1.07,1.07,0,0,1,.86-1.39c1,.06,1.62-.69,2.43-1,.62-.24,1.57-.39.48-1.36-.46-.41.19-.89.31-1.34l.27.22c.27.57.31,1.3,1.22,1.33.44,0,.57.47.58.85a2.09,2.09,0,0,0,.84,1.46c.21,1.56-1.2,3.42-2.68,3.44-1,0-1.91.51-2.93.56a1.58,1.58,0,0,0-1.3,1c-.15.49.34.92.79,1.15a1.38,1.38,0,0,0,1.63,0c1-.72,3,.18,3.34,1.42l-.23.31-.5.25c-.92.2-1.85.12-2.77.25s-1.46.29-1.56-.9c0-.51-.72-.7-1.23-.9-1.86-.76-2.06-2-.58-3.3A1.86,1.86,0,0,0,5.8,45Z" style="fill:#535178"/><path d="M11.56,40.31c.22-.19.45-.36.65-.57a4.18,4.18,0,0,1,7.23,1.87,3,3,0,0,1-.63,2.87,12.7,12.7,0,0,0-3.9-.73,14.44,14.44,0,0,1-1.58-.63c-.58-.48-1.15-1-1-1.86C12.43,40.64,11.61,40.79,11.56,40.31Z" style="fill:#a4a3b8"/><path d="M8,35.72a5.66,5.66,0,0,0-5.76,1c0-1.07.88-2.09.17-3.2.87-.52,1.18-1.82,2.41-1.79A9.66,9.66,0,0,0,8,31.12a4.57,4.57,0,0,1,2.78.36c.48.14.56.58.54,1A30.4,30.4,0,0,0,8,35.72Z" style="fill:#807f9b"/><path d="M13.37,43a1.88,1.88,0,0,1,1.48.51c.23.25.83.13.74.68-.07.38-.47.41-.79.5-.16,0-.42.07-.45.19-.19.87-1.11,1.31-1.25,2.2a5.13,5.13,0,0,1-1,3.42c-.44-1.12-1.89-.72-2.49-1.63-.1-.14-.42,0-.5.23-.41,1.12-1.21.55-1.88.43-.88-.15-1-1-1.46-1.59a.43.43,0,0,1,0-.31c.93-.08,1.15-1.37,2.41-1.19,1,.14,2.09-.52,3.22-.46.42,0,1-1.52.92-2s.16-.39.42-.35c.62.1.49-.23.34-.58A.18.18,0,0,1,13.37,43Z" style="fill:#58567b"/><path d="M13.1,47.09c-.47-.83.81-1,.68-1.74s.65-.78,1.27-1c1.08-.39-.34-.48-.2-.83,1.36.13,2.86-.28,4,1a4.88,4.88,0,0,1-4.65,2C13.54,46.43,13.27,46.56,13.1,47.09Z" style="fill:#646285"/><path d="M11.08,55.35h-.26c.1-.26.35-.51.16-.8-.78-1.26-.61-2,.74-2.86a.6.6,0,0,0,.16-.19,1.3,1.3,0,0,1,.74.52c.42,1.1.62,2.17-.46,3C11.85,55.3,11.56,55.67,11.08,55.35Z" style="fill:#646285"/><path d="M21.37,54.36a5.5,5.5,0,0,1-3.54,1.55c-1,.05-1.16-.13-.81-1.11.07-.2-.11-.47-.17-.71A15.94,15.94,0,0,0,21.37,54.36Z" style="fill:#bcbcca"/><path d="M11.08,55.35c.94-.53,2.06-.93,1.37-2.41-.11-.24.1-.62.17-.93l2.72,1.57c.3.38,0,.57-.24.77h0c-1.08.35-2.32.37-3,1.5h0a.83.83,0,0,1-1-.26A1.93,1.93,0,0,0,11.08,55.35Z" style="fill:#7c7a98"/><path d="M13.37,43l-.29,0c-.44-.19-.88-.44-.92-.94-.06-.81-.17-1.36-1.22-1.46-.76-.07-.34-.87-.37-1.37l1,1c.65.28,1.21.59,1.06,1.5C12.53,42.35,13.1,42.62,13.37,43Z" style="fill:#646285"/><path d="M15.1,54.35l.24-.77,1.27.5C16.25,54.94,15.59,54.2,15.1,54.35Z" style="fill:#8f8ea7"/><path d="M25.91,59.41c.25-1.17-.52-2.18-.51-3.32.33.36.38.89.8,1.21a.92.92,0,0,1,.23,1.39c-.26.37,0,.39.27.45A1,1,0,0,1,25.91,59.41Z" style="fill:#706e8e"/><path d="M51,28.73v-.51c1.36-.46,1.81-.29,2.15.29.47.82-.09,1.68.37,2.42-.51.31-1.46-.32-1.39.42a1.58,1.58,0,0,0,1.64,1.38,2,2,0,0,1,1.76,0,1.54,1.54,0,0,0,1.19-1.62A1,1,0,0,1,58,30.3c.55.15.35.62,0,.81-1.1.59-.47.86.17,1.15a18.42,18.42,0,0,0-3.3,4,11.56,11.56,0,0,1-1.25-.86,2.56,2.56,0,0,1-1-1.92c-.33-.83-1.74-.74-1.65-1.94,0-.16-.23-.17-.41-.1-1.23.45-1.52.22-1.41-1.11A1.64,1.64,0,0,0,49,30h0l.27-.28.48,0c.4.06.52.54,1.06.62-1.13-.78.55-1,.19-1.61Z" style="fill:#a2a1b6"/><path d="M75.88,38.26a2.71,2.71,0,0,1,3,1.09c.54.65.31.95-.11,1.45-.23.29-.75.69-.5,1.05s.83,0,1.25-.12h.28c.17.6-.24,1.54.9,1.67.11,0,.52,1,.07,1.44a.92.92,0,0,1-1.33.16,1.24,1.24,0,0,0-.83-.21c-.46.29.11,1.22-.77,1.26C78.22,43.19,77.23,40.68,75.88,38.26Z" style="fill:#a9a8bb"/><path d="M77.87,46.05c.37-.25.23-.65.28-1s.09-.62.49-.27c.74.73,1.77,1.07,2.21,2.22.36,1,.39,1.33-.6,1.78s-2,.42-2.87,1c-.73.79-1.24.71-1.8-.3A12.31,12.31,0,0,0,77.87,46.05Z" style="fill:#9b9ab0"/><path d="M75.58,49.52c.54.52,1.11.8,1.8.3.49-.06.9.17.89.63s-.52,0-.74.21-.59.54-.56.58c.62.9-.4,1.54-.33,2.32l-.27-.22a2.49,2.49,0,0,0-2,.24c-.17.08-.33.17-.49.26a2.11,2.11,0,0,1-2.27.75v0c.34-.57-.36-1-.25-1.48A10.23,10.23,0,0,0,75.58,49.52Z" style="fill:#ababbd"/><path d="M68.09,56.35c-1.35.2-2-.9-3-1.49h1.26a6.86,6.86,0,0,1,1.71.5c.06-.51-.41-.53-.51-.8l2.27-.76a.41.41,0,0,1,.45.61c-.47.51-.64,1.22-1.18,1.68H68.6C68.45,56.23,68.37,56.51,68.09,56.35Z" style="fill:#8887a1"/><path d="M69.09,56.1A1.64,1.64,0,0,0,69,54.79c1.17-.15,1.17-.15.86-1l.52-.24a3.06,3.06,0,0,1,.33.47,1.43,1.43,0,0,0-.33-.47l1-.49a1.08,1.08,0,0,1,.25,1.48c-.69.33-.57,1.45-1.51,1.53C69.76,56.22,69.43,56.55,69.09,56.1Z" style="fill:#9b9ab0"/><path d="M53.76,35.26c.35.33,1.05.3,1,1L54,37.52c-.62-.87-1.77-.67-2.53-1.26.35-.36.84-.52,1.15-.93A.73.73,0,0,1,53.76,35.26Z" style="fill:#706e8e"/><path d="M60.32,54.35v-.27l2,.51c.12.35,1,.43.53.87s-1.05-.06-1.53-.37S60.49,54.79,60.32,54.35Z" style="fill:#7e7d99"/><path d="M67.55,54.57c.2,0,.41,0,.61,0,.45.07.45.42.42.75,0,.5-.4.23-.64.25-.68.07-1.07-.49-1.59-.74Z" style="fill:#727190"/><path d="M66.8,31c.31-1.05.9-.28,1.34-.16.22.06.18.19-.58.41Z" style="fill:#777694"/><path d="M75.33,37.28c.3-.09.64-.47.88-.12s-.43.66-.33,1.1A1.89,1.89,0,0,1,75.33,37.28Z" style="fill:#a7a6b9"/><path d="M73.86,35.25c1,.07,1.14.78,1.25,1.55Z" style="fill:#a7a6b9"/><path d="M64.61,28.65c.19-.36-.21-1,.54-.91.48.06.92.31.81.86s-.28,1-.8.94A.7.7,0,0,1,64.61,28.65Z" style="fill:#b5b4c5"/><path d="M65,27a.88.88,0,0,1-.86,0,.46.46,0,0,1,.11-.29C64.6,26.49,64.8,26.67,65,27Z" style="fill:#b5b4c5"/><path d="M23.13,12.14l-1.25.26c-.07-.06-.09-.11-.07-.17s0-.09.06-.09l.76-.25A.53.53,0,0,1,23.13,12.14Z" style="fill:#b0afc1"/><path d="M7.31,26.71c1.92-.72,2-.95.33-2.55-.26-.26-.55-.48-.83-.72,1.36-.69,1.36-.69,1.74.67.18.65.31,1.24,1.22,1.26.72,0,.52.72.37,1.06-.35.74-.18,1,.57.75.4-.13.63.06.69.3a2.75,2.75,0,0,0,1.1,2c.06,0,.05.32,0,.35-.93.48-.44,1.26-.42,1.93-.93-.49-1.73-1.19-3-1.05-.79.08-1.61-2.09-1.1-2.79.23-.32.47-.71.32-1S7.66,26.77,7.31,26.71Z" style="fill:#9f9fb4"/><path d="M17.1,15.16c.88.28.34,1.36,1,1.76C17,16.8,17.6,15.65,17.1,15.16Z" style="fill:#bab9c8"/><path d="M17,17.36c-.11.27-.17.5-.43.47s-.33-.16-.26-.33a.57.57,0,0,1,.35-.29A.25.25,0,0,1,17,17.36Z" style="fill:#bab9c8"/><path d="M21.87,12.14v.26c-.34,1-1.28,1.58-1.69,2.56a1.08,1.08,0,0,0-.06,1,.79.79,0,0,1-.75.47c-.75-.77-.68-1.92-1.26-2.77A7.93,7.93,0,0,0,21.87,12.14Z" style="fill:#b0afc1"/><path d="M17.84,13.41c0,.35.16.76-.32.95-.74.3-.95-.47-1.42-.71h0c-.36-.35-.35-.83-.51-1.26h0c.69-.6,1.19.06,1.75.27Z" style="fill:#fbf8fa"/><path d="M21,9.59c-.18,0-.32-.09-.33-.29s.07-.36.26-.3.21.23.27.38S21.11,9.57,21,9.59Z" style="fill:#cacad6"/><path d="M15.59,12.39a2.54,2.54,0,0,1,.51,1.26A.88.88,0,0,1,15.59,12.39Z" style="fill:#cacad6"/><path d="M71.6,54.59l2.27-.75a1.71,1.71,0,0,0,.75,1.5c-.62,0-1.34-.68-1.81.37.06.44.82-.29.78.32a9.72,9.72,0,0,1-.32,1.57s-.22,0-.32,0C72.11,57.35,71.32,55.57,71.6,54.59Z" style="fill:#d2d1db"/><path d="M74.36,53.58c.63-.37,1.2-1.38,2-.24A3.93,3.93,0,0,1,74.36,53.58Z" style="fill:#d2d1db"/><path d="M8.56,51.32a2.45,2.45,0,0,1,2.77-.25c-.27.74-.86.76-1.49.63C9.41,51.61,9,51.45,8.56,51.32Z" style="fill:#58567b"/><path d="M24.38,55.6l.23.27c-.09.53.7.89.28,1.49h0c-.21.19-.65,0-.72.39-.16.83-.65.54-1.12.37a3.06,3.06,0,0,0-.91-.88.57.57,0,0,1-.24-.41c.49-.27.66-.81,1-1.23A1.79,1.79,0,0,1,24.38,55.6Z" style="fill:#f3f3f6"/><path d="M12.08,55.85c.8-1.45,1.71-1.9,3-1.5,0,.26-.16.66-.32.59C13.6,54.48,13,55.54,12.08,55.85Z" style="fill:#8f8ea7"/><path d="M11.07,55.59a1.7,1.7,0,0,1,1,.26v.24a7.71,7.71,0,0,1-1.76.51l-.52,0A2.44,2.44,0,0,1,11.07,55.59Z" style="fill:#8f8ea7"/><path d="M24.38,55.6c-.51.43-1,.07-1.5,0,.25-.59.77-.5,1.26-.51A.48.48,0,0,1,24.38,55.6Z" style="fill:#cdccd8"/><path d="M21.91,56.83l.29.18a.49.49,0,0,1-.05.29c-.14.21-.1.52-.37.66a.51.51,0,0,1-.66-.36c-.09-.25-.17-.5-.25-.75A.92.92,0,0,1,21.91,56.83Z" style="fill:#a7a6b9"/><path d="M10.32,56.6a3.9,3.9,0,0,1,1.76-.51l-.5.51Z" style="fill:#a2a1b6"/><path d="M.51,41c.13-.66-.25-1.39.26-2C.66,39.68,1.06,40.41.51,41Z" style="fill:#807f9b"/><path d="M55.54,32.74c-.59.49-1.17-.05-1.76,0,0-.47,0-1,.64-.94S55.62,31.89,55.54,32.74Z" style="fill:#807f9b"/><path d="M24.89,29.72c.42.47,0,.72-.25,1A1.71,1.71,0,0,1,24.89,29.72Z" style="fill:#a9a8bb"/><path d="M31.92,32.23c1.54.45,1.59.54.75,1.51C32.47,33.21,31.11,33.26,31.92,32.23Z" style="fill:#85849f"/><path d="M68.09,56.35l.51-.24c.06.48-.8.84-.19,1.41a1,1,0,0,1-.27.36.41.41,0,0,1-.63-.13c-.18-.47-.59-.64-.93-.9C67,56.46,67.68,56.8,68.09,56.35Z" style="fill:#a2a1b6"/><path d="M65.33,56.6c.52-.46,1-.54,1.25.25Z" style="fill:#a2a1b6"/><path d="M21.12,57.6l.76.25a.38.38,0,0,1,.28-.12,4.17,4.17,0,0,1,.94.11c.5.19.49.18.64-.19.25-.6.78-.16,1.16-.29a1.64,1.64,0,0,1,0,.23l-1.74,1.52A1.19,1.19,0,0,1,21.9,59c-.13-.07-.38.09-.57.11-.46,0-1,.61-1.33,0s.31-1,.64-1.46C20.71,57.58,21,57.62,21.12,57.6Z" style="fill:#c8c8d4"/><path d="M24.89,57.36c.29-.57-1-.84-.28-1.49C25.08,56.29,25.4,56.75,24.89,57.36Z" style="fill:#cdccd8"/><path d="M53.76,35.26c-.34,0-.85-.16-.93.33-.16.89-.81.6-1.33.67l-2-.5c-.24-.38-1.16-.12-.94-1,0-.15-.27-.49-.54-.34s-.83.32-.72.73c.34,1.27-.56,1.22-1.32,1.34.15-1,.27-2,1.51-2.32.35-.1.29-.45,0-.69l-.76-.75c-.19-.5-.28-.93.52-.76.35.26.7.53,1.06.78s.65.68,1.08,0,.91.1,1.36,0c.34.56.2,1.34.87,1.75.3-.27,0-.77.4-1h.5Z" style="fill:#807f9b"/><path d="M52,33.5a1.15,1.15,0,0,1,0,.37c-.13.4.55,1.08-.07,1.14a1.19,1.19,0,0,1-1.18-1.28c0-.33,0-.66,0-1A3,3,0,0,0,52,33.5Z" style="fill:#8f8ea7"/><path d="M47.25,32c-.51,0-.52.39-.52.76-.38,0-.81,0-.72-.56.12-.7.4-1.32,1.23-1.46.14.35.57.55.51,1A.52.52,0,0,0,47.25,32Z" style="fill:#9190a9"/><path d="M47.75,31.73c-.25-.3-1-.32-.51-1,.44,0,1,0,1.16.47S48.1,31.7,47.75,31.73Z" style="fill:#807f9b"/><path d="M49,30a3.08,3.08,0,0,1-2.09-.27A2,2,0,0,1,49,30Z" style="fill:#8f8ea7"/><path d="M74.73,13.85c-.38,1.17-1.28.7-2,.58a.73.73,0,0,1-.48-.78c.13-.43.53-.21.84-.14Z" style="fill:#aeadbf"/><path d="M60.32,54.35c.36.2.81.29,1,.74L59,56.64c-.75.52-.32,1.3-.43,2-1.36-.34-.63-1.22-.4-1.85a2,2,0,0,1,1.24-1.14,1.1,1.1,0,0,0,.9-1A.76.76,0,0,1,60.32,54.35Z" style="fill:#8a89a3"/><path d="M61.06,58.86c-.5.58-1,.9-1.5,0Z" style="fill:#bcbcca"/><path d="M53,56.35c2.14-1.42,4.67-1.29,7-1.77a3.91,3.91,0,0,1-1.49.86,1.57,1.57,0,0,0-1,1.08c-.19,1.07-.82,1.06-1.61.72a6.16,6.16,0,0,0-2-.14l-1-.54C53,56.49,53,56.42,53,56.35Z" style="fill:#727190"/><path d="M51,28.72c.2.14.56.29.55.41,0,.54-.74.15-.93.59.13.41,1,.22.78.89a.48.48,0,0,1-.24.22c-.36-.29-1-.07-1.19-.68a3,3,0,0,0-.22-.44C49.79,28.9,50.86,29.4,51,28.72Z" style="fill:#9f9fb4"/><path d="M16.41,39.34c-.7,0-1.16-.11-1.43-.71C15.63,38.38,16,38.71,16.41,39.34Z" style="fill:#8c8ba5"/><path d="M8.78,47.1a.45.45,0,0,1,.43.38c0,.28-.21.33-.42.27s-.39-.18-.37-.43S8.6,47.08,8.78,47.1Z" style="fill:#535178"/><path d="M70.34,53.57a1.85,1.85,0,0,1,.5.28c.1.12.42.19.24.46a.67.67,0,0,1-.31.17c-.25.07-.38-.06-.4-.3s0-.41,0-.61Z" style="fill:#83829d"/><path d="M23.1,57.84c-.32.16-.64.45-1,0,0-.26-.18-.52,0-.78l.08-.1A1,1,0,0,1,23.1,57.84Z" style="fill:#a7a6b9"/><path d="M22.12,57.11c.12.26.4.52,0,.78l-.23,0C21.71,57.52,21.47,57.17,22.12,57.11Z" style="fill:#7e7d99"/></g></g></svg>