<svg xmlns="http://www.w3.org/2000/svg" viewBox="0 0 99.16 76.9"><g id="Ebene_2" data-name="Ebene 2"><g id="OBJECTS"><path d="M18.86,37.54a8,8,0,0,0-1.3,2.31,2,2,0,0,1-.83,1,5.93,5.93,0,0,0-4.52,1.44,2.89,2.89,0,0,1-2.29-2.7,3.87,3.87,0,0,1,0-2,12.18,12.18,0,0,1,1.77-4.8,6.65,6.65,0,0,1,1.19-1.24,15.6,15.6,0,0,1,3.83-1.75.46.46,0,0,1,.5-.07,6,6,0,0,1,.32,2.56c0,.41-.23,1,.41,1.14.47.08.58-.52.86-.74.8-.6.87-1.81,1.93-2.14.39-.06.56.19.7.48.06.69-.19,1.37-.09,2.06a1.79,1.79,0,0,1-.13,2.17c-.14.69-.93.72-1.26,1.22A12.33,12.33,0,0,1,18.86,37.54Z" style="fill:#7c7a98"/><path d="M29,73.5l-.5-.26c-.44-.31-.81-.71-1.23-1h0a3.88,3.88,0,0,1-1-.79l0,0a7.24,7.24,0,0,1-2.42-2.5c.69-.38,1.52-.54,2-1.28.28-.45.57-.82-.26-1.07a1.22,1.22,0,0,1-.92-1.53c-.93.61-.62,2-1.62,2.52-.29,0-.43-.17-.57-.36l-.39-.76c-.18-1-.75-2,.45-2.83.5-.48,1.31-.17,1.79-.7.11-.79-.15-1.64.54-2.32.44-.42.8-.85,1.47-.47.54.63.53,1.47.85,2.19a13.07,13.07,0,0,0,8.16,7.19c1.3.44,2.65.67,4,1.12.29.51,0,.67-.45.69a4.27,4.27,0,0,0-2,.82,31.74,31.74,0,0,1-3.29,1.24,1.76,1.76,0,0,1-.39.06C31.78,73.61,30.4,74.22,29,73.5Z" style="fill:#7c7a98"/><path d="M41.84,30.54a7,7,0,0,1-.5-2,10.49,10.49,0,0,1-.47-2.05l0,0A9.22,9.22,0,0,1,40.45,24,.82.82,0,0,1,41,22.87a3.67,3.67,0,0,0,1.89-1.75,4.09,4.09,0,0,1,1.82-1.6c.41-.19.83-.45,1.21.06A67.53,67.53,0,0,0,48,30c.15.8-.22,1.08-1,.95s-.85.31-.52.85a25.33,25.33,0,0,1,1.1,2.77c.23,1.23-.68,1.68-1.5,2.17a1.71,1.71,0,0,1-2,0,1.49,1.49,0,0,1-.77-1.57c0-.53-.34-1-.44-1.44v0a4.55,4.55,0,0,1-.52-1.53v0C42.1,31.73,42.07,31.1,41.84,30.54Z" style="fill:#100e43"/><path d="M79,53.22a11.47,11.47,0,0,0,4.29,1.2c1.56.34,1.94,1.84,2.87,2.74a.69.69,0,0,0-.4-.88c-.6-.34-.82-1-1.33-1.46-.29-.25-.22-.5.06-.72s.59,0,.83-.19a15,15,0,0,0,2.75-1,2,2,0,0,1,1-.4c.8.64,2,.8,2.44,1.86A5.19,5.19,0,0,0,93,53c.79,0,1-.9,1.62-1.13a2.6,2.6,0,0,1-1.2,3.28c-1.29.92-2,1-3.09.29A1.84,1.84,0,0,1,91,57.93c-.29.59-1,.4-1.41.76l-.09,0a.28.28,0,0,1-.2.12c-.52.09-.18-.94-.78-.64a3.08,3.08,0,0,0-1.41,1c-.17.28-.39.52-.58.79-.62-.17-1.15.45-1.78.21-1,.13-2,.22-2.15-1.16,0-.4-.43-.5-.79-.33-.58.28-1,.23-1-.52s-.39-1.66.89-1.61c.5,0,.79-.09.92-.58a.59.59,0,0,0-.46-.76c-.48-.18-.43.17-.45.47,0,.88-.64.47-1.17.36.06.94.44,2-.06,2.58a3.34,3.34,0,0,1-2.23.81.48.48,0,0,1-.57-.18c-.19-.28-.76.06-.79-.48a5.43,5.43,0,0,0,.82-2.33c-.37-.77-.94-1.41-1.36-2.15a1.28,1.28,0,0,1-.15-1.5,5.23,5.23,0,0,1,.54-.61,6.74,6.74,0,0,0,.38-.64l.12-.09c.15.18.29.36.44.53A16.07,16.07,0,0,0,79,53.22Z" style="fill:#9393aa"/><path d="M52.6,39.18c0,.18,0,.35.21.42a13.06,13.06,0,0,1,1.8,3.11,11.2,11.2,0,0,0,1.2,2.17,4.07,4.07,0,0,1,1,2A1.6,1.6,0,0,1,55,48.11a1.06,1.06,0,0,1-.8-1,1.75,1.75,0,0,0-2.38-1.5,9.8,9.8,0,0,0-1.29.44,1.3,1.3,0,0,1-.88.18c-1.35-.56-2.09-1.87-3.28-2.63a4.67,4.67,0,0,1-1.8-1.5,2.34,2.34,0,0,1-.12-1.87.78.78,0,0,1,.24-.27c1.16-.86,2.27-1.81,3.81-1.9a19.78,19.78,0,0,0,1.84-1.31c.29-.25.55-.38.81,0l.43.52A7,7,0,0,1,52.6,39.18Z" style="fill:#232152"/><path d="M55.58,6.65c-.28-.07-.47.1-.68.25-.86.39-1.72.79-2.55,1.26h0a2.83,2.83,0,0,1-1.22.76,7.34,7.34,0,0,0-5.08.24,1.56,1.56,0,0,0-.82.51,1,1,0,0,1-1.34.32,1,1,0,0,1-.78-1c0-.7.63-1.07,1-1.56l0,0c.28-.63.91-1,1.25-1.55l.48-.48c.48-.24.72-.83,1.31-.9.64.59,1.36,1.09,1.94,1.73s.92.42,1.14-.18a1.26,1.26,0,0,1,1.49-1c.75.06,1.11-.62,1.79-1.23-1.24,0-2.22-.14-3,.77C49.49,6,48.41,5.88,47.49,4.27A.45.45,0,0,1,47.72,4c2.58-.82,5.15-1.62,7.68-2.57a6.94,6.94,0,0,1,2.39-.5,2.67,2.67,0,0,0,.43.25c2.36.69,2.88,2.32,1.41,4.37-.1.13-.18.28-.28.41a1.22,1.22,0,0,1-.48.3c-.49.1-1-.1-1.49.14l0,0C56.83,6.77,56.16,6.36,55.58,6.65Z" style="fill:#5f5e81"/><path d="M73,19.27c-.32-.29-.19-.68-.23-1-.25-.85-.56-1.69-.74-2.56l0,0a5.23,5.23,0,0,1-.43-1.43c-.21-.62.07-1,.65-1.12a2.09,2.09,0,0,0,1.22-1,14.15,14.15,0,0,1,1.23-1.57A2.72,2.72,0,0,1,76.23,10a.38.38,0,0,1,.24.25,1.75,1.75,0,0,0,.42,1c.41.32.39.84.57,1.27l0,0A10,10,0,0,1,78,14.24v0a17.88,17.88,0,0,1,.76,2.59,1.53,1.53,0,0,0,.15.94,17.14,17.14,0,0,1,.67,6.48.79.79,0,0,1-1.18,0c-.44-.4-.13-.8,0-1.2,0-.48-.54-.38-.79-.59a1.11,1.11,0,0,1-.39-.52,27.23,27.23,0,0,0-2.5-1.33c-.57-.31-.94.15-1.4.23C72.82,20.38,73.35,19.72,73,19.27Z" style="fill:#797896"/><path d="M44.1,9.69c.26.1.56.36.78,0C46.07,8,48,8.44,49.59,8.23c.52-.06,1.09.33,1.64.51-.6,1.08-1.67,1.73-2.42,2.68l0,0a2.79,2.79,0,0,1-.8,1l-.45.69C46.43,15,46.25,17,46,19.1c-.47.34-1,.12-1.53.24a.83.83,0,0,1-.28-.21c-.15.16.07.33,0,.5a.67.67,0,0,1-.89.39c-.29-.24-.61-.44-.88-.7s-.46-.89,0-1.07c1.27-.54.74-1.57.79-2.43,0-.57-.21-1.22.78-1.24a1.75,1.75,0,0,0-1.64-.26c-.5.07-1,.17-1.3-.42s.16-.89.63-1.16.91-1,1.54-1.25,1.16-.29,1.26.58l-.12.2a1.73,1.73,0,0,0-.16.3c.13-.06.07-.23.17-.32.31-.37.08-.65-.1-1A1.46,1.46,0,0,1,44.1,9.69Z" style="fill:#616083"/><path d="M48.84,75h-.23c-.68,0-1.4-.68-2,.37-.2.36-1.09.19-1.65.34a.52.52,0,0,1-.56-.18c-.18-.26,0-.46.16-.67a7.12,7.12,0,0,1,2.22-2.08c.15-.42-.41-1.17.56-1.21.7-.08.6-.54.47-1s-.19-.82.31-1,.67.11.87.43a1.81,1.81,0,0,0,1.37.69c1.19.14,1.29-.55,1.11-1.46l-.09-.32c.07-.69-1-1-.66-1.73a5.09,5.09,0,0,1,2.68.19,1.82,1.82,0,0,0,1,.13c.39-.13.9-.2.34-.8a1.2,1.2,0,0,1,.1-1.6c.29-.38.73-.79,1.26-.61s.57.67.57,1.15a8.75,8.75,0,0,1-.49,3.16c0,.55-.51.83-.76,1.24-.53.15-1.13.24-.83,1a3.75,3.75,0,0,1-1.49,1.44L50.88,74c-.28.29-.68.33-1,.51h0A3.17,3.17,0,0,1,48.84,75Z" style="fill:#9d9cb2"/><path d="M38.15,34.83a1.84,1.84,0,0,0,1.09,0c1.09.31,2.24-.12,3.34.25h0a.22.22,0,0,1,.09.17c0,.07,0,.1,0,.1a4.51,4.51,0,0,0-.4.47c-.19.44-.28.92-.44,1.36-.19.75.33,1.47.1,2.22a3.48,3.48,0,0,1-2.78.78c-1.4-.07-3,.78-4.3-.64a2.87,2.87,0,0,0-1.91-.8.92.92,0,0,1-.82-.68,1,1,0,0,1,.08-.72c1.26-.56,2.52-.85,3.79.07.23-.47,0-.67-.3-.85s-.83-.15-.67-.71a1.06,1.06,0,0,1,1-.78,3.12,3.12,0,0,0,.86-.11A4.5,4.5,0,0,0,38.15,34.83Z" style="fill:#7e7d99"/><path d="M44.1,9.69c.21.62.07,1.33.63,1.87.29.29,0,.6-.38.64-.54-.77-1.3-.7-2,.26-.2.29-.2.74-.74.66s-.61.23-.52.61.39.45.78.33c1.08-.33,2.07-.36,2.71.9-1.25-.17-1.26-.16-1.06,1.06.11.69-.36,1.35,0,2.08.11.25-.24.39-.51.32s-.6-.21-.65.26.17.52.51.56.46.41.46.75c.33.56-.13.81-.44,1.12-.18.1-.41.21-.58.13-1.28-.56-1.76.06-1.91,1.23a.18.18,0,0,1-.29,0v0a16.13,16.13,0,0,1-.1-5.67,15.46,15.46,0,0,1,.81-3.61c.06-.27,0-.58.24-.78a20.75,20.75,0,0,1,1.26-2.49l.5-.76c.14-.14.21-.36.46-.32C43.36,9.34,43.56,9.67,44.1,9.69Z" style="fill:#646285"/><path d="M33.3,73.23h.24A13.23,13.23,0,0,0,36.81,72a2.24,2.24,0,0,1,2.12-.93c.28,0,.37-.07.39-.3,1-.58,2.1-.11,3.14-.24a6.44,6.44,0,0,1,2.48,1.7.65.65,0,0,1-.15.9c-1.36.74-1.94,2.17-2.95,3.22a1.68,1.68,0,0,1-1.36.42c-.93,0-1.68-.22-1.69-1.42,0-.37-.61-.59-.66-1a5.74,5.74,0,0,0-.3-1c-.42.22-.31.81-.75,1s-.8-.11-1.16-.29c-.53-.26-.86.16-1.24.38-.81.46-1.55,1.16-2.62.82A.46.46,0,0,1,31.5,75a.51.51,0,0,1-.06-.34A2.17,2.17,0,0,1,33.3,73.23Z" style="fill:#8c8ba5"/><path d="M56.16,68.73a16.65,16.65,0,0,1,.21-3c0-.48,0-.91-.45-1.19-.1.57-1,.21-1,.88,0,.42-.6,1.07.28,1.19.64.08.5.28.22.57-.44.46-.94.89-1.63.58a10.29,10.29,0,0,0-3.15-.56l-.17-.06a.46.46,0,0,1-.17-.3c.33-.8.6-1.66,1.57-1.95a.63.63,0,0,1,.2.28c.1.35.16.72.29,1.06.66-.25.62-.63.26-1.08a1.07,1.07,0,0,1,.53-.29c.43-.12.47-.15.38-.29s.27-1.18-.66-.6c-.16.1-.3,0-.36-.23a18.57,18.57,0,0,0,1-5,.37.37,0,0,1,.29-.21,6.2,6.2,0,0,1,2.11,2.88c.42,1.15,1.48,1.76,2.34,2.54a1.5,1.5,0,0,1,.56.71,1.07,1.07,0,0,1-.42,1A14.24,14.24,0,0,1,56.16,68.73Z" style="fill:#a9a8bb"/><path d="M75.48,9a.47.47,0,0,0,.17,0c.24.09.23.27.18.46a2.51,2.51,0,0,1-2.58.69.71.71,0,0,1-.44-.3A2,2,0,0,0,71,8.18c.15.45.79.63.66,1.22a4.29,4.29,0,0,1-.19.5c-.43.8-.05,1.86-.85,2.52L70.23,12c-.29-.46-.71-.8-1-1.24l-1-1A4.83,4.83,0,0,0,67,8.44l-.28-.25c-.44-.48-1.25-.45-1.54-1.13a12.89,12.89,0,0,0,1.22-2.4c.42-1.17,1.19-1.36,1.94-.62a.9.9,0,0,1-.37.61c-1,.92-1,.91.16,1.74.36.27.54.56,1.13.26.37-.19,1.07.4,1.55-.2a2,2,0,0,0-.07-1,1.93,1.93,0,0,1,.18-1.29c.88-.44,1,.47,1.49.81a2.17,2.17,0,0,1,.42,1.73c-.21.79,1,2.09,1.85,2.1A1.47,1.47,0,0,1,75.48,9Z" style="fill:#747392"/><path d="M68.21,4.17c-.76-.59-1.54-.26-1.71.88a3.28,3.28,0,0,1-1.31,2.12.33.33,0,0,1-.5,0,1.4,1.4,0,0,1-1-.37,11.22,11.22,0,0,0-1-2.67,2.09,2.09,0,0,1-.35-1.43c.14-.82-.21-1.62-.08-2.43a5,5,0,0,1,2.09.45l2.48.69c.42.22.95.19,1.29.58a1.6,1.6,0,0,0,1,.43,2.27,2.27,0,0,1,.93.69c.11.44.54.5.86.69A.26.26,0,0,1,71,4c0,.08,0,.11,0,.11,0,.52,0,1,0,1.56A12.1,12.1,0,0,0,68.21,4.17Z" style="fill:#7c7a98"/><path d="M48.62,38.33a5.22,5.22,0,0,0-3.48,1.9,1.6,1.6,0,0,1-.29-.15,1.64,1.64,0,0,1-.21-1.64,1.72,1.72,0,0,1,1.87-.85c.45.16.77.14.68-.48a3.42,3.42,0,0,0,.17-2.55c-.74-.91-.68-2.19-1.46-3.1-.2-.24,0-.64.23-.91s.49-.05.73.07c.46.24.88.31,1-.36.11-.08.17-.05.2.08l0,0c.27.49.3,1.06.53,1.56a3,3,0,0,0,.68,1.47,1.28,1.28,0,0,1,.54.89c0,.71-.73,1.3-.25,2.12.2.34-.2.81-.59,1C48.42,37.55,48.64,38,48.62,38.33Z" style="fill:#211f50"/><path d="M92.16,49.15l.66-1.34a1.79,1.79,0,0,0,.3-.42c1.14-1,2.35-1.61,3.85-.75a2.07,2.07,0,0,1,.34.15,2.31,2.31,0,0,1,.54,2.84,6.52,6.52,0,0,1-.75,2.28l-.16-.08a5.18,5.18,0,0,0-2.51-1.7c-.32-.1-.65-.19-.8-.51-.29-.62-.63-.1-.95-.07A.5.5,0,0,1,92.16,49.15Z" style="fill:#9393aa"/><path d="M96.08,31a3.35,3.35,0,0,0,1.25.55c1.08.37,1.43,1.31,1.77,2.26a5.37,5.37,0,0,1,0,1.65,1.3,1.3,0,0,1-.14.32.45.45,0,0,1-.32.09.29.29,0,0,1-.14-.3l-.09,0,0,.08c-.17.5-.58.64-1,.81-1.08.41-1.32.89-1.09,2.08l-.52.26a3.42,3.42,0,0,1-1.74,0l-.73-.16a5,5,0,0,0,1.47-2.79c-.09-.14-.18-.28-.28-.42-.32-.42-.6-.89,0-1.26a.71.71,0,0,1,1.17.43c0,.14.17.16.33.09.22-.4-.43-.59-.28-1,.44-1.15.36-1.32-.93-1.91-.13-.71.46-.7.88-.87A.32.32,0,0,1,96.08,31Z" style="fill:#bcbcca"/><path d="M24.51,63.19c-.45.65-1.22.18-1.76.51-.59-.23-1.06.54-1.67.21a3.47,3.47,0,0,1-.58-2c-.31-.38,0-.89-.25-1.28v0a15.94,15.94,0,0,1-.4-4.19c.52-.52,1.08-.54,1.35.16.36.91,1.24,1.49,1.35,2.6.06.64.9,1.15.36,2-.16.25.36.33.61.46A1.39,1.39,0,0,1,24.51,63.19Z" style="fill:#9897ae"/><path d="M13.46,53.65c-.17,1.53-1.25,2.23-2.52,2.77a2.33,2.33,0,0,1-1.5,0,2.64,2.64,0,0,1-2.28-2.29.85.85,0,0,1,0-.79c.68-.72,1.49-.47,2.29-.32a4.84,4.84,0,0,1,2,.55.89.89,0,0,0,1.39-.29c.18-.24.23-.77.62-.59S13.63,53.32,13.46,53.65Z" style="fill:#9190a9"/><path d="M40.32,76.51c.66.06,1-.25,1.5-.72,1-.9,1.34-2.34,2.73-2.81.34-.11.29-.46.3-.75a.19.19,0,0,1-.07-.19c0-.06,0-.1,0-.1a.59.59,0,0,1,.32,0,2,2,0,0,1,.47.44c.42.29.92.15,1.36.3l.14.09c0,.25-.09.59-.33.61-1.3.1-1.42,1.44-2.5,2.1.93,0,1.52-.55,2.21-.24,0,0,.22-.11.26-.2.35-.88.81-.89,1.86,0-1.31.83-2.85,1-4.26,1.52-.39.3-.89,0-1.28.24h0a9,9,0,0,1-2.64.13A.23.23,0,0,1,40.32,76.51Z" style="fill:#9393aa"/><path d="M.39,45.13c-.28-.2-.15-.53-.26-.78a2.15,2.15,0,0,1,0-1.5.2.2,0,0,0,0-.18c.81-2.11,2.1-2.71,4.29-2,0,.19-.11.37-.27.35-1.21-.13-1.49.81-1.92,1.61A2.27,2.27,0,0,1,.85,43.68,2.34,2.34,0,0,0,3,44.91c1,.08,1.22-.19,1-1.08a.67.67,0,0,1,0-.37,1.87,1.87,0,0,0,.24-1.09A5.55,5.55,0,0,1,4.71,41a.33.33,0,0,1,.44.13h0a3.11,3.11,0,0,1,.52,4v0a2.29,2.29,0,0,1-1,1h0a2.88,2.88,0,0,1-3.24,0h0A3,3,0,0,1,.39,45.13Z" style="fill:#a4a3b8"/><path d="M62.18.43c.47.35.87.64.6,1.41a3.1,3.1,0,0,0,.53,2.71,2.61,2.61,0,0,1,.41,2.26,3.7,3.7,0,0,1-1.57-.38c-1.06-.38-2.19.13-3.24-.29l.25-.22c.9-.67,1.25-1.88,2.31-2.38.77-1.2.56-1.61-1-2-.66-.05-.89-.82-1.53-.91a.79.79,0,0,1-.29-.18.2.2,0,0,1,0-.29h0a2.33,2.33,0,0,1,1.76,0,.11.11,0,0,0,.17,0C61.09.45,61.7.07,62.18.43Z" style="fill:#727190"/><path d="M78.27,59.35c.72-.24,1.11-1.29,2.47-.55-.76-1-.07-1.75-.6-2.43-.1-.12.1-.68.27-.74a.88.88,0,0,1,1,.37c.33-.5-.08-.82-.19-1.2a.94.94,0,0,1,1.16.05c.29.24,1.23.36.78.81s.07,1.93-1.32,1.08c-.39-.23-.92-.07-.68.57.16.43-.22.81,0,1.22,1.21-.77,1.43-.66,1.8.81a.82.82,0,0,0,.75.57c.36.06.76-.1,1.08.18a.81.81,0,0,0-.22.07,6.56,6.56,0,0,1-3,0h0c-.39-.28-.9.07-1.28-.25A3.59,3.59,0,0,1,78.27,59.35Z" style="fill:#9d9cb2"/><path d="M90.83,58c-.09-.76.41-1.68-.65-2.2-.19-.09-.18-.61-.22-.94,0-.09.11-.23.2-.28a.23.23,0,0,1,.36.2c.07.59.32,1,1,.91a2.89,2.89,0,0,0,2.14-1.07c.5-.76,1.37-1.55,1-2.69.36-.64.8-.55,1.27-.14a.67.67,0,0,1,.09.34c-.76.62-.31,1.38-.24,2.09a1.92,1.92,0,0,1-.71,1l-.68.69a3.18,3.18,0,0,1-1,.82l-.7.54c-.41.27-.87.45-1.28.72h0A.33.33,0,0,1,90.83,58Z" style="fill:#9d9cb2"/><path d="M32.06,75.16a5.7,5.7,0,0,0,2.22-.92c.69-.49,1.41-1.18,2.31-.25.22.22.63.19.64-.22s0-.89.55-.87.37.63.52,1a.92.92,0,0,1,0,.37c-.9,0-.7.64-.56,1.14.3,1.12.32,1.12-.93,1A15.24,15.24,0,0,1,32.06,75.16Z" style="fill:#9393aa"/><path d="M95.84,33.81c.19.15.39.3.57.46s.49.43.28.61a2,2,0,0,1-1,.38.33.33,0,0,1-.4-.45c.08-.24.27-.49-.18-.48a.87.87,0,0,0-.55.22c-.19.17-.09.35.07.53a5.66,5.66,0,0,1,.47.73c-.34.62-.48,1.41-1.48,1.4-.63,0-.27.9-.78,1.11a1.62,1.62,0,0,1-1.19-1,2.18,2.18,0,0,1,1-1.88c.82-.51-.23-1.19,0-1.79.33-1.73.44-1.85,1.84-2,.3.18.17.39.05.6s-.56.26-.59.63C94.39,33.56,95.33,33.22,95.84,33.81Z" style="fill:#b5b4c5"/><path d="M20.74,30.54c-.48,1-1.34,1.7-1.8,2.72a1.28,1.28,0,0,1-1.26.68c-.61-.11-.45-.71-.45-1.14,0-1,0-2,0-3a3.26,3.26,0,0,1,2-.07C19.66,30.15,20.36,30,20.74,30.54Z" style="fill:#747392"/><path d="M25.79,40.08l.22-.25a3.18,3.18,0,0,1,1.31-1.21l0,0c.1-.21.29-.21.48-.19.39.14.68.36.62.84a1.57,1.57,0,0,1-.58.72,12.32,12.32,0,0,0-4.15,5.91c-.38.95-.76,2-2.13,1.79a.25.25,0,0,1-.1-.2c0-.08,0-.12,0-.12A2.65,2.65,0,0,1,22,45.86c.32-.38.46-.86.75-1.25l.76-1.28A27.17,27.17,0,0,1,25.79,40.08Z" style="fill:#393763"/><path d="M77.75,56.41c.59,1.06-.1,1.68-.8,2.29a.7.7,0,0,1-.7,0l-.74-.58c-.22-.22-.12-.46,0-.69.17-.5.06-.72-.51-.87-.76-.2-1-1.12-.77-2.31.16-.82.68-1,1.39-.83a1.29,1.29,0,0,1,.7.58c.1.25.44.25.54.48a1.76,1.76,0,0,1,.12,1.42C77.45,55.69,77.72,55.86,77.75,56.41Z" style="fill:#7e7d99"/><path d="M72.73,55.39a12.58,12.58,0,0,1-2-5c-.25-.28-.12-.62-.12-.94,1.19.41,2.37.85,2.83,2.19a7.68,7.68,0,0,0,.88,1.65c.09,1-.91,1.39-1.27,2.14A.24.24,0,0,1,72.73,55.39Z" style="fill:#9897ae"/><path d="M12.93,49.94l.52,1.2a.57.57,0,0,1-.1.84,1.76,1.76,0,0,1-.91,0,8.51,8.51,0,0,0-3.67-1.05.73.73,0,0,1-.69-1C9.57,48.26,11.6,48.26,12.93,49.94Z" style="fill:#9f9fb4"/><path d="M93.07,53.15c0,1-1.14.92-1.44,1.63-.07.15-.41.11-.41,0-.08-1.43-1.77-1.17-2.25-2.16,0-.28.2-.35.4-.44,1-.58,1.56-1.6,2.44-2.3,1,.83-.14,1.44-.25,2.16.35.22.47,0,.59-.24.37-.6.81-.53,1.23-.11s.2.89-.24,1.24C93.09,53,92.6,52.93,93.07,53.15Z" style="fill:#9d9cb2"/><path d="M36.81,35.08c-.47.45-1.4,0-1.67,1a1.21,1.21,0,0,1,1.4,1.32c0,.41-.4.91-.67.52-.89-1.26-2-.57-3.06-.56h-.5a2.22,2.22,0,0,1-1-.25.64.64,0,0,1-.43-.51c0-.42.45-.31.66-.48l2.23-.76c.4-.29.92,0,1.33-.23a.12.12,0,0,0,.17,0A1.85,1.85,0,0,1,36.81,35.08Z" style="fill:#807f9b"/><path d="M94.58,31.8c-1.34,0-1.53,1-1.77,2-.22.2-.25.52-.42.75-.32.47-.71.47-1.18.2-.71-.39-.57-1-.46-1.61C91,32,92,31.58,92.81,31.07c.38-.34.9,0,1.29-.26h0c.61-.2,1.15.14,1.72.27l-1,.68C94.73,31.86,94.66,31.88,94.58,31.8Z" style="fill:#8f8ea7"/><path d="M73,55.38c0-.93,1-1.23,1.25-2a1.41,1.41,0,0,1,.52-1.26,1.17,1.17,0,0,1,.3-.19c.46-.14.93-.33,1.29.19a.58.58,0,0,1,0,.5c-.33.26-.26.75-.59,1-.41.08-1-.24-1.18.35a4.44,4.44,0,0,0,0,2.2c0,.07.2.14.3.14,1.29.08,1.41.35.67,1.56a.77.77,0,0,0-.06.23l-.78-.46a3.89,3.89,0,0,1-1.23-1.29l0,0C73.35,56.05,72.82,55.9,73,55.38Z" style="fill:#85849f"/><path d="M93.07,53.15h-.72c.38-.3.89-.34,1-.89.09-.36-.2-.41-.37-.56s-.4-.24-.6.06c-.55.83-.56.83-1.42.49.19-.83,1.41-1.3.82-2.39,0-.3.19-.49.35-.71l.41.23a1.89,1.89,0,0,1,.48,1.34c.6-.21,1.3-.91,1.63.27.07.24.44,0,.68,0,.63,0,.81.33.48.89a1,1,0,0,0-1.26,0A1.4,1.4,0,0,1,93.07,53.15Z" style="fill:#8c8ba5"/><path d="M93.08,45.61c.08-.26,0-.59.25-.79a2.09,2.09,0,0,1,1.27-1,2.39,2.39,0,0,1,2.48,1.26c-.09.45.23.7.48,1s.34.45.24.76a.54.54,0,0,1-.7,0h0a1.74,1.74,0,0,1-1.47-1.12c-.09-.28-.11-.86-.51-.68s-1,.34-1,1-.26,1.23-1.13.81C93,46.48,92.83,46,93.08,45.61Z" style="fill:#ababbd"/><path d="M75.48,9c-.92.16-2.09,1-2.3-.81-1.61-.61-.19-2.15-.93-3,.56,0,.72.48,1,.85l.67.74A3.94,3.94,0,0,1,75,8C75.06,8.36,75.58,8.48,75.48,9Z" style="fill:#807f9b"/><path d="M12.21,42.28c.57-1.37,3.11-2.17,4.52-1.44a4.75,4.75,0,0,1-2,1.54,7.3,7.3,0,0,1-2.51,0Z" style="fill:#797896"/><path d="M70.58,12.42c.3-.89.13-1.89.64-2.73.16.06.29.16.44.22.4.16,1,.08,1,.72s-.55.73-1,1c.49.4.88.41,1.29-.05.26-.3.55-.88.94-.62s-.13.79-.19,1.2c-.3.7-.65,1.31-1.58,1.29-.45,0-.4.42-.44.74-.1.09-.17.08-.21-.06v0a10.35,10.35,0,0,0-.79-1.51Z" style="fill:#706e8e"/><path d="M9.45,53.37a3,3,0,0,0-2.24.05.36.36,0,0,1-.06-.52,8.72,8.72,0,0,1,.54-2.24A.22.22,0,0,1,8,50.59c.67.6,1.57.43,2.34.71.33.11.63.12.75.5a.65.65,0,0,1-.06.33A2.08,2.08,0,0,0,9.45,53.37Z" style="fill:#bcbcca"/><path d="M48.62,38.33c-.15-.31-.6-.31-.68-.74.73-.46,2-.66,1.17-2.08-.14-.25.36-.85.56-1.29.26,0,.35.18.42.38l0,0a8.19,8.19,0,0,1,1,1.82l0,.42C50.12,37,49.53,38,48.62,38.33Z" style="fill:#2d2b5a"/><path d="M21.48,47.39a.58.58,0,0,1,.07.21c.33.37.77.24,1.17.28s.79-.05.85.51a2.71,2.71,0,0,0-.87,1.31c-1.11-.17-1.5.39-1.62,1.43s-.21,1.16-1,1.11c.08-.36-.22-.81.24-1.08A5.83,5.83,0,0,1,21.48,47.39Z" style="fill:#9f9fb4"/><path d="M96.35,38.58c-.24-.09-.76.18-.58-.45.27-.9.43-1.86,1.71-1.93a.88.88,0,0,0,.87-.89h0c.22.12.25.33.28.55.17.64-.27,1-.6,1.44A7.47,7.47,0,0,1,96.35,38.58Z" style="fill:#b3b2c3"/><path d="M36.83,76.42c.27-.28.64-.1,1-.25-.84-.79-.6-1.63-.19-2.49.4,0,.37.46.65.56s.27.82.84.78c.16,0,.31.07.26.3-.2,1-.19,1,.9,1.19a1.48,1.48,0,0,1,0,.21,1.22,1.22,0,0,1-1.25,0h0c-.65-.32-1.39.1-2-.25Z" style="fill:#9d9cb2"/><path d="M84.54,54.18a2.17,2.17,0,0,0,1.25,1.73c1.36.52.51,1.31.45,2a12.44,12.44,0,0,0-3-3.53c.19-.27.5-.19.76-.28A.33.33,0,0,1,84.54,54.18Z" style="fill:#a2a1b6"/><path d="M86.54,59.88c0-1.51,1.46-1.68,2.3-2.4.2-.17.39.08.37.42s-.3.7.3.75C88.65,59.38,87.48,59.37,86.54,59.88Z" style="fill:#9f9fb4"/><path d="M92.82,38.32c.05-.78,0-1.61,1.21-1.48.31,0,.54-.13.43-.56s.33-.41.62-.47c.58.4.07.73,0,1.11-.16.54-1.42.58-.68,1.51l-1,.28C93.07,38.74,93,38.51,92.82,38.32Z" style="fill:#aeadbf"/><path d="M92.33,34.31a.45.45,0,0,1,.48-.52c0,.36.27.59.41.88s.15.92,0,.91c-1.26,0-1,1.22-1.6,1.73l-.59-1A.35.35,0,0,1,91,36C91.35,35.36,92.17,35.09,92.33,34.31Z" style="fill:#ababbd"/><path d="M33.3,73.23a6,6,0,0,0-1.79,1.53c-.82.16-1.32-.5-2-.76L29,73.5C30.46,73.71,31.86,73.16,33.3,73.23Z" style="fill:#8887a1"/><path d="M76.53,49.32c.15.29.29.58.44.88s.19.78.29,1.17l0,.06a10.34,10.34,0,0,0-2.23.71h0c-.75-.66-.72-1.49.18-1.83A3.92,3.92,0,0,0,76.53,49.32Z" style="fill:#9b9ab0"/><path d="M21.08,63.91c.44-.22.87-.47,1.33-.65s.47.1.34.44c-1.17.7-.25,1.88-.64,2.76A5.65,5.65,0,0,1,21.08,63.91Z" style="fill:#a7a6b9"/><path d="M95.59,54.17c-.18-.71-1.29-1.53.25-2a1.16,1.16,0,0,1,1.22-.34l0,.11-1.28,2.2C95.78,54.25,95.7,54.27,95.59,54.17Z" style="fill:#a7a6b9"/><path d="M21,33.05c.11-.68,0-1.43.46-2,.52.26.41.94.81,1.28a1.57,1.57,0,0,1,.09.93C21.78,34,21.39,33.51,21,33.05Z" style="fill:#45436c"/><path d="M92.33,34.31c.07.93-.6,1.35-1.26,1.76-.4-.15-.35-.54-.48-.84a.15.15,0,0,0,0-.17,1.55,1.55,0,0,1,0-1.25l.21-.69C90.93,34.62,91.39,35,92.33,34.31Z" style="fill:#9695ac"/><path d="M21,33.05c.39.13.72.56,1.21.26a.3.3,0,0,1,0,.5c-.44.4-.32,1.21-1,1.44A2.55,2.55,0,0,0,21,33.05Z" style="fill:#686789"/><path d="M13.2,51.89c.3-.18.23-.48.25-.75l.29.51a3.66,3.66,0,0,1,0,1.74l-.27.26c0-.24,0-.49-.05-.77-.35.16-.1.65-.46.76a1,1,0,0,1-.26-.84,2,2,0,0,1,.07-.35A1.22,1.22,0,0,1,13.2,51.89Z" style="fill:#aeadbf"/><path d="M55.37,70.16l-.95.88c.14-.37-.61-.55-.22-.93A.87.87,0,0,1,55.4,70,.63.63,0,0,0,55.37,70.16Z" style="fill:#a7a6b9"/><path d="M97.1,46.86h.7l.3.75a2.51,2.51,0,0,1-.1,2l-.15,0A3.25,3.25,0,0,0,97.1,46.86Z" style="fill:#9f9fb4"/><path d="M97.56,46.11c-.33-.33-.79.2-1.15-.22l.67-.77A1.24,1.24,0,0,1,97.56,46.11Z" style="fill:#b7b7c7"/><path d="M26,57.2c.09,1,.17,2,.26,3-1.18.26-1.53.84-1.29,2.06a1,1,0,0,1-.44.95c-.68-.27-.64-1.33-1.71-1.35-.42,0-.51-1.1.32-1.63-.89-.19-1.33-.61-.89-1.48-1.08-.56-.76-2.33-2.21-2.57v-.49c1.16-.86,2.34-1.63,3.89-1.38a6.89,6.89,0,0,1,1.2.13,1.09,1.09,0,0,1,.79,1.21A3.78,3.78,0,0,0,26,57.2Z" style="fill:#8f8ea7"/><path d="M23.32,68.41l-.41-.9c.62-.42.59-1.16.86-1.75a2.14,2.14,0,0,1,1-1.2.36.36,0,0,1,.45.07.4.4,0,0,1,.06.33c-1,1.39.27,1.27,1,1.49a2.61,2.61,0,0,0,.54.06C26.23,67.8,25.62,69,24,69Z" style="fill:#807f9b"/><path d="M36.81,72c-1,.59-1.92,1.5-3.27,1.25A12.35,12.35,0,0,1,36.81,72Z" style="fill:#8887a1"/><path d="M42.55,35.23c.35-.07.78.34,1.05-.17,0,.95.28,1.65,1.33,1.75a2.67,2.67,0,0,0,2.43-2.25,2,2,0,0,1,0,2.76.85.85,0,0,1-.5.5,3.13,3.13,0,0,0-2,.51.47.47,0,0,1-.54.05,3,3,0,0,0-1.47-1.23,1,1,0,0,1-.75-1.59Z" style="fill:#1a184b"/><path d="M40.35,23.74c0-.4,0-.8,0-1.21s0-.73,0-1.1c.06-.82.51-1.15,1.22-.68a2.44,2.44,0,0,0,1.28.24c.24-.06.32,0,.25.25-.38.88-.78,1.73-1.91,1.86a.81.81,0,0,0-.67.67A.45.45,0,0,1,40.35,23.74Z" style="fill:#535178"/><path d="M43.09,21.24,42.84,21c.14-.34.54-.56.5-1l.75-.5a.3.3,0,0,1,.26-.25,1.26,1.26,0,0,1,1.47,0v.26A5,5,0,0,0,43.09,21.24Z" style="fill:#55547a"/><path d="M77.75,56.41a1.6,1.6,0,0,1-.26-.26c-.5-.69-.34,1.05-.79.23-.21-.38.25-.81.1-1.31a2.16,2.16,0,0,0-.56-.92.16.16,0,0,1,.26,0c.47,0,.64.4.7.75s.22.76.75.8c.26,0,.69.12.64.45S78.05,56.34,77.75,56.41Z" style="fill:#85849f"/><path d="M75,52.14c.65-.52,1.27-1.17,2.23-.71,0,.27.06.54-.22.71a3.86,3.86,0,0,0-.76,0C75.82,51.86,75.41,52.23,75,52.14Z" style="fill:#8c8ba5"/><path d="M79.81,54.47c-.49.17-1,.36-1.36-.12a.31.31,0,0,1,.1-.3C79.11,53.7,79.42,54.18,79.81,54.47Z" style="fill:#666587"/><path d="M76.5,54.15h-.26c-.16-.17-.33-.33-.5-.5a.9.9,0,0,1,.51-1,.15.15,0,0,1,.25,0C76.09,53.14,76.41,53.65,76.5,54.15Z" style="fill:#8c8ba5"/><path d="M76.5,52.64h-.25c0-.17,0-.34,0-.5.25-.39.51-.8.76,0Z" style="fill:#8887a1"/><path d="M57.11,47.41c.1.4.2.8.31,1.2.15.18,0,.43.12.59.83,1.58.07,2.83-.73,4.13-.67,1.08-1,1.22-2.06.54a6.62,6.62,0,0,1-1-.58c-1-1-1-1.63-.15-3.22.42-.73,1.23-.77,1.9-1,0-.55-.75-.66-.64-1.21a1.68,1.68,0,0,0,1.78-1Z" style="fill:#2d2b5a"/><path d="M54.9,47.87c.6.29.89.87,1.36,1.37-.83.3-1.77.16-2.36.89-.36-.31-.38-.93-1-1-1.77-.36-2.35-1.65-2.55-3.24,1-.35,1.9-1.13,3.09-.37.68.43,1.46.64,1,1.72C54.31,47.5,54.62,47.74,54.9,47.87Z" style="fill:#34325f"/><path d="M50.38,45.87c.14.2.36.38.39.59a2.69,2.69,0,0,0,2.37,2.41c.26.44,0,.61-.37.66a2,2,0,0,1-1.2-.13c-.63-1.1-1.27-2.2-1.9-3.31Z" style="fill:#55547a"/><path d="M44.83,42.14l-.49-.27c-.24-.23-.56-.38-.71-.69s-.46-.68-.26-1,.69-.35,1.1-.19l.13.14A4.46,4.46,0,0,0,44.83,42.14Z" style="fill:#3b3965"/><path d="M44.35,38.32h.49c0,.58,0,1.17,0,1.75h-.26c-.11-1-1-.28-1.42-.62-.31-.71.41-.68.68-1A1,1,0,0,1,44.35,38.32Z" style="fill:#3b3965"/><path d="M47.06,4.64a.88.88,0,0,1,.57-.44c.28.64,1,.68,1.48,1.14.24.25.69,0,1-.33,1.06-1.56,2.23-1.91,4.17-1.1C53.05,4.3,52.76,6,51.16,5.34c-.28-.11-.56.3-.53.7,0,.64-.5.86-.92,1s-.62-.36-.86-.67C48.34,5.73,47.33,5.56,47.06,4.64Z" style="fill:#666587"/><path d="M61.68,3.66c-1.08.49-1.23,2-2.52,2.26C59.49,5,60.34,4.26,60,3c-.26-1-.59-1.43-1.56-1.37a.72.72,0,0,1-.78-.47c.28-.48.8-.55,1.26-.72.87-.25.94.73,1.5,1,.19.44,0,1.34,1,.7a.56.56,0,0,1,.79.12c.17.25,0,.49-.17.66S61.85,3.43,61.68,3.66Z" style="fill:#686789"/><path d="M58.92.43c-.4.28-.73.68-1.26.72-2.16.43-4.14,1.45-6.26,2-1.25.33-2.4,1.07-3.76,1l0-.21a58,58,0,0,0,7.78-2.75c.63-.1,1.35.14,1.74-.73.09-.21.91-.1,1.4-.13Z" style="fill:#6d6c8c"/><path d="M73.52,24.26V24a3.77,3.77,0,0,0,.17-1.1c0-.88.93-1.5,1.55-.94.84.76,1.34.75,1.83-.27.06-.13.3-.07.43.06a.56.56,0,0,0,.25.5c.34.37.84.33,1.26.5,0,.52-1.71,1.39.29,1.53a17.33,17.33,0,0,1-.5,4.54.51.51,0,0,1-.28-.39c0-1.78-1.26-2.47-2.73-2.94A5.15,5.15,0,0,1,73.52,24.26Z" style="fill:#45436c"/><path d="M77.5,21.75c-.69.11-.31,1.11-1.08,1.26-.37.07-.57.2-.77-.2s-.39-.9-1.1-.73-.69.59-.7,1.14a2.18,2.18,0,0,1-.33.78c0-1.07,0-2.13-.08-3.2.13-.63.4-.92,1.13-.65.94.35,1.68,1.21,2.8,1.15A2,2,0,0,1,77.5,21.75Z" style="fill:#535178"/><path d="M73.73,12.2l.15-1.09c-.45.15-.5.58-.74.85-.47.51-1.88.4-2.08-.24s.28-.5.61-.52.82,0,.77-.55-.47-.25-.76-.25c-.51,0-.43-.39-.46-.71l.25-.25c.59-.45,1.07-.19,1.51.25l.25.25c.53.22,1.3-.06,1.51.76C74.66,11.37,74.08,11.71,73.73,12.2Z" style="fill:#646285"/><path d="M74.74,10.7c-.32-.61-1.19-.13-1.51-.76a7.85,7.85,0,0,0,2.57-.52,1.3,1.3,0,0,1,.45.77C75.69,10.2,75.35,10.84,74.74,10.7Z" style="fill:#706e8e"/><path d="M78,18.66c-.23.75-.46,1.09-1,1a.32.32,0,0,1-.19-.27C76.94,18.77,77.48,19,78,18.66Z" style="fill:#514f76"/><path d="M79,22.75c-.48,0-1,.09-1.26-.5A2.44,2.44,0,0,1,79,22.75Z" style="fill:#535178"/><path d="M44.41,12.16c-.28.43.41.87-.12,1.23A.33.33,0,0,1,44,13.3C43.7,12.81,43.89,12.46,44.41,12.16Z" style="fill:#646285"/><path d="M44.35,19.24l-.26.25c-.21-.18-.44-.38-.27-.68.06-.1.28-.1.42-.14Z" style="fill:#646285"/><path d="M46.1,69.7l2-1c.7-.09,1.54-.54,1.69.7.26-.11.18-.28.16-.43,0-.51-.1-1.07.48-1.29s.57.54.88.8c.16.13.23.35.36.51h0c.16.43-.24.57-.42.82s0,.37,0,.56c-.08.47-.55.42-.84.62-.63-.16-1.31-.23-1.68-.88-.11-.19,0-.56-.45-.4s-.3.4-.17.7.3.57.23.8c-.11.41-.2,1.12-.94.54C45.87,71.72,46.26,70.54,46.1,69.7Z" style="fill:#8a89a3"/><path d="M46.1,69.7c0,.54,1.21.69.44,1.55-.18.2.67.08.82.48-1,.11.39.81-.25,1h0c-.56-.27-1.21.07-1.76-.26L45.1,72c-.17-.33.21-.55.16-.85s-.34-.61-.47-.94Z" style="fill:#9695ac"/><path d="M51.63,69c-.49-.25-1.28-.24-.8-1.25-1.37.44.32,2.21-1.44,2.29.59-1.48-.62-1.14-1.33-1.33l1.26-.74c.52-.09.69-.81,1.31-.73h0C51.08,67.73,51.81,68.09,51.63,69Z" style="fill:#9393aa"/><path d="M50.37,71c.2-.3.65-.35.76-.75a1.41,1.41,0,0,0-.26-.5l.76-.75C52.18,70.56,52.08,70.72,50.37,71Z" style="fill:#9393aa"/><path d="M36.81,40.82l-2.7.55c-.36.15-.81.09-1.06.48h0a13.84,13.84,0,0,0-2.56.52,6.07,6.07,0,0,1-1.9.08c-.42-.5-.06-.71.34-.91-.35,0-.73,0-.83-.49a.93.93,0,0,1,.51-1.13,3.79,3.79,0,0,0,1.29-.67,1.43,1.43,0,0,0,1.49-.35c.35-.22.3-.88.9-.82.24.15.49.45.72.43a3.32,3.32,0,0,1,2.74,1.32c.15.17.52.35.64.28.87-.53,1.86,0,2.56-.16.95-.29,2-.14,2.85-.62a.43.43,0,0,1,.16.34.54.54,0,0,1-.18.34c-1.07.77-2.31.65-3.52.7A3.38,3.38,0,0,0,36.81,40.82Z" style="fill:#807f9b"/><path d="M44.35,38.32l-.25.26a7,7,0,0,1-1.87-.44c-.46-.11-.9-.44-.65-1.08a4.22,4.22,0,0,1,.5-1.5c0,.75.15,1.2,1,1.33A1.3,1.3,0,0,1,44.35,38.32Z" style="fill:#393763"/><path d="M41.58,37.06c0,.61.55,1,.94.9.78-.23,1.08.36,1.58.62l-1,.74a.8.8,0,0,1-1.23.26l-.06-.25C41.69,38.58,41.21,37.86,41.58,37.06Z" style="fill:#45436c"/><path d="M32.29,38.08c-.36.25-.24.87-.76,1-1.07.16-.61-.69-.7-1.12s.24-.92.72-1.14l.76.49C32.31,37.57,32.3,37.83,32.29,38.08Z" style="fill:#58567b"/><path d="M42.84,73.24c-.06.27-.23.8-.43.55-1.08-1.3-2.52.27-3.57-.64.55-.12-.36-1.36.56-1.1s2.6-.88,3.19.93A.32.32,0,0,1,42.84,73.24Z" style="fill:#8887a1"/><path d="M44.79,70.19c.64.06.86.45.81,1-.15.35-.65.35-.75.75v.25c-1-.06-1.38-1.18-2.25-1.48Z" style="fill:#85849f"/><path d="M42.84,73.24,42.59,73a1.19,1.19,0,0,1,.46-.84c.24-.24.42-.36.66,0s.4.57-.06.78A7.81,7.81,0,0,1,42.84,73.24Z" style="fill:#9897ae"/><path d="M58.69,52.89l.17.06c.16,1.91.75,3.78.53,5.73C58.86,59.5,58,60,57.57,61a2,2,0,0,0,.3,2.38c.2.22.49.48.26.86-1.14-.78-2.29-1.55-2.69-3a3.22,3.22,0,0,0-1.15-1.71.94.94,0,0,1-.42-.83,1.32,1.32,0,0,0-.26-1.75h0c.09-1,1-.94,1.56-1.08s.54.67.79,1c.64,1-.06,1.71-.31,2.61,1-.25,1.36-1,1-1.61a2.78,2.78,0,0,1-.08-2.54,2.82,2.82,0,0,0,0-.5C57.06,54,58.16,53.75,58.69,52.89Z" style="fill:#7e7d99"/><path d="M58.13,64.23a6.42,6.42,0,0,0-.42-.6,2.59,2.59,0,0,1,.39-4c.44-.31.51-1.14,1.29-1a14.28,14.28,0,0,1-.7,6.05Z" style="fill:#5f5e81"/><path d="M51.87,64.91a2.31,2.31,0,0,1,.72-1l1.18-.86c.41.65-.83,1.57.58,2-.71-.19-1.19.17-1.71.13a.53.53,0,0,1-.76,0Z" style="fill:#a2a1b6"/><path d="M51.88,65.19h.76c.13.37.82.16.73.41a4,4,0,0,1-.93,1.23c-.12.13-.41-.07-.37-.17C52.26,66.13,51.54,65.73,51.88,65.19Z" style="fill:#b5b4c5"/><path d="M53.61,56.93c.35.06,1.12-.06.77.48s1.17,1.57-.51,1.27l-.21,0C53.64,58.09,53.63,57.51,53.61,56.93Z" style="fill:#8a89a3"/><path d="M50.63,67.21c-.48.18-.69.82-1.31.73l1-1Z" style="fill:#9d9cb2"/><path d="M68.21,4.17a1.67,1.67,0,0,0,.48.11A2.16,2.16,0,0,1,71,5.67a1.71,1.71,0,0,1,.25,1c-1.38.43-2.64-.24-3.94-.47a.51.51,0,0,1-.2-1,1.63,1.63,0,0,0,.63-.84Z" style="fill:#807f9b"/><path d="M67.71,4.42c-.1.3.61.93-.38.86-.18,0-.34.24-.28.48a.51.51,0,0,0,.45.38c1.24.19,2.48.36,3.72.54a1.55,1.55,0,0,1-2.24,0c-.19.45.59.87,0,1.12-.39.17-.46-.34-.58-.65a1.21,1.21,0,0,0-.69-.68c-1.32-.58-1.35-.78-.28-1.8Z" style="fill:#7c7a98"/><path d="M73,9.69a4.83,4.83,0,0,0-1.51-.25c0-.74-1.21-.85-.85-1.84C71.46,8.24,73.07,7.94,73,9.69Z" style="fill:#706e8e"/><path d="M64.84,3.16l1.38.49c-.21.51-.24,1.1-.78,1.45-.38.25-.4,1.11-1,.84s-.58-1-.38-1.56S63.59,2.9,64.84,3.16Z" style="fill:#85849f"/><path d="M70,3.19l.72.27c.08.15.17.3.25.46C70.49,3.83,69.72,4.18,70,3.19Z" style="fill:#807f9b"/><path d="M46.86,37.82a.85.85,0,0,1,.5-.5C47.45,37.75,47.29,37.91,46.86,37.82Z" style="fill:#232152"/><path d="M97.06,51.8c-.34.37-.82.2-1.22.34v-.25c-.16-1.56-1.08,0-1.62-.52-.09-.14.3-.5-.12-.84-.45.12-.75,1-1.53.45.42-.47-.08-1,0-1.6.49-.75.6-.76,1.31,0,.48.55,1.23.52,1.81.92S96.87,51.06,97.06,51.8Z" style="fill:#807f9b"/><path d="M93.08,47.62l0-.51c.32-.32.86-.34.66-1.17-.15-.65.82-1.18,1.43-1.42s.58.53.64.95c.1.77.67,1.08,1.25,1.39C95.59,46.21,94.3,46.76,93.08,47.62Z" style="fill:#9f9fb4"/><path d="M94.58,31.8a.39.39,0,0,1,.21,0c1.13-.18,1.5.43,1.66,1.45.11.65-.25.56-.61.59a6.06,6.06,0,0,1-1.93-.37c-.24-.06-.74-.16-.33-.64.19-.25.56-.24.75-.5Z" style="fill:#c3c3d0"/><path d="M98.35,35.31c-.19,0-.43,0-.38-.32,0-.07.21-.16.29-.14.33.08.12.29.09.46Z" style="fill:#b3b2c3"/><path d="M9.45,53.37c0-1.09.52-1.5,1.5-1.24a.84.84,0,0,1,.46.23c.34.51,1,.77,1.07,1.51a1,1,0,0,1-1,0A6.26,6.26,0,0,0,9.45,53.37Z" style="fill:#f3f3f6"/><path d="M11.44,53.91c.33,0,.71.13,1-.22-.07-.47-.12-.94.54-1v1C12.52,54.15,12.06,54.46,11.44,53.91Z" style="fill:#b3b2c3"/><path d="M45.35,72.48c.58.11,1.23-.23,1.76.26C46.52,72.67,45.83,73.29,45.35,72.48Z" style="fill:#8c8ba5"/><path d="M44.85,72c-.57-1.06.68-.32.75-.75,0,.39-.35.49-.5.75Z" style="fill:#8c8ba5"/><path d="M4.39,40.85l.29.18c.37.53,0,.91-.27,1.32-.59.21-.82.5-.25,1a1,1,0,0,0,.28.79c.35.38,0,.69-.21,1a.5.5,0,0,1-.83.16.81.81,0,0,0-.69-.16c-1.24.71-1.42-.83-2.21-1.06-.16,0-.42-.89.45-.83,1.24.07.93-1.39,1.69-1.81,0,0-.51,0-.55-.39A5.57,5.57,0,0,1,4.39,40.85Z" style="fill:#9d9cb2"/><path d="M4.16,43.35c-.37-.11-1-.07-.87-.64s.67-.46,1.12-.36C4.55,42.74,5,43.2,4.16,43.35Z" style="fill:#9393aa"/><path d="M61.68,3.66a2.2,2.2,0,0,0,0-.36c-.08-.4.73-.68.24-1s-.56.36-.9.48-.5.26-.68,0c-.38-.45-.14-.92.07-1.37s.66-.75,1,0c.05.12.07.3.15.33C63.18,2.28,62.15,3,61.68,3.66Z" style="fill:#6d6c8c"/><path d="M94.33,32.3c0,.51-.39.5-.75.5C93.6,32.29,94,32.29,94.33,32.3Z" style="fill:#bcbcca"/><path d="M73.52,24.26a26.57,26.57,0,0,1,4.39,1.87c1,.61.76,1.74.89,2.69a12,12,0,0,1-.57,3c-.22,1.08-.51,2.1-1.76,2.43a1.23,1.23,0,0,1-1.19-.14c-.35-.32-.08-.65.06-1A1.67,1.67,0,0,0,74.7,31c-.64-.39-.87-1.31-1.78-1.36-.07,0-.07-.3,0-.44Z" style="fill:#151347"/><path d="M70.74,49.38c-.08-.18-.16-.35-.23-.53,0-.5,0-1,0-1.48a.82.82,0,0,1,1-.21c.87.73,1.22,0,1.69-.49a3.69,3.69,0,0,1,2.21-1.23c.73,0,.08-.54.27-.76.08-.41-.11-1,.53-1.08a32.19,32.19,0,0,0,.32,5.72c-.14.62-.1,1.18-1.15,1.21-.87,0-.81.92-.39,1.61l-.75,1.26c-1-.38-.87-1.45-1.35-2.15-.32-.47-.51-.93-1.19-.88S71.08,49.69,70.74,49.38Z" style="fill:#8c8ba5"/><path d="M74.74,30.79c.86.3,1.49,2.08.91,2.62-.12.11-.44.05-.35.35s.37.32.61.28a2.27,2.27,0,0,0,1.87-1.23c.16-.34.3-.67.45-1a58.15,58.15,0,0,1-1.29,6.54c-.28.67-.78.76-1.4.49a2.53,2.53,0,0,1-2.21-2,1.72,1.72,0,0,0-.83-1c-.33-.23-.76-.41-.6-1a.84.84,0,0,1,.54-.28c1.33-.31,1.36-.31,1.06-1.62-.1-.43-.07-.75.31-1S74.39,31.14,74.74,30.79Z" style="fill:#121045"/><path d="M76.21,43.6c-.36.36-.16.83-.24,1.25-1.13.44-1.77.19-2-.8-.36-1.82-.86-2.23-2.72-2.25a.78.78,0,0,1-.56-.2l0-1c.17-.43.56-.55.94-.69a7.47,7.47,0,0,0,.79-.29A8.08,8.08,0,0,0,74,38.85a1.5,1.5,0,0,1,1.39-.14c.11.08.23.25.17.3-.67.63-.23,1.07.22,1.51a16.45,16.45,0,0,0,.41,2.33C76.23,43.1,76.22,43.35,76.21,43.6Z" style="fill:#646285"/><path d="M75.74,40.59l-1.42-.93c.21-.6,1.18,0,1.18-.84a.42.42,0,0,1,.24-.23c.5.37.84,0,1.2-.25-.14.75-.29,1.49-.44,2.24A.54.54,0,0,1,75.74,40.59Z" style="fill:#646285"/><path d="M75.74,40.59h.76a5.79,5.79,0,0,1-.27,2.27A2,2,0,0,1,75.74,40.59Z" style="fill:#85849f"/><path d="M28.77,40.08c-.63.77-.63.77,1.17,1.27-.42.44-1.34.15-1.41,1,.06.52-.4.54-.7.66A1.19,1.19,0,0,0,27,44a4.47,4.47,0,0,1-.68,1.32,7.58,7.58,0,0,0-1.21,3.33,1,1,0,0,1-1,.43c-.32-.13-.65-.23-.62-.67-.48-.66-1.65.38-1.93-.79,1.05-.06,1.47-.78,1.79-1.64a13.23,13.23,0,0,1,3.48-5.56c.27-.25.51-.57.93-.58S28.59,39.39,28.77,40.08Z" style="fill:#797896"/><path d="M27.73,38.47l1.33-1.11L30,37a1.11,1.11,0,0,1,.23,1.67c-.56.48-1.06,1.17-1.95.67C28.31,38.91,27.84,38.81,27.73,38.47Z" style="fill:#55547a"/><path d="M28.28,39.33c.72.07,1.2-.41,1.75-.76a.54.54,0,0,1,0,.76c-.29.47-.57.94-1.26.75-.26-.37-.67-.2-1-.26Z" style="fill:#706e8e"/><path d="M7.9,50.59l.25-.5c.28.73,1.06.27,1.3.44.78.56,2.07-.15,2.53,1,0,.07.31,0,.47.06a.25.25,0,0,1,0,.34,1.14,1.14,0,0,1-.56.19,1.07,1.07,0,0,1-.9-.29,5.35,5.35,0,0,0-2.58-.66C7.81,51.17,8,50.84,7.9,50.59Z" style="fill:#aeadbf"/><path d="M12.45,51.89v-.25l.75.25a.51.51,0,0,1-.25.5C12.67,52.34,12.35,52.33,12.45,51.89Z" style="fill:#b3b2c3"/><path d="M30,39.33v-.76c.44-.53,0-1,0-1.58a1.76,1.76,0,0,1,1-.49.57.57,0,0,0,.55.33,1.58,1.58,0,0,0,0,2.26C31.11,39.63,30.65,40,30,39.33Z" style="fill:#807f9b"/><path d="M11,51.88h1c0,.56-.23.75-.76.5L11,52.13A2.18,2.18,0,0,1,11,51.88Z" style="fill:#b3b2c3"/><path d="M20.2,53.08l.06-.69c.78-.39.42-1.18.58-1.77.43-1.52.38-1.54,1.9-1,.29.8-.17,1.65.2,2.44a18.64,18.64,0,0,1-1.64,2.66c-.23.28-.53.63-.94.48s-.24-.57-.24-.89A3.24,3.24,0,0,1,20.2,53.08Z" style="fill:#9b9ab0"/><path d="M22.75,51.89c-.72-.75-.21-1.5,0-2.26-.71-1,.18-1,.74-1.24l.51.49C23,50,23,50.4,23.82,51.67A9,9,0,0,1,24.61,54c.16.19.49.27.41.62H23.76c-.69-.37-1.15-.8-.84-1.7A1.27,1.27,0,0,0,22.75,51.89Z" style="fill:#b0afc1"/><path d="M70.72,41.6c1.53-.63,2.6,0,3.48,1.23.12.18.3.32.23.53C73.87,45,75,44.84,76,44.85c-.16.25.47,1-.48.76-.46-.29-.89,0-1.3.13-1.31.56-1.3.57-1.48-.8-.34.08-.37.41-.51.64s-.23.9-.76.86-.56-.55-.73-.91a1.14,1.14,0,0,0-.26-.42A11.18,11.18,0,0,1,70.72,41.6Z" style="fill:#797896"/><path d="M70.45,45.11c.55.19.71.73,1,1.32a8.28,8.28,0,0,1,1.13-2.14c1.07.28.47,1,.39,1.71.88-.2,1.52-1.54,2.48-.39-1.54.34-2.31,1.73-3.58,2.7.06-1.27-.79-.89-1.42-.94C70.48,46.61,70.46,45.86,70.45,45.11Z" style="fill:#8887a1"/><path d="M71.76,40.11l-1,.49v-1l.23-.28A4.09,4.09,0,0,1,73.83,39l.14.15c-.31.59-1,.52-1.46.77C72.27,40,71.86,39.57,71.76,40.11Z" style="fill:#8887a1"/><path d="M74.74,30.79a9.45,9.45,0,0,0-.91,3.56c0,.8-1.19.32-1.83.47a.4.4,0,0,1,0-.56c.1-.73.21-1.46.31-2.19a9.17,9.17,0,0,0,.52-2.74l.18-.09C73.92,29.34,74.2,30.21,74.74,30.79Z" style="fill:#1c1a4c"/><path d="M22.75,51.89c.38.54.93,1,.34,1.78-.33.47.76.41.67,1-1.19-.62-1.89.75-2.94.74a2.68,2.68,0,0,0-.8.29,5.54,5.54,0,0,1,.18-2.59,2.33,2.33,0,0,0,0,.37c.13.52-.35,1.37.29,1.52s.71-.77,1-1.22A10.68,10.68,0,0,1,22.75,51.89Z" style="fill:#a7a6b9"/><path d="M11.19,52.39a.78.78,0,0,0,.76-.5h.5l.5.5v.25l-.54,1A3.06,3.06,0,0,1,11.19,52.39Z" style="fill:#bcbcca"/><path d="M58.69,52.89c0,1.33-1.41,1.29-2.06,2a2.65,2.65,0,0,1-3.48-.47l-.06-.5a1.18,1.18,0,0,1,.64-.74l.17,0c.38.35,1.1.07,1.36.75.05.12.9.36,1-.14.27-1,1.14-1.74,1.42-2.72.24-.8-.51-1.57-.29-2.42l.18.07a9.42,9.42,0,0,0,.78,2.48C58.48,51.74,58.58,52.31,58.69,52.89Z" style="fill:#42416a"/><path d="M72,34.26c0,.18,0,.37,0,.56,0,.64.7.45.94.82s.68.56.68.83c0,1.46,1,1.8,2.12,2.12l-.24.23A4,4,0,0,0,74,39.1h0A2.66,2.66,0,0,0,72,38.84c-.63.14-1-.13-.85-.81-.14-.84.37-1.6.33-2.43a2.74,2.74,0,0,0,.25-1.26Z" style="fill:#2d2b5a"/><path d="M71.19,38c.22.26.15.74.84.5a1.85,1.85,0,0,1,2,.56c-1-.07-2,.39-3,.24l0-1.23Z" style="fill:#47456e"/><path d="M25,48.64c-.35-1.63.74-2.76,1.39-4,.13-.25.37-.44.37-.76a1.6,1.6,0,0,0,2.35-.2c.21-.24.49-.57.85-.32s.25.65.05,1a10.29,10.29,0,0,0-.55,1c-.8,1.75-1.94,3.08-4,3.34A.35.35,0,0,1,25,48.64Z" style="fill:#6d6c8c"/><path d="M53.15,54.41c1.07.85,2.31.39,3.48.47.08.1.24.2.23.29A4.7,4.7,0,0,0,57,58a1.18,1.18,0,0,1-.74,1.69c-.25.11-.36.61-.74.26s-.44-.62-.14-.89c.79-.74.53-1.56.3-2.41-.13-.5-.19-1.12-.81-.27-.27.37-1-.22-1.21.51C53.46,56.09,53.31,55.25,53.15,54.41Z" style="fill:#85849f"/><path d="M25,48.64l.49,0c-.42.88-1.12,1.71-.5,2.77a2.28,2.28,0,0,1-.72,3c-.3-1.08-.17-2.29-1.35-3.07-.59-.4.27-2.26,1.06-2.44A1.53,1.53,0,0,0,25,48.64Z" style="fill:#bab9c8"/><path d="M30,44.32c0-.28.09-.59-.23-.9a7,7,0,0,1-1.62,1.22c-1.06.58-1-.46-1.4-.79-.13-1.34,1.26-.9,1.76-1.5a5,5,0,0,1,2-.26c.61.14.82.49.54,1.08Z" style="fill:#777694"/><path d="M51.57,49.4c.36-.67,1.3.4,1.57-.53.83.07.75.7.76,1.26-.55,1-.91,2,0,3h0c-.33,0-.6.36-1,.25Z" style="fill:#45436c"/><path d="M41.86,39.58l1.23-.26c.46.32,1.64-.75,1.5.76H43.54a5.62,5.62,0,0,0,.8,1.79l-2-.82a1.47,1.47,0,0,1-.51-1.22A2,2,0,0,1,41.86,39.58Z" style="fill:#535178"/><path d="M24.28,54.39a4.66,4.66,0,0,0,.72-3c1,.34.85,1.47.87,2A15.85,15.85,0,0,1,26,57.2a2.24,2.24,0,0,1-.19-1.46,1,1,0,0,0-.77-1.1C24.84,54.36,24.55,54.41,24.28,54.39Z" style="fill:#dedde5"/><path d="M41.85,39.83a1.59,1.59,0,0,1,.51,1.22,31.22,31.22,0,0,0-5.55-.23.8.8,0,0,1,.67-.24A11.43,11.43,0,0,0,41.85,39.83Z" style="fill:#9393aa"/><path d="M31.07,43.17a1.27,1.27,0,0,0-.54-1.08,2.78,2.78,0,0,1,2.52-.24Z" style="fill:#8887a1"/><path d="M52.91,53.39c.27-.3.54-.59,1-.25a1.45,1.45,0,0,1-.79.77A.48.48,0,0,1,52.91,53.39Z" style="fill:#5c5b7f"/><path d="M33.05,41.85c0-1.05.73-.27,1.06-.48A2.1,2.1,0,0,1,33.05,41.85Z" style="fill:#8887a1"/><path d="M24.36,60.46c-.12.81-.7.88-1.44,1.19C23.34,60.93,23.61,60.48,24.36,60.46Z" style="fill:#9897ae"/><path d="M50.87,69.72c.44,0,.39.23.26.5C50.81,70.17,50.49,70.12,50.87,69.72Z" style="fill:#9d9cb2"/><path d="M73.42,48.75c-.34,0-.41-.13-.42-.35a.91.91,0,0,1,.55-.89c.25-.12.38.05.41.28A1,1,0,0,1,73.42,48.75Z" style="fill:#85849f"/><path d="M71.76,40.11c-.12,0-.43-.07-.28-.22s.68-.5,1,0C72.32,40.11,72,40.08,71.76,40.11Z" style="fill:#a2a1b6"/></g></g></svg>