<svg xmlns="http://www.w3.org/2000/svg" viewBox="0 0 84.86 69.15"><g id="Ebene_2" data-name="Ebene 2"><g id="OBJECTS"><path d="M20.32,7l-1.05-.78a5,5,0,0,0-2.48,0,7.59,7.59,0,0,0-2.25,1.27c-.39.19-.64.59-1.08.71a2.2,2.2,0,0,0-1,1,.69.69,0,0,1-.55.39c-.51-.15-.69-.6-.91-1-.16-.75-.78-1.12-1.29-1.59C9.27,6,8.57,5.17,9.32,4.08a.24.24,0,0,0-.05-.14c.49-.27.77-.82,1.35-1a5,5,0,0,1,1.66-1,12.92,12.92,0,0,1,3.34.25,4.77,4.77,0,0,0,3.62-.54,4.23,4.23,0,0,1,3.31-.44.74.74,0,0,1,.51.29l0,0a2.4,2.4,0,0,1,1,.83l.66.67a4.39,4.39,0,0,1,1.1,1.25h0a3.68,3.68,0,0,1,.75,1l0,0a3.69,3.69,0,0,1,.78,1.34l.18.19c.84.09,1-1,1.76-1a8.45,8.45,0,0,1,3.8,1.39c.91.54,1,1.18.55,2.35-.07.43-.55.37-.76.64a3.57,3.57,0,0,1-.85.84,2.23,2.23,0,0,0-.9,1.23,12.88,12.88,0,0,0-1,1.05c-.22.08-.22.27-.21.46a8.63,8.63,0,0,0-.11,2.15c-.83.54-.47-.68-1.1-.61A18.24,18.24,0,0,1,26,17.46a3.65,3.65,0,0,0-1.4,3.05c0,.54.23,1.2-.43,1.58A.28.28,0,0,1,24,21.8a47.72,47.72,0,0,0-.61-8.1v0c-.3-.39,0-1-.52-1.31A8.27,8.27,0,0,0,21.09,8C20.85,7.62,20.58,7.29,20.32,7Z" style="fill:#3d3c67"/><path d="M67.15,25.58c-1.22-.34-2.3-1.09-3.56-1.33s-2.75.14-4.09-.25c-.56.07-.94-.42-1.46-.49a5.51,5.51,0,0,1-.78-1h0c-.33-.24-.33-.66-.54-1-.55-1,0-1.85.53-2.68.21-.38.48-.73.73-1.1a2.27,2.27,0,0,1,.85-.46,9.57,9.57,0,0,0,2.21.3c.42-.07.68.26.92.55a2.87,2.87,0,0,0,2.2,1c1.51.06,3,.81,4.53,0a1.57,1.57,0,0,1,1.37,0,3.59,3.59,0,0,1,.49,2.27c0,2.51,1.81,3.75,4.14,2.77a5.65,5.65,0,0,1,.57-.23c.62-.2,1.1-.07,1.24.62s-.28.94-.85,1a24.77,24.77,0,0,0-4.53.84C69.87,25.83,68.44,26,67.15,25.58Z" style="fill:#3d3c67"/><path d="M71.06,26.28a10.78,10.78,0,0,1,4.29-1c.35,0,.8.14.94-.38a.62.62,0,0,0-.2-.68.66.66,0,0,0-.91.15c-1.34,1.23-2.67.33-3.92-.09-1-.34-1.12-1.47-1.05-2.34a23.84,23.84,0,0,0-.16-2.69c0-1,.62-1.19,1.41-1.16a8.5,8.5,0,0,1,4.84,1.43l1.3,1.24a4.61,4.61,0,0,1,.71,1.62.09.09,0,0,0,0,.14,5.19,5.19,0,0,1,0,3.76,1.16,1.16,0,0,0-.28,1c-.15.36-.18.78-.53,1l-1.47,1.57a4.19,4.19,0,0,1-1.29.44,3,3,0,0,1-2.28-.24,5,5,0,0,0-1.18-.46L71,29.3c-.33-.25-.64-.53-1-.75L69.57,28C69.35,26.89,69.73,26.46,71.06,26.28Z" style="fill:#3b3965"/><path d="M55,63a5,5,0,0,1-2.82-.77,11.57,11.57,0,0,1-1.45-.73A7.57,7.57,0,0,1,48,59.19c-.22-.36-.54-.65-.74-1h0c-.19-.31-.51-.59-.33-1a.72.72,0,0,1,.49-.2,2.41,2.41,0,0,0,1.18-.07c0-.45-.55-.84-.27-1.33a.58.58,0,0,1,.24-.25c.64-.14.93.44,1.39.66s.84.49.94-.34c.08-.63.77-.82,1.12-1.27.9.1,1,1,1.4,1.51a3.64,3.64,0,0,1,.2,1.85.54.54,0,0,0,.48.63c.3,0,.45-.18.55-.43.18-.45.23-1,.79-1.21A1.37,1.37,0,0,1,56.8,57c.27.58-.08.79-.55,1s0,.39.1.59c.23.19.07,1.18.8.39a.39.39,0,0,1,.56,0c.22.2.15.45,0,.68a10.17,10.17,0,0,0-.58,1.07,3.94,3.94,0,0,1,1.3.74c.84.73.88.92-.08,1.51a.4.4,0,0,1-.16.26h0a1.81,1.81,0,0,1-1.51,0h0C56.19,62.89,55.55,63.26,55,63Z" style="fill:#bcbcca"/><path d="M42.22,50.65c0-1,.71-1.79.69-2.77a2.15,2.15,0,0,1,.31-1.1c.13-.1.27-.19.39-.3.32-.25,0-.47,0-.69s0-.56,0-.83c.47-.35,0-.58-.09-.88a19.32,19.32,0,0,1-.07-3.95.69.69,0,0,1,.3-.2c.29-.3,1.19.6,1.05-.54a1,1,0,0,1,0-.52,1.23,1.23,0,0,1,.52-.49,1.16,1.16,0,0,1,.52-.15,1,1,0,0,1,.34.07c.66.33,1.62.42,1.09,1.61-.11.24,1,.25.51.86s0,.83.09,1.24c-.3,1.52,0,3.05-.15,4.57-.05.36.06.76-.27,1-.82-.15-1.66-.07-2.48-.18.62.33,1.22.81,1.91.1.11-.1.3.08.42.18a5.39,5.39,0,0,1-.38,2.92,8.8,8.8,0,0,0-.56,2.41c-.55.46-1,1.16-1.89.89-1.1-.32-1.37-1.3-1.65-2.17s.45-1,1.2-.86C43.38,50.56,42.76,51,42.22,50.65Z" style="fill:#9897ae"/><path d="M61.51,30.79a1.29,1.29,0,0,0,1,.29,4.76,4.76,0,0,1,2,.84l.51.24c.45,1.63,1,3.23,1.34,4.91a1.9,1.9,0,0,0,1.19,1.5,1,1,0,0,1,.57,1.26c-.47.29-1.07.19-1.5.68s-.81-.08-1.22-.2a18.07,18.07,0,0,0-4.15-2.76.41.41,0,0,1-.26-.5,1.62,1.62,0,0,1,.28-.25c.56-.37,1-.91.77-1.55a1.35,1.35,0,0,0-1.5-.68,9.32,9.32,0,0,1-3.62-.76c-1-.29-1.31-1-1.11-2.54.19-.46.67-.25,1-.43h0A14.62,14.62,0,0,1,61.51,30.79Z" style="fill:#47456e"/><path d="M28.5,41.57c-.69.07-1.29.93-2.07.26-.36-.13-.78-.15-1-.57a7.17,7.17,0,0,1,.39-2.83c.12-.34.18-.7.27-1.06a22.45,22.45,0,0,0,.22-2.58c.18-.83.13-1.95,1.55-1.73a.45.45,0,0,0,.56-.37.49.49,0,0,0-.41-.54c-1.44-.41-1.18-1.67-1.39-2.7.94-.26,1.54-1.1,2.5-1.36.51-.14.31-.8.44-1.21s.15-1,.73-.34a45.6,45.6,0,0,1-.07,6c-.17,1.45.32,2.89.22,4.35a9.16,9.16,0,0,1-.87,3.61A1.82,1.82,0,0,1,28.5,41.57Z" style="fill:#535178"/><path d="M11.28,8.45l.75,1c.12.36-.09.55-.34.74L10,12.47c-.44.12-.62-.37-1-.41s-1-.17-1.29.45c-.07.15-.14.35-.28.39-1,.28-1.33.68-.9,1.82.31.83-1.42,2.72-2.51,3.13-.39-.18-.39-.59-.54-.91a.19.19,0,0,0,0-.21,5.7,5.7,0,0,1,0-2.5c0-1.31.79-2.44,1-3.7A3,3,0,0,1,5.34,9l.32-.22a2.06,2.06,0,0,1,.83-.49,1.93,1.93,0,0,0,1.6-1.63c.28-.4.58-.23.83,0A1.19,1.19,0,0,0,10,7.12,4,4,0,0,1,11.28,8.45Z" style="fill:#666587"/><path d="M49,11.47c.29.19.16.53.28.78a.38.38,0,0,1,0,.37c-.37.65-1.07.78-1.68,1a14.55,14.55,0,0,1-3.77.73c-.51-.24-.39-.91-.82-1.2a7.76,7.76,0,0,0-1-2.95c-.13-.26-.37-.48-.39-.8.31-.89,1.18-1.65.6-2.74-.09-.18-.07-.41-.28-.53-1.15-.67-1.15-.68-.14-1.68-1.3-1-1.42-1.29-.65-1.91a1.71,1.71,0,0,1,1.35.51l.41.15a4.67,4.67,0,0,1,1.61,1h0a8.46,8.46,0,0,1,2.77,3.05c.17.33.33.67.5,1C47.1,9.41,45.93,9.4,44.93,9.6c-.72.15-1.12.31-.75,1.1.29.63,0,1.66,1,1.8C46.56,12.69,47.94,12.69,49,11.47Z" style="fill:#494870"/><path d="M42.22,50.65c.61-.42,1.58.32,2.05-1-.1,1.25-.11,1.24-1,1.42-.24,0-.31.28-.3.5.14,1.69,1.27,2.35,2.78,1.63a1.38,1.38,0,0,1,.5-.05c.22-.07.4.06.59.09.48.07.56,1,1.21.59a2.65,2.65,0,0,0,1.33-1.58A7.18,7.18,0,0,1,50,50.64a.53.53,0,0,1,.61-.33,8.27,8.27,0,0,1,1.4,3.4,2.62,2.62,0,0,1-2.73,1.71c-.27,0-.54-.25-.81,0h0l-.24.21a3.22,3.22,0,0,1-.81.5,2.21,2.21,0,0,1-.85,0l-.34-.08a4.16,4.16,0,0,0-3.15.57c-.39.06-.71.33-1.12.35-.24-.34-.4-.28-.51.1-1,.55-1.51,0-1.84-.89a4.3,4.3,0,0,1,1.13-2.27,1.46,1.46,0,0,0,.46-1,3.16,3.16,0,0,1,.47-1.06C42.23,51.66,42.17,51.13,42.22,50.65Z" style="fill:#9393aa"/><path d="M68.05,39.84c-.29-.47-.27-1-1.14-1.2-.7-.13-1-1.31-1.08-2.08a8,8,0,0,0-1.06-3.51c-.29-.42-.13-.67.24-.89s.27.15.43.19a3.85,3.85,0,0,1,1.32.78l0,0a3.63,3.63,0,0,1,1,.75l0,0a6.88,6.88,0,0,1,1.51,1.34l.22.17A3.4,3.4,0,0,1,71,36.93l.53.66a1.43,1.43,0,0,1,.38,1.1c0,.27-.08.56-.35.58-1.11.07-2.07.77-3.19.79A.65.65,0,0,1,68.05,39.84Z" style="fill:#3b3965"/><path d="M39.41,65.94A10.33,10.33,0,0,1,35.89,68a3.59,3.59,0,0,1-1.32.35,3.39,3.39,0,0,1-2.78-2.24c-.15-1.11-.79-2.38.34-3.41.19-.27.49-.21.77-.24.85.22.35.83.36,1.29s-.16.7.16.92.7,0,1-.26a6.25,6.25,0,0,1,1.78-1.1c.71-.22.74-.79.33-1.39-.26-.39-.75-.72-.37-1.3a1.55,1.55,0,0,1,1.94,1.13c.35.93.55,1.9-.46,2.59a3.86,3.86,0,0,0-1.16,1.46c.64-.74,1.33-1.27,2.35-.84C39.23,65.13,39.71,65.31,39.41,65.94Z" style="fill:#b7b7c7"/><path d="M41,2.64c-.5.63,0,.95.41,1.27s.71.27,1,.73C41.74,4.83,41,5,41.23,6c.79-.72.92-.26,1.23.49.55,1.32-.22,2.14-.82,3.08-.56,0-.75-.64-1.22-.82l-.25-.26a1.17,1.17,0,0,1-.34-.66C39.62,6.7,39.47,5.65,38,5.42A1.43,1.43,0,0,1,37,4c-.47.15-.94.29-1.33-.16a2.24,2.24,0,0,1-.75-1.13l.47-.26c.41-.29.92,0,1.34-.23a.1.1,0,0,0,.16,0,5.77,5.77,0,0,1,2.77,0h0c.38.28.9-.07,1.27.25h0A.14.14,0,0,1,41,2.64Z" style="fill:#4e4d74"/><path d="M2.74,22.52,3,22.26a2.66,2.66,0,0,1,1.76,0h0A3.35,3.35,0,0,1,7,24.06l0,0a5.15,5.15,0,0,1,.54,1.51h0a2.92,2.92,0,0,1-.09,2.23H7.26a12.46,12.46,0,0,0-4,1.19c-1.44.58-1.81.39-2.07-1.2.21-.25.49-.44.57-.79.23-1,.89-1.07,1.7-.79.1.15.17-.21.09-.06s0,0-.11,0C3,25.74,3,25.34,3.4,25c.69-.52.22-.8-.11-1.25S2,23.32,2.74,22.52Z" style="fill:#727190"/><path d="M76.37,38a.11.11,0,0,0,0-.17,1.55,1.55,0,0,1,0-1.49l0,0c.43-2.3,3.49-3.59,6.22-2.24l0,0a2.44,2.44,0,0,1,1.81,2.29,1.16,1.16,0,0,1-.32.2c-2.4.8-4.88,1.26-7.33,1.82C76.48,38.4,76.41,38.22,76.37,38Z" style="fill:#3b3965"/><path d="M4.05,17.74a3.74,3.74,0,0,0,1.26-1c.43-.61.16-1.64,1.07-2.09-.11-.12-.29-.24-.31-.38-.09-.59-.79-1.53.69-1.31.32,0,.66-.13.67-.44,0-.89.52-.87,1.24-.84a1.38,1.38,0,0,1,1.36.79c-.13.78-.84,1.36-.78,2.21-.22.42-.18,1-.58,1.28-.53.64-.49,1.55-1.17,2.14A2.26,2.26,0,0,1,4,18C3.87,17.88,3.89,17.79,4.05,17.74Z" style="fill:#706e8e"/><path d="M70.74,55.89l-1.2,1.77c-.35.44-.59,1-1.26,1.09-.89,0-1.94.3-2.17-1.07-.17-.66.31-1,.9-1.23-.65-.54-1.48-.93-.29-1.6.22-.12.13-1-.56-1.1-.51-.1-.85-.33-.82-.91a2.24,2.24,0,0,1,1-1.41,3,3,0,0,1,2.16-.27c.51.16.59.64.77,1a5.24,5.24,0,0,1,.46,1.88A2.34,2.34,0,0,0,70.74,55.89Z" style="fill:#cacad6"/><path d="M42,56.93c.24-.32.5-.6,1-.5s.66-.19,1-.26c.49-.11.7,0,.58.54-.67,1.25-2,1.64-3,2.45-.29.23-.77.35-.62.79s.64,0,1,.1c.15,0,0,0,.12,0,.45,0,1-.62,1.32,0s-.28.79-.59,1.09c-.59.56-.09,1.17-.09,1.75a3.67,3.67,0,0,1-1.65,1.63c-.6.1-.67-.31-.73-.75a6.64,6.64,0,0,0-1.62-3.73c-.66-.75-.41-1.44.09-2.13.13-.57.72-.91.75-1.52.09-.11.11-.3.31-.29.4.62.8,1.23,1.69.77A.39.39,0,0,1,42,56.93Z" style="fill:#b3b2c3"/><path d="M76.57,38.34c1.06-.82,2.43-.78,3.62-1.05a35.72,35.72,0,0,1,3.93-1c.09.55-.4.66-.72.89a1.74,1.74,0,0,0-.68.69c-.5,1.12-.51,1.11-1.72.58.5,1.33,1.68,2.48.71,3.94a1,1,0,0,1-.81.31c-.85.24-1.4.17-1.58-.93-.2-1.28-.6-1.46-1.9-1.18a.68.68,0,0,1-.76-.29l-.08-.24C76.48,39.51,76.21,38.93,76.57,38.34Z" style="fill:#5f5e81"/><path d="M28.61,68.74a4.19,4.19,0,0,1-3-1.54.43.43,0,0,1,.05-.66c.87-.83.54-1.76.17-2.65-.48-1.15-.23-1.83,1-2.45L28.1,62a11.58,11.58,0,0,0,2.06,4.14c.13.21.39.5.12.62-1,.45-.61,1.37-.77,2.09C29.21,68.83,28.89,68.94,28.61,68.74Z" style="fill:#bab9c8"/><path d="M49,11.47c-.21.9-1.47,1.57-2.74,1.47a2.74,2.74,0,0,1-2.63-2.85.76.76,0,0,1,.82-.79,5.67,5.67,0,0,0,3.27-1A8.76,8.76,0,0,1,49,11.47Z" style="fill:#45436c"/><path d="M38.67,58c-.39,1.24-.27,2.23,1.19,2.62.16,0,.22.22.19.42s-.91.09-.46.38c1.21.77.37,2.3,1.34,3.08.08.06.1.12.07.17s-.07.07-.1.07l-1.49,1.23a1.3,1.3,0,0,0-2.14-.47c-.46.38-.46.38-1.28.39.62-.66.72-1.53,1.7-2,.82-.35.33-2.51-.6-2.94a6.05,6.05,0,0,0-1-.26.22.22,0,0,1-.29,0c-.07-.29.14-.39.34-.49a.75.75,0,0,0,.21,0,7.78,7.78,0,0,0,1.77-1.76C38.29,58.23,38.41,58,38.67,58Z" style="fill:#bab9c8"/><path d="M42.44,63c-.57-1-.82-1.86.54-2.39a.3.3,0,0,0,.12-.43.23.23,0,0,0-.41-.05c-.38.65-1.14,0-1.6.51-.16.17-.57,0-.64-.34s-.07-1,.49-1.27,1.21-.13,1-1c0,0,.06-.1.06-.1,1.4.76,1.46-1.13,2.42-1.23.48,1,.8.15,1.11-.13s.22-1,.91-.63h0c.63.18,1.14.46,1,1.26l-.56,0c-.61,0-.77.51-1,.93a9.56,9.56,0,0,1-1,1.8l-2,2.76C42.79,62.84,42.73,63.09,42.44,63Z" style="fill:#bab9c8"/><path d="M26.86,61.44c-.32.41-.67.82-1,1.25-.15.21-.3.42,0,.75a2.27,2.27,0,0,1-.14,3.42c-.08.08-.08.23-.11.34a6.12,6.12,0,0,1-2.54-3.5,2.15,2.15,0,0,1,0-1.5c0-.67.66-.83,1-1.23a3.29,3.29,0,0,1,2,0Z" style="fill:#c1c0ce"/><path d="M49.19,12.47a.41.41,0,0,1,0-.22c.18.58.35,1.16.52,1.74l-.14.08c-.13,0-.4,0-.37.09.11.23.4.16.61.24A.36.36,0,0,1,50,15l0,.25a1,1,0,0,1,.33.83.83.83,0,0,1-.12.53c-1.06.37-1.52,1.35-2.19,2.12-.83.95-1.28.94-2.09.07-.1-.37-.44-.57-.66-.86a1.64,1.64,0,0,1,.12-2.31,4.71,4.71,0,0,0,2.35-2C48.08,13,49,13.22,49.19,12.47Z" style="fill:#bab9c8"/><path d="M1.24,27.79c.19.32.37.65.56,1s.36.51.84.18c1.21-.83,2.74-.91,4-1.57.33-.17.54.08.58.42l0,.7c-.15.37-.17.79-.53,1.05v0A3.15,3.15,0,0,1,4.22,31h0a3.37,3.37,0,0,1-2.76-.73,3.34,3.34,0,0,1-1.27-2,4.31,4.31,0,0,1-.1-2.11c.32-.42.57-.1.72.14A1.86,1.86,0,0,1,1.24,27.79Z" style="fill:#5a597d"/><path d="M22.62,1.4c-2-.69-3.47,1-5.34,1.13a21.45,21.45,0,0,1-5-.61A12.72,12.72,0,0,1,16.8.18a4.93,4.93,0,0,1,3,.1L21.5.69C21.9.88,22.48.8,22.62,1.4Z" style="fill:#47456e"/><path d="M68.8,19.5c-1.94.87-3.82-.05-5.72-.2-.16,0-.39-.05-.47-.16-1-1.42-2.65-1.09-4-1.69.05-.49.51-.65.78-1l.83-.44c1.12-.21,1.54,1,2.42,1.23,1,.33,2.13.19,3.15.51s2-.12,2.92-.29a1.08,1.08,0,0,1,.72.13c.1.08.16.26.08.31A1.22,1.22,0,0,0,68.8,19.5Z" style="fill:#514f76"/><path d="M33.61,9.45a2.08,2.08,0,0,0-1.54-2.56,14.71,14.71,0,0,0-2.95-.95c-.14-.34.11-.39.33-.47a9.86,9.86,0,0,1,2.18-1.56,2.89,2.89,0,0,1,1-.45c.59.19,1.65-.45,1.62.89-.61.62-.17,1.21.23,1.61.66.66,1,1.21.11,1.93-.32.26-.19.7-.26,1S33.89,9.32,33.61,9.45Z" style="fill:#4e4d74"/><path d="M81.6,42.34c.54-.89-.5-1.71-.1-2.61,0-.1-.17-.25-.36-.26-.64,0-.52-.53-.52-.93A.53.53,0,0,1,81,38c.46-.09.62.33.87.59a5.22,5.22,0,0,0,.57.36c-.6-1.82,1-1.8,1.69-2.57h.25c.1-.14.18-.13.22.05v0a3.55,3.55,0,0,1,0,2.75v0a4.35,4.35,0,0,1-.76,1.52v0a3,3,0,0,1-.85,1l-.89.8A.35.35,0,0,1,81.6,42.34Z" style="fill:#6b6a8a"/><path d="M68.29,39.85c1.14-.2,2.12-1,3.33-.89.06,0,.14-.26.21-.41s.18,0,.21.1c.13.4.27.81.4,1.22a3,3,0,0,1,.5,1.62,1.66,1.66,0,0,1-1,1.94,1.86,1.86,0,0,1-2.26-.89A10.9,10.9,0,0,1,68.29,39.85Z" style="fill:#494870"/><path d="M1.24,27.79C.63,27.36,1,26.41.25,26a.33.33,0,0,1,0-.5A5.51,5.51,0,0,1,1,23.59c.44-.34.73-.89,1.33-1l.41,0c.12.71.71,1.09,1.18,1.5s.48.62,0,.92c-1.16.79-.41,1,.35,1.21a.42.42,0,0,1-.56.36c-.93-.22-1.87-.57-1.73,1C2,27.8,1.53,27.79,1.24,27.79Z" style="fill:#7e7d99"/><path d="M34.36,8.94c-.56-.52-.54-1,.13-1.4s.69-.77,0-1.1c-.57-.27-.46-1-1-1.37-.25-.18.25-.59.66-.64.23-.28.32-.7.72-.83s.85-.25.78.36.2.83.69,1a2.64,2.64,0,0,1,.7.5c.8.59,1,1.83,2.21,2a.46.46,0,0,1,.18.73h-.48A2.26,2.26,0,0,1,38,8.07a5.58,5.58,0,0,0-1.68.11l-.68.29a11.64,11.64,0,0,0-1.08.45Z" style="fill:#5f5e81"/><path d="M29.61,68.73c0-.34-.94-.15-.5-.71s-.29-1.71.95-1.37c-.57-1.6-2.37-2.63-2-4.66.8.22,1.42.88,2.27,1,.79-.25.73.33.65.75a4.16,4.16,0,0,0,.71,3.54,1.52,1.52,0,0,1,.06,1.56A1.77,1.77,0,0,1,29.61,68.73Z" style="fill:#b7b7c7"/><path d="M39.41,8.16c-.23-.48-.4-1-1.14-.56-.26.18-.73.07-.69-.23.2-1.46-.83-1.85-1.84-2.27-.75-.3-.67-.78-.3-1.35-.68-.12-.84.55-1.31.68,0-1.3-1.18-.24-1.56-.78.17-.58.73-.52,1.14-.7l1.21-.26c.42.39,1,1.21,1.23,1.12,1.27-.52,1.15.74,1.66,1.14.17.12.32.38.48.38,2.46,0,1.41,2,1.88,3.12Z" style="fill:#58567b"/><path d="M36,60.7h.19c0,.52.46.75.74,1.1a1.09,1.09,0,0,1-.7,1.87c-.83.07-1.13.77-1.71,1.12s-.86.6-1.34.31-.23-.83-.22-1.26.48-.93,0-1.39c.7-.73,1.94-.55,2.52-1.5A.51.51,0,0,1,36,60.7Z" style="fill:#b3b2c3"/><path d="M68.29,39.85a7.33,7.33,0,0,1,1.64,2.51,1.6,1.6,0,0,0,1.86.84,1.63,1.63,0,0,0,1-1.64c.11,0,.18,0,.2.11-.06.62.32,1.13.42,1.72.09,1.47-.6,2.15-2.15,2.12-.88-.82-1.43-2-2.67-2.44-.39-.14-.39-.68-.41-1.1s.09-.9-.39-1.2c-.62.19-.34,1.4-1.32,1.16-.4-.57-1-1-1-1.84.46.06.94.69,1.31-.25.22-.57.78.07,1.19,0Z" style="fill:#535178"/><path d="M62.5,17.51l-2.23-1.46,0-.09a1.37,1.37,0,0,1,1.78.4,1.16,1.16,0,0,0,1.16.43c.08-.37-.5-.86.13-1.16a1,1,0,0,1,1.26.21c.17.1.39.53.49.09s.27-.82-.22-1.09l-.1-.12a5.47,5.47,0,0,1,3.8.26c-.09,1-1.14,1.47-1.35,2.44-.07.34-.62.41-1,.37C65,17.66,63.73,17.65,62.5,17.51Z" style="fill:#ababbd"/><path d="M68.8,19.5c0-.12,0-.3,0-.36-.78-.69-.34-.95.38-1.15a1.33,1.33,0,0,0,.4-.25c.7-1.29,1.18-1.48,2.5-1a13.45,13.45,0,0,1,4.25,2.77,25.5,25.5,0,0,0-4.56-1.1,1.6,1.6,0,0,0-1.69.83A2.08,2.08,0,0,0,68.8,19.5Z" style="fill:#494870"/><path d="M31.63,68.76a2.78,2.78,0,0,0-.74-2.08,3.14,3.14,0,0,1-.22-2.8c.12-.41.4-.8-.3-.92l.25-.24a.77.77,0,0,1,1,0l.51,0c-.26,1.49-.64,2.93.72,4.22.57.53.72,1.51,1.8,1.31.07.08.09.13.05.18a.18.18,0,0,1-.11,0l-1.2.27A3,3,0,0,1,31.63,68.76Z" style="fill:#bebecc"/><path d="M44.44,18.25c-.16-.69-.33-1.38-.49-2.06a.3.3,0,0,1-.22-.23l-.06-1a.66.66,0,0,1,0-.76c1.83-.61,3.89-.5,5.51-1.75.23,1.06-1.13.54-1.24,1.25a24,24,0,0,0-2.26,2c-.77.78-.85,1.54.12,2.19a.87.87,0,0,1,.38.83C45.6,18.62,45,18.43,44.44,18.25Z" style="fill:#9d9cb2"/><path d="M66.29,57.68c.41.4.49,1.49,1.5.5.53-.52.42.26.52.54.1.45-.31.51-.54.71a9.22,9.22,0,0,1-3.26,1.76c-.23.07-.37-.06-.5-.21a6.34,6.34,0,0,1-.41-.6c-.46-1-.29-1.29.9-1.47.18,0,.4.08.43-.23s-.14-.61.19-.82a4,4,0,0,0,.89-.28A.3.3,0,0,1,66.29,57.68Z" style="fill:#c3c3d0"/><path d="M64.28,61l.23.24c-.09.22-.3.22-.48.26-.34.17-.77.32-1,0-.43-.53-1.09-.48-1.58-.82-.37-.66-.84.17-1.24-.07s-.7-1-1.49-.7c-.32.11-.6-.23-.6-.63a2.53,2.53,0,0,1,0-.87c.17-.44-.15-1.1.42-1.32s.91.26,1.29.59c.15.13.26.35.46.41A10.53,10.53,0,0,1,64.28,61Z" style="fill:#aeadbf"/><path d="M71.32,45.37a2.13,2.13,0,0,0,2.14-2,.65.65,0,0,0,.08.22c.3.65.08,1.37.26,2,0,.26-.12.56-.36.59-1.09.14-1.15.93-1.19,1.76a.66.66,0,0,0,.1,1.11,3.56,3.56,0,0,1,.92.77.44.44,0,0,1-.22.51c-.45.37-.82-.17-1.25-.1s-.42.51-.81.41a1.48,1.48,0,0,1-.61-.84,1.35,1.35,0,0,1,0-.72c.46-.88.1-1.9.48-2.8C71,46,71,45.61,71.32,45.37Z" style="fill:#686789"/><path d="M24.33,39.35c.25-1-.52-2,0-3l.14.08c.34.46,1,.21,1.37.67a1.17,1.17,0,0,1,.3,1.32c-.17,1-.34,1.95-.5,2.93-.07.15-.16.17-.28,0l-.43-.27c-.23-.31-.7-.48-.57-1C24.34,39.85,24.34,39.6,24.33,39.35Z" style="fill:#bcbcca"/><path d="M71.06,50.65c.17-.25.33-.5.49-.76a3.8,3.8,0,0,0,1.47,1c0,.87-.73,1.55-.73,2.43a1.55,1.55,0,0,1-.7,1.1l-.06,0c-.57.12-.69-.4-1-.69A2.37,2.37,0,0,1,71.06,50.65Z" style="fill:#646285"/><path d="M62.5,17.51a25.53,25.53,0,0,1,3.71,0c.42,0,.87,0,1-.5a5.28,5.28,0,0,1,1.31-2h.73c.22.17.59.1.7.45s.08.71-.27.83c-.61.22-.69.73-.84,1.23a.72.72,0,0,1-.33.15c-.93,0-1.77.78-2.77.35C64.69,17.8,63.55,18,62.5,17.51Z" style="fill:#9393aa"/><path d="M76.66,40.34c.2,0,.45.18.59.11.57-.32,1.2-1.15,1.71-.18.29.54.94.93.75,1.84s.8.32,1.21.54a.14.14,0,0,1-.09.2h0a1.71,1.71,0,0,1-1.51,0h-.67c-.43-.54-1.12-.77-1.56-1.31C77.22,41,76.49,40.86,76.66,40.34Z" style="fill:#6d6c8c"/><path d="M64.54,16a1.29,1.29,0,0,0-1.33,0c-.05.44,1,.45.47,1A1.14,1.14,0,0,1,62,16.8c-.5-.53-1-1-1.76-.84,1.32-1.05,3-.9,4.5-1.24l.07,0C65,15.23,65.32,15.74,64.54,16Z" style="fill:#bcbcca"/><path d="M70.81,53.66l.72.73c0,.65-.43,1-.79,1.5a1.07,1.07,0,0,1-1.27-1.16,15.84,15.84,0,0,0-.42-2.32c-.21-.29-.1-.62-.1-.93.8-.3.87.43,1.18.83A1,1,0,0,0,70.81,53.66Z" style="fill:#9393aa"/><path d="M71.06,26.28c-.71.39-1.52.69-1.49,1.72a10.69,10.69,0,0,1-2.42-2.42C68.51,25.52,69.89,25.29,71.06,26.28Z" style="fill:#47456e"/><path d="M61.51,60.45c1-.09,1.51,1.08,2.52,1a17.35,17.35,0,0,1-3.53,1.48C60,61.32,60.25,60.64,61.51,60.45Z" style="fill:#c6c5d2"/><path d="M72.06,48.14a1.77,1.77,0,0,0,0-.61c-.38-1.11,0-1.52,1.15-1.44.12,0,.26-.17.39-.26s.34.12.33.3a9.82,9.82,0,0,1-.46,3.49.35.35,0,0,1-.14,0C72.87,49.17,72.17,48.9,72.06,48.14Z" style="fill:#777694"/><path d="M10,7.2c-.32.36-.62.47-1,0-.19-.24-.23-.77-.76-.53s-1,.81-1.16-.23c.14-.17.27-.35.4-.52.29-.46.73-.8,1-1.26.27-.2.37-.61.8-.6A4.44,4.44,0,0,0,10,6.94c.08.06.11.12.08.17S10.05,7.2,10,7.2Z" style="fill:#5f5e81"/><path d="M7.11,6.46c.27.66.75.26,1.16.23,0,1.76-1.42,1.8-2.61,2.07A10,10,0,0,1,7.11,6.46Z" style="fill:#706e8e"/><path d="M72.05,16.75a2.7,2.7,0,0,0-2.5,1H68.8c-.09-.06-.12-.11-.09-.17s.06-.08.08-.08h0c.51-.45,1.13-.8,1.19-1.61,0-.29.3-.34.55-.14A2.67,2.67,0,0,1,72.05,16.75Z" style="fill:#747392"/><path d="M61.51,60.45c-1.28.44-.86,1.57-1,2.48L60,63a.83.83,0,0,1-.75,0c-.08-1,.75-1.68,1-2.57C60.68,60.35,61.09,59.75,61.51,60.45Z" style="fill:#bcbcca"/><path d="M70.54,15.74c-.28,0-.39.13-.4.47a1.18,1.18,0,0,1-1.34,1.28c-.12-.7-.27-1.39.82-1.45.29,0,.15-.4.19-.62.27-.06.55-.19.72.17C70.53,15.64,70.54,15.69,70.54,15.74Z" style="fill:#85849f"/><path d="M72.06,48.14c.44.48,1.19.71,1.26,1.51a.59.59,0,0,1,0,.23,2.61,2.61,0,0,1-1.61-1C71.11,48.25,71.47,48.13,72.06,48.14Z" style="fill:#494870"/><path d="M73,50.9c-1,.47-1.18-.37-1.47-1,.61-.16,1,.48,1.5.5Z" style="fill:#47456e"/><path d="M29.6,16a8.73,8.73,0,0,1,.3,2.92A42.07,42.07,0,0,1,30,24.4a2.42,2.42,0,0,1-2.47,2c-1.18.05-2.32.15-3.26-.75a25.29,25.29,0,0,1,.08-3.59c.22-1.17-.35-2.42.36-3.52a9,9,0,0,1,2.83-2.64c.28-.18.59-.3.7-.66s0-.76.48-.68a.77.77,0,0,1,.7.87C29.37,15.62,29.52,15.8,29.6,16Z" style="fill:#393763"/><path d="M24.31,22.07l0,3.71a2,2,0,0,1,.35,1.46c0,.36,0,.71,0,1.06s0,.89.61,1.11c1.58.62,1.66.78,1.63,2.57a2,2,0,0,1-.2.84c-.41.57-.23,1.41-.85,1.89-.08.07-.16.17,0,.28a.78.78,0,0,1,.18,1.34,1.37,1.37,0,0,1-1.72,0l-.05,0a1.48,1.48,0,0,1-.15-1c.24-.22,0-.53.17-.77,0-4.18-.51-8.35-.19-12.53A.34.34,0,0,1,24.31,22.07Z" style="fill:#bcbcca"/><path d="M10,7.2V6.94a1.72,1.72,0,0,1,1.26,1.51A4,4,0,0,1,10,7.2Z" style="fill:#514f76"/><path d="M58,57.15a20,20,0,0,0,4.76-1.74c1.35-.57,1.54.72,2.16,1.34a1.43,1.43,0,0,0,.4.87.31.31,0,0,1,0,.31c-.4.25-.07.5,0,.75-.17.16-.31.35-.49.5-1.46,0-1.46,0-.51,1.77-1.36-.37-1.94-1.92-3.34-2.22-1-.21-1.44-1.24-2.36-1.57-.33.35.6.44.09.77-.68.43-.36,1.37-.2,1.57.43.55,1,0,1.54-.25.46.33-.63,1,.25,1.19.35,1.11-.64,1.67-1,2.49l-1,0c-.16-.47.5-.26.52-.63,0-.18.16-.57,0-.52-.94.28-1.11-1.48-2.24-.83.36-.6.73-1.21,1.2-2-.72.27-1.12,1-1.84.59-.12-.35.72-.43.3-.89C56.8,58.15,57.44,57.7,58,57.15Z" style="fill:#b7b7c7"/><path d="M53.22,55.93l2,1A2.65,2.65,0,0,0,55,58a.88.88,0,0,1-1,.85c-.5-.07-.92-.77-.74-1.09C53.57,57.07,53.06,56.51,53.22,55.93Z" style="fill:#c3c3d0"/><path d="M51.73,53.65a.81.81,0,0,1,.27.71c0,.32,0,.68-.42.82a.74.74,0,0,0-.48.35c-.45,1.22-.72,1.28-1.79.37-.25-.22-.47-.48-.85-.47.78-.23,1.56-.43,2.32-.68C51.29,54.57,51.81,54.35,51.73,53.65Z" style="fill:#b3b2c3"/><path d="M47.45,57.18c-.36-.26-.25-1.28-1.13-.71-.14-.22.09-.36.13-.55h1c.48.19.47-.4.77-.5h.23a6,6,0,0,0,.06.74c.07.34,1,.31.51.85A1.18,1.18,0,0,1,47.45,57.18Z" style="fill:#aeadbf"/><path d="M58,57.15a2.09,2.09,0,0,1-1.75,1.54c-.28-.27-1-.11-.92-.64s.64-.29,1-.38a.53.53,0,0,0,.43-.51Z" style="fill:#aeadbf"/><path d="M51,59.55c.21,0,.25.18.26.33s0,.43-.26.47a.29.29,0,0,1-.34-.36A.45.45,0,0,1,51,59.55Z" style="fill:#747392"/><path d="M51.14,58.15c0,.29-.13.45-.36.47a.34.34,0,0,1-.23-.21A.36.36,0,0,1,50.9,58C51,58,51.07,58.11,51.14,58.15Z" style="fill:#777694"/><path d="M50.41,49.9c0,.17,0,.34,0,.51a6.4,6.4,0,0,0-.75,1.93c-.2,1.07-1.17,1.45-1.86,2.08-.16.14-.31.1-.36-.12-.15-.65-.85-.74-1.23-1.15a2.56,2.56,0,0,1,.17-2,12.86,12.86,0,0,0,.81-3.49h0a12.93,12.93,0,0,0,.19-3.92,4.16,4.16,0,0,1,.29-1.87c.26-2-.83-3.81-1.13-5.74a.91.91,0,0,1,0-.49A.36.36,0,0,1,47,35.5a1.72,1.72,0,0,1,1.13,2.19A1.78,1.78,0,0,0,48.3,39a4.78,4.78,0,0,1,.3,3.53,6.39,6.39,0,0,0,.22,3.17,4.11,4.11,0,0,0,1.23,2.72,1.22,1.22,0,0,1-.15.72c-.25.69-1.47.48-1.39,1,.14.92-.43,1.07-.92,1.41-.26.18-.51.39-.29.7s.46,0,.67-.09c.69-.27.81-1,1.26-1.51S49.64,49.61,50.41,49.9Z" style="fill:#616083"/><path d="M46.68,35.59c.74,1.47.55,3.21,1.35,4.66.34.62-.55,1-.34,1.61-.75-.44-1.06-.89.23-1.42-.63,0-1.1.44-1.37,0s.34-.46.49-.7.22-.73-.31-.82a.94.94,0,0,1-.79-.53h0l-.52.24c-.28-.08-.51-.27-.78-.36-.17.33.26.39.3.62v.51a8.15,8.15,0,0,0-1,.75h-.28a37.56,37.56,0,0,1,.24-5.81C44.62,35.13,45.9,34.82,46.68,35.59Z" style="fill:#8c8ba5"/><path d="M47.21,47.64a.47.47,0,0,0-.51.44c0,.2-.14.56-.29.44-.61-.5-1.6-.26-2-1.07-.14-.27-.13-.62.18-.5.86.33,1.9,0,2.64.7Z" style="fill:#a2a1b6"/><path d="M44.94,38.84a5.72,5.72,0,0,1-.59-.17c-.35-.16-.53-.42-.28-.78s.56-.25.81,0,.36.44.54.66Z" style="fill:#747392"/><path d="M43.93,40.1c.12-.53.25-1.05,1-.75.08.3.63.54.36.83S44.38,40.31,43.93,40.1Z" style="fill:#747392"/><path d="M43.69,46.62l.05-.73c.22,0,.55-.08.59.22S44,46.59,43.69,46.62Z" style="fill:#797896"/><path d="M43.71,44.88c0-.17,0-.34,0-.51.2,0,.53-.14.55.2S43.93,44.85,43.71,44.88Z" style="fill:#686789"/><path d="M61,37.09c-3.25-.83-5.46.72-7.27,3.17C52.44,42,51.6,44,50.43,45.87c-.82.34-1-.31-1.23-.83a4.25,4.25,0,0,1-.22-2.7,22.72,22.72,0,0,0,.37-4.43,1.82,1.82,0,0,0-1.69-2.07,1.47,1.47,0,0,1-.74-.44.67.67,0,0,1-.13-.34,8.92,8.92,0,0,1,.59-1.74c.41-.17.65.27,1,.3s.58.28.86.37c.42-.62-.29-1.57.7-1.93a19.63,19.63,0,0,0,0,2.3c.09.78.37.3.58,0l2-1.51c1.17-.48,2.13-1.43,3.44-1.63.05,2,1.12,2.94,3.26,3a7.36,7.36,0,0,1,1.93.09c.64.15,1.52.55,1.41,1C62.37,36,62.32,37.19,61,37.09Z" style="fill:#3d3c67"/><path d="M24.34,27.29V25.78c1.11-.05,2.1.56,3.37.13s2.14-.85,2.15-2.25c0-1.58,0-3.17,0-4.76a43.41,43.41,0,0,1,.18,7.39.92.92,0,0,0-.21.81c0,.83.09,1.62-1.16,1.48-.38,0-.71.33-.86.64-.32.65-.78.43-1.25.34s-.16-.41-.11-.63.45-.38.67-.62A9,9,0,0,1,24.34,27.29Z" style="fill:#403e69"/><path d="M26.6,29.05c0,.17-.28.33,0,.51.26.53,1.15.81.59,1.71-.14.21.48.49.86.53.66.07,1.08.53.9,1.07a.91.91,0,0,1-1.32.54c-.59-.38-.61.11-.74.41a5.36,5.36,0,0,0-.3,2.21c0,.44.17.93-.23,1.31-.63-.9,0-1.88-.17-2.84a2.31,2.31,0,0,1,.19-1.67c.54-.81.14-1.68.14-2.52,0-.44-.5-.53-.87-.48-1.3.19-1.46-.53-1.29-1.54.59-.37,1.25-.07,1.89-.21C26.74,28,26.91,28.55,26.6,29.05Z" style="fill:#666587"/><path d="M26.38,32.83l0,4.51c-.07.35.05.74-.24,1-.17-.81-.26-1.63-1.51-1.29-.42.12-.18-.47-.25-.74l.87,0c.43,0,.83,0,.87-.6s-.44-.39-.75-.42-.61-.43-.25-.5C26.28,34.56,25.9,33.44,26.38,32.83Z" style="fill:#ababbd"/><path d="M46.45,55.92c-.79.13-.3,1.47-1.35,1.39-.24,0-.3.71-.73.36s-.07-.67.06-1c0-.53-.36-.28-.61-.26s-.59.42-.89,0A3.43,3.43,0,0,1,46.45,55.92Z" style="fill:#a9a8bb"/><path d="M41.58,55.34c-.19-.09-.36-.2-.3-.44s.2-.23.37-.18a.31.31,0,0,1,.24.36C41.89,55.28,41.76,55.34,41.58,55.34Z" style="fill:#686789"/><path d="M48.23,55.42c-.14.34-.08,1-.77.5C47.71,55.75,47.81,55.34,48.23,55.42Z" style="fill:#6d6c8c"/><path d="M42,56.93h-.55c0-.2-.15-.55.22-.55S41.92,56.7,42,56.93Z" style="fill:#646285"/><path d="M64.78,56.92c-.66-.52-.84-1.69-2-1.51l1.77-1.24c.21,0,.39,0,.25-.27l.75-1c0,.35.26.67.51.6,1.48-.43.89.9,1.12,1.38.36.76-1,.1-.78.67.13.34.87.36,1,.84.1.28-.16.48-.42.51-.51,0-.76.27-.7.79H66c-.29.16-.52,0-.75-.15S65,57.12,64.78,56.92Z" style="fill:#cfcfd9"/><path d="M66.29,51.65a13.45,13.45,0,0,0,1-3,1,1,0,0,1,1-.27.55.55,0,0,1,.14.32.84.84,0,0,1-.1.33c-.45.48-.83,1,0,1.4a1,1,0,0,1,.16,1A6.15,6.15,0,0,0,66.29,51.65Z" style="fill:#d4d4dd"/><path d="M68.55,51.4a1.54,1.54,0,0,1-.26-1,.52.52,0,0,1,.31-.14,1.61,1.61,0,0,1,1,.62c.06.43-.33.39-.55.52v1C68.65,52.19,69,51.62,68.55,51.4Z" style="fill:#bab9c8"/><path d="M50.19,16.48l0,.27a10,10,0,0,0-1.76,2.08,2.3,2.3,0,0,1-2,1.27c-1,0-1.14,1.13-1.92,1.4,0-1.08,0-2.17,0-3.25a1.3,1.3,0,0,1,1.75.5c.37.65.82.62,1.26.11a10.22,10.22,0,0,0,1.13-1.44A1.75,1.75,0,0,1,50.19,16.48Z" style="fill:#9393aa"/><path d="M45.69,15.73a2.89,2.89,0,0,1,2.26-2A3.58,3.58,0,0,1,45.69,15.73Z" style="fill:#ababbd"/><path d="M49.65,14c0,.17.05.34.08.51-.51.46-.79,0-1.12-.28a.36.36,0,0,1,0-.32C49,13.58,49.31,13.82,49.65,14Z" style="fill:#9695ac"/><path d="M68.79,17.5a2,2,0,0,1,0,.25c-1,.27-2,.84-3,.25C66.84,18.21,67.72,17.28,68.79,17.5Z" style="fill:#85849f"/><path d="M67.56,47.63a13.53,13.53,0,0,0-1-5.83c.52,0,.48-.5.65-.79s0-.85.55-.84.59.53.7.91a3.61,3.61,0,0,1,0,.74,7.38,7.38,0,0,0-.24,2.6,4,4,0,0,1,.07,1.09,4.43,4.43,0,0,0,0,1.21C68.44,47.28,68.22,47.67,67.56,47.63Z" style="fill:#d2d1db"/><path d="M68,44.38c-.55-1,.26-1.72.48-2.56,0,.74.18,1.26,1,1.43,1.1.23,1.22,1.38,1.78,2.12,0,.34.1.74-.25,1-.19-.2-.35-.5-.71-.26-.39,0-.94,0-.93-.39C69.45,44.69,68.59,44.71,68,44.38Z" style="fill:#7e7d99"/><path d="M50,32.06c-.55.8,0,1.76-.45,2.85-.37-1.15-1.67-.64-2-1.59-.24-.16-.3-.44-.45-.66a5.21,5.21,0,0,1-.34-.56c-.23-.55-.3-1.21-1-1.41A1.36,1.36,0,0,1,45,29.31a5.2,5.2,0,0,0-.53-2.77c0-.67,0-1.35,0-2a3.42,3.42,0,0,0,.09-1.35c0-1.26.49-2,1.69-2.25a2.62,2.62,0,0,0,2-1.46,3.72,3.72,0,0,1,.43-.61c.35-.43.77-.9,1.35-.68s.21.81.29,1.23a1.08,1.08,0,0,0,.1.35A85.75,85.75,0,0,1,50,32.06Z" style="fill:#393763"/><path d="M46.94,32.07l.26.49c.19.87-.39,1.66-.26,2.52a2,2,0,0,1,0,.25c.07.05.1.11.07.17s-.05.08-.08.08h-.26c-.93-.44-2.4.27-2.79-1.31,0-.15,0-.29,0-.44a1.82,1.82,0,0,0,0-1.28c-.09-.38.14-.59.4-.78.52-.41.9-1.14,1.76-.85C46.54,31.21,46.4,31.88,46.94,32.07Z" style="fill:#55547a"/><path d="M50.43,19.75c-.48-.36.11-1.27-.52-1.36s-1,.72-1.38,1.26c-.53.84-1,1.55-2.19,1.59a1.76,1.76,0,0,0-1.66,2c0,.44.15.92-.21,1.31,0-1,0-2,0-3,.48-1,1-1.82,2.36-1.78,1,0,1.13-1,1.61-1.53s.81-1.37,1.72-1.44A9.76,9.76,0,0,1,50.43,19.75Z" style="fill:#4c4a72"/><path d="M46.19,31.06c-.75-.12-1.14.64-1.81.72a11.18,11.18,0,0,0,0-5.24A3.19,3.19,0,0,1,45.18,29a1.41,1.41,0,0,0,.76,1.52C46.08,30.7,46.34,30.78,46.19,31.06Z" style="fill:#646285"/><path d="M44,32.56a1,1,0,0,1,0,1.28Z" style="fill:#8c8ba5"/><path d="M64.54,16c.4-.35.15-.85.28-1.25.61.27.88,1.43.4,1.74S64.52,16.5,64.54,16Z" style="fill:#9695ac"/><path d="M65.31,57.43l.72.25c-.19.27-.32.7-.75.25v-.25c-.06-.07-.08-.13,0-.18S65.29,57.43,65.31,57.43Z" style="fill:#cacad6"/><path d="M64.79,59.18a.43.43,0,0,1,.49-.5C65.29,59,65.41,59.46,64.79,59.18Z" style="fill:#8a89a3"/><path d="M24.33,34.55c.09.29.48.64-.17.77A.62.62,0,0,1,24.33,34.55Z" style="fill:#aeadbf"/><path d="M69.05,51.4l.51-.47a3,3,0,0,1-.6-2.25,2.41,2.41,0,0,0-.16-.88,1.05,1.05,0,0,1,0-.7c.32-.26.74-.35,1.08-.58a.7.7,0,0,1,.38,0,2.86,2.86,0,0,1,.35,2.61c0,.25,0,.49,0,.74a2.41,2.41,0,0,1-.49,2.52Z" style="fill:#a4a3b8"/><path d="M70.56,49.15c-.15-.87.14-1.87-.75-2.52-.18-.66.49-.5.74-.75.62-.29.48.2.52.5C70.74,47.28,71.3,48.33,70.56,49.15Z" style="fill:#9897ae"/><path d="M70.05,52.41c.07-.83,1-1.61.11-2.51,0-.06.25,0,.38,0,.18.25.35.51.52.76-.34,1-1,1.94-.25,3C70.09,53.53,69.12,53.55,70.05,52.41Z" style="fill:#797896"/><path d="M26.6,29.05c-.09-.45.18-1.4-.8-.5-.51.47-.89-.52-1.44-.26,0-.33,0-.67,0-1a9.3,9.3,0,0,1,1.68.37,1.36,1.36,0,0,0,1.75-.14A1.59,1.59,0,0,1,26.6,29.05Z" style="fill:#535178"/><path d="M46.94,35.58v-.25a1.42,1.42,0,0,0,1.07.23c.62-.17.8-.26,1.06.65.65,2.34.87,2.32.61,2.76-.6,1,.18,2.13-.33,3.25a2.94,2.94,0,0,0,1.07,3.65c-.15.34-.31.68-.47,1-.8.14-.91-.58-1.26-1a2.87,2.87,0,0,1-.63-2.68c.32-1.48.63-2.84-.17-4.24a1.31,1.31,0,0,1-.18-.83A2.39,2.39,0,0,0,46.94,35.58Z" style="fill:#47456e"/><path d="M50.41,49.9a2.49,2.49,0,0,0-1.35,1.69c-.28.85-1.13.8-1.54,1.39-.2.31-.51-.13-.55-.4s-.7-1,.24-1.17c.48-.1,1.13-.61,1.08-.68-1.23-1.6.52-.93.93-1.27s.76-.55.71-1.1a.17.17,0,0,1,.06-.27Z" style="fill:#686789"/><path d="M50,48.09l-.06.27c-.88-.6-1.68-1.23-1.23-2.48l1.26,1Z" style="fill:#55547a"/><path d="M68.83,47.13c.06.17.13.34.2.5a1.09,1.09,0,0,1-.78.48.77.77,0,0,1-.69-.22v-.26c.33-.25.86-.41.4-1-.29-.36.14-.67.1-1,.7.1.73.69.89,1.2A.66.66,0,0,1,68.83,47.13Z" style="fill:#c6c5d2"/><path d="M67.56,47.89h.72a.32.32,0,0,1,0,.49,1.34,1.34,0,0,1-1,.23C67.25,48.32,67.43,48.11,67.56,47.89Z" style="fill:#aeadbf"/><path d="M64.77,53.9c.23,0,.51-.07.63.2a.44.44,0,0,1-.15.39c-.38.25-.57,0-.73-.32Z" style="fill:#9d9cb2"/><path d="M65.31,57.43l0,.25c-.54,0-.77-.22-.5-.76A.51.51,0,0,1,65.31,57.43Z" style="fill:#9d9cb2"/><path d="M45.94,38.34c0-.17-.24-.38.09-.46.08,0,.28.07.29.14,0,.28-.19.29-.38.32Z" style="fill:#797896"/><path d="M46.94,35.08c-.66-.92,0-1.7.26-2.52.29.19.24.48.25.76A2.11,2.11,0,0,1,46.94,35.08Z" style="fill:#47456e"/><path d="M69.28,48.39c.09.85.18,1.69.28,2.54-.45,0-.67-.37-1-.54-.58-.42-1-.85-.26-1.5a1.93,1.93,0,0,0,0-.24C68.58,48.38,68.84,48.07,69.28,48.39Z" style="fill:#eeeef2"/><path d="M68.29,48.89c-.41.58.06,1,.26,1.5h-.26c-.25-.09-.69.36-.74-.25S67.46,49,68.29,48.89Z" style="fill:#dedde5"/><path d="M69.28,48.39l-1,.26v-.27c0-.16,0-.33,0-.49l.75-.26C69.11,47.89,69.19,48.14,69.28,48.39Z" style="fill:#dedde5"/><path d="M68.81,46.89l-.75-1.29,0-1.22h1.88c0,.5-.69.66-.34,1.19s.64.26,1,.31c-.18.31-.65.35-.74.75h0A.68.68,0,0,1,68.81,46.89Z" style="fill:#8a89a3"/><path d="M46.19,31.06l-.25-.51c1,.06.61,1.05,1,1.52C46.3,32,46.17,31.6,46.19,31.06Z" style="fill:#47456e"/><path d="M68.81,46.89a1.79,1.79,0,0,0,1-.26c-.09.65-.59.46-1,.5A.65.65,0,0,1,68.81,46.89Z" style="fill:#9897ae"/></g></g></svg>