<svg xmlns="http://www.w3.org/2000/svg" viewBox="0 0 80.9 92.82"><g id="Ebene_2" data-name="Ebene 2"><g id="OBJECTS"><path d="M35.72,11.38,37,11a3.66,3.66,0,0,1,1.74,0l.47,0c.57.31,1.24-.09,1.81.25a1.26,1.26,0,0,0,.94.26,4.54,4.54,0,0,1,3,2.27c-.11.64-.69.76-1.14,1a1.77,1.77,0,0,0-1,1.81,2,2,0,0,1-2.47,2.22c-.18-.2.07-.58-.34-.72-1-.36-1.09-.43-1.5-1.19-.42.39-.3.8-.14,1.22s.62.81.09,1.21a1.53,1.53,0,0,1-1.44.09,3,3,0,0,1-.54-.32c-.62-.37-1-.28-1.1.52a2.22,2.22,0,0,1,0,.37c-.06.37,0,.83-.55.84s-.58-.39-.67-.77a1.37,1.37,0,0,1,0-.35c0-.67.49-1.37-.08-2a3.33,3.33,0,0,1-.25-.28c-.13-.17-.09-.38-.16-.56,0,.16.06.39-.21.44-.43-.19-.4-.55-.35-.92a1.13,1.13,0,0,1,1.19-.88A2.36,2.36,0,0,0,36.41,13c0-.31-.26-.26-.44-.33C35.16,12.39,35.16,11.94,35.72,11.38Z" style="fill:#8887a1"/><path d="M26.43,44.75a5.32,5.32,0,0,1,1-.65c1-.35.32-.62,0-.91a.78.78,0,0,1-.45-.65A3.67,3.67,0,0,1,31.32,41a7.38,7.38,0,0,1,1.62.67,11.28,11.28,0,0,1,1.47,2.14c.51.67,0,1.13-.52,1.56-.28.25-.66.5-.58.9s.56.23.86.3c.94.25,1,1,.28,2a.89.89,0,0,1-.34.16,13.79,13.79,0,0,0-5.75,1.84,1,1,0,0,1-.92-.7A19.44,19.44,0,0,1,26.2,45.3.73.73,0,0,1,26.43,44.75Z" style="fill:#393763"/><path d="M13,74.77a5.6,5.6,0,0,1-.6-2,17.11,17.11,0,0,1,.13-7.16,1.54,1.54,0,0,1,1.22-1.12c1-.16,1.25-.74,1.3-1.65A1.78,1.78,0,0,1,16.73,61c1.7-.26,2.6.08,3.15,1.21a1.21,1.21,0,0,1-.31.92,1.46,1.46,0,0,1-.5.35c-1.39.62-1.39.62-1.06,2.18.24,1.09-.48,1.83-1.56,1.46-.64-.22-1.32,0-1.94-.31-.43-.25-.42.24-.49.47-.33,1.15.68,1.59,1.23,2.26s.9.28,1.41,0c.78-.44,1.35-.14,1.64.7a1.89,1.89,0,0,1,.09.34c0,.5.05,1-.62,1.15s-.57.7-.13,1.06a12.72,12.72,0,0,0,1.44.94,1.42,1.42,0,0,1,.37,1.38c-.06.06-.16.14-.21.11-1.93-1.23-3.9-.24-5.85-.1A.59.59,0,0,1,13,74.77Z" style="fill:#58567b"/><path d="M19.66,62.3a2.72,2.72,0,0,0-3.24-1,1.57,1.57,0,0,0-1.1,1.95c.11.89-.22,1.59-1.3,1.52-.65,0-.92.52-1.38.76a.53.53,0,0,1,0-.75v0c.29-.39-.07-.91.27-1.29,0-.24,0-.48,0-.72.51-.38.46-1,.73-1.52l.78-2.46a5.78,5.78,0,0,0,1-1.83l.22-.47c.4-.55.62-1.21,1-1.78a4.42,4.42,0,0,1,.88-1.49c1.16.52,2.33.92,2.71,2.42.21.86,1.35.84,2,1.3a1.12,1.12,0,0,1-.12,1.08c-.61,1.28-1.29,2.53-1.89,3.82C20.1,62.1,20,62.33,19.66,62.3Z" style="fill:#6d6c8c"/><path d="M40.24,18.82a2.64,2.64,0,0,0,1.95-1c.19-.18.52-.43.38-.73-.77-1.68.4-2.21,1.57-2.75a1.12,1.12,0,0,0,.63-.58.26.26,0,0,1,.3,0,1.72,1.72,0,0,1,.61.78c.14.36.17.74.31,1.1a.2.2,0,0,0,0,.18,1.18,1.18,0,0,1,.39,1,5.61,5.61,0,0,1-.14,3l-.25.52c-.2.31-.24.7-.49,1l-.27.25c-.16.15-.36.32-.54.25-1.18-.44-2,.23-2.73.94a6,6,0,0,1-3.64,1.37,5.53,5.53,0,0,0-1.57.3.7.7,0,0,1-.67-.32,1,1,0,0,1,.06-.95,14,14,0,0,1,2.67-3.75C39.23,19.07,39.6,18.61,40.24,18.82Z" style="fill:#9190a9"/><path d="M22.21,57c-1.32-.12-2.44-.5-2.58-2.09,0-.46-.44-.56-.79-.68a2.53,2.53,0,0,1-1.35-1,.8.8,0,0,0-.08-.16c.68-.64,1.15-1.44,1.76-2.12l.5-.67c.61-.61,1.23-1.21,1.85-1.81.27-.27.49-.72,1-.54a1.27,1.27,0,0,1,.62,1.49c-.21,1.07.32,1.42,1.27,1.46a3.59,3.59,0,0,1,2.21.68c.29.42,0,.72-.26,1a26,26,0,0,0-3.53,4.16A.64.64,0,0,1,22.21,57Z" style="fill:#535178"/><path d="M52,45.24l.41.24a2.86,2.86,0,0,1,1.08.77h0a5.94,5.94,0,0,1,1.28,1h0a1.46,1.46,0,0,1,.9,1c-.07.55-.54.68-.92.93a12.09,12.09,0,0,0-1.65,1.3c-.3.28-.41.34-.05.75.51.59.07,1.58-.78,2.12a3.46,3.46,0,0,1-1.59-1,13.49,13.49,0,0,0-4.36-2.85c-.3-.1-.65-.23-.62-.67a2.92,2.92,0,0,0,.13-.34c.15-2.19,2-2.3,3.45-2.64A18.57,18.57,0,0,0,52,45.24Z" style="fill:#514f76"/><path d="M25.17,11.3c-2-2-2.17-2.94-.49-6a4.58,4.58,0,0,1,.46-1A5.72,5.72,0,0,1,31,1.73a1.5,1.5,0,0,1-.45.52c-.62.62-1.41,1-2.08,1.58-.43.34-.81.77-.47,1.26.88,1.27,1,2.81,1.5,4.19l0,.43A3.1,3.1,0,0,1,28.17,11h0A3.11,3.11,0,0,1,25.17,11.3Z" style="fill:#9b9ab0"/><path d="M45.74,37.41l.28-.26a14.67,14.67,0,0,0,1.7-1.55c.25-.21.4-.67.88-.44a1.15,1.15,0,0,1,.11.94c-.29,1.62.36,2.23,1.94,1.84a2.06,2.06,0,0,1,.6-.12c.66.51,1.37-.42,2,.09l-.75,1.22A4.45,4.45,0,0,1,51,40.66h-.22c-.34.15-.79.12-.91-.15-.47-1.1-1.17-.64-1.76-.36.88-.09,1.43.53,1.9,1.26-.11.56-.83.44-1,.91a3.36,3.36,0,0,1-.91.81,3.75,3.75,0,0,1-1.78.3c.61.52,1.1-.08,1.64-.21.31,0,.64,0,.8.32a.68.68,0,0,1,0,.14c-1,1.56-2.81,1.74-4.12,2.75-.71.21-1.44.45-1.34-.77a4.05,4.05,0,0,0,.75-1.74.62.62,0,0,1,.36-.35c.15,0,.43,0,.42-.14,0-.35-.47-.23-.63-.47a3.19,3.19,0,0,0-.8-2c-.51-.54-.27-.94.44-1s1.82-.42,1.95,1c.12-.86-.07-1.32-.78-1.43-.92-.14-.68-.63-.51-1.16l.25-.26A10.06,10.06,0,0,0,45.74,37.41Z" style="fill:#727190"/><path d="M55,85.62a24.34,24.34,0,0,1-5,3.54c-.41.27-.87.48-1.3.72a8,8,0,0,1-3,1,.22.22,0,0,1-.3,0c.09-1-.79-1.27-1.35-1.78a1.57,1.57,0,0,1-.15-.68c0-.5.46-1-.1-1.5-.18-.89.66-1.17,1-1.73.09-.15.26-.13.44,0s.21.88.79.45,1.13-.6,1.09-1.39a1.58,1.58,0,0,1,.14-.73.5.5,0,0,1,.6-.27.46.46,0,0,0,.1.07c.24.06.16,1.13.71.22.85.55,1.3,1,.57,2.16s.74.87,1.14,1.3.55-.08.74-.39.44-1.07,1.19-.74c.09,0,.22,0,.22,0,.06-1.43,2-1.52,2.06-2.93a.68.68,0,0,1,.38-.38,1.32,1.32,0,0,1,1.1.6c.2.52-.14,1-.23,1.42S55.44,85.36,55,85.62Z" style="fill:#b7b7c7"/><path d="M33,41.93c-.55-.19-1.1-.36-1.64-.56a3.62,3.62,0,0,0-4.15,1.34c-.41.07-.53-.25-.7-.5A7.78,7.78,0,0,1,26.14,41a5.7,5.7,0,0,1,0-.71c.17-.9-.85-1.62-.4-2.56-.07-.42-.42-.07-.58-.21-1.45-.93-1.23-2.59-1.74-3.93a2.27,2.27,0,0,1-.06-.74c0-1.47.23-2,1.16-2.09.52-.06,1,.08,1,.63,0,.77.45,1.44.32,2.2-.16,1,.58,1.7.93,2.52.17.43.55.2.87.17s.69-.63,1.21-.55c.16.83.87,1.32,1.25,2a9,9,0,0,1,.85.79,1.79,1.79,0,0,0,1,.5,1.54,1.54,0,0,1,.44,1.67c-.3.74,1,.58.85,1.29A.17.17,0,0,1,33,41.93Z" style="fill:#42416a"/><path d="M32.45,92.42a4.59,4.59,0,0,1-2.48-.6c0-.36.28-.45.52-.58a2.47,2.47,0,0,1,1.1-.15q.09,0,.09.06a.67.67,0,0,1-.14-.11c-.41-.53-1.5-.55-1.18-1.6a.3.3,0,0,1,.44,0c0-.16-.12-.17-.19-.22-.46-.28-.84-.81-1.44-.06a1,1,0,0,1-1.64-.1c-.47-.56-.19-1.1.31-1.52s.83-.42,1-.88c.54-.59,1-1.24,1.93-1.29a35,35,0,0,1,3.62,1.07C35,87,35.34,87.7,36,88.1c0,.64-.06,1.13.93,1.11,1.15,0,1.45,1,1.58,1.93A1.27,1.27,0,0,1,37.12,91c-.73-.63-1.92-.11-2.48-1.07,0-.08-.37,0-.46.09s.15.17.19.32a2.55,2.55,0,0,1-.1,1.3c.31-.49.67-.82,1.21-.41.29.21.82.21.82.67,0,.65-.59.71-1,.89-.43-.06-.88.12-1.29-.13l-.1,0h-.11C33.35,92.38,32.85,92.7,32.45,92.42Z" style="fill:#ababbd"/><path d="M33.21,41.93a1.42,1.42,0,0,0-.83-.49c-.53-.16-.84-.37-.29-.9s-.33-1-.14-1.56a5,5,0,0,0,2.23.7c.24.2.55,0,.8.18.18.34,0,.91.62.93.49.32,1.24.32,1.32,1.12.46-.55.82-1.72,1.58-.24.11.23.33.14.55.11a2.86,2.86,0,0,1,2.48.94,3.45,3.45,0,0,0,1,.76c.28.14.56.44.41.68-.37.61.3,1,.18,1.57A7.76,7.76,0,0,1,40.93,47c-1.62-.33-3-1.43-4.61-1.71-.5-.08-.83-.6-1-1A5.56,5.56,0,0,0,33.21,41.93Z" style="fill:#494870"/><path d="M50.53,30.63l.76-1.3a12.82,12.82,0,0,0,.5-1.21,4.93,4.93,0,0,1,.61-1.75c.49-.74,1.12-.33,1.72-.21a4.88,4.88,0,0,1,3.21,3.73c0,.26,0,.53-.26.71a5,5,0,0,0-.77,0c-.48,0-.36.39-.48.63-.91.74-1.52,1.78-2.44,2.51a1,1,0,0,0-.47.16c-1.06.9-1,.82-1.81-.23-.51-.63-1.29-1-1.17-2A1.49,1.49,0,0,1,50.53,30.63Z" style="fill:#747392"/><path d="M4,42.42c-.48,0-1,.44-1.45,0C.91,41.76.49,41.13.66,39.36c0-.48-.12-1,.15-1.45v-.5c0-.87.53-1.26,1.27-1.49a3.34,3.34,0,0,1,2.65,0,2.09,2.09,0,0,1,1.18.94.73.73,0,0,1,0,.36c-.17.3-.34.65-.18.94a4.32,4.32,0,0,1,.1,2.77c0,.08,0,.16,0,.24A2.79,2.79,0,0,1,4,42.42Z" style="fill:#b7b7c7"/><path d="M13,74.77l.41.07c1.05.12,2.16,0,3.1.66.84.14,1.47.79,2.33,1,.69.13.43.69.12.93-1.11.83-.81,1.67-.13,2.56a5.86,5.86,0,0,1,.65,1.33c.39.91.22,1.36-.83,1.29-.62,0-.59.63-1,.83a16.67,16.67,0,0,1-2.45-2.79,2.76,2.76,0,0,1-.82-1.75A21,21,0,0,1,13,74.77Z" style="fill:#bcbcca"/><path d="M76.42,40c-.34-.12-.76.06-1-.28a4.64,4.64,0,0,1-1-1l-.29-.32a2,2,0,0,1-.07-.91A1.47,1.47,0,0,0,75,35.6a.65.65,0,0,1,.19-.69l.24-.28c.6.31,1.15.52,1.57-.31s1.22-.68,2-.67,1.08.73,1.49,1.26h0a2.63,2.63,0,0,1,.19,2.74l-.19.47a3.39,3.39,0,0,1-1.25,1.3h0a3.33,3.33,0,0,1-1,.5l-.48,0A1.74,1.74,0,0,1,76.42,40Z" style="fill:#b0afc1"/><path d="M23.91,23.09a.81.81,0,0,1,.52.75c-.68.57-1.92.35-2.13,1.62-.06.36-.51.28-.81,0a5.14,5.14,0,0,1-1.22-1.86c-.12-.28,0-.75-.5-.75s-.8.42-1,.84,0,.84-.32,1.16-.6-.25-.83-.5l-3.26-1.79a3.16,3.16,0,0,0,1.1-2.67c.36-.63,1-.65,1.57-.6,2.11,0,3.68,1.21,5.32,2.3C23.05,21.9,23.34,22.64,23.91,23.09Z" style="fill:#d2d1db"/><path d="M68.91,21a3.08,3.08,0,0,1-1.52-.91c0-.11,0-.21.07-.32a5.49,5.49,0,0,0-.68-2.37.58.58,0,0,1,.18-.3,8.13,8.13,0,0,0,2.69-1.36,1,1,0,0,1,1.24-.2l1.19.53a8.25,8.25,0,0,1,2.69,2.85c0,.42-.23.61-.55.71C72.47,20.19,70.83,21.16,68.91,21Z" style="fill:#8887a1"/><path d="M18.39,24.85c.28-.57-.36-1.21.4-1.9a2.08,2.08,0,0,1,1.48-.52c.64,0,0,.58.16.88a5,5,0,0,0,1.63,2.23c.08-1.51,1.16-1.7,2.37-1.7.56.23.44.88.75,1.26a.32.32,0,0,1,.07.31,3.5,3.5,0,0,1-.55.86c-.85.28-1.89,0-2.46,1-.22.37-.75.64-.2,1.12s.88.63,1.39.07a1.57,1.57,0,0,1,1.43-.6.81.81,0,0,1,.32.16.48.48,0,0,1,.07.33,24.46,24.46,0,0,1-2.9,2.38c-.35.42-.72.64-1.16.12-.18-.5-.36-1-.55-1.51a3.87,3.87,0,0,1-.48-1l0-.48a3.24,3.24,0,0,0-.5-1c-.4-.51-.8-1-1.21-1.52A.3.3,0,0,1,18.39,24.85Z" style="fill:#cacad6"/><path d="M26.67,51.72a12,12,0,0,0-2.81-.54c-.81,0-1.48-.46-1.06-1.5A1.61,1.61,0,0,0,22.4,48l.09-.13a1.58,1.58,0,0,0,.5-.74c.29-.42.81-.54,1.16-.89a12.93,12.93,0,0,1,2.28-1.45,27.49,27.49,0,0,0,1.19,4.81c.14.37.24.84.76.91C28.22,51.44,27.51,51.68,26.67,51.72Z" style="fill:#403e69"/><path d="M55.81,84.63a4.6,4.6,0,0,1,.25-1.51.21.21,0,0,1-.07-.19c0-.07,0-.1,0-.1.39-.15.44-.41.25-.75a5,5,0,0,0-1.51-2.48c-.65-.53-.62-1.42-1.08-2a2,2,0,0,1,1.23-1.79,1.85,1.85,0,0,1,.69.14c.42.18.86.3,1.29.46q1.29.58,2.55,1.23a1.91,1.91,0,0,1,.86,1l-2.76,4.24a5.67,5.67,0,0,1-.79,1,1.86,1.86,0,0,0-.72.75C56,84.74,55.91,84.75,55.81,84.63Z" style="fill:#bebecc"/><path d="M38.23,0l1.23,0V0a2.59,2.59,0,0,1,1.93,1.49c.06.15.13.35,0,.48-.54.75-1.39,1.45-.12,2.31.07,0-.06.31-.09.47a1.37,1.37,0,0,1-.75.73h0c-2,1-3.7.36-4.48-1.74v0c-.42-2.06.15-3.1,2.06-3.74A.15.15,0,0,0,38.23,0Z" style="fill:#85849f"/><path d="M17.63,83.39c0-.87.23-1.49,1.35-1.07.22.08.64.05.3-.56-.49-.9-.87-1.84-1.44-2.72a1.21,1.21,0,0,1,.59-1.66.84.84,0,0,0,.56-.6c-.31-.33-.53-.07-.75.08s-.44.16-.42.09c.24-1.31-1.12-.56-1.44-1.13,1.12-.67,2.24-.2,3.35,0a4.07,4.07,0,0,1,1.56,2.53,6.61,6.61,0,0,0-.37,2.55,2.83,2.83,0,0,0,.67,1.69,1.42,1.42,0,0,1,.38,1,1.26,1.26,0,0,0,.83,1.24A1.89,1.89,0,0,1,24,86.4a.7.7,0,0,1-.69.16c-.83-1.11-2.34-.78-3.33-1.58-.22-.17-.52.13-.79.23s-.51-.23-.67-.49c-.18-.53.29-.92.31-1.42-.43,0-.59.7-1.09.32A1,1,0,0,1,17.63,83.39Z" style="fill:#b7b7c7"/><path d="M28.83,35.68a6,6,0,0,1-.61.62c-.83.66-1.3.38-1.9-.44-1-1.38-.87-2.91-1-4.42,0-.31-.19-.53-.42-.5-.47,0-1,0-1.25.61a2.12,2.12,0,0,0,0,1.09c-.88,0-.92-.71-1.07-1.28A1.11,1.11,0,0,1,23.23,30c.76-.41,1.19-1.27,2.12-1.47.51-.11,1-.31,1.28.31a26.27,26.27,0,0,1,1.26,4.34A8.1,8.1,0,0,0,28.83,35.68Z" style="fill:#4c4a72"/><path d="M7.27,24.33l-.95,1A7.7,7.7,0,0,0,4.24,26.7c-.29.24-.55.71-1.05.34a1.45,1.45,0,0,1-.14-.87,21.06,21.06,0,0,1,.71-3.77c.83-.9,1.69-1.75,3.06-1.65A2.92,2.92,0,0,0,9.11,20c.39-.41.82-.28,1.24,0,.53.62,0,1.41.33,2.05a.3.3,0,0,1-.11.31A4.48,4.48,0,0,0,8.09,23.4C7.8,23.69,7.59,24.06,7.27,24.33Z" style="fill:#b5b4c5"/><path d="M40.24,18.82a9.41,9.41,0,0,0-4,5.28,3.32,3.32,0,0,0-1.54.39.58.58,0,0,1-.47-.14l-.09,0H34a1.16,1.16,0,0,1-.45-.78,14,14,0,0,1,.17-3.17c0-.27,0-.61.47-.55.07.36.1.74.55.88.35-.31.15-.71.2-1.06s-.15-.83.31-1a1.08,1.08,0,0,1,1.36.28.89.89,0,0,0,.86.38c.29,0,.65.11.82-.15s-.15-.51-.32-.72a1,1,0,0,1-.25-.81c.08-.42,0-1.07.52-1.1a.82.82,0,0,1,.86,1c0,.21,0,.57.19.39.7-.62,1,.27,1.51.24C40.78,18.57,40.34,18.54,40.24,18.82Z" style="fill:#83829d"/><path d="M38.48,91.16c-.56-.92-.83-2.23-2.46-1.59-.52.2-.61-.29-.47-.69s.43-.4.42-.73a.61.61,0,0,1,.74-.65c1.54.26,2.8-.81,4.3-.85.65,0,1.13-.22,1.2.66,0,.34.39.39.6.57.18.82.06,1.4-.9,1.26.88.52.67,2,1.83,2.46-1.2.13-2.27.8-3.5.81-.29.22-.61.1-.92.11A1.27,1.27,0,0,1,38.48,91.16Z" style="fill:#b3b2c3"/><path d="M68.91,21a1.46,1.46,0,0,1,1.45-.46,1.37,1.37,0,0,0,1-.1,9.83,9.83,0,0,1,2.87-1.11.51.51,0,0,0,.45-.51c.11-.15.19-.13.23.05l.19.22a3.39,3.39,0,0,1,.82,1,.91.91,0,0,0,0,.23c.31.92-.7.64-1,1a25.84,25.84,0,0,1-1.67,3.17A2.6,2.6,0,0,0,73,25.88c0,.39,0,.85-.49,1-.57-.36-.32-1-.58-1.52-.33-.68-.66-1.37-1-2-.24-.34-.5-.66-.76-1A5.23,5.23,0,0,1,68.91,21Z" style="fill:#8c8ba5"/><path d="M62.84,71.31l-.27,2a.18.18,0,0,1-.28.09c-.2-.16-.25-.74-.71-.22A3,3,0,0,0,61,74.19c-.22.64-.69,1-1.36.66a2.89,2.89,0,0,0-2.18,0c-.69.21-1.43.27-1.8-.61a5.54,5.54,0,0,1,1-3c.56-.21,1.21-.09,1.68-.66.29-.35.77-.21,1.15,0a1.7,1.7,0,0,0,1,.42c.24-.49-.28-1.35.51-1.48.52-.08,1.23-.21,1.66.23A1.13,1.13,0,0,1,62.84,71.31Z" style="fill:#5f5e81"/><path d="M59.59,15.81l1.24-.73a10,10,0,0,1,1.32-.51l1.7-.52a12.47,12.47,0,0,1,3.76,0l.5.31a.8.8,0,0,1-.41.93,1.71,1.71,0,0,0-.84,2h0a1,1,0,0,1-.49.27c-1.14-.12-2.19.48-3.33.44A3.77,3.77,0,0,1,59.59,15.81Z" style="fill:#8887a1"/><path d="M74.65,21.08c.26-.51,1.17.09,1.25-.73l.94,1.5c.34.36.35.87.55,1.3a5.18,5.18,0,0,0,.44,2c.39.38.12.91.3,1.34a2.93,2.93,0,0,1-1.71,2.69.64.64,0,0,0-.43.43c-.21,1.25-1.13,1.24-2.08,1.18-1.34-.7-1.47-2-1.63-3.28.61-.14,1,.36,1.4.61.88.5,1.63.12,1.66-.9a1.28,1.28,0,0,1,.29-.92,1.35,1.35,0,0,0-.22-2.18C74.3,23.22,74.46,22.19,74.65,21.08Z" style="fill:#a7a6b9"/><path d="M44.51,46.2a3.23,3.23,0,0,1,2.26-1.08c.4,0,.72-.43.91-.78a1.06,1.06,0,0,1,1.09-.65l.43,0a3.87,3.87,0,0,1,1.31.54l0,0a3.27,3.27,0,0,1,1.29.8l.27.2c-.47,1-1.47.92-2.25.91-1.15,0-2,.8-3.07.88-.32,0-.45.34-.32.69.28.69-.2,1-.68,1.27a2.11,2.11,0,0,1-2.1-.36c-.94-1.23-.85-1.57.54-2.09A.82.82,0,0,0,44.51,46.2Z" style="fill:#403e69"/><path d="M43,45.7a.49.49,0,0,0-.46-.5c-.58-.1-.75-.36-.11-.62a.44.44,0,0,0,.28-.54c-1-.09-1.14-1.3-2.16-1.52-.72-.15-1.29-.72-2.11-.2-.2.14-.46-.26-.35-.61s.12-.43-.19-.48-.35.14-.43.35a1.72,1.72,0,0,1-1.16,1.09c1-1.38-.57-1.16-.86-1.75-.24-.39-.21-.7.27-.86a3.79,3.79,0,0,1,1.5.11h1c.57-.32,1.23.07,1.8-.23l.71,0a.72.72,0,0,1,1,.12c.84,1.3,2,2.36,2.51,3.9a1.73,1.73,0,0,1-.76,1.76A.33.33,0,0,1,43,45.7Z" style="fill:#535178"/><path d="M28.94,86.89c.11.68-.54.57-.85.79a1,1,0,0,0-.53,1c.06.47.46.42.75.51a.6.6,0,0,0,.86-.47c.19-.91.6-.58,1-.21a5.19,5.19,0,0,1,.62.62c.2.27,1,0,.71.55s-.75,0-1.09-.3c-.88.44-1.27.92-.15,1.56.14.08.16.28.15.45l-.47.41c-.44.09-.74-.19-1.06-.41s-.84-.28-1.23-.52h0c-.59-.22-1.16-.53-1.76-.73l-1.72-.79a1.52,1.52,0,0,1-1.05-.71c-.32-.17-.51-.55-.93-.55a1.16,1.16,0,0,1-.77-.66c-.07-.21-.2-.44,0-.65,1.43.37,3,.17,4.36.92.18-.22-.15-.68.32-.8C27.09,86.85,28,86.35,28.94,86.89Z" style="fill:#a7a6b9"/><path d="M62.84,71.31c.24-1.57-.94-1.42-1.88-1.56-.39.61.15,1.07.32,1.73-.71-.19-1.43,0-1.92-.68-.2-.29-.76-.37-.85-.09-.35,1-1.12.53-1.74.59a2.17,2.17,0,0,1,.29-2.24c.54,0,1.24.48,1-.72-.12-.67.84-.67,1.2-1.1a.5.5,0,0,1,.34,0c.62.64,1,.66,1.14-.36.08-.56.34-1.1,1-1.13s1,.42,1.13,1,.59,1,.69,1.61a9.29,9.29,0,0,1-.56,3Z" style="fill:#686789"/><path d="M50.11,31.63c.27.57,0,1.57,1.17,1.45.06,0,.2.18.2.28.1,2.28.77.67,1.28.2.19-.17.44-.56.53.07-.09.64-.58,1.13-.71,1.76-.49.81-.31,2-1.28,2.53s-1.79.85-2.65,0c-.46-.47-.75-1-.32-1.64a1.78,1.78,0,0,0,.17-1.2.28.28,0,0,1,0-.41l.27-.5a3,3,0,0,0,.63-1.39C49.51,32.3,49.59,31.82,50.11,31.63Z" style="fill:#807f9b"/><path d="M22.4,21.84a2.88,2.88,0,0,1-1.66-.93,3.12,3.12,0,0,0-2.29-1.07,2.61,2.61,0,0,1-1.32-.26,5.82,5.82,0,0,1-3-.82,2.89,2.89,0,0,1-.55-.29c-.51-.36-.9-.82-.61-1.46s.9-.33,1.4-.21a6.5,6.5,0,0,1,3.43.93,28.59,28.59,0,0,1,3.62,2.1A6.28,6.28,0,0,1,23,21.49C23,21.89,22.8,22.07,22.4,21.84Z" style="fill:#9695ac"/><path d="M3.82,22.59a14,14,0,0,1-.5,3.52c-.19.15-.08.46-.3.6-.74,0-1.34.81-2.08.49S1,25.84.35,25.36a13.8,13.8,0,0,1,1.48-3.47,2.88,2.88,0,0,1,.79-1,.74.74,0,0,0,.7-.51.37.37,0,0,1,.36-.11C4.49,21,4,21.79,3.82,22.59Z" style="fill:#bcbcca"/><path d="M30.44,2,31,1.73a2.46,2.46,0,0,1,1.66.79,2.45,2.45,0,0,1,.5,3l-.18.45A1.94,1.94,0,0,1,31.9,7l-.7.52a2.16,2.16,0,0,1-.85.44c-.69-.1-.67-.63-.69-1.13A18.33,18.33,0,0,1,30.44,2Z" style="fill:#8887a1"/><path d="M33.21,16.31c0,.35-.12.74.25,1a7.82,7.82,0,0,1-.6,5.21c-.37.24-.53,0-.62-.29l-.54-1.91a5,5,0,0,1-.27-2.76,7.19,7.19,0,0,1,2.3-4.69,2.26,2.26,0,0,1-.1,2.55C33.45,15.72,33.37,16,33.21,16.31Z" style="fill:#9393aa"/><path d="M3.32,27.09c.68-.53,1.34-1.09,2-1.59.26-.18.56-.59,1-.16a3.11,3.11,0,0,0-.76,2.22c-.33.47.19,1.13-.36,1.54l-.63,2.29a1,1,0,0,1-.34.18c-.79-.07-1.63,0-1.89-1.06a1.59,1.59,0,0,1,0-.38,3.51,3.51,0,0,0,0-1.82C2.43,27.71,2.5,27.11,3.32,27.09Z" style="fill:#58567b"/><path d="M30.44,2c-.08,1,.39,2.14-.49,3,.68.83-.79,2.11.6,2.78,0,.19,0,.36-.2.44-.45.21-.39.87-.9,1-.36.16-.46.05-.53-.36a7.79,7.79,0,0,0-1.26-3.59c-.48-.61-.21-1.18.36-1.61C28.82,3.14,29.64,2.57,30.44,2Z" style="fill:#9190a9"/><path d="M36.72,24.34c.35-.69,1-.46,1.54-.49a5.85,5.85,0,0,0,4-1.69c.71-.74,1.39-1.18,2.4-.59.15.09.4,0,.61,0V22a5,5,0,0,0-1,1.11,1,1,0,0,1-.72.4c-.17.17-.33.35-.49.52-.39.46-.78.93-1.49.8-.46.06-.77.55-1.29.44C39,25,37.69,25.37,36.72,24.34Z" style="fill:#ababbd"/><path d="M44.26,43.94a25.14,25.14,0,0,1-2.43-3.38,1.05,1.05,0,0,0-1.09-.64,28.5,28.5,0,0,0,3.77-1.51c.24.23-.29,1,.81.76.56-.15.87,1.32,1.35,2-.31-.48-1.76.94-1.3-.84.06-.2-.36-.26-.5-.17-.48.28-1-.06-1.54.06.43.89,1.68,1.47.93,2.67.29.18.52.39.25.75Z" style="fill:#6d6c8c"/><path d="M65.33,19.73a3.67,3.67,0,0,0-1.47.57,18.56,18.56,0,0,0-2,1h0a3.84,3.84,0,0,1-1,.75c-.45.06-1,.2-1.23-.27A1.78,1.78,0,0,1,59.8,20c.22-.4.79-.71.29-1.27a1.14,1.14,0,0,1-.22-.52c0-.39.08-.9.61-.61,1,.58,2.13.08,3.16.33.18.58.32,1.2,1.13,1.18C65,19.26,65.32,19.36,65.33,19.73Z" style="fill:#777694"/><path d="M60.08,18.32c.08.09.17.17.25.25a1.9,1.9,0,0,1-2.07,1.58c-1.12-.17-1.46.36-1.9,1.1-.23.4-.46.79-.66,1.21a.38.38,0,0,1-.5.14,2,2,0,0,1-.39-2.25,1.54,1.54,0,0,1,.5-1,12.85,12.85,0,0,1,2.57-2.48.43.43,0,0,0,.19,0C58.47,17.67,59.57,17.61,60.08,18.32Z" style="fill:#85849f"/><path d="M33.21,16.31c.14-1.15.73-2.23.52-3.43a3.53,3.53,0,0,1,2-1.5c-.62,1.44.65.94,1.32,1.2-.56.54-.53,1.26-.72,1.89-.33,1.09-.86,1.7-2,1.38C33.76,15.71,33.51,16,33.21,16.31Z" style="fill:#8c8ba5"/><path d="M52.32,35.15c.3-.52.4-1.17,1-1.52.79-.89,1.28-2.08,2.52-2.5a1.11,1.11,0,0,1,.84.83,4.7,4.7,0,0,1-.9,1.66l-1.19,2C53.65,36.35,53.12,36.23,52.32,35.15Z" style="fill:#5f5e81"/><path d="M38.48,91.16l.76,1.26c-.05.15-.19.17-.3.23h-.1l-.11,0a8,8,0,0,1-3.26,0c-.09-.53.75-.17.64-.78-.11-.29-.55,0-.77-.35-.36-.54-.64-.18-.73.24s.15.79-.43.58a.55.55,0,0,1-.24-.84c.33-.65.54-1.25-.53-1.49a2.29,2.29,0,0,0,1.52-.75c.48.32.15.73.2,1.08C36.49,89.81,37.32,91.13,38.48,91.16Z" style="fill:#a4a3b8"/><path d="M56.79,49.06l.2.18a1.85,1.85,0,0,1,1,1l0,0c.34.45.86.76,1,1.34a.69.69,0,0,1,.28.65c.07.56-.45.59-.74.83-.4,0-.65-.23-.92-.45-1.21-.5-2.26-1.38-3.65-1.42a.57.57,0,0,1-.61-.64c0-.29.24-.53.48-.46,1.4.44,1.53-.55,1.75-1.48a.65.65,0,0,1,.15-.2C56.27,48.39,56.51,48.75,56.79,49.06Z" style="fill:#666587"/><path d="M58.58,25.61c0,.35.08.73-.25,1-.54-.3-1.07.18-1.61,0-.42-.61-1.47,0-1.74-.91a.5.5,0,0,1,.16-.45c1.49-1.42,1.49-1.42.6-3.07a2.15,2.15,0,0,1,2.76-.58c.41.19.83.37,1.22.58-.18,1.07-.18,1.77-1.79.68-.14.56.19,1.09,0,1.61-.13.31-.09.55.36.56S58.8,25.25,58.58,25.61Z" style="fill:#7e7d99"/><path d="M25.92,87.14c.22.31.81.56.3,1s-.72,0-.93-.33a.63.63,0,0,0-.63-.3,8.16,8.16,0,0,1-3.28-.6l-.13-.08a2.22,2.22,0,0,0-.72-.52c-.21-.14-.43-.27-.64-.43l-.09,0h-.09c-.28-.17-.73-.21-.57-.72.3-.79.75-.93,1.34-.3a1.37,1.37,0,0,0,1.3.54c.84-.16,1.18.31,1.38,1,.44.35.92-.09,1.38.06S25.75,86.33,25.92,87.14Z" style="fill:#9f9fb4"/><path d="M10.32,20.06c-.44.05-.84-.18-1.25.4s-1.42.64-2.24.62c-.55-.4-.25-.78.14-.92,1-.33,1.22-1.12,1.42-2-.05-.37.95-.56.18-1.07a.23.23,0,0,1,0-.29h.23a1.41,1.41,0,0,1,1-.23l.78,0a.7.7,0,0,1,.2.33,2.48,2.48,0,0,1,0,1.15c-.2.54-.07,1.14-.25,1.68A.57.57,0,0,1,10.32,20.06Z" style="fill:#d6d6df"/><path d="M60.08,18.32c-.73-.43-2.08,0-2-1.51.33-.6,1-.66,1.52-1a.73.73,0,0,1,.65.31,2.36,2.36,0,0,0,2.39,1.48,4.12,4.12,0,0,0,1.64-.05,5.13,5.13,0,0,1,2.09-.23.26.26,0,0,1,0,.32,1.2,1.2,0,0,1-.32.16,5.46,5.46,0,0,0-1.19.24c-.33.1-.66.33-1,0a6.59,6.59,0,0,0-2,.18A1.23,1.23,0,0,1,60.51,18C59.86,17.32,60.2,18.16,60.08,18.32Z" style="fill:#7e7d99"/><path d="M66.86,17.31c-.68-.86-.62-1.52.44-2,.34-.17.54-.6.81-.91a7,7,0,0,1,2.78,1.2,3.06,3.06,0,0,0-1.78,1C68.53,17.28,67.59,17,66.86,17.31Z" style="fill:#8f8ea7"/><path d="M21.19,30.88c.34.06.71.21.9-.25a10.59,10.59,0,0,1,1.81,5c-.21.59,0,1.43-.94,1.58Z" style="fill:#cacad6"/><path d="M23.67,35.65c0-1.84-1-3.36-1.58-5a24.32,24.32,0,0,1,3.07-2.3,1,1,0,0,1,1.46.09v.44A3.44,3.44,0,0,0,23,30.51c-.48.84,0,1.56.66,2.13.32,1.69.22,3.53,1.75,4.77.34-.2.53.06.75.24a.86.86,0,0,0-.06,1.28,1.68,1.68,0,0,1,.32,1.25c-.7-.09-.84-.75-1.08-1.21A6.35,6.35,0,0,0,24,37.25C23.53,36.78,23.76,36.18,23.67,35.65Z" style="fill:#5c5b7f"/><path d="M73.86,30.64c.72-.35,2.12.09,1.75-1.52,0,0,.11-.15.18-.15,1.45-.12,1.74-1.3,2.16-2.37.65.7.28,1.5.21,2.27a.38.38,0,0,0,0,.21,2.6,2.6,0,0,1-1.26,1.78h0a2.74,2.74,0,0,1-3,0h0c-.08,0-.11-.09-.1-.15S73.83,30.64,73.86,30.64Z" style="fill:#aeadbf"/><path d="M3.32,27.09a1.57,1.57,0,0,0-.69,1.3,7.69,7.69,0,0,1-.06,1.73.49.49,0,0,0,0,.24,4.12,4.12,0,0,0-.46,2A2.6,2.6,0,0,1,.28,29.87a.29.29,0,0,1,0-.33,11.3,11.3,0,0,1,2.8-2.93.5.5,0,0,1,.25-.5Z" style="fill:#bab9c8"/><path d="M8.58,17.05l.86.07a1.66,1.66,0,0,1-.84.95c-.2.33-.52.54-.73.84-1.06,1.46-1.9,1.5-3.2.14a.49.49,0,0,1,.2-.47l2.22-1.23C7.55,17.07,8,16.76,8.58,17.05Z" style="fill:#b3b2c3"/><path d="M52.32,35.15c.69.44,1.35,1,2.24.5a6,6,0,0,1-1.28,2.26,1.64,1.64,0,0,0-1,.33c-.4.24-.85.37-1-.32Z" style="fill:#686789"/><path d="M10.63,16.82v-.21l0,0a9.64,9.64,0,0,1,3.26,0l.52.26c-.42.14-1.1-.29-1.22.45s.75.93,1.21,1.32c.68.7,0,1-.43,1.31s-1.21.42-1.36-.25C12.3,18.39,11.32,17.72,10.63,16.82Z" style="fill:#b3b2c3"/><path d="M3.07,26.61c-.59,1.29-1.8,2-2.73,3-.69-1.24-.12-2.5-.06-3.76,0-.16,0-.33.07-.5.65,0,.8.26.55.84-.12.27-.18.59.08.79a.52.52,0,0,0,.75-.2C2.13,26.25,2.6,26.53,3.07,26.61Z" style="fill:#b3b2c3"/><path d="M58.58,25.61c0-.34-.2-.38-.5-.3s-.57.07-.54-.11a7,7,0,0,0-.11-2.62c-.07-.28.76-.15.82-.06.7,1.25,1.1.23,1.58-.18a.55.55,0,0,1,.75-.32.22.22,0,0,1,.06.21c0,.07,0,.1-.06.1h0a5.6,5.6,0,0,1-.82,1A14.07,14.07,0,0,0,58.58,25.61Z" style="fill:#8887a1"/><path d="M43.74,91.6c-.6-.43-2-.06-1.4-1.69.18-.51-1-.37-1.5-.66.32-.93,2.14.23,1.91-1.36,0-.75.93-.14,1.11-.67l.15-.08c.54-.21.7.06.48.48a1.6,1.6,0,0,0-.23.78c-.76.16-.47.86-.7,1.28-.33.6-.32.9.29,1.21a.44.44,0,0,1,.15.73Z" style="fill:#ababbd"/><path d="M23.67,35.65c.41.42.08,1.08.5,1.5a4.4,4.4,0,0,1,1.32,4c-.12.11-.22.09-.31,0-.72-1.34-1.84-2.45-2.22-4C23.58,36.84,23.29,36.08,23.67,35.65Z" style="fill:#b3b2c3"/><path d="M36.72,24.34a9.51,9.51,0,0,0,2.89.52c.31,0,.57.06.6.44l0,.07c-.45.29-1.06-.13-1.47.32a.66.66,0,0,1-.39.08,9.41,9.41,0,0,0-1.91-.41h-.72c-.21-.47-.92-.39-1-1,.45-.38.82-1.15,1.52-.3Z" style="fill:#807f9b"/><path d="M55.07,25.6c.42.61,1.2.43,1.75.76a.87.87,0,0,1,.48.91,1.82,1.82,0,0,0,.48,1.34,2.53,2.53,0,0,1-.45,1.28c-.42-1-1.36-1.63-1.69-2.71-.19-.64-1.12-.4-1.59-.82l.1-.12A4.88,4.88,0,0,0,55.07,25.6Z" style="fill:#8887a1"/><path d="M52.62,25.63a6,6,0,0,1,1.19-3.28,2.38,2.38,0,0,1,1.57.43.8.8,0,0,1,.32,1c-.37.5-.8.2-1.34,0,.92,1.74-.64,1.5-1.41,1.91A.48.48,0,0,1,52.62,25.63Z" style="fill:#b0afc1"/><path d="M65.33,19.73l-.48-.39c0-1.12.54-1.49,2-1.48.88.52.67,1.39.71,2.18a.33.33,0,0,0-.19.06Z" style="fill:#58567b"/><path d="M44,91.62c-.67-.68-1.56-1.29-.62-2.41.08-.09-.15-.43-.24-.65.39-.28.76-.12,1.12-.16v.75l-.12,0-.11,0c.42.63,1,1.09,1.48,1.7h.26Z" style="fill:#b3b2c3"/><path d="M50,41.42c-.93-.39-1.59-1.39-2.84-1.19.67-.37,1.41-.36,1.89-1,.19-.23.71,0,.68.4,0,.79.6.78,1,1Z" style="fill:#7e7d99"/><path d="M60.32,78.6a20.6,20.6,0,0,0-3.5-2,.22.22,0,0,1,.06-.34c1,0,2.07.34,3.12.36a2.79,2.79,0,0,1,1.09.42,2.68,2.68,0,0,1-.59,1.55A.55.55,0,0,0,60.32,78.6Z" style="fill:#aeadbf"/><path d="M58.57,53c0-.54.58-.42.75-.75.57.38.74,1.06,1.17,1.53a.67.67,0,0,1,.36.78c-1.16.44-1.89.22-2.42-.72C58.25,53.5,58.15,53.2,58.57,53Z" style="fill:#727190"/><path d="M57.78,28.61c-.64-.16-1.07-.43-.76-1.2a1.24,1.24,0,0,0-.2-1.05,2,2,0,0,0,1-.19c.64-.38.37.22.46.44A4.5,4.5,0,0,1,57.78,28.61Z" style="fill:#777694"/><path d="M2.09,32.34a1.55,1.55,0,0,1,.46-2c.18,1.11,1.25.69,1.85,1.06-.39,1-1.19,1.07-2.08,1Z" style="fill:#5f5e81"/><path d="M24.66,26.11a.81.81,0,0,1,.5-.76c.35-.11.39.15.46.38a3.29,3.29,0,0,0,0,1.56c.15.2.45.12.59.32l.23.28c-.33.49-.78.4-1.23.23l-.24,0C23.64,27.73,23.6,27.4,24.66,26.11Z" style="fill:#e7e7ec"/><path d="M55.31,22.83a2.3,2.3,0,0,1-1.5-.48,1.93,1.93,0,0,1,1-2c.17.74.33,1.49.5,2.23a.16.16,0,0,1,.06.17C55.35,22.81,55.33,22.83,55.31,22.83Z" style="fill:#9695ac"/><path d="M78.94,33.89c-1.47,0-1.73.2-2.69,1.87l-.85-1.13,1-.76C77.26,33.48,78.1,33.15,78.94,33.89Z" style="fill:#b7b7c7"/><path d="M75.16,34.91a6.55,6.55,0,0,1,.22,1.3c0,.76-.14,1.52-1.24,1.2a1.73,1.73,0,0,1,.23-1.75A.81.81,0,0,1,75.16,34.91Z" style="fill:#b7b7c7"/><path d="M61.07,77.07c-.34,0-.72.12-1-.21-.79-.29-1.26-.71-.69-1.58a4.27,4.27,0,0,0,2.55-.12,1.69,1.69,0,0,1-.44,1.16l-.18.48C61.25,76.91,61.24,77.07,61.07,77.07Z" style="fill:#6b6a8a"/><path d="M15.62,20.08c.17,1.12.26,2.2-1.25,2.48l-.73-.23a.21.21,0,0,1-.1-.18c0-.07,0-.11,0-.11a5.85,5.85,0,0,0,1.12-1.4C15,20.4,15.11,19.93,15.62,20.08Z" style="fill:#c6c5d2"/><path d="M5.83,40.93a10.13,10.13,0,0,0-.48-3,.57.57,0,0,1,.47-.83c.42.11.31.56.5.81a.31.31,0,0,0,0,.23,2,2,0,0,1-.09,1.74C5.89,40.15,6.26,40.71,5.83,40.93Z" style="fill:#83829d"/><path d="M17.69,83.62c.64,0,.72-1.33,1.41-.79s-.48,1-.43,1.57a1,1,0,0,1,0,.24c-.65.13-.74-.43-1-.81A1.55,1.55,0,0,1,17.69,83.62Z" style="fill:#bcbcca"/><path d="M56.54,31.88l-.73-.75c0-.25-.59-.28-.33-.64a.59.59,0,0,1,.84-.11c.21.19.53.24.68.52-.07.23-.13.47-.19.71S56.71,31.87,56.54,31.88Z" style="fill:#83829d"/><path d="M22.4,21.84c.3,0,.48-.14.49-.45s.16-.17.26,0c-.06.72.74,1.05.76,1.73C23.09,23.05,23,22.19,22.4,21.84Z" style="fill:#aeadbf"/><path d="M35.74,40.15c-.3.18-.27.48-.29.77-.21.06-.44.33-.64,0s0-.68.15-1a.3.3,0,0,1,.51,0,.1.1,0,0,0,.15,0C35.76,40,35.79,40,35.74,40.15Z" style="fill:#727190"/><path d="M52.62,25.63h.17c.44.08,1,0,1.29.4a.26.26,0,0,1,0,.32h0c-.55,0-1.1-.35-1.65,0C52.21,26.05,52.51,25.87,52.62,25.63Z" style="fill:#8887a1"/><path d="M25.17,28.12a2.38,2.38,0,0,0,1.23-.23c.07.18.15.35.22.53l-1.46-.09A1.48,1.48,0,0,0,25.17,28.12Z" style="fill:#cfcfd9"/><path d="M57,30.9a.73.73,0,0,1-.68-.52c.25.09.67-.42.75.22Z" style="fill:#666587"/><path d="M33.7,23.6l-.49-.24c-.23-.23-.51-.42-.5-.79.59-1.7.45-3.51.75-5.25,0-.19,0-.37.06-.67.26.39.29.8.69.92a3.79,3.79,0,0,1,0,2.26h0a10,10,0,0,0-.32,2.88C33.93,23.05,34,23.36,33.7,23.6Z" style="fill:#777694"/><path d="M34.21,19.83V17.57C35.05,18.32,34.36,19.07,34.21,19.83Z" style="fill:#83829d"/><path d="M38,48.18a27.63,27.63,0,0,1-3.51.26c.46-1.39.43-1.44-.95-1.49-.27,0-.62.09-.74-.29a.83.83,0,0,1,.31-.89c1.45-.87,1.26-1.84.31-3a3.69,3.69,0,0,1-.44-.89h.25a2.36,2.36,0,0,1,2.06,1.69,2.48,2.48,0,0,0,2.18,1.67c1.23.17,2.37,1.08,3.54,1.66a.9.9,0,0,1,.83.06.71.71,0,0,1,.44.8c-.09.39-.46.25-.72.27A26.42,26.42,0,0,0,38,48.18Z" style="fill:#3d3c67"/><path d="M19.37,63a23.77,23.77,0,0,0-1.24,7.28c-.45-.67-.87-1.3-1.6-.22-.26.39-.76.29-1.14.06-1.86-1.1-2.16-2.22-1.09-4.27.61,1.29,1.95.52,2.88,1,.22.12.79-.61.51-1.36-.67-1.8-.62-1.81,1.35-2.36A1.66,1.66,0,0,0,19.37,63Z" style="fill:#5c5b7f"/><path d="M19.44,75.08a1.77,1.77,0,0,1,.42,1l-3.48-.23c-.9-.67-2-.58-3-1,1.13-.56,2.5,0,3.59-.85.43-.34.76.34,1.18.47A12,12,0,0,1,19.44,75.08Z" style="fill:#797896"/><path d="M18.15,70.52l.8,3.29c-.81-.39-1.82-.52-2-1.65-.09-.49,0-.92.57-.81C18.38,71.52,18.06,70.89,18.15,70.52Z" style="fill:#5f5e81"/><path d="M39.48,20.31c.47-.27.66-.82,1.15-.46s1.33.56,1.56,1.3c.11.35-.25.78-.53.56s-1.13.48-1-.31S40.17,20.56,39.48,20.31Z" style="fill:#8887a1"/><path d="M54.75,56.28l-2.49-3c1-1,.94-1.67-.15-2.4l3.45-2.62c.15-.06.23,0,.29.15a3.17,3.17,0,0,0-.15.85c.1,1.2-.48,1.47-1.52,1.16-.24-.07-.54-.19-.56.19s.35.36.64.36a6.08,6.08,0,0,1,3.56,1.54c-.29,1.48-.29,1.48-1.57,1.38,0,1.48,0,1.49-1.21,1.3C54.92,55.53,55.63,56.11,54.75,56.28Z" style="fill:#5a597d"/><path d="M38,48.18c.89-.47,1.86-.11,2.78-.24.42,0,1.1.27,1.23-.16.2-.68-.66-.53-1-.83.41-.84,1.32-.86,2-1.25h.5c-.09,1,.49.7,1,.5,0,.21-.08.41-.31.47-1.26.33-1.07,1-.44,1.79A37.31,37.31,0,0,0,38,48.18Z" style="fill:#5a597d"/><path d="M48,42.93c-.06.14-.13.29-.19.44-.24.61-.84.6-1.33.77a.53.53,0,0,1-.62-.31.66.66,0,0,1,0-.7c.19-.26.42-.37.73-.11C47.09,43.43,47.54,43,48,42.93Z" style="fill:#807f9b"/><path d="M44.51,43.69l-.25-.75c.39.05.83-.17,1.15.2a.41.41,0,0,1-.08.55C45.06,44,44.78,44,44.51,43.69Z" style="fill:#5a597d"/><path d="M54.81,82.87c.67,1.2-.69,1.27-1.08,1.87-.15.24-.65.17-.67.63s.1.79-.24,1.06c-.51.38-.51-.44-.68-.38a1.13,1.13,0,0,0-.78,1.07c0,.55-.19.53-.57.49-.62-.07-.9-1.21-1.75-.57.1-.6-.59-1.23.07-1.8.18-.16.46-.2.53-.51-.19-.43-.93-.46-.86-1.11-.2-.4.07-.68.26-1h0a1.47,1.47,0,0,1,2,.46c.11,0-.14.37.2.24.47.42.3,1,.22,1.54a1.34,1.34,0,0,0,.25-1.77c-.39-.72-.12-1,.63-1S54,82.69,54.81,82.87Z" style="fill:#b0afc1"/><path d="M54.81,82.87a4.53,4.53,0,0,1-2.51-.5,1.77,1.77,0,0,1-1-1.52l1.28-1.5c.27,0,.42-.23.63-.36.74-.46,1-.32,1.08.57a1.5,1.5,0,0,0,.54,1.14,1.68,1.68,0,0,1,.26,1.92Z" style="fill:#c3c3d0"/><path d="M55.06,82.62c-.26-.69.07-1.69-1-2-.06,0-.11-.12-.14-.19a8.18,8.18,0,0,0-1.35-1.13c.4-.59.81-1.17,1.22-1.76l.47,0c0,1.16.78,1.79,1.48,2.56a3.57,3.57,0,0,1,.85,2,5.5,5.5,0,0,1-.51.75v.25C55.62,83.16,55.41,82.76,55.06,82.62Z" style="fill:#b0afc1"/><path d="M42,85.88a22.12,22.12,0,0,0,5.53-2.29c.58,1.61-1,2-1.69,3-.45-.25-.38-.78-.66-1.21-.19.76-1.32.81-1.15,1.79C42.63,87.84,42.54,86.48,42,85.88Z" style="fill:#bcbcca"/><path d="M45.51,90.91c-.94-.16-1.28-1-1.73-1.63-.06-.09-.11-.36.1-.39s.25.17.38.26C45,89.49,46.25,89.5,45.51,90.91Z" style="fill:#ababbd"/><path d="M49,82.63a1.73,1.73,0,0,1-.26,1c-.3.07-.15.64-.48.54s-.25-.52-.28-.82A1.94,1.94,0,0,1,49,82.63Z" style="fill:#bcbcca"/><path d="M26.11,41.72l-.67-.62c-.31-1.35-.37-2.78-1.27-4,1.27.63,1.45,2.05,2.25,3,0,.24,0,.48,0,.72C26.18,41.13,26.48,41.54,26.11,41.72Z" style="fill:#9b9ab0"/><path d="M26.11,41.72c.09-.27,0-.61.29-.82.07.45.37.87.23,1.36Z" style="fill:#5c5b7f"/><path d="M26.16,37.65l-.75-.24c0-.2.06-.46.33-.41S26.17,37.34,26.16,37.65Z" style="fill:#686789"/><path d="M22.15,79.61c2,1.72,3.75,3.77,6.23,4.89.78.36,1.56.75,2.34,1.12-.81.12-1.15.9-1.78,1.27a16.13,16.13,0,0,1-3,.25,2,2,0,0,0-1.26-.5.39.39,0,0,1-.09-.33c.66-.81.11-1.31-.43-1.88-1-1.1-2.15-2.18-2.4-3.78C21.67,80.26,21.45,79.73,22.15,79.61Z" style="fill:#b7b7c7"/><path d="M42,85.88c.33,0,.72,0,.76.45.07.84.67.82,1.27.81.18,1.25-1,.29-1.26.75-1,.17-1,.16-.92-1-1.64-.27-3,1.12-4.67.84a1.11,1.11,0,0,0-1.19.41c-.93-.07-1.27-.72-1.51-1.49A26.4,26.4,0,0,0,42,85.88Z" style="fill:#b7b7c7"/><path d="M30.44,91.41A2.49,2.49,0,0,0,30,91c-.4-.22-1-.24-.86-.95s.75-.66,1.3-.64c0,.34,0,.65.44.78a1,1,0,0,1,.82,1h0A2.05,2.05,0,0,1,30.44,91.41Z" style="fill:#b3b2c3"/><path d="M76.87,39.28a.44.44,0,0,1-.42-.54.62.62,0,0,1,.7-.56c.27,0,.5.11.47.43S77.17,39.14,76.87,39.28Z" style="fill:#9b9ab0"/><path d="M15.62,20.08l-.75.75c-.56.08-.53,1.22-1.35.79-1.07-.58-2.51-.62-3-2a4.39,4.39,0,0,1,.11-1.53c0-.42,0-.83,0-1.25a3.16,3.16,0,0,1,2.16,2.65c0,.52.41.39.61.33.57-.18,1.25-.35,1-1.23a11.71,11.71,0,0,0,2.76,1C16.58,19.61,16,19.4,15.62,20.08Z" style="fill:#a9a8bb"/><path d="M67.58,20c-.29-.64,0-1.51-.71-2-.18-.16-.47-.2-.51-.5v-.24h.5A2.57,2.57,0,0,1,67.58,20Z" style="fill:#777694"/><path d="M24.66,26.11c-.12.69-1.14,1.5.27,2a1.52,1.52,0,0,0-1.37.69c-.77,1.18-1.37.07-1.89-.26s-.37-.94.22-1.28a.76.76,0,0,0,.09-.09A2.24,2.24,0,0,1,24.66,26.11Z" style="fill:#cfcfd9"/><path d="M22.4,48a1.41,1.41,0,0,1,.77-.73C23.21,47.79,22.94,48,22.4,48Z" style="fill:#535178"/><path d="M59.33,75.34c.08.59.1,1.21.75,1.52a6.85,6.85,0,0,1-3.26-.51,3.84,3.84,0,0,1-1.26-.27L55,75.83h.08c.34-.41.7-.8,1.31-.7a1.88,1.88,0,0,0,1.24,0l.29-.14c.48-.24,1-.51,1.35.12A1.36,1.36,0,0,0,59.33,75.34Z" style="fill:#777694"/><path d="M56.06,82.87c-.41-.64.32-.52.51-.75,0,.27.51.39.26.71S56.33,83,56.06,82.87Z" style="fill:#b7b7c7"/><path d="M55.56,76.08a2.07,2.07,0,0,1,1.26.27v.24A2.31,2.31,0,0,1,55.56,76.08Z" style="fill:#bab9c8"/><path d="M41.44,4.46,41,4.77c-.06-.29.33-.7-.36-.79-1.17-.15-.63-.75-.24-1.26s1-.54.85-1.23l.21,0A4.08,4.08,0,0,1,41.44,4.46Z" style="fill:#9695ac"/><path d="M22.15,79.61a1.68,1.68,0,0,0,.17,2.06c.78.75,1,1.94,2,2.47a2,2,0,0,1,.45.43c.64.63,1,1.25-.07,1.82a.59.59,0,0,1-.74,0C23.28,86,23,85,22.06,85c0,0-.15-.11-.16-.18-.31-2.15-2.49-4.08-.75-6.47A2.2,2.2,0,0,1,22.15,79.61Z" style="fill:#bcbcca"/><path d="M23.92,86.38h.74v.25c-.5-.08-1.06.2-1.5-.25Z" style="fill:#a7a6b9"/><path d="M3.55,20.31a4.06,4.06,0,0,1,1.26-1.25c.3.19.62.33.92.49.6.3,1.38.53,1.67-.42a1.68,1.68,0,0,1,1.2-1.06c-.08,1,0,2.1-1.46,2.28-.44.06-.5.37-.31.73-1.4-.29-2,1-3,1.51C3.33,21.88,4.29,21,3.55,20.31Z" style="fill:#c8c8d4"/><path d="M10.59,19.82a16.65,16.65,0,0,0,2,1c.63.25,1.49,1.49,1.9-.27.05-.2.32.08.42.25-.36.49-.46,1.25-1.28,1.28h-3c-.55-.09-.61-.47-.45-.89a2.47,2.47,0,0,0,.14-1.17c0-.08,0-.15,0-.23S10.51,19.71,10.59,19.82Z" style="fill:#9f9fb4"/><path d="M39.06,89.56a10.44,10.44,0,0,0,1.8.47c.37,0,.93.06.75.52s.26,1.09-.27,1.31a1,1,0,0,1-1.21-.63A3.17,3.17,0,0,0,39.06,89.56Z" style="fill:#ababbd"/><path d="M72.41,27.37c0-.17,0-.34,0-.51.06-2.2,1.62-3.81,2.25-5.78.1,1.06,0,2.09,1.11,2.9.54.38,1.52,1.63,0,2.49a.49.49,0,0,0-.2.66c.38.56.45,1.09-.33,1.2-.61.1-1.38,1.19-2-.18C73.21,27.88,72.57,27.82,72.41,27.37Z" style="fill:#9d9cb2"/><path d="M56.56,75.34c-.59-.15-.93.45-1.46.5-.1-.64.37-1,.62-1.55a1.59,1.59,0,0,0,1.85.21,2,2,0,0,1,2.18.12c.6.33,1-.14,1-.51-.15-.73.18-1,.73-1.17.29-.11-.06-.81.52-.63s.32.69.4,1.07a3.67,3.67,0,0,1-.52,1.7c-.68,1.6-1.63.56-2.51.26h0c-.51-1-1-.34-1.51,0h0C57.4,75.36,57,75.6,56.56,75.34Z" style="fill:#55547a"/><path d="M54.75,56.28c.64-.69-.54-1-.33-1.65.58-.18.94.46,1.47.43a1.65,1.65,0,0,0-.24-1.63c.37-.21.56,0,.78.11.63.26,1.08.33.93-.61-.06-.33.19-.42.46-.45l.75.5c.06,1.16.7,1.59,2.25,1.51l.48.53,1,2c.26,1.08.51,2.16.76,3.25a2.29,2.29,0,0,1-1.31,1.1,6.51,6.51,0,0,0-2.53,2.28c-.86,1.15-.88,1.94,0,2.95a.62.62,0,0,1,.13.7c0,.31-.12.63-.43.67-.62.08-.7.26-.4.82s-.11.7-.56.85c-.74.25-.57-.32-.66-.66.09-2.14.14-4.26,0-6.4C57.18,60.17,56,58.24,54.75,56.28Z" style="fill:#646285"/><path d="M63.12,60.47l.18.09a43.86,43.86,0,0,1,.26,6.17,2.53,2.53,0,0,1-.19,1.33,1.39,1.39,0,0,1-.76-1.21c-.06-.56-.38-.91-.86-.89s-.63.57-.75,1a1.05,1.05,0,0,0,0,.24c.1.46,0,.94-.45,1s-.86-.38-.94-.93a4.46,4.46,0,0,1-.9-1.62A1.3,1.3,0,0,1,60.26,64c.89.31,1.8.19,2.67.5a1.56,1.56,0,0,0-.42-1.63c-.7-.8-.88-1.48.28-2C62.92,60.78,63,60.58,63.12,60.47Z" style="fill:#777694"/><path d="M63.12,60.47c-.23.35.5,1.41-.82,1-.28-.09-.1.53.12.74a2.73,2.73,0,0,1,.82,2.93c-.88-1-2.28-.08-3.27-.94-.09-.08-1.41.24-1,1.37a13.91,13.91,0,0,1,.65,1.73h-.25a9.17,9.17,0,0,0-.55-.83,2.06,2.06,0,0,1-.12-2.53c1-2,2.76-2.69,4.42-3.67A.21.21,0,0,1,63.12,60.47Z" style="fill:#6d6c8c"/><path d="M2.57,30.12a2.57,2.57,0,0,1,.06-1.73A1.66,1.66,0,0,1,2.57,30.12Z" style="fill:#5f5e81"/><path d="M60.83,21.84l-.23.25-.77.25c-.36,0-.74.06-1-.2-1.05-.88-2-.53-3,.2a.17.17,0,0,1-.25,0c0-1.06,1-1.65,1.35-2.58a.47.47,0,0,1,.43-.12c1.45.89,2.11-.39,3-1.07.59.32.64.73.17,1.2-.11.11-.26.2-.38.31a1.61,1.61,0,0,0-.37,1.5C59.8,22.06,60.45,21.75,60.83,21.84Z" style="fill:#7e7d99"/><path d="M66.36,17.56l.51.5a1.84,1.84,0,0,0-2,1.28c-.8.12-1.29-.4-1.87-.79.24-.36.71-.12.87-.48l1-.25c.39-.29.89.05,1.27-.25Z" style="fill:#616083"/><path d="M55.56,22.34h.25a1.49,1.49,0,0,1,.28,2.6,7.73,7.73,0,0,1-1,.66c.06.8-.47.78-1,.75a1.93,1.93,0,0,1,0-.24c.54-.73.35-1.94,1.51-2.26a1.82,1.82,0,0,0-.25-1v-.25Z" style="fill:#9695ac"/><path d="M21.39,86.91a2,2,0,0,1-.81-.74A.66.66,0,0,1,21.39,86.91Z" style="fill:#a7a6b9"/><path d="M10.59,19.82h-.23c.08-.59-.22-1.22.23-1.76Z" style="fill:#b5b4c5"/><path d="M66.12,17.57c-.36.41-.84.19-1.27.25C65.21,17.4,65.69,17.63,66.12,17.57Z" style="fill:#777694"/><path d="M55.56,23.85c-.48.51-1,1-.87,1.79.1.58-.35.42-.64.47a2.85,2.85,0,0,1-1.26-.48c.37-.14.33-1,1.12-.52.29.2.6-.23.42-.7s-.61-.59-.45-1.13C54.54,23.21,54.89,24,55.56,23.85Z" style="fill:#a2a1b6"/><path d="M51.27,80.85l1,1.52c-.75,0-.58.18-.27.66.68,1.08.24,2-1.06,2.14.25-.6.58-1.2.08-1.8h0a2.52,2.52,0,0,0-2-.73Z" style="fill:#bcbcca"/><path d="M51.05,83.37c0,.3.08.7-.42.72-.08,0-.24-.12-.24-.2,0-.43.31-.51.65-.53Z" style="fill:#7e7d99"/><path d="M23.61,81.81c-.06.07-.11.2-.19.22a.27.27,0,0,1-.35-.25.32.32,0,0,1,.17-.26C23.43,81.46,23.53,81.61,23.61,81.81Z" style="fill:#8a89a3"/><path d="M57.82,75.34c.23-.42.51-.77,1-.74s.44.4.46.73C58.83,74.73,58.32,75.24,57.82,75.34Z" style="fill:#5f5e81"/><path d="M56.56,75.34c.42.08.84-.28,1.26,0A.86.86,0,0,1,56.56,75.34Z" style="fill:#5f5e81"/></g></g></svg>