<svg xmlns="http://www.w3.org/2000/svg" viewBox="0 0 84.62 72.99"><g id="Ebene_2" data-name="Ebene 2"><g id="OBJECTS"><path d="M65.78,22.86a.41.41,0,0,1-.12-.54c0-.67.45-.72.91-.77,1.21-.11,2.41.12,3.63.11.85,0,1.36.77,1.76,1.46A9.65,9.65,0,0,0,73,24.52a2.75,2.75,0,0,1,.39,1.77c.16,1.39-.54,2-1.84,2.29a1.51,1.51,0,0,0-1.2,2.28c.44,1.12.69,2.43,2.08,2.93a1,1,0,0,1,.61,1.13,1.14,1.14,0,0,1-.13.35,8.5,8.5,0,0,0-1.2,1.56,1.8,1.8,0,0,1-2.53,1.11,2.84,2.84,0,0,0-2.25-.12c-.41.21-.83,0-.79-.6a3.25,3.25,0,0,1,.38-1.59c.32-.35-.06-.86.28-1.21v0a23.14,23.14,0,0,0-.25-9.34v0A22.32,22.32,0,0,0,65.78,22.86Z" style="fill:#5c5b7f"/><path d="M34.67.59l.47-.08a1.15,1.15,0,0,1,.57-.29C37.28.2,37.67.5,38,2a4,4,0,0,1,.19,1.58,1.11,1.11,0,0,1-.13.36,6.23,6.23,0,0,0-4,2.2,3.68,3.68,0,0,0-1,2.44c-.06,1.18-.48,2.31-.63,3.48l-2,1.24c-1.48.69-1.93-.75-2.75-1.36s-.18-1.19.12-1.76a1.58,1.58,0,0,0,.21-1.08,1.86,1.86,0,0,1,.4-1.5c.66-1,.54-1.27-.47-1.86-.72-.42-1.69-.64-1.65-1.78.23-.52.77-.66,1.16-1l.28-.18c.6-.28,1.19-.58,1.78-.88l.31-.14A10.72,10.72,0,0,0,31,1.3,6.91,6.91,0,0,1,34.67.59Z" style="fill:#666587"/><path d="M26.35,3.89c.16,1,1.07,1.29,1.83,1.67,1,.5,1.26,1.29.56,2.13-.42.5-.8.81-.38,1.59.23.44-.24,1.08-.63,1.5s-.37.77.18,1.07c.83.46,1.16,1.74,2.44,1.46l-1.52,1.51a30,30,0,0,1-5.77,1.35,1.15,1.15,0,0,1-1.61-.67c-.41-.85-2.79-1.28-3.75-.77-.54.28-1.05.6-1.54-.06-.18-.6.21-1.08.37-1.61a2.47,2.47,0,0,1,.67-.9,1.49,1.49,0,0,1,.65-.33,1.39,1.39,0,0,1,1.35.46,8.54,8.54,0,0,0,3,1.62c-.52-.77-.73-1.48-.08-2.17a.53.53,0,0,0,.06-.6c-.52-1.11.26-1.06.81-1.08-1.42,0-1.42,0-2.93,1.26-.57.46-1.1.23-1.37-.47A1.08,1.08,0,0,1,19,10c.5-.44,1.26-.38,1.73-.88a61.88,61.88,0,0,1,6.43-2.23s.08,0,.08-.09c-.16,0,.05,0-.13,0-.5-.89-1.61-1.36-1.68-2.53a.33.33,0,0,1,.25-.22c.18,0,.35,0,.43-.23S26.32,3.68,26.35,3.89Z" style="fill:#6b6a8a"/><path d="M59.75,13.56l-.26-.24a8.61,8.61,0,0,0-1-.72l-.76-.53c-.34-.26-.67-.52-1-.79h0a.55.55,0,0,1-.2-.3,1,1,0,0,1,.94-1.09,2.4,2.4,0,0,0,2-1.31A3.1,3.1,0,0,1,62,7a5,5,0,0,1,2.16,1.33c1.08,1.16,2.28,2.2,3.32,3.41a3.2,3.2,0,0,1,.74,1.59c-.36.84-1.2,1.35-1.52,2.22,0,.15-.22.33-.36.31-1.33-.18-1.56.9-2,1.71-.15.26-.3.51-.66.46l-1.34-2c-.43-.66-1.12-1.1-1.53-1.77h0C60.41,14.1,60.1,13.8,59.75,13.56Z" style="fill:#5f5e81"/><path d="M26.27,38.67,25,40.16a3.43,3.43,0,0,1-3.92-.35,11,11,0,0,1-1.25-1.12,4.55,4.55,0,0,1-2.07-1.32c-1.06-1-2.52-.71-3.76-1.17s-2.45-.56-2.63-2.13a17,17,0,0,1,0-4.21c.05-.34.32-.35.56-.3a12.78,12.78,0,0,0,4.49,0,4.33,4.33,0,0,0,2,1c1.06.32,1.26.81.79,1.78a4.19,4.19,0,0,1-1.53,2.21c-.5.29-.66.73.08,1.08.92.43,1.66,1.24,2.84,1.08.56-.08.95.48,1.36.83s1,.65,1.47-.16a3.68,3.68,0,0,1,3.88-1.2l-.21,1C26.83,37.68,26.76,38.29,26.27,38.67Z" style="fill:#777694"/><path d="M63.63,18.05c.32-.52.66-1,.94-1.58s.33-1.55,1.39-.74c.2.16.49-.14.55-.38.21-.93,1-1.38,1.54-2.06.62,0,.81.55,1.07,1A32.46,32.46,0,0,1,73,23.32c.11.44.25.9-.13,1.3-.95-.36-1-1.47-1.68-2.07A1.75,1.75,0,0,0,69.4,22a10.2,10.2,0,0,1-2.57-.13c-.45,0-.92-.06-1.17.46a1.23,1.23,0,0,1-.37-1c-.18-.19-.13-.44-.18-.67A1.58,1.58,0,0,0,64,18.55C63.82,18.45,63.64,18.33,63.63,18.05Z" style="fill:#646285"/><path d="M10.53,72.85l-1.45,0c-.43-.24-.93,0-1.36-.2-.29-.51,0-1.06-.09-1.58a5.49,5.49,0,0,1-.13-1c.16-2.47.46-2.74,2.61-2.75A6.3,6.3,0,0,0,12,67.2h5.26c.93,0,1.05.59.84,1.36a3.6,3.6,0,0,1-1.37,1.69,8,8,0,0,1-2.63,2.58,1.45,1.45,0,0,1-.58.14A15.21,15.21,0,0,1,10.53,72.85Z" style="fill:#616083"/><path d="M32.39,12.07c0-.8-.57-1.64.2-2.41a.92.92,0,0,0,.18-.7c-.36-2.64,1.74-3.59,3.34-4.88.54-.43,1.19-.07,1.79,0a5.73,5.73,0,0,1,2,0c.26,0,.58.09.65.32a7.83,7.83,0,0,0,2,3.14c.14.15,0,.4-.16.56a2.39,2.39,0,0,1-.48.24,21.43,21.43,0,0,0-8.28,3.16C33.2,11.67,32.79,11.86,32.39,12.07Z" style="fill:#5c5b7f"/><path d="M27.31,36.18c-1.18-.15-2.16.51-3.22.83a1,1,0,0,0-.55.65c-.23,1.42-.93.8-1.51.33a3.62,3.62,0,0,0-2.49-1c-.93,0-1.9-1-2.72-1.66-.14-.12.44-1.06,1-1.34,1-.5.87-1.64,1.34-2.43.18-.3-.47-.5-.86-.69-.63-.3-1.72,0-1.77-1.18-.08-.23.06-.33.23-.42a1.7,1.7,0,0,1,.55-.07c.82-.08,1.61-.08,2,.82.29.4.72.34,1.12.35a1.84,1.84,0,0,1,1.47.5c.44.54,1.22.83.87,1.84-.15.44.56.61,1,.56a3.63,3.63,0,0,0,.93-.31c.87-.32,1.08,0,.82.82-.2.63.34.83.65,1.19s1.07.3,1.09,1Z" style="fill:#7c7a98"/><path d="M25.28,58.25h-.1l-.09,0c-2.31.29-4.63,0-6.95.12-.5,0-1,0-1.5,0s-.63-.43-.75-.83c.14-.72-.44-1.26-.47-1.94a.49.49,0,0,1,.21-.26,2.31,2.31,0,0,0,1.77-1c2.2-.56,4.39-1,6.56.11.14.06.05-.29,0-.13-.61-.2-1-.5-.46-1.15,2.64.08,3.59.66,4.15,2.54A13.16,13.16,0,0,1,26,57.26c-.26.2-.56.37-.49.77A.21.21,0,0,1,25.28,58.25Z" style="fill:#9190a9"/><path d="M25.59,25.13a5.47,5.47,0,0,1,1,2.25c-.3.2-.52-.17-.81-.11.14.34.44.61.39,1a1.49,1.49,0,0,1-2,.59,1.68,1.68,0,0,0-2.1.55c-.35.34-.61.84-1.24.58.11-1.49-.87-2.22-2-2.85-.27-1.95.21-3.87.14-5.82a.83.83,0,0,1,.35-.76c.26,0,.4.29.8,0a2.59,2.59,0,0,1,3.92,1.76,1.3,1.3,0,0,1-.7,1.46,3.83,3.83,0,0,0-1.54,2.08C23.16,24.91,24.23,23.92,25.59,25.13Z" style="fill:#9b9ab0"/><path d="M16.05,57.28a1.4,1.4,0,0,1,.24,1c-.23.25-.54.16-.82.16H5.72A1.06,1.06,0,0,1,5,58.27l-.1,0-.1,0-.12-.17A.59.59,0,0,1,5,57.83a49.6,49.6,0,0,1,5.72-.14,6.52,6.52,0,0,0,1.72-.11,2.11,2.11,0,0,0-1.25-1.08,5,5,0,0,1-3-3.83.34.34,0,0,1,.27-.28c1.38,0,2.76,0,4.14,0a11.34,11.34,0,0,0,1.84.17c.95.4,1.2,1.42,1.84,2.12.48.53-.37.61-.68.85a.9.9,0,0,0-.14.2C14.72,57,14.72,57,16.05,57.28Z" style="fill:#686789"/><path d="M55.48,53c.25-.27.51-.53.76-.79s.47-.79,1-.81c.42.18.74.52,1.15.72.21.13.45.28.49.54.15,1,.71,1,1.41.59s1.48.31,2.18-.1c.67.16,1.16.74,1.88.79.38.24.57.71,1,.86.68.21,1,.56.56,1.26-.19.31.08.53.21.78.42.82.14,1.25-.76,1.3A25.29,25.29,0,0,1,62,58.06l-2-.05a.18.18,0,0,1-.11-.18c0-.07,0-.11,0-.11.58-.48,1.34,0,2-.38-.1-.24.31-.94-.49-.53a2.54,2.54,0,0,1-1.08.27,1.91,1.91,0,0,1-1.88-1.35,3.65,3.65,0,0,0-2.61-2.22C55.66,53.45,55.41,53.34,55.48,53Z" style="fill:#85849f"/><path d="M72.32,67.29l.72,0a.27.27,0,0,1,.31,0c.65.64,1.28.38,1.9-.07h1.28a6,6,0,0,1,.73,0c.44.24.66.73,1.1,1a.56.56,0,0,1,.29.74c-.2.39-.57.26-.88.18a6,6,0,0,1-1.43-.76c-.25-.15-.58-.34-.74,0s.28.33.47.42a1.18,1.18,0,0,1,.66,1c.1,1,.67.93,1.26.51a3.75,3.75,0,0,1,2-.64c.4,0,1.17-.06.7.81-1.18.8-2.3,1.74-3.84,1.79-.47,0-.55.61-1,.66-.86,0-1.73,0-2.59,0-.47-.08-.45-.57-.68-.85l-.48-.75a1.38,1.38,0,0,0-1.7-.81,2.72,2.72,0,0,1-1.33,0,2.1,2.1,0,0,1-.67-.29c-.48-.35-.57-.67.11-.92.32-.12.92,0,.72-.67-.1-.31-.07-.58.26-.73,2.3,0,2.3,0,4.38,2.06-.38-.6-.52-1.36-1.32-1.66-.3-.11-.35-.54-.32-.89Z" style="fill:#9393aa"/><path d="M8.26,52.59v.17A10.77,10.77,0,0,1,6.85,54,4.32,4.32,0,0,0,5.3,57a1.08,1.08,0,0,1-.51,1l-.09.07A5,5,0,0,1,2.48,58L2.4,58H2.31a2.16,2.16,0,0,1-1.07-.5h0c-.67-.26-.74-.94-1-1.46s-.22-.82,0-1.23c.23-.6.31-1.3,1.06-1.53l1.43-.54c.83-.32,1.73.08,2.57-.23h.44A3.92,3.92,0,0,1,8.26,52.59Z" style="fill:#7c7a98"/><path d="M20.08,38.43c.33.34.67.67,1,1a4.12,4.12,0,0,1-1.87,1.43c0,.17.17,0,.24.09a.86.86,0,0,1,.6.19,1.37,1.37,0,0,1-1,1.28,3.15,3.15,0,0,0-2,2.46,1.94,1.94,0,0,1-.34.52.75.75,0,0,1-.26.21c-.63.1-1.32-.09-1.85.44-.78-.28-.63-1-.86-1.62,0-1.16-.89-2.08-.94-3.24a4.55,4.55,0,0,0,.26-1.8,2.27,2.27,0,0,1,.7-2c.89.2-.06,1.32.68,1.45.53.1,1.11-.29,1.69,0,.27.11.48.32.74.44a1.94,1.94,0,0,0,2.84-.82A.23.23,0,0,1,20.08,38.43Z" style="fill:#b3b2c3"/><path d="M14.55,52.75c-.59-.07-1.22.18-1.77-.2,1.61-.37,3.24,0,4.86-.18.33,0,.88.33.95-.39h0c-.29-.31-.47-.73-.9-.89s-.45-.58-.6-.91a22.89,22.89,0,0,0-2-3,1.36,1.36,0,0,1-.39-.95c.46-.62,1.28-.4,1.84-.8.45-.68,1-.53,1.66-.31A1.18,1.18,0,0,1,19,46.38c.1,1.28.47,2.53.66,3.81.12.82.84,1.2,1.29,1.79s.71,1,.13,1.63a1.65,1.65,0,0,1-1.86.25c-.42-.22-.7,0-1,.13a2.23,2.23,0,0,1-1.57,0C15.74,53.94,15.33,53,14.55,52.75Z" style="fill:#a4a3b8"/><path d="M21.07,53.51c.52-.93-.33-1.5-.78-1.82-1-.7-.91-1.74-1.18-2.65a20.5,20.5,0,0,1-.35-2.37c-.24-1.35-.83-1.66-2.21-1.2.29-2.15,1.94-3.18,3.52-4.27.12-.34.32-.64.72-.46a.55.55,0,0,1,.15.78c-.34.5.08,1,0,1.43a1.31,1.31,0,0,1-.46.3c-.58.22-1.27-.14-1.81.33-.22.19-.5.37-.48.69s.39.38.66.45a9.48,9.48,0,0,1,2.77.75l1.69,2c.19.1.19.26.15.44a.54.54,0,0,1-.25.22c-.4.14-.88.12-1.16.53s-.14,1-.32,1.43-.35.84.41.84c.4,0,.4.38.34.66a3.13,3.13,0,0,1-.88,2A.5.5,0,0,1,21.07,53.51Z" style="fill:#aeadbf"/><path d="M58.74,4.81A35.68,35.68,0,0,1,62,7.3c-1.25,0-1.86.89-2.52,1.75-.45.59-.76,1.38-1.83,1.07-.52-.14-.85.4-.93,1-.5.07-.84-.3-1.24-.5L53,9.51c-.4-.45-.08-.73.24-1a6.39,6.39,0,0,1,2.31-1.37c.93-.25,1.39-1,1.94-1.72.26-.2.46-.47.7-.68a.27.27,0,0,1,.31,0Z" style="fill:#706e8e"/><path d="M55.73,7.31a14,14,0,0,0-2.5,1.54C53,9,53,9.26,53,9.51A16.39,16.39,0,0,0,45.2,8c.27-.81,1-.72,1.58-.67.89.07.86-.35.6-1s.35-1,.68-1.45c.09-.2.15-.41.26-.61a.61.61,0,0,1,.28-.19,1.5,1.5,0,0,1,1,.3c.83.26,1.53.6,1.37,1.7-.06.43.47.66.67,1.15-.45-1.83,1-1.43,1.83-1.69S54.38,4,55.16,3.53a.49.49,0,0,1,.33-.09c.46.31.81.76,1.45.79.41,0,.79.25.66.81-.3.49-.86.64-1.25,1S55.61,6.73,55.73,7.31Z" style="fill:#bab9c8"/><path d="M36.14,47.48c-.69.67-1.48.35-2.25.2-.06,0-.16-.09-.18-.16-.4-1.45-1.69-1.52-2.82-1.84-.64-.29-.72-.88-.79-1.47a3.77,3.77,0,0,1,0-2,2.68,2.68,0,0,1,1-2,6.93,6.93,0,0,0,4.69-2.76.34.34,0,0,1,.32-.08,1,1,0,0,1,.85.83c-.2.51-.76.67-1.08,1.07-.69.39-.73,1.24-1.23,1.77a2.87,2.87,0,0,0-2.59.92c-.51.62-.38.87.23,1.23.8.46,1.64.15,2.46.22a1.76,1.76,0,0,1,.86.31c.16.17.31.34.46.52a.5.5,0,0,1,.2.47s0,.08,0,.11c-.3.71-.88-.3-1.11.16s0,.93-.63,1.14C35.34,46.28,36.31,46.26,36.14,47.48Z" style="fill:#b7b7c7"/><path d="M59.77,48.73l.49-.52c.37-.53.9-.94,1.28-1.47h0c.24-.5.72-.8,1-1.28l1-1.55c.12-.12.19-.3.38-.36.63-.08,1.19,0,1.3.77.06.45.33.57.71.72.72.29.71.62,0,1.08a2.87,2.87,0,0,0-1.43,2.67c.07.65-.45,1.05-.68,1.56s-.72.28-1.1.13c-.88-.36-1.7-.85-2.51.23a.88.88,0,0,1-1.34,0c-.54-.58.29-.82.38-1.25A7.25,7.25,0,0,1,59.77,48.73Z" style="fill:#9190a9"/><path d="M2.34,67.86a6.21,6.21,0,0,0,1.91-.31,6.5,6.5,0,0,1,1.87-.09c.53.71-.19,1.37-.09,2.06a1.81,1.81,0,0,0,.13,1.42,1.34,1.34,0,0,1-.27,1.77,3.63,3.63,0,0,1-1.39-.1,8,8,0,0,1-2.24-.27,2.85,2.85,0,0,1-.91-3.69C1.4,68,1.94,68,2.34,67.86Z" style="fill:#747392"/><path d="M55.48,53c.34.46.92.31,1.36.43,1.41.36,1.55,1.71,2.24,2.62a1.42,1.42,0,0,0,1.43.71,3.67,3.67,0,0,1,1.75.76c-.7.6-1.54,0-2.29.28a6.22,6.22,0,0,1-2.47,0,2.84,2.84,0,0,1-2.52-1c-.27-.28-.31-.68-.5-1A2.44,2.44,0,0,1,55.48,53Z" style="fill:#666587"/><path d="M59.48,49.44a.66.66,0,0,0,0,.24c.14.43-.91.5-.35,1a.88.88,0,0,0,1.29-.38c.45-1,1.19-.58,1.74-.38,1.61.56,1.61.6,2.13-1.13.67.06.5.61.53,1a5.32,5.32,0,0,1-.12,1.32c0,.49-.8.68-.5,1.29a1.89,1.89,0,0,1,.19.44c0,.41.2.84-.11,1.22-.91.5-1.22-.39-1.75-.75-1.4-.46-3.13.51-4.28-1a1.16,1.16,0,0,1-1-.81c.06-.62.62-.83,1-1.2L58.5,50C58.85,49.85,59,49.41,59.48,49.44Z" style="fill:#9d9cb2"/><path d="M25.59,25.13a2.52,2.52,0,0,0-3.14.74c-.19.23-.43.62-.82.36s-.07-.63.09-.94a3.32,3.32,0,0,1,1.66-1.9c.69-.27.52-.84.4-1.26a2.28,2.28,0,0,0-3.65-1.19c-.64.5-.55.07-.56-.33-.14-.64.32-.95.7-1.31,1.77-1.24,3.43-.61,5.08.3a4.3,4.3,0,0,0-.28,1.46,5.18,5.18,0,0,0,0,2.35C25,24.06,25.56,24.51,25.59,25.13Z" style="fill:#a7a6b9"/><path d="M80.57,70.35c-.7-.93-1.39,0-2.08.06-.2,0-.45.39-.81.46-.67.15-1.42.64-1.18-.75.06-.37,0-1.22-.86-1.05-.34.07-.52,0-.51-.25a2.37,2.37,0,0,1,.31-1c.17-.29.46,0,.65.06.77.42,1.39,1.16,2.48,1.11-.28-.74-1.38-.74-1.23-1.64,1.43,0,2.89-.5,4.25.31l.7.48c.2.09.21.25.17.44a3.08,3.08,0,0,0-.57,2.83c-.38.27-.64-.05-.94-.2a.94.94,0,0,1-.47-.49A.49.49,0,0,1,80.57,70.35Z" style="fill:#a2a1b6"/><path d="M21.83,48.48c.32-.68,1-.46,1.49-.49.53.2.77.76,1.27,1l.94.77c.54.58,1.09,1.14,1.65,1.7.28.29.67.54.51,1.06-.67.47-.78,1-.17,1.61a1.5,1.5,0,0,1,.54,1.43c0,.17-.09.35-.27.44l-.17,0c-.07-.06-.1-.11-.08-.17s0-.09.05-.09c-.7-1.3-1.58-2.3-3.27-2.11-.24,0-.4-.42-.73-.39-.26.19-.45.13-.56-.17.49-.8,1.39-1.39,1.32-2.57a1.75,1.75,0,0,1-2.73.24.55.55,0,0,1,.16-.93c.32-.19.75,0,1-.33-.09-.41-.35,0-.49-.1C21.9,49.23,21.54,49,21.83,48.48Z" style="fill:#9897ae"/><path d="M25.35,19.6A2.2,2.2,0,0,1,24,19.36c-1.31-.81-2.52-.42-3.72.24-.3-.39,0-.74.09-1.1.41-.56.28-1.41,1-1.83a20.5,20.5,0,0,1,5.08-1.05,1.26,1.26,0,0,1,1.15.35c.19.39-.06.62-.31.85A7,7,0,0,0,25.35,19.6Z" style="fill:#9d9cb2"/><path d="M64.52,51.25c-.46-.8.47-1.74-.24-2.51a4,4,0,0,1,1.36-2.93c.19-.11.69.25.57-.32-.06-.32-.37-.27-.61-.17a.49.49,0,0,1-.72-.54c.34-1.14-.53-.91-1.09-1.06-.11-.38.11-.69.24-1a2.17,2.17,0,0,0,.07-.24.69.69,0,0,1,1,0,7.07,7.07,0,0,0,1,.65c1.7,1,1.78,2.17.24,3.46a4.26,4.26,0,0,0-1.3,2c.68-.3,1.21-.43,1.36-1a.93.93,0,0,1,1-.82c.59,0,.83.49.87,1-.73,1.65-1.58,3.18-3.39,3.9A.51.51,0,0,1,64.52,51.25Z" style="fill:#a2a1b6"/><path d="M68.57,47a1,1,0,0,1-.5.77c-.08-.43-.22-.93-.7-.86s-.89.35-.53,1c-.61.24-1,1-1.64,1-.32,0-.83-.32-.33-1s1.31-1.49,1.93-2.27.73-1.45-.44-1.89c-.8-.31-1.24-1.32-2.26-1.27.4-.75.38-1.72,1.16-2.28.36.26.59.69,1,.82.81.38,1.85.06,2.54.81-.88,1.11-.71,2.38-.48,3.63A4.14,4.14,0,0,1,68.57,47Z" style="fill:#ababbd"/><path d="M36.14,47.48c-.24-.61-.56-1.09-1.34-1-.35,0-.76-.24-.74-.53,0-.71.44.09.55-.06a1.76,1.76,0,0,0,.2-1.48c.7-.53.69.91,1.36.31,1.36.41.59-.87,1-1.23A.57.57,0,0,1,37.4,43c.33-.55.73-.74,1.24-.21A1.61,1.61,0,0,0,39.4,44c.47.18.88.39.48,1C38.88,46.16,38,47.48,36.14,47.48Z" style="fill:#c6c5d2"/><path d="M66,41.2c-.46-.18-.84-.42-.77-1A3.31,3.31,0,0,1,65.9,38a9.76,9.76,0,0,0,6.15.46l-.27,1.45-.51,1c-1.35-.42-2.57.51-3.9.35C66.93,41.24,66.47,41.43,66,41.2Z" style="fill:#706e8e"/><path d="M25.34,33.67c.05-.2.19-.46.11-.58s-.35,0-.52.1a1.92,1.92,0,0,1-2.25.11c-.27-.18-.53-.59-.41-.68,1.14-.91-.24-1-.44-1.47.62-.52,1.44-.31,2.15-.54a7.17,7.17,0,0,0,2.13-1,1.59,1.59,0,0,1,.94-.09.36.36,0,0,1,.26.13c0,.17,0,.33,0,.5.17.58-.33.75-.64,1s-.15,1.27.2,1.15c1.4-.46.8.63.93,1.13a1.34,1.34,0,0,1,0,.49.93.93,0,0,1-.17.49C26.68,34.82,26.19,33.72,25.34,33.67Z" style="fill:#83829d"/><path d="M26.35,29.65c-1.2,1.41-2.84,1.52-4.52,1.5-.35-.7-1-.43-1.55-.51s-1.06.28-1.22-.49a5,5,0,0,1,1.76-.25c.5.08.71-.27,1-.59.72-.8,1.44-1.45,2.65-.63.5.34,1.16-.11,1.63-.53.26-.26.52-.08.78,0a2.54,2.54,0,0,1,.44,1.51h-.2C26.86,29.58,26.6,29,26.35,29.65Z" style="fill:#9190a9"/><path d="M72.05,38.44c-1.68,1.22-3.48.45-5.24.29-.48,0-.7-.38-.91-.75s.12-.52.25-.76c.17.16.33.59.53.41,1-.87,2-.22,2.9.08a1.32,1.32,0,0,0,1.84-.94,2.63,2.63,0,0,1,1.41-1.59,18.48,18.48,0,0,1-.61,3.22A.47.47,0,0,0,72.05,38.44Z" style="fill:#666587"/><path d="M34.14,32.42c-.33-.11-.74.1-1-.26a4.72,4.72,0,0,1-1.27-1.25c-.27-.19-.16-.51-.25-.76a3.64,3.64,0,0,1,0-2.26l.06,0c1.27-.39,2.12.34,3,1.09a.54.54,0,0,1,.13.32c-.27,1.43-.19,1.57,1.44,2.57.06.49-.41.33-.6.5h-.1l-.1,0A1.48,1.48,0,0,1,34.14,32.42Z" style="fill:#9393aa"/><path d="M20.82,43c-.6-.66-.09-1.37,0-2.16l-.73.41h-.76c-.13-.14-.41-.21-.25-.5.72-.36,1.24-1,2-1.27,1.15,1.17,2.6.71,3.95.73l0,.25c-.73.53-1.24,1.31-2,1.79L21.57,43A.62.62,0,0,1,20.82,43Z" style="fill:#b7b7c7"/><path d="M81.1,28.65c-.56.25-1.12.51-1.69.73-.24.09-.51.09-.52.41a.53.53,0,0,0,.42.55c1.26.32,2.42,1.11,3.81.82,0,.41-.3.5-.57.52a10.32,10.32,0,0,0-3.86,1c-.51.23-1,.19-1.24-.42a2.28,2.28,0,0,1,.2-1.21c.66-2.41,2.47-3.09,4.68-3a1.9,1.9,0,0,0,2-1.44c.3.18.25.48.26.76v1.5c-.06.37-.11.74-.54.9-.43-.37-.07-.77,0-1.25-.53.05-.94.46-1.44.35C82.15,28.57,81.57,29,81.1,28.65Z" style="fill:#fcfbfc"/><path d="M13.79,37.43c-.06.87-.78,1.66-.2,2.63a1.14,1.14,0,0,1-.73,1.13c-.7-1.16-.55-2.56-1.11-3.76a.89.89,0,0,1-.2-.68,1.53,1.53,0,0,0-.14-1.35,1.39,1.39,0,0,1,0-.35c.07-.21,0-.48.19-.65a4,4,0,0,0,2.49,1.51C13.91,36.41,14,36.94,13.79,37.43Z" style="fill:#a9a8bb"/><path d="M9,67.31l2.74.06a2.88,2.88,0,0,1-2.07.17c-1.3-.23-1.64.68-1.79,1.5a3.09,3.09,0,0,0,.11,2c-1.43.11-2-.25-2.26-1.51a2.86,2.86,0,0,1,.51-2c.47-.36,1.07,0,1.55-.26Z" style="fill:#686789"/><path d="M47.45,6.29c.75.17.55.76.42,1.18s-.59.32-.94.19A1.91,1.91,0,0,0,45.2,8l-.55.08a.71.71,0,0,0-.1-.14c-.09-.27-.36-.58-.17-.81.45-.52.21-.81-.18-1.22a1.19,1.19,0,0,1-.07-1.59c.39-.47.88-.34,1.25.12.16.45.76.34.95.74.08.23,0,.5.22.7a1.22,1.22,0,0,0,.66.23A.51.51,0,0,1,47.45,6.29Z" style="fill:#ababbd"/><path d="M34.62,29.14a7.54,7.54,0,0,0-3-1.23,1.27,1.27,0,0,1,.47-1c.35-.24.65-.55,1-.76h0a2.47,2.47,0,0,1,2.12-.39A3.77,3.77,0,0,1,34.62,29.14Z" style="fill:#a9a8bb"/><path d="M21.59,45.47a16,16,0,0,1-3.57-.6c-.57-.09-.49-.57-.16-1.06.64-1,1.58-.82,2.5-.83.32.38.4.88.7,1.26Z" style="fill:#b7b7c7"/><path d="M50.94,67.28l.06-.19,19.86,0a2.31,2.31,0,0,1,1.46.18v.07c-.79.56-1.69.29-2.54.33-1.43.07-2.86,0-4.28,0-3.25,0-6.49,0-9.74,0-1.11,0-2.22,0-3.33,0A1.76,1.76,0,0,1,50.94,67.28Z" style="fill:#a2a1b6"/><path d="M35.87,37.47c-.93,1.92-2.63,2.67-4.59,3,0,0-.1-.19-.15-.3l3-2.31a4.28,4.28,0,0,1,1.07-.43l.44-.05C35.75,37.32,35.82,37.34,35.87,37.47Z" style="fill:#807f9b"/><path d="M27.65,16.12a8.92,8.92,0,0,0-4.77.45,3.37,3.37,0,0,1-1.56.27c-.06-.47.31-.47.61-.54s.72-.07.9-.47a11.27,11.27,0,0,1,2.59-.26,1.13,1.13,0,0,0,.81-.22,2.26,2.26,0,0,1,2.6-.53c-.24.33-.49.66-.73,1C28,16,27.92,16.19,27.65,16.12Z" style="fill:#797896"/><path d="M25.34,33.67c1.05-.64,1.4.82,2.26.75a1.44,1.44,0,0,1,0,1.25l-.25.25a19.62,19.62,0,0,1-1.82-1.11C25.19,34.55,24.86,34.13,25.34,33.67Z" style="fill:#8a89a3"/><path d="M27.62,34V32.26c-.48.82-.94,1-1.23.13-.18-.57-1-1.37.41-1.6.22,0,.37-.42.55-.64h.18A10,10,0,0,1,28,33.42C28,33.67,28,33.93,27.62,34Z" style="fill:#8c8ba5"/><path d="M30.89,45.68c.74-.7,1.52.68,2.3,0,.09-.08.14.33.19.51.16.52.34,1,.51,1.53a2.85,2.85,0,0,1-2-1,4.27,4.27,0,0,1-1-1Z" style="fill:#c3c3d0"/><path d="M34.62,40.94a2.11,2.11,0,0,1,1.26-1.76c.08.06.11.12.08.17s-.06.09-.08.09a.51.51,0,0,0-.24.5c-.36,1.07-.87,2.13-.25,3.27.08.17.17.33.25.5h-1C33.19,42.67,33.18,41.66,34.62,40.94Z" style="fill:#d6d6df"/><path d="M27.59,55.76l0,.26a3.14,3.14,0,0,1-1.28,1.79c-.32.11-.58.49-1,.25-.32-.07-.68-.32-.28-.54C26,57,26.57,56.08,27.59,55.76Z" style="fill:#706e8e"/><path d="M64,18.55c.62-.54.91.17,1.17.42a1.11,1.11,0,0,1,0,1.66c-.38.05-.22-.39-.43-.49A3.93,3.93,0,0,1,64,18.55Z" style="fill:#5f5e81"/><path d="M26.87,28.14c-.26.3-.52-.08-.78,0-.06,0-.16-.1-.17-.16-.13-.47-1-.81-.63-1.19s.82.45,1.31.58A1,1,0,0,1,26.87,28.14Z" style="fill:#727190"/><path d="M38.4,39.69l-.5.25c-.44-.06-1.11.11-.75-.75C37.76,38.88,38.28,38.78,38.4,39.69Z" style="fill:#d9d8e1"/><path d="M37.87,37.7c.11,1-.67.28-.95.51l-.77-.76a.62.62,0,0,1,.73-.05Z" style="fill:#9897ae"/><path d="M76.55,67.09l.06.22-1.56,0a1.41,1.41,0,0,1-1.73,0l-.28,0C74.18,66.83,75.38,67.26,76.55,67.09Z" style="fill:#a2a1b6"/><path d="M39.41,40.7h-.79c.17-.59.82-.36,1.05-.75h.23c.39.61-.28.53-.49.75Z" style="fill:#dbdbe3"/><path d="M24.59,49a1.57,1.57,0,0,1-1.27-1l.07-.05a.8.8,0,0,1,.68.35C24.24,48.52,24.41,48.76,24.59,49Z" style="fill:#aeadbf"/><path d="M73.09,26.31a24.16,24.16,0,0,1,.09,7,3.52,3.52,0,0,1-.35,1.93c0-.45,0-1-.53-1.14-1.7-.44-1.86-2-2.29-3.26s0-2.27,1.47-2.56C72.63,28,73.32,27.6,73.09,26.31Z" style="fill:#6b6a8a"/><path d="M44.7,8h-.78c-.54-.31-1.46-.34-.67-1.4.34-.46-1-1.91-1.73-2.13-1.18-.36-2.44-.3-3.61-.73-.09-.69-.14-1.4-.28-2.09-.22-1.1-1.05-1.25-2-1.16.19-.27.5-.2.77-.28A3,3,0,0,1,37.52.14a4.27,4.27,0,0,1,1.24,0c.59.2.93.62.52,1.24-.76,1.15-.68,1.32.77,1.53.08-.07.09-.17,0-.19-.42-.1-1.08.07-1.11-.54s.66-.46,1.06-.61.77,0,1.09-.23c.68-.4,1.1-.2,1.35.49s.59.63,1.18.48A2.05,2.05,0,0,1,46,4.6c-.25.24-.5.43-.84.18-.14-.59-.59-.69-.87-.28a1,1,0,0,0,.24,1.42c.69.37,1.43.57.15,1.16C44.18,7.33,45.1,7.7,44.7,8Z" style="fill:#9b9ab0"/><path d="M37.91,3.76c1.35-.18,2.6.53,4,.41.45,0,2,1.92,2,2.33s-.65.48-.75.81c.1.53,1.09-.22.82.71l-1.75,0c0-.11.09-.23.14-.34-1-.29-.83-1.58-1.73-1.93-.21-.08-.46-.19-.37-.4C41,3.65,39.53,4.44,39,4.3A4,4,0,0,1,37.9,4Z" style="fill:#6d6c8c"/><path d="M22.83,15.83c-.16.84-1.14.47-1.51,1s.05,1.4-.75,1.76a26.26,26.26,0,0,0-3.11,2c-.15.11.05.12.09.15a.8.8,0,0,1,.25,1c-.75,1.29-.62,2.72-.76,4.11a9.32,9.32,0,0,1-1,2.55.52.52,0,0,1-.44.27c-.74-1.18-1.37-2.42-2.08-3.61a9.35,9.35,0,0,1-1.09-1.64,5,5,0,0,1,.39-1.86l.5-2a1.56,1.56,0,0,0,.61-1.3.56.56,0,0,1,.22-.59c.43-.15.37-.65.66-.91.25-.5.5-1,.76-1.5.28-.24.24-.76.72-.83a.61.61,0,0,0,1,.18c1.42-1.4,2.81.06,4.22,0,.29,0,.36.41.37.71C21.84,16.31,22.34,16.06,22.83,15.83Z" style="fill:#706e8e"/><path d="M23.82,5.53l1.81-1.19c.27,1,1.43,1.44,1.72,2.45,0,.37-.18.7-.56.71-2.15.1-3.91,1.45-6,1.81a.66.66,0,0,1-1,.22.33.33,0,0,1,0-.32c.34-.45.88-.74,1.05-1.32a4.91,4.91,0,0,1,1.85-1.71C23.21,6.18,23.45,5.76,23.82,5.53Z" style="fill:#8a89a3"/><path d="M18.79,10.75c.71.68.53.56,1-.09a3.17,3.17,0,0,1,1.89-.82,17.52,17.52,0,0,1,2.64,0c-.66.82-1.5.24-2.17.73.84.54.65,1.11.06,1.67-1,1,.59,1.15.5,1.94-.66,0-1.37.46-1.92-.5-.3-.52-1.33.22-1.55-.75-.18-.75-.78-.91-1.47-.86A1.27,1.27,0,0,1,18.79,10.75Z" style="fill:#706e8e"/><path d="M19.83,9.41c.36.3.67,0,1-.1-.32.78-1.07.58-1.67.73l-.12,0C19.2,9.31,19.24,9.28,19.83,9.41Z" style="fill:#706e8e"/><path d="M27.35,6.79c0-.19,0-.43.33-.38a.37.37,0,0,1,.14.29C27.73,7,27.52,6.82,27.35,6.79Z" style="fill:#666587"/><path d="M13.79,37.43c-.29-.57-.47-1.12.26-1.52,1.34.42,2.91.09,4,1.28.36.38-.25.63-.15,1,.63.15,1.3,0,1.9.25.51.85-.67.83-.72,1.39-.84-.42-1.94.33-2.7-.6A1.14,1.14,0,0,0,15,39.05c-.32.13-.56.57-1,.2s-.25-.75-.09-1.15A.5.5,0,0,0,13.79,37.43Z" style="fill:#b7b7c7"/><path d="M15.55,28.64l.25-.25c.76-.1,1.1.24,1,1l-.25.26a6.53,6.53,0,0,1-5,0,2.61,2.61,0,0,1,.17-1.56,1.91,1.91,0,0,1,1.78.11A2.86,2.86,0,0,0,15.55,28.64Z" style="fill:#666587"/><path d="M19.81,38.44c-.86-.17-1.79.58-2.64-.19.06-.55.94-.43.89-1.06.42.81,1.31.88,2,1.24Z" style="fill:#ababbd"/><path d="M76.11,27.37a32.16,32.16,0,0,0-.57-6.7,2.64,2.64,0,0,1,1.33-3.09,3,3,0,0,1,3.36.57,9.67,9.67,0,0,1,3.13,5,3,3,0,0,1-2.91,1.82,3.17,3.17,0,0,0-2.5.82,1.76,1.76,0,0,0-1.08,1.13C76.77,27.22,76.67,27.68,76.11,27.37Z" style="fill:#686789"/><path d="M76.11,27.37c.37,0,.46-.26.47-.58,0-.81.47-1.17,1.26-1.17,1.27-1.18,3-.55,4.4-.95.4-.1.72.35,1,.71s.36.77.86.83a.59.59,0,0,1,.3.22.34.34,0,0,0,0,.2c0,1.57-.25,1.9-1.8,1.73-1.35-.15-2.42.51-3.62.81-.42.11-.36.5-.4.83a2.47,2.47,0,0,1-.69,1.16c-.62.22-1.28.65-1.74-.26A20.81,20.81,0,0,1,76.11,27.37Z" style="fill:#8a89a3"/><path d="M77.58,32.16c.14.27.36.57.66.39a14.91,14.91,0,0,1,4.88-1.39h0c.25-.12.46-.42.77-.2s.09.3,0,.44l-1,2a3.14,3.14,0,0,1-1,1c-1.26.61-2.52,1.16-3.78,0a3.62,3.62,0,0,1-1-1l-.25-.51C77,32.53,77,32.1,77.58,32.16Z" style="fill:#c8c8d4"/><path d="M84.13,26.36c-.74.45-.9-.11-1.1-.62s-.54-1-1.19-.84c-1.32.37-2.75,0-4,.72a1.46,1.46,0,0,1,1.35-.94,5,5,0,0,0,4.17-1.56,4.31,4.31,0,0,1,.51,1.75,2.77,2.77,0,0,1,.3,1.16A.33.33,0,0,1,84.13,26.36Z" style="fill:#727190"/><path d="M77.58,32.16l-.75.75a4.91,4.91,0,0,1-.72-2c.51.58,1.2-.11,1.74.26Z" style="fill:#a2a1b6"/><path d="M84.12,25.13c0,.33,0,.67,0,1-.4-.36-.2-.83-.24-1.26Z" style="fill:#8a89a3"/><path d="M17.56,67.36h3c.08.63-.5.67-.84.93-.56.43-1.06.85-.32,1.56.12.11.08.31,0,.47a1.25,1.25,0,0,1-.6.64c-.73.07-1.5.27-2.11-.37a4.22,4.22,0,0,0-.42-.51c.69-.55,1.48-1,1.57-2A.85.85,0,0,0,17.56,67.36Z" style="fill:#706e8e"/><path d="M16.8,70.32c.53.71,1.35.31,2,.51.53,1.25.31,1.68-.94,1.76a3.51,3.51,0,0,0-1.32.24H13.78L14,72.6c1.21-.29,2.31-.69,2.46-2.19C16.51,70.3,16.67,70.27,16.8,70.32Z" style="fill:#9d9cb2"/><path d="M7.76,72.58H6c0-.68.17-1.36-.35-2-.28-.33-.07-.7.1-1,.41,1,1.37,1.21,2.26,1.51A4.17,4.17,0,0,1,7.76,72.58Z" style="fill:#6b6a8a"/><path d="M16.8,70.32C16.51,72.11,16,72.85,14,72.6c.79-.8,1.87-1.35,2.26-2.51A.52.52,0,0,1,16.8,70.32Z" style="fill:#7c7a98"/><path d="M16.8,29.39a1.58,1.58,0,0,0-1-1,10.45,10.45,0,0,0,1-5.31,1,1,0,0,1,.08-.36c.56-1.45.56-1.45-.3-2.59.85.26,1.37.33,1.71-.69.15-.46,1.37-.87,2.26-.84-.08.33-.17.66-.26,1-.25.33-.5.67-.74,1a25.52,25.52,0,0,0-.43,4.33,14.28,14.28,0,0,1-.07,2.45,3,3,0,0,1-1.78,2Z" style="fill:#7e7d99"/><path d="M17.29,29.39c.59-.67,1.18-1.34,1.78-2,1-.64,1.19.62,1.8.9s.46,1.07-.05,1.61c-.56.26-1.09.73-1.76.25C18.83,29.05,17.92,29.55,17.29,29.39Z" style="fill:#a9a8bb"/><path d="M18.77,36.2a2.18,2.18,0,0,1-.31-.4s.14-.15.22-.23a1.76,1.76,0,0,1,.3.31S18.88,36.05,18.77,36.2Z" style="fill:#777694"/><path d="M23.08,53a.54.54,0,0,0,.51.25c-.33,1.24.79.82,1.27,1.25a4.15,4.15,0,0,1-2.81-.35c-.28-.19-.57-.56-.84-.3-1,1-2.34.08-3.41.64-.13.07-.33,0-.5,0-.71.21-.95,0-.75-.75.67-.12,1.47.41,2-.42,0-.06.41,0,.55.12a1.79,1.79,0,0,0,2,0h.5C22.06,53.27,22.45,52.78,23.08,53Z" style="fill:#9897ae"/><path d="M16.55,53.76a.7.7,0,0,0,.75.75c0,1.32-1,.91-1.75,1,.43-.37,1-.69,0-1.16-.61-.3-.59-1.13-1-1.61C15.5,52.51,15.9,53.4,16.55,53.76Z" style="fill:#8887a1"/><path d="M16.05,57.28a2,2,0,0,0-.48.12.85.85,0,0,1-1.11-.26c-.24-.37.11-.71.34-1a5.87,5.87,0,0,1,.75-.64C15.45,56.18,16.67,56.47,16.05,57.28Z" style="fill:#85849f"/><path d="M4.79,58A8.33,8.33,0,0,0,5,56.92a4.75,4.75,0,0,1,3.27-4.16c.65.58.85,1.46,1.36,2.16a3,3,0,0,0,1.66,1.24c.88.18,1.2.87,1.71,1.33s-.15.53-.47.53c-1.66,0-3.33,0-5,0Z" style="fill:#5f5e81"/><path d="M74.32,58H65.78a.58.58,0,0,0,.18-.94c-.66-.51-.9-.89-.07-1.45.17-.11,0-.47-.24-.44-.94.16-1-.63-1.38-1.16,0-.41-.35-.83,0-1.25.21-.19.45-.12.69-.11.65.64,1.29-.06,1.94,0,.4,0,.88-.16,1.11.32s-.21.48-.41.66c-.31.34.09.56.16.83a.8.8,0,0,0,.84.72c.67.14,1.33.3,1.48,1.26.37-.79,0-1.29-.19-1.83a.73.73,0,0,1,.14-.82c.28-.25.54-.09.79.08.82.53,2.07.69,1.79,2.26a2,2,0,0,1,2-.86c.39.1.73.26.83.67s-.18.68-.61.75C74,56.83,74.76,57.67,74.32,58Z" style="fill:#a2a1b6"/><path d="M58.24,52.25a2.82,2.82,0,0,0,2.88.37c.4-.18.82.62,1.4.64-.09.08-.2.25-.27.24-1-.23-2,.36-3,.27-.49,0-.83-.09-.58-.71C58.86,52.64,58.4,52.52,58.24,52.25Z" style="fill:#9190a9"/><path d="M62.26,57.53a3.45,3.45,0,0,1-1.75-.76,1.62,1.62,0,0,0,1.12-.41c.21-.14.49-.44.76-.16s0,.52-.17.75S62.2,57.34,62.26,57.53Z" style="fill:#727190"/><path d="M77.12,9a3.35,3.35,0,0,1-.4,3.86,3.39,3.39,0,0,1-3.38,1.47,2.89,2.89,0,0,1-.73-.18c-1.58-.73-2-2.1-2.11-3.7s.25-2.66,1.79-3.2a9.91,9.91,0,0,0,4,1.06C76.67,8.33,76.85,8.78,77.12,9Z" style="fill:#646285"/><path d="M77.12,9c-.44-.2-.81-.58-1.37-.48a3.73,3.73,0,0,1-3.46-1.27,3.49,3.49,0,0,1,2.27-.48h0C75.61,7.32,76.71,7.78,77.12,9Z" style="fill:#85849f"/><path d="M65.54,67.36h4.24c.32.37,0,.53-.24.71s-.26.34,0,.52c.14.45-.18.59-.5.69-1.8.58-1.8.58-1.27,2.4A.85.85,0,0,1,67,72.82H52.71c-2.2-.44-4.52-.55-6.42-1.9A8.87,8.87,0,0,0,43,69.71c-1.43-.32-2.59.54-3.82,1a2.55,2.55,0,0,1-2.37,0,1.3,1.3,0,0,0-1.09-.12c-.81.22-1,.7-.42,1.33.22.26.69.42.38.91H33.12A6.73,6.73,0,0,1,29,71.45c-.35-.24-.81-.45-.8-.89a2.67,2.67,0,0,0-1-2.57c-.28-.19-.09-.51.33-.54a3.42,3.42,0,0,0,1.35-.1l22.09-.07,4.78.08a.54.54,0,0,1,.05.11c.14.71-.79,1.46,0,2.11,1.16,1,2.1,2.33,4,2A24.68,24.68,0,0,0,65,70.41c1.51-.6,1.7-1.19.74-2.48A.61.61,0,0,1,65.54,67.36Z" style="fill:#5c5b7f"/><path d="M67.54,71.59c-.91-2-.88-2.09,1.33-2.51a.81.81,0,0,0,.66-.49c.59,1.52-.87.71-1.28,1.11,0,.51.66.27.8.63a.81.81,0,0,0,.94.78c.73,0,1,.45,1.33.93.55.4,1,.11,1.48-.19.39.25.23.64.26,1h-3a1.6,1.6,0,0,0-1.4-.62A1.1,1.1,0,0,1,67.54,71.59Z" style="fill:#85849f"/><path d="M69.54,68.07l.24-.71h2.53c.26.43.27,1.1,1.06,1,.21,0,.48.14.39.36-.3.8.58,1,.82,1.85-1.1-.52-2-.89-2.38-2a.51.51,0,0,0-.7-.33A3.53,3.53,0,0,1,69.54,68.07Z" style="fill:#85849f"/><path d="M71.06,72.34c-.26-.5-.39-1.07-1.25-.91a1.06,1.06,0,0,1-1.16-.75c-.08-.28.2-.3.4-.35a4.94,4.94,0,0,0,1.34-.08c1.1-.39,1.62.14,1.93,1.08A1.84,1.84,0,0,0,71.06,72.34Z" style="fill:#7e7d99"/><path d="M71.06,72.34c0-.9.13-1.56,1.26-1l.48.52C72.51,73,71.76,72.6,71.06,72.34Z" style="fill:#646285"/><path d="M73.32,67.35h1.73C74.52,68.34,74.05,68.34,73.32,67.35Z" style="fill:#6d6c8c"/><path d="M17,42.27c-.45.76-.81,1.41-1.21,2s-.77.48-1.1-.09c-.47-.78.12-1.45.3-2.12.12-.4.74,0,1.13.07S16.62,42.23,17,42.27Z" style="fill:#bcbcca"/><path d="M14.83,46.22a1,1,0,0,1,0-.24c.26-1.3,1.16-.4,1.76-.51A2.14,2.14,0,0,1,14.83,46.22Z" style="fill:#aeadbf"/><path d="M19.06,40.7c.09.17.17.33.25.5-.31,0-.75.09-.79-.36C18.5,40.66,18.86,40.72,19.06,40.7Z" style="fill:#aeadbf"/><path d="M23.08,53a2.89,2.89,0,0,1-1.51.5c.24-.74.47-1.48.71-2.23-.4-.3-.69.29-1.13,0a18.45,18.45,0,0,1,.68-2.83.71.71,0,0,0,.75.76c.14.13.35.12.5.25.2,1-.58.34-.88.49s-.53,0-.57.35.38.21.49.32c1.33,1.24,1.74-.18,2.39-.94C24.81,51.37,24.24,52.59,23.08,53Z" style="fill:#a4a3b8"/><path d="M55.73,7.31c-.63-.16-.58-.49-.23-.89a4.69,4.69,0,0,1,2-1.38c.41,0,.43.15.23.44C57.21,6.25,56.81,7.16,55.73,7.31Z" style="fill:#f5eef3"/><path d="M57.72,5.48A.41.41,0,0,0,57.49,5a.61.61,0,0,0-.77-.59c-.79.15-1-.39-1.24-.9a8.21,8.21,0,0,1,2.78,1.29A.65.65,0,0,1,57.72,5.48Z" style="fill:#c8c8d4"/><path d="M45.69.51A84.93,84.93,0,0,1,54.26,3a1.87,1.87,0,0,1,1,.51c-.07.36.7,1.21-.53.89-.22,0-.32.08-.24.38.26.88-.27,1-1,1a3,3,0,0,1-1.47,0,.93.93,0,0,1-.94-1A2.06,2.06,0,0,0,51,4.08c-.15-.35-.35-.71-.78-.71s-.5.37-.55.71a.74.74,0,0,1-.2.45l-1-.25a1.49,1.49,0,0,1-.37-1c0-.6-.39-.75-.91-.72l-.52,0c-1.36,0-1.71-.52-1.47-2.13A.46.46,0,0,1,45.69.51Z" style="fill:#c8c8d4"/><path d="M49.45,4.53c-.08-.64-.34-1.4.63-1.55A1.07,1.07,0,0,1,51.3,4.07C51,6,52.6,5.43,53.47,5.79a.52.52,0,0,1-.54.24c-.94-.23-1.08.35-1,1.06,0,.21.29.42-.18.49s-.3-.08-.44-.31c-.34-.57-1.06-.92-.61-1.8.14-.26,0-.7-.56-.45S49.65,4.72,49.45,4.53Z" style="fill:#c1c0ce"/><path d="M47.19,2.27c.89-.22,1.33.23,1.16,1-.08.4.5.64.1,1h0c-.86.25-.3.5,0,.75a2.75,2.75,0,0,0-1,1.26h-.26c-.35-.15-.63-.35-.62-.79.29-1.13-.51-1.79-1.14-2.48-1-1-1.13-1.59-.56-2.54a.24.24,0,0,1,.31,0,2.14,2.14,0,0,1,.19.68c.05.79.39,1.33,1.33,1.08C46.86,2.56,47,2.46,47.19,2.27Z" style="fill:#c1c0ce"/><path d="M48.45,5c-1,.21-.78-.56-1-1.2l1,.45Z" style="fill:#c8c8d4"/><path d="M53.05,6.38c.41,0,.76-.1,1,.19s0,.31-.18.38C53.43,7.15,53.26,6.87,53.05,6.38Z" style="fill:#c1c0ce"/><path d="M34.62,40.94c-1.33.93-.61,1.85,0,2.77-.91-.09-1.86.36-2.7-.42-.55-.51-1.15-.76-.15-1.47C33.18,40.86,33.13,40.79,34.62,40.94Z" style="fill:#c6c5d2"/><path d="M15.55,28.64a.76.76,0,0,1-1.23.3,5.1,5.1,0,0,0-2.57-.84c.1-1.16.21-2.32.31-3.48,0-.36-.11-.75.22-1.05.08-.08.14-.08.2,0,1.15.24,1.23,1.41,1.71,2.15S15.66,27.42,15.55,28.64Z" style="fill:#646285"/><path d="M62.27,49.18c-.11.07-.2.19-.28.18s-.23-.2-.16-.35.17-.11.27-.16Z" style="fill:#777694"/><path d="M65,52.76h-.76L64,52.48c0-.21,0-.3.27-.23.62.51,1.33.18,2,.23H78.59l.51.27c-.55.5-1.29.24-1.9.51s-1,.21-1.13.83c1.4.07,1.92.65,2,2.21.44,0,.57-.46.86-.68s.71-.09,1,.15.46.62.17.87c-.73.62.25.36.27.57a.22.22,0,0,1,0,.31c-.41.2-.71.63-1.25.51l-4.77,0a5.83,5.83,0,0,0-.25-.7c-.33-.69-.24-1,.63-.91.19,0,.56.13.59-.25a.52.52,0,0,0-.53-.58c-.51,0-1.22-.39-1.44.49-.09.37-.32.65-.69.53a.84.84,0,0,1-.52-.91c.14-.74.22-1.27-.82-1-.55.14-.48-1.27-1.14-.59-.41.4.43.86.47,1.43s-.3.88-.28,1.4a4.26,4.26,0,0,0-1.8-1.65c-.18-.32-.13-.74-.41-1s-.61-.44-.84-.74c0-.31.69-.14.51-.52s-.66-.2-1-.23A2.76,2.76,0,0,1,65,52.76Z" style="fill:#a9a8bb"/><path d="M64.28,52.25l-.27.23c-.85-.83.1-.92.51-1.23l.3.3C64.85,51.94,64.44,52,64.28,52.25Z" style="fill:#807f9b"/><path d="M44.93.52a1.34,1.34,0,0,0,.27,1.8c.71.56.77,1.57,1.74,2,.51.2,0,.85-.25,1.26-.14.14,0,.39-.25.5-.67-.06-.16-.51-.25-.76.25-.36-.29-.46-.25-.75a1.85,1.85,0,0,0-2.55-1.67.84.84,0,0,1-1.21-.65c-.12-.57,0-1.31-1-.46a4.43,4.43,0,0,1-2.13.33c.18.53.5.43.83.32s.67-.3.88.1-.19.42-.3.63a.54.54,0,0,1-.83.26,10.81,10.81,0,0,1-1.2-.67c-.53-.37-.31-.76.07-1.12s.92-.17.62-.84S38.43.27,38,.25c-.13,0-.25,0-.38,0A.15.15,0,0,1,37.66,0a.65.65,0,0,0,.24,0l4.51,0h0c.56.32,1.22-.09,1.77.24a.6.6,0,0,0,.23,0C44.55.42,44.8.34,44.93.52Z" style="fill:#aeadbf"/><path d="M82.41,68.55A2.47,2.47,0,0,1,82.78,71c-.12.43-.34.92-.94.42-.76-.74-.33-1.59-.21-2.41C81.7,68.51,82.1,68.6,82.41,68.55Z" style="fill:#9190a9"/><path d="M27.65,52.5a3,3,0,0,1,.22,3c.08-.68-.45-1-.8-1.46C26.36,53.19,26.48,52.88,27.65,52.5Z" style="fill:#aeadbf"/><path d="M23.08,49.49l-.54.17,0-.42c.12-.2.31-.31.52-.19S23.11,49.34,23.08,49.49Z" style="fill:#aeadbf"/><path d="M35.64,72.82a.6.6,0,0,0-.32-.5c-.58-.29-1.26-.61-.8-1.38s1.39-1.18,2-.7c1.62,1.19,2.8-.12,4.08-.54a5,5,0,0,1,2.66-.27c.5.1.94.56,1.47,0,.17-.17.4,0,.53.15,1.27,1.71,3.22,2,5.08,2.45a8.89,8.89,0,0,1,2.34.75Z" style="fill:#666587"/><path d="M28.85,67.35c-.44.46-1.06.05-1.55.32,0,.41.35.52.62.69.51.31.85.58.5,1.32-.25.53-.11,1.1.68,1.49,1.31.64,2.49,1.55,4,1.65H26.86c-.57-.39-.52-1.14-.95-1.62-.51-1.06-1.49-1.84-1.84-3-.09-.29-.24-.58,0-.85Z" style="fill:#646285"/><path d="M16.55,72.83a1.14,1.14,0,0,1,1-.46c1.34.21,1.38-.59,1.29-1.54.16-.17.33-.33.5-.49a3.22,3.22,0,0,0,2.46-1.62,1.36,1.36,0,0,1,.71-.17c.33,0,.69,0,.88.33s-.24.55-.38.87c.47.31,1.76-.22,1.25,1.13-.64.84-1.82,1-2.4,2Z" style="fill:#b3b2c3"/><path d="M21.83,72.83c.18-.69.28-1.43,1.32-1.34.4,0,.44-.69.94-.65a1.51,1.51,0,0,1,2,.24c.69.4.49,1.18.76,1.75Z" style="fill:#c1c0ce"/><path d="M67.54,71.59a2.06,2.06,0,0,0,1.39.3c.6-.1,1.15.13,1.12.93H67A1.17,1.17,0,0,0,67.54,71.59Z" style="fill:#747392"/><path d="M68.57,47a8.61,8.61,0,0,1-.69-4.31c0-.52.36-.8.91-.75a4.85,4.85,0,0,1,2,.26A20.72,20.72,0,0,1,68.57,47Z" style="fill:#b3b2c3"/><path d="M70.79,42.21c-.74.48-1.35-.05-2-.26-.85-.5-1.92-.18-2.76-.75a27.41,27.41,0,0,0,3-.41,2.48,2.48,0,0,1,2.22.15A2.94,2.94,0,0,1,70.79,42.21Z" style="fill:#8c8ba5"/><path d="M26.35,29.65c-.07-.31-.52-.45-.35-.95.5.18,1,.34,1.11.94C26.86,29.94,26.6,29.57,26.35,29.65Z" style="fill:#747392"/><path d="M80.38,57.29H79c.06-.6.57-.28.77-.57s.29-.56-.12-.79-.65-.51-.76,0c-.2,1-.81.7-1.49.55.68-.57.22-1.11-.07-1.67s-1-.44-1.53-.35c.06-1.45.11-1.5,2-1.72a10.4,10.4,0,0,1,1.25,0l1.2.27c.88.38,1.09,1.19,1.3,2h0C81.54,56,81.49,56.91,80.38,57.29Z" style="fill:#9d9cb2"/><path d="M37.59,27.19l0,.45c-.19.65.12,1.31-.09,2-.32,1-1,1.6-1.89,1.49s-1-1-1-1.71c0-.09,0-.17,0-.25.52-1,.06-2.27.77-3.25A3.91,3.91,0,0,1,37.59,27.19Z" style="fill:#7c7a98"/><path d="M34.63,29.39c.24.14.21.43.34.63s.08,1,.71.81,1.12-.12,1.42-.81.08-1.66.54-2.38a3.82,3.82,0,0,1,0,3.22c-.47.36-.76.95-1.4,1.08C34.48,31.62,33.88,30.65,34.63,29.39Z" style="fill:#706e8e"/><path d="M21.84,68.84c-.52,1.34-1.35,1.83-2.53,1.5,0,0,0-.1,0-.13-.93-1.44-.88-1.55.92-2.48.13-.07.22-.24.33-.36h3.54c.07.24.15.48.23.73-.08.52-.42.62-.9.62A3.15,3.15,0,0,0,21.84,68.84Z" style="fill:#807f9b"/><path d="M45.94,4.53c.27.19.7.33.25.75-.2-.43-.92.15-1-.5Z" style="fill:#bab9c8"/><path d="M46.44,6a.52.52,0,0,1,.25-.5c.17.25.34.5.5.75C46.85,6.49,46.59,6.44,46.44,6Z" style="fill:#bab9c8"/><path d="M65.54,67.36c.18.43.69.46.94.8a1.49,1.49,0,0,1-.55,2.21,16.29,16.29,0,0,1-7.1,1.52,2.33,2.33,0,0,1-2.36-1.31.78.78,0,0,0-.21-.3c-1.39-1.21-1.39-1.21-.54-2.92Z" style="fill:#5c5b7f"/><path d="M78.84,72.84c-.2,0-.54.15-.57-.23,0-.18.1-.45.35-.38s.19.39.22.62Z" style="fill:#e0e0e7"/><path d="M68.29,54.26c.82.15.39.62.25,1-.7.24-1-.12-1-.76C67.71,54.19,67.93,54,68.29,54.26Z" style="fill:#8a89a3"/><path d="M68.29,54.26l-.75.25c.14-.39-1.17-.41-.25-1C67.82,53.49,68.37,53.46,68.29,54.26Z" style="fill:#9d9cb2"/><path d="M65,52.76h1.75c-.27.46-1.24,0-1.19.87C64.94,53.64,65.08,53.14,65,52.76Z" style="fill:#9d9cb2"/><path d="M47.19,2.27c0,.31.07.79-.44.69s-.1-.45,0-.68Z" style="fill:#a7a6b9"/><path d="M21.84,68.84c.73-.57,1.79,0,2.48-.76.31,1.17,1.41,1.87,1.78,3a5.47,5.47,0,0,0-2-.24c.3-.74-.18-.75-.68-.73-.3,0-.74.41-.85,0A.88.88,0,0,1,23.28,69,3.23,3.23,0,0,0,21.84,68.84Z" style="fill:#a7a6b9"/></g></g></svg>