<svg xmlns="http://www.w3.org/2000/svg" viewBox="0 0 100.18 90.47"><g id="Ebene_2" data-name="Ebene 2"><g id="OBJECTS"><path d="M80.52,37.83l1,.27c.55.12,1,.46,1.56.62a1.63,1.63,0,0,1,.89.53c.13.2.27.4.12.66-.61.83-.48,1.94-1.11,2.79s-1,1.92-2,2.49a.83.83,0,0,1-.57-.22,3.87,3.87,0,0,0-4.31-.64,1.9,1.9,0,0,1-1,.19,2,2,0,0,1-1-.53,1.67,1.67,0,0,1-.59-1.2,1.89,1.89,0,0,0-1.33-2c-1.38-.61-1.73-2.09-2.69-3-.86-.75-.14-1.84-.56-2.71-.11-.23.19-.63-.36-.7-.33,0-.42-.44-.36-.71a3.57,3.57,0,0,0-.73-2.68,6.18,6.18,0,0,1-.76-2.48c-.07-.61-.1-1.28.72-1.5.71.59,1.5,1.12.92,2.27-.2.38.24.55.54.7a5.6,5.6,0,0,1,1.34.67c.42.35.68.75.29,1.32.49-.28,0-1.08.62-1.19s.57.5.79.82c.07,2,0,4,0,6,0,1.52,0,1.52,1.45,1a1.4,1.4,0,0,0,.34-.13l1.47-.51A7.25,7.25,0,0,1,79,37.59a.14.14,0,0,0,.17,0C79.6,37.85,80.11,37.54,80.52,37.83Z" style="fill:#8c8ba5"/><path d="M48.12,23.05c-.31-.94-.62-1.89-.92-2.83a3,3,0,0,1-.74-1.7c0-.35-.31-.58-.3-.92.1-.7.58-.79,1.18-.79a9.72,9.72,0,0,1,4,.87c.72.39,1,1.16,1.45,1.76a.86.86,0,0,1,0,.55c-.26.51-.91.55-1.22,1s-.39.92.41,1a1,1,0,0,1,.49.21c.32.41.2.93.36,1.38a3.37,3.37,0,0,1,.09.34,11,11,0,0,0,.51,2.15c.27.52.68,1.26,1.14.07.08-.2.25-.16.41-.05a24.38,24.38,0,0,1,.18,4.1c0,.26-.19.62-.37.57-.94-.25-1.43.66-2.25.8s-1.16,1.32-1.79,2c-.42.65-.47,1.51-1.11,2-.26.22-.61.7-.86,0,0-2.27,0-4.55,0-6.83a30.62,30.62,0,0,0-.37-4.17v0C48,24.08,48.46,23.49,48.12,23.05Z" style="fill:#9695ac"/><path d="M85.8,36.25l-1.07-.68c-.79-.36-1.66.09-2.45-.25A2,2,0,0,1,81,34.81a2.63,2.63,0,0,1-1.36-2.14,2,2,0,0,1,1.76-1.88,4.38,4.38,0,0,1,2.21.17,2.38,2.38,0,0,0,3.22-2.56c-.06-.95.15-1.46,1.2-1.29l3.52.93a5.5,5.5,0,0,1,1,.46l.79.53c.32.23.56.56,1,.67a1.15,1.15,0,0,1,.62.55,17.74,17.74,0,0,1,1.89,2.08c.71.58.58,1.53,1,2.23a1.82,1.82,0,0,1,0,1.5v0a.42.42,0,0,1-.3.17,4.35,4.35,0,0,0-2-.21c-.83.18-1.79-.94-1.62-1.81.07-.34,0-.44-.23-.56a1.65,1.65,0,0,1-.52-.53c-.28-.4,0-1.33-.46-1.28-1,.11-2.06-.5-3,.19-1.48.19-2,1.33-2.54,2.5A3.14,3.14,0,0,1,85.8,36.25Z" style="fill:#8c8ba5"/><path d="M27.55,22.25A1.73,1.73,0,0,1,27.27,21a.88.88,0,0,1,.08-1.13c.31-.47.85-.74,1-1.38.07-.34.58-.44,1-.39a.68.68,0,0,1,.63.78c0,.46.29.76.44,1.13,0,.3-.23.4-.48.47a1,1,0,0,1-.5-.06,1.14,1.14,0,0,0-.37,0c.09.15.3,0,.38.14a.85.85,0,0,1,.09.31c-.5,1.05,0,2,.34,2.92.63.92,1.63.84,2.56.95.13.11.21.32.33.35,1.84.51,1.6,2.17,2,3.49a26.74,26.74,0,0,1,.25,4.09,21.45,21.45,0,0,1-.78,2.21c-.15.55-.63.68-1.14.83-.94.27-2,.06-2.83.78a1.29,1.29,0,0,1-1.14.19.59.59,0,0,1-.17-.52A1.43,1.43,0,0,1,30.33,35c.26,0,.64.14.75-.26a.79.79,0,0,0-.24-.8c-.27-.25-.52-.1-.77.1-.76.59-1,.07-1-.56,0-.79-.26-1.78,1.12-1.72.53,0,.45-.52.63-.81s-.19-.28-.32-.38-.34-.09-.36.21c-.1,1.28-.75.76-1.34.4a.46.46,0,0,1-.13-.29c.46-.46-.4-.27-.28-.57.13-2-.39-4-.51-6a11.14,11.14,0,0,0,.17-1.84C28,22,27.72,22.34,27.55,22.25Z" style="fill:#b7b7c7"/><path d="M71.67,31.3c-.23-.13-.47-.9-.68,0a3.74,3.74,0,0,0,0,.75c0,.26-.07.53-.36.58a.6.6,0,0,1-.45-.16.4.4,0,0,1,0-.65c.9-.73,0-.92-.38-1.21a2.58,2.58,0,0,0-.92-.37c-.83-.25-1.44-.55-.63-1.49.26-.3.23-.59-.16-.82a1,1,0,0,1-.59-.9c0-1.76-1.09-3-2-4.36s-.72-2.36.41-3.85a6.85,6.85,0,0,1,2.83-2.16c.21,0,.38,0,.33.31a16.24,16.24,0,0,1,1,3,4.31,4.31,0,0,1,.84,2.72,55.34,55.34,0,0,1,1,7.15C71.83,30.34,72,30.84,71.67,31.3Z" style="fill:#8f8ea7"/><path d="M65.67,85.79c-2.63.9-5.27,1.81-7.91,2.69a5,5,0,0,1-1.11.09c-.73.3-1.54-.08-2.28.23a10.14,10.14,0,0,1-5.45-.51.72.72,0,0,1-.48-.49c-.1-.4.32-.69.23-1.06-.18-.75.24-.86.81-.83.91,0,.74-.35.38-.86-.23-.33-.6-.57-.7-1,.25-.36.63-.22,1-.27.87-.24,1.63-.33,1.45,1a.45.45,0,0,0,.45.5c.58,0,.8.53,1.13.89.44-.15.21-.49.25-.75a1.37,1.37,0,0,1,.16-.59c.52-.76.54-.87.3-1.58a1.15,1.15,0,0,1,.52-.07,3.4,3.4,0,0,1,1.79.3c.77.21.4.84.09,1.3s-.85.31-.72.9c.24-.14.29-.5.6-.57.87-.19,1-.77.83-1.52,0-.29-.31-.69.11-.89s.78.09,1,.46a1,1,0,0,0,.55.48c.6.26,1.14.57.89,1.38-.28.41-1,1-.39,1.28.42.22,1.07,1,2,0s1.81-2.4,3.59-2.8c-1-.49-2.08-.26-2.61-1.17a.56.56,0,0,1,.24-.24c.49-.21,1,.05,1.53,0,.07-.56-.26-1.12,0-1.67,1.35-.68,1.45-.57,1.52,1.78.41-.16.75-.57,1.21-.35.67.44.23.82-.07,1.2A2.22,2.22,0,0,0,66,85.44C66,85.65,65.81,85.69,65.67,85.79Z" style="fill:#b7b7c7"/><path d="M83.81,69.23a17.56,17.56,0,0,1-2.06,3.19,4.36,4.36,0,0,1-1.08,1.3A4.32,4.32,0,0,0,79.5,75a.28.28,0,0,1-.33.1,3.26,3.26,0,0,1-2.42-3.81c.26-.87-.13-2,1.09-2.53.24-.11-.24-.65-.22-1a5.62,5.62,0,0,1,2.08-3.06c.54.23.69-.28,1-.52.66-.52,1.3-.72,1.85.17.14.57.73.84.91,1.39s-.19.73-.59,1.2c.69-.53.86-1.21,1.44-1.52.88-.16,1.64-.16,1.44,1.1a7.63,7.63,0,0,1-1.45,2c-.41.1-.78-.67-1.28,0C83.43,68.59,83.8,68.75,83.81,69.23Z" style="fill:#6d6c8c"/><path d="M68.71,16.73c-.39.69-1.22.8-1.76,1.29a7.31,7.31,0,0,0-1.82,2.76c-.27.67.27,1.33.65,1.9a26.35,26.35,0,0,0,1.61,2.2c.58.72.06,1.43.07,2.15-1.11,1.48-.1,2.77.46,4,.35.79,1,1.44.57,2.42-.14.34-.11.8.55.55s.65,0,.51.54a3.71,3.71,0,0,0,.17,3c-1.12.34-1.24.25-1.66-1.14a2.25,2.25,0,0,0-.34-.41c-.47-.57-.82-1.38-1.83-1a1.32,1.32,0,0,1-.06-.35,73.56,73.56,0,0,0-.75-10.06,1.75,1.75,0,0,0-.37-.91l0-.47a1.51,1.51,0,0,1-.25-1l-.39-2a2.47,2.47,0,0,0-.28-2.67A2.35,2.35,0,0,1,63.21,16a9.34,9.34,0,0,1,3.4-2.64c.45-.07.61.31.85.57l.51.78C68.43,15.31,69.06,15.84,68.71,16.73Z" style="fill:#8887a1"/><path d="M6.14,15.21a4.61,4.61,0,0,1-6-3.76,4,4,0,0,1,0-2C0,8.52.73,7.86.93,7a1,1,0,0,1,1-.81,2,2,0,0,0,.49,0C4.26,6,4.59,6.19,5.15,8a7.14,7.14,0,0,1,1,6,2.09,2.09,0,0,0,.08,1A.34.34,0,0,1,6.14,15.21Z" style="fill:#6d6c8c"/><path d="M81.25,89.56l-2,.76a10.09,10.09,0,0,1-3.51,0h0c-.38-.29-.89,0-1.27-.24a13.24,13.24,0,0,1-6.58-3.27c-.32-.33-.81-.51-.83-1.07A1.37,1.37,0,0,1,69.2,85c.27.14.52.28.72-.13.43-.91,1-.85,1.66-.22a1.76,1.76,0,0,0,.93.41c-.31-.46-.1-.78.19-1.09a.94.94,0,0,1,.86.08c.85.29,1.19,1.14,1.82,1.66a4,4,0,0,0,1.22.86c.39.16.76.37,1.14.54a12.44,12.44,0,0,1,4.31,1.46,1,1,0,0,0,0,.24A1.88,1.88,0,0,1,81.25,89.56Z" style="fill:#a4a3b8"/><path d="M51.38,18a17.7,17.7,0,0,0-4.16-.87c-.63,0-.81.16-.88.68-.58,0-.76-.63-1.23-.8l-.82-.51c-.28-.28-.68,0-1-.21-.08-.67.14-1.33.08-2a3.75,3.75,0,0,1,.4-1.12c.3-.33.56-.69.85-1l.24-.25a2.06,2.06,0,0,1,2.21-.79,3.18,3.18,0,0,1,1.26.66h0a6.87,6.87,0,0,1,1,.75h0a9.6,9.6,0,0,1,1.26,1l0,0a1.89,1.89,0,0,1,.48.74.9.9,0,0,1,0,.49,2.2,2.2,0,0,0,.23,2.59A.57.57,0,0,1,51.38,18Z" style="fill:#9897ae"/><path d="M78.51,23.28c-.28-.2-.16-.53-.26-.78a10.69,10.69,0,0,1-.12-2.33A1.82,1.82,0,0,1,79.33,18l.42-.25h.18a5.35,5.35,0,0,0,3.4.13,4.57,4.57,0,0,1,1.45,1.86c-.1.74.38,1.58-.35,2.23-.29.52-.59,1-.88,1.54a1.77,1.77,0,0,1-1.88,1.19c-.45-.17-1,.08-1.4-.18-.25-.1-.58,0-.77-.26A3.69,3.69,0,0,1,78.51,23.28Z" style="fill:#9393aa"/><path d="M8.45.41,8.93.15a10.4,10.4,0,0,1,3.52,0,.11.11,0,0,0,.16,0A4,4,0,0,1,14.2.93h0A3.21,3.21,0,0,1,15.44,2.2v0a1.28,1.28,0,0,1,.41,1c.25,1.52-.23,2-1.95,2a3.42,3.42,0,0,0-3.25,2.41c0,.08,0,.19-.06.23a3.22,3.22,0,0,0-1.62,3c0,.33-.54.23-.8,0A1.79,1.79,0,0,1,7.7,9.68a2.08,2.08,0,0,1,0-.35c.09-.67.62-1.35-.08-2a1.53,1.53,0,0,1-.51-1.45c.38-.47,1-.44,1.47-.59a2.47,2.47,0,0,0,1-.75C11.15,3,11,2,9.19.85,9,.7,8.64.66,8.45.41Z" style="fill:#42416a"/><path d="M7.93,9.44C8.1,10,8,10.6,8.7,10.9c.29-.47,0-.84,0-1.24,0-.74.16-1.33,1-1.47.63-.1.89-.41.63-1s.06-.84.57-1.13,1.51-.3,1.64-1.3c0-.36.37-.18.6-.1a3.07,3.07,0,0,0,1,.26c1.44,0,1.64-.26,1.67-1.75.12-.06.19,0,.21.11a.12.12,0,0,0,0,.17,2.33,2.33,0,0,1,0,2,.13.13,0,0,0,0,.18c-.13.38-.17.8-.52,1.07-.22.07-.24.24-.24.43a3.6,3.6,0,0,1-1.52,1.57L12,10a6.21,6.21,0,0,0-.95.74c-.61.57-1.45.91-1.83,1.72a3.55,3.55,0,0,1-.83,1L7.68,14c-.79,0-.79-.61-.82-1.14,0-1,.45-1.94.43-3A.48.48,0,0,1,7.93,9.44Z" style="fill:#494870"/><path d="M16.34,11.74l.14-.25a10.09,10.09,0,0,1,1.83-.76,6.07,6.07,0,0,0,1.67-.5c.33-.29.73-.1,1.09-.15.19.05.32.24.15.34-.58.35-.53.72-.17,1.2s-.05.86-.1,1.29A1,1,0,0,0,22,12.72a.79.79,0,0,1,1.28.12c.39.46.67.27,1-.16a10.83,10.83,0,0,0,1-2.22,3.91,3.91,0,0,1,1.65.53c.47.1.75.48,1.1.76l0,0c.51.34,1.07.62,1.15,1.33a4.88,4.88,0,0,1-3.22,1.36c-1.69,0-3,.89-4.45,1.37a1,1,0,0,1-.34.12.62.62,0,0,1-.77-.46c-.24-.87-1.14-1.18-1.6-1.87-.3-.47-.75-.07-1.13,0-1.32.39-1.94,0-2.11-1.17A1.14,1.14,0,0,1,16.34,11.74Z" style="fill:#45436c"/><path d="M88,27.11c-.73.17-1.13.4-.84,1.35.2.67.2,1.61-.85,1.89,0,0-.1,0-.1.06-.58,2.23-1.93,1.06-3.1.71a2.52,2.52,0,0,0-3.4,1.73q-.15.07-.21-.09a.28.28,0,0,0,0-.22,4.51,4.51,0,0,1,0-2.25c-.11-.52.38-.82.48-1.26s.43-.75.83-1l.45-.29c.45-.33,1-.26,1.52-.48a1.24,1.24,0,0,0,1-.25,13.89,13.89,0,0,1,4,0Z" style="fill:#9393aa"/><path d="M85.8,36.25a24.86,24.86,0,0,0,1.88-3.8c.26-.78,1.33-.16,1.88-.65,1.73-.56,2.43-.19,2.7,1.43,0,.21,0,.47.27.52.73.16,1,.83,1.44,1.28a2.72,2.72,0,0,0,2.23,1c.37,0,1-.14.89.64-.51.55-1.19.41-1.82.43a38.2,38.2,0,0,0-4.41-.38,1.08,1.08,0,0,1-1-.58,5.6,5.6,0,0,0-.75-1c-.34-.33-.71-.12-1,0a.62.62,0,0,0-.32.75.6.6,0,0,0,.77.45,3,3,0,0,1,1.56.32c.24.08.53.17.51.47a.59.59,0,0,1-.6.54,8,8,0,0,0-1.67.47l-.48-.42a2.21,2.21,0,0,0-.78-.74Z" style="fill:#807f9b"/><path d="M77,71.23c0,.4,0,.81.11,1.2.12.87.26,1.71,1.38,1.86.38,0,.61.38.78.73,0,.71-.76.94-1,1.47v0a.59.59,0,0,1-.53.43c-.82-.26-1.2-1.14-2-1.44a.37.37,0,0,1-.18-.53c.23-.43.63-.41,1-.37A2.56,2.56,0,0,1,74.81,74a.49.49,0,0,0-.58-.11c-.27.15-.23.42-.18.67a11.91,11.91,0,0,0,1.09,2.48c.14.32.61.55.19.94s-.77.17-1.12-.13a3.49,3.49,0,0,0-.58-.49,12.85,12.85,0,0,0-.14,3.15c-.08.29-.36.34-.56.48-1,.08-1.65-.35-1.45-1.24.45-2,0-4,.7-5.91a13.19,13.19,0,0,1,3.78-4C76.74,70,76.76,70.69,77,71.23Z" style="fill:#58567b"/><path d="M82.28,64.46c-.64-1-1.12-.54-1.61.15-.2.27-.37.68-.81.6-.06,0-.08-.36-.11-.56a.57.57,0,0,1,0-.48,25.14,25.14,0,0,0,2.39-5.12c0-.11.17-.16.3-.19A1,1,0,0,1,83.16,60c.14-1.76.14-1.82,1.92-1.64.92.09.34-.95.94-1,.06,0,1.37.39,1.49.44.44.18,1.27-.1,1,.88A5.91,5.91,0,0,1,88,60.94c-.14.83-.81.87-1.42.93S86,61.44,85.9,61a1,1,0,0,0-.73-.71c-.45,1.33,1,2.07,1,3.24-.34.66-.85.46-1.34.23s-.68-.55-1,0c-.65.17-.9-.51-1.52-.72.39.8,1.34.85,1.63,1.57a.92.92,0,0,1,0,.52.51.51,0,0,1-.24.24C83,65.39,82.77,64.71,82.28,64.46Z" style="fill:#666587"/><path d="M8.45.41a2.83,2.83,0,0,1,2.6,1.77c.4.69-.41,1.67-1,2.38A4.07,4.07,0,0,1,7.18,5.93c-1.39.27-2-.13-2.09-1.44a3.08,3.08,0,0,0-.15-1.21,2.23,2.23,0,0,1-.18-.57.84.84,0,0,1,.47-.78c.36-.2.79-.3.95-.74A15,15,0,0,1,8,.42Z" style="fill:#3d3c67"/><path d="M15.68,12.37c.25,1.09,1.18,1.57,2.07.86s1.06-.19,1.5.37c.6.76,1.32,1.42,2,2.12.14.46-.31.46-.51.66-.7,0-1.08.78-1.77.84a.65.65,0,0,1-.6.05c-1.26-.65-2.52-.25-3.79-.07a1,1,0,0,1-.53-.1,4.32,4.32,0,0,0-.66-2.64,4.88,4.88,0,0,1,1.87-2l0,0A.34.34,0,0,1,15.68,12.37Z" style="fill:#4c4a72"/><path d="M61.43,10.45h1c.48.24,1.12.1,1.49.6l1.48.92c.43.24.89.46.93,1.06-1.13,1-2,2.24-3.42,2.92a2.54,2.54,0,0,1-1.52-.07,1.81,1.81,0,0,1-.33-.2,3.38,3.38,0,0,1-.79-1A4.83,4.83,0,0,1,60.42,13c0-.3.16-.6.19-.91s0-.8.09-1.19S60.93,10.17,61.43,10.45Z" style="fill:#47456e"/><path d="M5.16,2.93a.69.69,0,0,1,.25.77c-.27,1.44.37,2.12,1.77,2.23.28.4.17,1,.75,1.25a3,3,0,0,1,0,2v.25c-.76.93-.92,3.72-.25,4.52-.18.22-.36.43-.53.65s-.49.56-.92.39c-.72-.22-.51-.84-.37-1.22.74-2.06,0-3.85-.94-5.59A6.4,6.4,0,0,1,5.16,2.93Z" style="fill:#55547a"/><path d="M14,17h.5c.17.48-.2.77-.38,1.13-.32.68-.38,1.09.63,1.05S16.2,19.81,16,21l-.81,1.7c-.85.6-1.63.1-2.42-.16-.82-.65-1.94-1.13-1.35-2.61-.47.32-.47,1-1,.89s-.35-.66-.3-1.05c-.21-.37.35-.6.16-1,.06-.17.11-.33.31-.39s.48.16.64-.16C11.75,17.07,12.85,17,14,17Z" style="fill:#55547a"/><path d="M52.64,20v-.5a19.12,19.12,0,0,1-1.54-3.81,1.32,1.32,0,0,1,.17-1.29,2.16,2.16,0,0,1,.39-.41h0c.09-.14.15-.33.36-.37a1.36,1.36,0,0,1,1.32.75,1.31,1.31,0,0,0,.79,1,1.54,1.54,0,0,1,.72,1.93,5.7,5.7,0,0,0-.29,1.83.76.76,0,0,1-.11.36l-.32.44a1.82,1.82,0,0,0,0,1.34v0c.26.26.1.59.15.89a4.28,4.28,0,0,1-1,1.9c-.3.14-.45-.07-.59-.28h0c-.27-.47.25-1.07-.25-1.51h-.51c-.44-.75-.44-.75.68-.82C52.68,21,52.27,20.45,52.64,20Z" style="fill:#9190a9"/><path d="M73.49,80.53a1.68,1.68,0,0,1-.39-1.83c.16-.5.41-.87,0-1.33a.49.49,0,0,1,0-.45c.15-.21.38-.14.54,0,.34.31.64.65,1,1a.4.4,0,0,0,.57,0c.26-.27-.06-.31-.18-.45a8.48,8.48,0,0,1-1.45-3.1.78.78,0,0,1,.41-.85.79.79,0,0,1,.92.19,2.09,2.09,0,0,0,1.89.68c.28,0,.56,0,.53.33s-.32.33-.59.22a1,1,0,0,0-1.2.22c1,.27,1.5,1.12,2.23,1.67-.21.87-.92,1.28-1.59,1.73l-.21.16a2.73,2.73,0,0,1-1,.84h0a7.48,7.48,0,0,1-1.29,1A.46.46,0,0,0,73.49,80.53Z" style="fill:#5f5e81"/><path d="M25.26,10.46c.42,1.26-.62,2-1.1,2.95-.36.7-.84,0-1.09-.35s-.47-.7-.85-.07-1.14.13-1.69.39c-.18.09-.34-.35-.21-.44,1.36-.91.11-1.5-.27-2.17.26-.56.93-.11,1.19-.55A3,3,0,0,1,23.75,10l0,0c.39.27.89,0,1.28.23Z" style="fill:#403e69"/><path d="M12.7,22.25a7.18,7.18,0,0,0,2.46.45c-.23.6-.47,1.2-.71,1.79a1.5,1.5,0,0,1-.79.76,2.9,2.9,0,0,1-2.92,0,1,1,0,0,1-.67-.7,10.52,10.52,0,0,0-.36-1.08.39.39,0,0,0,0-.21,4.67,4.67,0,0,1,0-2.26l.23-.24a.71.71,0,0,1,.28.43c.35,1.18.4,1.2,2,.86A1,1,0,0,1,12.7,22.25Z" style="fill:#b7b7c7"/><path d="M88,44.65c0,.16.09.32.13.48.48.5.38,1.19.61,1.77l0,0c.24.18.15.42.15.65-.69.18-.79.74-.94,1.4.6-.08.48-.83,1-.86a1.87,1.87,0,0,1,.36,1.22,1.31,1.31,0,0,1-.13.55c-.36.39-.9.4-1.33.64a.73.73,0,0,1-.36,0c-.63-.3-.68-1-.91-1.5a5,5,0,0,1-.78-4.16,3,3,0,0,1,.11-.32c.34-.45-.12-.86-.07-1.29s-.09-.92.38-1.21a.38.38,0,0,1,.32.1l.75,1A6,6,0,0,1,88,44.65Z" style="fill:#5a597d"/><path d="M16,21c-.25-.75,0-2-1.55-1.39-.7.26-1.2-.56-.84-1.29A11.89,11.89,0,0,1,14.46,17a5,5,0,0,1,4.5.24v.17c-.36.36-.71.72-1.08,1.07C17.09,19.19,16.82,20.31,16,21Z" style="fill:#5a597d"/><path d="M77.52,87.29l-1-.49c-1-1-1-1.47.21-2.12a15.93,15.93,0,0,1,3.31.13c.94.45,2.14.61,2.25,2C80.69,87.05,79.15,87.59,77.52,87.29Z" style="fill:#535178"/><path d="M55.16,11.28a3.21,3.21,0,0,1,2-.58,1.52,1.52,0,0,1,1.09-.06c.33,0,.8-.33,1,.21a1.07,1.07,0,0,1-.45,1.32,4.47,4.47,0,0,0-2,2.47,1.24,1.24,0,0,1-1.84.68c-.34-.59-1.29-.54-1.43-1.34a.85.85,0,0,1,.72-.76c.64-.08,1.35-.1.7-1.06C54.7,11.81,54.91,11.53,55.16,11.28Z" style="fill:#55547a"/><path d="M61.17,15.48a.7.7,0,0,0,.06.19l-.15.15a15.18,15.18,0,0,0-2.69.15l-1.49.71c-.69-1.17-.63-1.54.5-2,.48-.2.72-.34.38-.87s0-.84.56-.89c1.13-.09,1.21-1.11,1.33-1.81s-.86-.33-1.25-.65l.49-.24a2.72,2.72,0,0,1,1.76,0l.76.26c-1.06.33,0,1.26-.51,1.76-.18.21-.6.35-.24.75l-.25,1.76A2.15,2.15,0,0,0,61.17,15.48Z" style="fill:#6b6a8a"/><path d="M34.25,24.78c.09,1.17.19,2.33.28,3.49a2.4,2.4,0,0,1-.52-2c.08-1.09-1.44.05-1.52-1a2.49,2.49,0,0,0-.2-.58,21.76,21.76,0,0,1,2.26-5.13c.21-.21.4-.47.75-.44.38.2.21,1,1,.83.17,0,.22.47,0,.73-.61.91-1.24,1.81-1.83,2.73C34.24,23.86,33.81,24.26,34.25,24.78Z" style="fill:#bcbcca"/><path d="M53.67,59.18l-.11,1.23-.39,1c0,.76-.54,1-1.11,1.23-.91.12-1.84.44-2.67-.27h0a1.34,1.34,0,0,1-.77-.76l0,0c-.33-.23-.33-.66-.54-1s-.23-.52-.27-.8l.09-.15c.89-.23,1.54.53,2.43.55.63,0,1.07,0,1.5-.49S52.86,58.78,53.67,59.18Z" style="fill:#646285"/><path d="M88.31,38.25c.38-1,1.43-.5,2.38-1.08-1,0-1.51-.85-2.4-.24-.25.17-.87-.3-1-.79A1.11,1.11,0,0,1,88,34.81c1.07-.53,1.62.17,2,.9s.65.74,1.41.7a21.83,21.83,0,0,1,3.74.41c.1.33-.08.52-.33.68-1.41.29-2.9.17-4.26.76a2.84,2.84,0,0,1-1.87.31Z" style="fill:#747392"/><path d="M72.48,73.73c-.15,1.55-.71,3.06-.29,4.65A1.06,1.06,0,0,1,72,79c-.58,1.27-.45,1.59.89,2.06a1.71,1.71,0,0,1-.7.78,1.15,1.15,0,0,1-.5.2c-.53,0-.72-.4-1-.72a1.37,1.37,0,0,1-.19-.3c-.16-.63-.33-1.24-.51-1.86.13-.53-1.1-1.39.41-1.6.16,0,0-.46,0-.7a5.3,5.3,0,0,1,0-1.59A2.46,2.46,0,0,1,72.48,73.73Z" style="fill:#7c7a98"/><path d="M43.62,14.22c.07.68.27,1.37-.25,2-.28.35-.75,0-1,.29l-.75,0c-.25-.5.32-1,0-1.53-.5.07-.42.53-.58.82s-.17.84-.64.83-.52-.56-.61-1a2.46,2.46,0,0,1,1-3c.53-.3,1.24-.16,1.73-.64-.18-.47-.94-.58-.69-1.24a.49.49,0,0,1,.47-.17,4,4,0,0,0,1,.29c1,.38.86,1,.29,1.62S42.85,13.7,43.62,14.22Z" style="fill:#c8c8d4"/><path d="M30.3,20c-.29-.3-1.25-.18-.66-1.06a.37.37,0,0,0-.23-.59c-.33-.12-.62.11-.92.23.6,1-.53.87-.81,1.3A1.74,1.74,0,0,0,27.27,21c-.74-.69-.82-1.77-1.45-2.53a5.09,5.09,0,0,1,2.35-1.95c.41-.37.58-1.13,1.39-.86.52.81.16,1.32-.65,1.71-.1,0,.21.15.11,0s0-.11.08-.08c.72.28,1.16-.67,1.87-.41a4.66,4.66,0,0,1,.11,2C30.91,19.33,30.94,19.9,30.3,20Z" style="fill:#bab9c8"/><path d="M58.42,10.45c.63.13,1.78-.25,1.77.25a4.09,4.09,0,0,1-.95,2.16c-.42.54-1,.1-1.38.46-.07.34.26.46.44.65.43.44.34.84-.22.85-1.46,0-1.53.77-1.18,1.86l-.24.05a1.15,1.15,0,0,1-1.46,0c-.3-.27-.28-.67-.39-1a.83.83,0,0,1,0-.35l.1-.14c.85,0,1.56.07,1.75-1.19a2.37,2.37,0,0,1,1.62-1.9c.66-.17.7-.72.71-1.33-.64.18-1.21-.17-1.83-.1C57.52,10.32,58,10.52,58.42,10.45Z" style="fill:#5f5e81"/><path d="M40.85,12.72c-.73.79-1.37,1.6-.77,2.76-.19.18-.11.45-.24.65-.44.56-.94,1-1.72.69-.19-.09,0-.38-.37-.49-.64-.19-1.31-.62-1-1.55a1.48,1.48,0,0,1,.24-.26c.37-1,1.26-1.1,2.11-1.29a1.32,1.32,0,0,0,.33-1.17c-.16-.59.25-.82.6-1.1.18-.3.5-.2.76-.29a.5.5,0,0,1,.5,0C41.75,11.46,41.07,12,40.85,12.72Z" style="fill:#8f8ea7"/><path d="M39.82,16a.54.54,0,0,1,.26-.49c.06.29-.14.66.24.87.43-.16.13-.73.53-.88.55.15.29.71.5,1-.6.58-1.59.62-2,1.44a27.68,27.68,0,0,0-2.54,2.54l-.46.26c0-.19,0-.44-.12-.57s-.31,0-.29.17.08.55-.3.48a.43.43,0,0,1-.24-.61c.14-.35,0-.64,0-1,.07-1.27,1.18-1.69,1.95-2.38C38.27,17,39.34,17.34,39.82,16Z" style="fill:#c3c3d0"/><path d="M53.9,83.3a1.5,1.5,0,0,1,.55,2.37c-.51-.13-.15-.67-.44-.93-.09.05-.22.09-.26.17-.21.37,0,.72,0,1.08a.65.65,0,0,1-.49.76.51.51,0,0,1-.62-.48c-.06-.59-.3-.74-.9-.64-.34.05-.84-.43-.69-.71.75-1.38-.3-1.07-1-1.13.28-.34.68-.2,1-.28.4-.24.88.06,1.27-.21a.6.6,0,0,0,.23,0A1.4,1.4,0,0,1,53.9,83.3Z" style="fill:#bebecc"/><path d="M88.56,58.68c-.14-.84-1.18-.67-1.28-.6-1,.67-.81-.51-1.23-.66-.51-1.29-.47-1.34,1.4-2-.37-.11-.72-.16-.78-.57a.51.51,0,0,1,.15-.33,1,1,0,0,1,.58-.1c.68.23,1.58-.13,2,.76a14.91,14.91,0,0,1-.69,3.43A.44.44,0,0,0,88.56,58.68Z" style="fill:#706e8e"/><path d="M34.3,65.45c-.12.51-.23,1-.79,1.24-.81.59-1.41,0-2-.38a4.06,4.06,0,0,1-1.67-1.94c-.19-.47-.8-.58-.93-1.09a10.3,10.3,0,0,1,0-1.57c.62-.54,1.12-.19,1.62.21a4.22,4.22,0,0,1,.64.94,5.34,5.34,0,0,1,.42.91c.35,1.08.67,2.15,2.19,1.38C34,65.05,34.21,65.24,34.3,65.45Z" style="fill:#5a597d"/><path d="M34.3,65.45a1.53,1.53,0,0,0-.59,0c-1.61.5-1.61.51-2.17-1.07-.16-.46-.33-.92-.5-1.38a.42.42,0,0,1,.32-.11,1.09,1.09,0,0,1,1.08,1.31c.28-.58.45-1.1.67-1.61.45-1,.92-1,1.66-.1a7.51,7.51,0,0,1-.08,2.22C34.45,64.87,34.63,65.29,34.3,65.45Z" style="fill:#6d6c8c"/><path d="M5.16,2.93A4.74,4.74,0,0,1,4.8,5.24c-.46,1,.32,2,.12,2.95-.17-2-1.7-1.73-3-1.78-.14-.25.1-.34.21-.48.59-1.2,1.67-2,2.33-3.19.12-.24.28-.22.47-.09Z" style="fill:#666587"/><path d="M14,17a3.68,3.68,0,0,1-1.36.51,1,1,0,0,0-1.15,1c0,.34-.25.57-.54.55s-.24-.37-.36-.57c-.34-.35,0-.51.19-.73l0,0c.49-.32.66-.89,1-1.32.14-.19.32-.36.26-.63.27-.42.75-.65,1-1.12l.25-.29c.09-.09.17-.09.23,0C14,15.22,15.05,15.87,14,17Z" style="fill:#45436c"/><path d="M58.42,83.79c-.28.27-.44.16-.49-.17s-.17-.83-.8-.79c.08.4.16.78.23,1.17.12.69.07,1.28-.85,1.3-.26,0-.5.06-.58.37s0,.73-.5.67c-.1,0-.24-.25-.25-.39,0-.39-.21-.86.3-1.1.22-.11.52-.06.65-.33s.26-.49.2-.68c-.11-.37-.36-.13-.59,0-.61.26-.73-.82-1.37-.53-.06-.07-.07-.12,0-.17a.19.19,0,0,1,.1,0,.55.55,0,0,0,.22,0c.43-.32,1,.08,1.42-.28s.93-.25,1.36-.47c.66.14,1.11-.51,1.74-.45a.42.42,0,0,1,.1.45,3.34,3.34,0,0,0-.45,1A1.16,1.16,0,0,1,58.42,83.79Z" style="fill:#bebecc"/><path d="M94.83,39.57a3.66,3.66,0,0,1-3.51.67c-1-.68-.62-1.47-.18-2.27,1.16.33,2.46,0,3.53.75C94.9,39,95.1,39.23,94.83,39.57Z" style="fill:#55547a"/><path d="M83.79,65.2c0-.17,0-.34,0-.51,1-.33-.23-.67,0-1,0-.23-.24-.51,0-.67a.63.63,0,0,1,.78.13c.44.35.83.88,1.45.3a.72.72,0,0,1,.54-.46.73.73,0,0,1,.67.2,16.93,16.93,0,0,1-1.51,3.26c-.06-1-.88-.8-1.45-1C84,65.58,83.88,65.43,83.79,65.2Z" style="fill:#706e8e"/><path d="M41.33,10.71l-.49,0,.25-.23a.75.75,0,0,1,.61-.17c1.08.12,2.16,0,3.25.05.27,0,.55-.08.73.21.15.77-.69,1.05-.83,1.68h0c-.44.18-.59.59-.76,1l-.47,1c-1.35-.37-1.42-.62-.54-1.64.45-.52,1-1.09,0-1.64-.23-.15-.56,0-.74-.24h-.52A.35.35,0,0,1,41.33,10.71Z" style="fill:#cfcfd9"/><path d="M49.16,84.06a2,2,0,0,1,.93.79c.27.37.73.69.45,1.19s-.72.23-1.13.16-1-.23-.28.49c.25.26-.61.61-.52,1.13-.65.07-.79-.37-.86-.87a2,2,0,0,1,.83-2.66A.6.6,0,0,1,49.16,84.06Z" style="fill:#bebecc"/><path d="M61.23,15.67l1.7.06c.14.13.39,0,.49.24,0,1.18,1.25,1.84,1.23,3,0,.52.36,1.22-.62,1.28l-.57-1.53c-.21-.32-.24-.73-.52-1l-.26-.24a1.69,1.69,0,0,1-.73-.81c-.14-.4-.6-.41-.83-.69,0-.05-.07-.1,0-.14s0-.07.06-.07A.94.94,0,0,0,61.23,15.67Z" style="fill:#666587"/><path d="M30.76,16.73c-.38.39-.15,1.94-1.42.71-.22-.21-.42.66-1,.68,0-1,1.71-1.21,1.18-2.41a1,1,0,0,1-.23-.48c.11-.58-.1-1.19.18-1.76.51-.2.59.27.8.53.33.49.84.85,1,1.45a2.83,2.83,0,0,1,0,.58,1.53,1.53,0,0,1-.11.27A.84.84,0,0,1,30.76,16.73Z" style="fill:#c1c0ce"/><path d="M86.55,63.19l-.51.26c-.51-1-1-1.93-1.55-2.88-.11-.2-.07-.31.08-.38s.47-.57.86-.4a2.08,2.08,0,0,1,.88.93c.4.93.56,1.05,1.52.4a1.53,1.53,0,0,0,.18-.18,3.65,3.65,0,0,1-.71,2C87,62.87,86.64,62.62,86.55,63.19Z" style="fill:#6d6c8c"/><path d="M59.17,82.28v-.44l.26-.28a.94.94,0,0,1,1-.27h.5c.94-.33,1.31.21,1.51,1h-.26c-.29.42.16.67.22,1a1.21,1.21,0,0,1-1.09,1.62A9.74,9.74,0,0,0,59.17,82.28Z" style="fill:#bcbcca"/><path d="M77.52,87.29c1.12-.46,2.44.07,3.49-.72.51-.39.81.31,1.26.23.5.66,0,1.19-.22,1.76Z" style="fill:#727190"/><path d="M62.44,82.28c-.53-.3-.74-1.07-1.51-1l2-1c.72-.42.2-1.15.42-1.7.67-.16.64.35.68.74a3.26,3.26,0,0,1-.1,1.24c.4.46.06,1.14.59,1.63.28.27-.28.38-.53.36C63.48,82.47,63,82.36,62.44,82.28Z" style="fill:#c3c3d0"/><path d="M94.83,39.57c-.08-.25-.17-.5-.25-.74-.52-.61-.45-1.11.25-1.51l.26-.5a3.91,3.91,0,0,0,2-.25.48.48,0,0,1,.38.31.37.37,0,0,1-.19.43C96.55,38.15,96,39.19,94.83,39.57Z" style="fill:#747392"/><path d="M32.83,15.72l.75-.92c.15-.33.27-.7.77-.61.36.32,0,.88.48,1.29.13-.49-.53-1,.09-1.36.54-.08,1.08,0,1.62,0s.81.07.53.65h0c-.44.23-.78.48-.58,1.07.34,1-.21,1.2-1,.94a2.19,2.19,0,0,0-2.12.13c-.68.42-.89,0-.84-.68A.91.91,0,0,1,32.83,15.72Z" style="fill:#747392"/><path d="M28.28,16.74c0,.2-.09.49-.33.44-.73-.16-1.06.15-1.23.82-.11.45-.5.49-.9.47-.26-.5-.89-.75-1-1.38a3.14,3.14,0,0,1,1.93-1.43c.41.45.94.14,1.41.2C28.57,16.11,28.25,16.44,28.28,16.74Z" style="fill:#ababbd"/><path d="M40.08,11a3.71,3.71,0,0,0-.34,2c0,.35-.16.41-.41.45-.74.29-1.55,0-2.32.47-.48.32-1.24,0-1.13-.91a.7.7,0,0,1,.22-.29h0a2.74,2.74,0,0,1,1.49-.85c.27.21.36.73.85.55s.27-.61.26-.95a.37.37,0,0,1,.18-.27C39.29,11.21,39.63,10.83,40.08,11Z" style="fill:#727190"/><path d="M91.07,38.08c.31.69-.31,1.5.25,2.16a3.5,3.5,0,0,1-2.69-1.67l1.68-.51A.66.66,0,0,1,91.07,38.08Z" style="fill:#58567b"/><path d="M54.39,13.46a.77.77,0,0,0-.74.51c-.16.15,0,.42-.24.56a.23.23,0,0,1-.27-.06c-.18-.58-.83-.43-1.16-.76-.12-.77.45-1,1-1.23.57.08.65-.72,1.2-.67C55.19,12.54,55.21,12.71,54.39,13.46Z" style="fill:#83829d"/><path d="M29,63.42c.44.12.92.2,1,.78-.09,1.31.79,2,1.73,2.6.24.16.56.15.79.35a.2.2,0,0,1-.05.3,1.88,1.88,0,0,1-2-.24,2.8,2.8,0,0,1-1-1h0c-.29-.32-.39-.78-.76-1,0-.16,0-.31,0-.46h.09C29,64.28,28.76,63.82,29,63.42Z" style="fill:#807f9b"/><path d="M32.6,67.24c-1.58.14-2.1-1.2-2.91-2.11-.28-.31.07-.68.35-.93.8,1.32,1.74,2.46,3.47,2.49a1,1,0,0,1,0,.17C33.29,67.17,33,67.42,32.6,67.24Z" style="fill:#706e8e"/><path d="M76.5,84.81c-.71.66-.42,1.33,0,2a4,4,0,0,1-1.91-1.52,3.14,3.14,0,0,0-1.08-1c0-.44.22-.39.49-.25.73.14,1.37.64,2.16.54C76.3,84.62,76.45,84.63,76.5,84.81Z" style="fill:#727190"/><path d="M26.77,15.72l-1.93,1.37c-.43,0-.63-.31-.83-.62a.61.61,0,0,1,.29-.84,7.44,7.44,0,0,1,2.93-1C27.49,15.18,27.13,15.45,26.77,15.72Z" style="fill:#9b9ab0"/><path d="M27.27,14.72c-1,.79-2.58.4-3.26,1.75l-.68-.27a.24.24,0,0,1-.19-.28,1.22,1.22,0,0,1,.4-.85,1.33,1.33,0,0,1,1-.48c1,0,2-.43,3-.43C27.66,14.45,27.72,14.7,27.27,14.72Z" style="fill:#8887a1"/><path d="M54.9,15.46c.35.28.2.67.24,1s.28.47.43.7a2.08,2.08,0,0,1,.23.63c0,.18,0,.34-.25.4l-.18.2c-.19.42-.31.92-.94.84-.66-.63-.08-1.29.07-1.85.23-.85.16-1.46-.61-1.92l.14-.14A.74.74,0,0,1,54.9,15.46Z" style="fill:#83829d"/><path d="M12.7,22.25h-.49a14.62,14.62,0,0,1-2.27-1c0-.17,0-.34,0-.51a.75.75,0,0,1,.14-1c.09.29.19.58.28.87.42-.06.32-.4.46-.59s.27-.93.83-.65.07.61-.07.93C11.06,21.48,12.37,21.58,12.7,22.25Z" style="fill:#6b6a8a"/><path d="M74,84c-.19,0-.39,0-.49.25l-.78-.23c-1.68-.48-2.38-1.69-1.76-3,.33.21.28.82.83.8a1,1,0,0,0,.41,1C72.66,83.48,73.48,83.52,74,84Z" style="fill:#9393aa"/><path d="M41.35,16.5c-.81,0-.25-.73-.5-1,0-.57.1-1.19.81-1s.42.75.23,1.21c-.1.27-.21.53-.32.79Z" style="fill:#9d9cb2"/><path d="M54.39,13.46c.79-.67,0-1.13-.23-1.65a2,2,0,0,1,1-.53c0,.27-.2.49,0,.82C55.84,13.27,55.78,13.36,54.39,13.46Z" style="fill:#616083"/><path d="M28,24l-.24-.3c-.24-.05-.39-.17-.29-.44s0-.68.05-1c.3-.13.13-.76.59-.63s.31.47.2.81C28.18,22.94,28.92,23.63,28,24Z" style="fill:#ababbd"/><path d="M83.81,69.23c-.12-.11-.29-.2-.35-.34-.22-.49-.85.69-.9-.21,0-.52.52-.79.85-1,.48-.32.31.57.72.61.05,0,.1.12.16.18A.72.72,0,0,1,83.81,69.23Z" style="fill:#666587"/><path d="M23.51,15.22c0,.29,0,.59-.27.77-.5.26-1.08,0-1.58.21-.34-.13-.55.47-.93.18,0-.35.39-.4.51-.66h0C22,15.37,22.64,14.88,23.51,15.22Z" style="fill:#5c5b7f"/><path d="M34.79,14.23c.05.56.46.95.69,1.43-1.46.49-1.21-.5-1.17-1.31-.15-.17-.12-.29.1-.35a.09.09,0,0,0,.13,0l.13,0A.28.28,0,0,1,34.79,14.23Z" style="fill:#666587"/><path d="M44.85,12.21c-.23-.75.45-1,.76-1.5.07-.13.15-.13.25,0l1.22.28c.1,0,.14.08.12.14s0,.09-.07.09C46.11,11,45.54,11.7,44.85,12.21Z" style="fill:#bebecc"/><path d="M55.39,17.24c-.29-.19-.25-.48-.25-.76a2.66,2.66,0,0,0,1.52.25c-.09.16-.18.32-.26.48a.81.81,0,0,1-.31.21A.7.7,0,0,1,55.39,17.24Z" style="fill:#6b6a8a"/><path d="M86.55,63.19c0-.19-.55-.27-.15-.53s.8-.4.9.29a.49.49,0,0,1,0,.24Z" style="fill:#666587"/><path d="M31.56,15.72v.5a.36.36,0,0,1-.53,0c0-.29,0-.59.27-.76Z" style="fill:#747392"/><path d="M75,44.33a3.78,3.78,0,0,1-.43.26c-2,.82-3.65,1.8-3.15,4.39,0,.13-.1.3-.15.46-.39-.38-.35-1.3-1.31-1-.22.09-.47-.15-.57-.4a20.47,20.47,0,0,0-2.29-3.55c-.23-.36-.55-.81-.32-1.14.7-1,.42-2.06.47-3.11a2.08,2.08,0,0,1,.18-.6,1.81,1.81,0,0,0,0-1,8.78,8.78,0,0,1,.19-1.91,1.26,1.26,0,0,1,.34-.92l.25.25c0,1,.55,1.9.65,2.89a.92.92,0,0,0,.54.8c2,.85,3.26,2.69,4.84,4.09Z" style="fill:#85849f"/><path d="M74.24,43.85a1.78,1.78,0,0,1-.57-.22c-1.52-1.29-2.78-2.87-4.65-3.79-1-.49-.41-1.79-.79-2.66a3.15,3.15,0,0,1,0-1.11c.39.62.2,1.81,1.51,1.5a2.74,2.74,0,0,1,1,1.35C71,40,72.1,40.29,72.89,40.84c.61.42,1.12.75.87,1.64C73.62,43,74.05,43.4,74.24,43.85Z" style="fill:#8a89a3"/><path d="M81.48,45.63c-.16-.16-.31-.33-.47-.5.72-1.18,1.42-2.37,2.16-3.53.19-.3.39-.52.17-.88-.56-.95.13-.89.73-.9a3.09,3.09,0,0,1,1,1c-.27,1.37-1.19,2.48-1.47,3.89A1.63,1.63,0,0,1,81.48,45.63Z" style="fill:#8887a1"/><path d="M48.87,38.84c0-1,0-2,.07-3a2.77,2.77,0,0,0,1.2-2c0-.3.22-.41.49-.45.49.38.68,1,1.25,1.32.06.05.17.12.21.08s-.08-.33-.06-.51c0-.47,0-1.17.56-1.19,1,0,.68,1,1,1.55.52.23.35-.3.48-.46.29-.36.55-.47.85,0l0,1.78A5.62,5.62,0,0,1,52.17,37a3.4,3.4,0,0,0-2,1.14C49.8,38.43,49.52,39,48.87,38.84Z" style="fill:#9190a9"/><path d="M51.88,34.81c-.85-.13-1.09-.79-1.25-1.51.59-.82.81-1.9,2-2.26.75-.21,1.39-.73,2.24-.5v2.27c-.68.53-.95,1.38-1.52,2-.34,0-.65-.24-.4-.54.46-.58-.06-.77-.29-1.13-.49.27-.26.85-.56,1.17C52.26,34.59,52.11,34.72,51.88,34.81Z" style="fill:#a4a3b8"/><path d="M54.44,24a5,5,0,0,1,.24,2c-.17.47.25,1.37-.33,1.38s-1.21-.72-1.41-1.4a14.43,14.43,0,0,1-.3-2.19l.49.25A2.25,2.25,0,0,0,54.44,24Z" style="fill:#8c8ba5"/><path d="M50.92,14.14c.22.14.41.36.71.3-.81,1,.1,1.82.31,2.7s.79,1.47.7,2.35c-.7-.26-.76-1.07-1.26-1.51C50.16,16.83,50.22,15.53,50.92,14.14Z" style="fill:#a2a1b6"/><path d="M52.64,20c.12.63.25,1.27.34,1.73-.26.74-1.14-.72-1.1.53-1.12.09-1.15-.44-.75-1.27C51.45,20.33,52.1,20.26,52.64,20Z" style="fill:#a2a1b6"/><path d="M52.39,22.25c.84.38.29,1,.25,1.51C52.18,23.32,52.47,22.76,52.39,22.25Z" style="fill:#8c8ba5"/><path d="M97.63,36.08c0,.27,0,.56-.25.73l-.29-.24c-.38-.6-1-.18-1.48-.25A2.8,2.8,0,0,1,94,35.38c-.52-.54-.86-1.22-1.73-1.33-.2,0-.59-.36-.45-.65.75-1.7-.46-1.55-1.47-1.6-.25,0-.5,0-.75,0,.25-.52.66-.56,1.16-.43a1.7,1.7,0,0,0,.83.16c1.18-.34,1.93-.29,1.79,1.28-.07.74.89.59,1.3,1,0,.44-1.12.37-.59.88s.79,1.47,1.49,1C96.48,35.15,97,35.83,97.63,36.08Z" style="fill:#85849f"/><path d="M29.06,47.12V36.61L30,36.3a9.84,9.84,0,0,1,3.66-.85.61.61,0,0,1,.3.92c-.49.77,0,1.63-.36,2.41-.17.42.18.66.49.88s.82.44.84,1c0,1.43,0,2.85,0,4.27-.65.95-1.61.24-2.4.46-.71.42-1.24,1.06-1.9,1.53C30.14,47.24,29.65,47.59,29.06,47.12Z" style="fill:#494870"/><path d="M34.8,19.73c-1,1.6-1.44,3.46-2.51,5A2.17,2.17,0,0,1,29.57,24a2.55,2.55,0,0,1,.24-2.45c.51-.35.92,0,1.36.18s.76.53,1.24.23a2.92,2.92,0,0,0,.9-1.71,1.2,1.2,0,0,1,1.19-1C34.87,19.16,35,19.36,34.8,19.73Z" style="fill:#6d6c8c"/><path d="M29,36.07a23.52,23.52,0,0,1-.25-5c.42-.09,1.71,1,1-.72-.15-.34.3-.48.56-.23s.91.38,1.43.74c-.41.23-1,.29-.72.9.09.23,0,.44-.39.47-1.42.12-1.42.14-1.12,2,.42-.28.44-1,1.18-.82,1,.32.47,1.29,1,1.86C30.71,35.46,29.59,34.94,29,36.07Z" style="fill:#bebecc"/><path d="M33.8,35.57a27.39,27.39,0,0,0-3.8.73c.56-.92,1.55-.63,2.36-.79S34,35.08,34.07,34a1.87,1.87,0,0,1,.7-1.14A102.57,102.57,0,0,1,35,45.1l-.11.09-.11-.09V40.34c-.64-1-.24-2.11-.34-3.17C34.4,36.57,34.55,35.89,33.8,35.57Z" style="fill:#5f5e81"/><path d="M32.55,22.25c-1.07.52-1.65-.57-2.5-.76-.47,0-.56-.46-.76-.77a.54.54,0,0,0,0-.22c-.08-.07-.09-.14-.05-.18a.15.15,0,0,1,.11-.06h.47c.41.22.93,0,1.3.33A4.44,4.44,0,0,1,32.55,22.25Z" style="fill:#4c4a72"/><path d="M31,20.77c-.43-.15-.91-.16-1.25-.51.19-.06.42,0,.52-.26s.33-.68.49-1c.34-.9-.08-1.87.24-2.78h.52a.2.2,0,0,1,0,.18,4.36,4.36,0,0,1,0,1,13.37,13.37,0,0,0,.1,1.67C31.52,19.66,31.52,20.31,31,20.77Z" style="fill:#6d6c8c"/><path d="M29.29,20.72l.76.77A3.93,3.93,0,0,0,29.57,24C29.34,22.92,28.31,21.9,29.29,20.72Z" style="fill:#ababbd"/><path d="M29.31,20.26l-.06.24c-.21.09-.31.58-.64.19-.09-.11-.2-.32-.16-.4C28.7,19.9,29,20.33,29.31,20.26Z" style="fill:#bab9c8"/><path d="M28.78,30.79l-.06-.21c.12-.17.26-.32.48-.17s.1.18.15.28Z" style="fill:#9695ac"/><path d="M66.93,85.59a.83.83,0,0,0-1-.06c-.91-.7-.24-1.39,0-2.1.17-.53,1-.68.77-1.4a.3.3,0,0,1-.12-.25.53.53,0,0,0-.12-.4A1.24,1.24,0,0,1,65.61,80c.25-.51.83-.63,1.28-1-.71.18-1.08,1-1.84.73s-1-1.1-1.22-1.88c-.14-.59,0-1.25-.37-1.79V75a.91.91,0,0,1,1.12.73c.18.7.84.9,1.21,1.39s.81,0,1.2-.18c.67.44,1,1.19,1.63,1.72s.89.44,1.35,0c.22,0,.35.07.28.32a3.4,3.4,0,0,1,.48,2c.32.51,0,.86-.29,1.23a1.15,1.15,0,0,0-.27,1.18c.24.8-.55.64-1,.58s-.68-.25-.87.44C68.19,84.86,67.5,85.32,66.93,85.59Z" style="fill:#bebecc"/><path d="M61.43,84.8c1-.48,1-1.22.4-2s0-.52.35-.55c.7.28,1.31.81,2.17.56.3-.09.52.22.57.55s-.25.34-.45.5c-.67.53-2,.51-1.8,1.88,0,.15-.12.45-.22.37-1.35-1.14-1.11,2-2.39.89a.94.94,0,0,0-1.48,0c.39-.71-.53-1.81.84-1.94.44,0,.54-.56,1-.58S61,85.08,61.43,84.8Z" style="fill:#aeadbf"/><path d="M63.46,76c.83.36.55,1.19.69,1.8a2.37,2.37,0,0,0,1,1.71c.11.22.65,0,.5.5.12.72.67,1,1.25,1.26-.13.15-.41.24-.24.53a1.62,1.62,0,0,1,0,.22c-.74-.16-.93.46-1.18.93-.85-.39-.51-1.15-.43-1.55.25-1.28-.32-1.18-1.15-.88-.68-.55.3-1.49-.47-2C63.46,77.68,63.46,76.85,63.46,76Z" style="fill:#b0afc1"/><path d="M60.43,84.54c-.54.91-.54.91-1,.51.11-.78-.46-1-1-1.26a.5.5,0,0,1,.24-.5c.21-.65.41-1.41,1-.27.21.38.53.36.84.39s.5.12.5.44S61,84.63,60.43,84.54Z" style="fill:#aeadbf"/><path d="M75.93,69.94l1.78-2.25c.22.3.44.59.65.89s.15.55-.16.58c-1,.09-1.38.44-.9,1.44.07.13-.19.42-.3.63Z" style="fill:#666587"/><path d="M83.79,65.2l.5.25c-.35.52-.69,1-1,1.55-.19.3-.37.45-.68.14s-.14-.52.16-.66a.83.83,0,0,0,.53-.77c.15-.19.34-.33.5-.5Z" style="fill:#666587"/><path d="M83.78,65.21a.45.45,0,0,1-.5.5c-.31-.44-.9-.65-1-1.25C82.93,64.4,83.14,65.24,83.78,65.21Z" style="fill:#535178"/><path d="M67.71,38.83c.06.25.4.5,0,.75-.81.4-.48,1.11-.52,1.74,0,.45.31,1.44-.83.83-.42-.81,0-1.74-.37-2.56,0-1.51,0-3,0-4.55.4-1,.91-.68,1.35-.08.2.28.2.71.6.86,0,.33,0,.67,0,1C66.86,37.16,66.86,37.16,67.71,38.83Z" style="fill:#747392"/><path d="M66.25,12.89l.55.55L63.42,16a.51.51,0,0,1-.49-.24c.81-.59,1.74-1.07,2.14-2.07C65.3,13.1,66,13.37,66.25,12.89Z" style="fill:#535178"/><path d="M3.31,10.39c-.08.35-.36.3-.6.3-.41,0-.75-.15-.77-.62,0-.26.13-.58.44-.43S3.16,10,3.31,10.39Z" style="fill:#5c5b7f"/><path d="M66.93,85.59a2.09,2.09,0,0,1,.37-.5c.66-.48,1.39-.92.5-1.9.55.19,1.08.42,1.63.58.2,0,.71,0,.58-.18-1-1.17.59-1.45.7-2.21,0-.12,0-.25,0-.38L71,81c-.4,1.58.84,2.21,1.76,3-.36,1.56-.37,1.58-1.55.58-.66-.56-1-.08-1,.41-.11.74-.32.72-.82.33-.89-.7-1.56-.26-2.16.47Z" style="fill:#bab9c8"/><path d="M74.43,87.74c.46-.29.38-1.12,1.12-.85-.23.46.68.84-.19,1.51-1.16.91-1.56,1.12-2.16-.11-.07-.13-.47-.34-.12-.44.9-.26.23-.68.12-1-.16-.48-.23-.92.24-1.21s.77,0,1.12.29.47.49.08.77A.67.67,0,0,0,74.43,87.74Z" style="fill:#aeadbf"/><path d="M44.09,13.2c0-.54.12-1,.76-1Z" style="fill:#bebecc"/><path d="M79.79,17.89a2.88,2.88,0,0,1,3.44.11C82.05,18.88,80.92,18.4,79.79,17.89Z" style="fill:#9b9ab0"/><path d="M7.93,9.19v-2C8.68,7.85,8.27,8.52,7.93,9.19Z" style="fill:#494870"/><path d="M29.06,12.9a.47.47,0,0,1,.22.09c-.11,1-.53,1.34-1.75,1.24l-4,1c-.82-.11-1.5.39-2.27.5.23-.56.8-.54,1.25-.69s.9.06.88-.68c0-.3.37-.33.7-.24C25.94,14.59,27.48,13.65,29.06,12.9Z" style="fill:#4c4a72"/><path d="M82.51,58.89a29.82,29.82,0,0,0,.79-5.47c.16-.31.37-.41.65-.16a6.57,6.57,0,0,0,.81.69,4,4,0,0,1,.38.32l.24.21c.35.19.76.09,1.13.22a1.67,1.67,0,0,1,.28.18c.32.47.89.28,1.63.67-1-.11-1.27.56-2,.53s-.21.87-.33,1.34c-.38.4,0,.86-.08,1.29-2.37-.17-2.37-.17-2.83,1.7C83.22,59.77,82.65,59.43,82.51,58.89Z" style="fill:#5f5e81"/><path d="M83.79,63.69a3.31,3.31,0,0,1,1.1,1.1c-.42.34-.76,0-1.11-.1-.39-.69-1.31-.69-1.73-1.34-.16-.25-.4-.49-.14-.76s.53-.06.76.13Z" style="fill:#47456e"/><path d="M17,14.49c0,.22-.08.43-.35.35a.55.55,0,0,1-.29-.34.36.36,0,0,1,.33-.43C16.9,14.05,17,14.27,17,14.49Z" style="fill:#45436c"/><path d="M60.68,13c-.32-.05-.74-.11-.61-.54s.56-.16.85-.21Z" style="fill:#5f5e81"/><path d="M61.17,15.48a.71.71,0,0,1-.74-.76A1.52,1.52,0,0,1,61.17,15.48Z" style="fill:#5f5e81"/><path d="M54.44,24c-.41,1-.85.61-1.31,0a4.63,4.63,0,0,1,1-1.76Z" style="fill:#7e7d99"/><path d="M53.14,14.47h.26c.3-.11.45.11.62.29a.62.62,0,0,1-.11.7l0,0C53.26,15.43,53.1,15,53.14,14.47Z" style="fill:#8c8ba5"/><path d="M9.94,21.27c1.09-.46,1.48.72,2.27,1C10.83,23,10.06,22.62,9.94,21.27Z" style="fill:#a7a6b9"/><path d="M67,77c.07,1.06-1,.78-1.13.61-.47-.48-1.31-.79-1.41-1.36a1.77,1.77,0,0,0-1-1.25v-.27c1.64-.47.88-1.75.93-2.76a.43.43,0,0,1,.57.1c.38.54.74.58,1.26.15.32-.26.7-.17.93.26a18.6,18.6,0,0,0-.33-2.24c-.31-.79-.61-1.42-1.62-1.37a1.26,1.26,0,0,1-1-.41c0-.5,0-1,0-1.51.1-.82.54-1.08,1.23-.63s1.48.27,2.32.23c-.18-.57-.63-.68-1-.92s-.77-.25-.53-.78a2.74,2.74,0,0,1,2.94,1.47,12.71,12.71,0,0,1,.77,1.4c0,.25,0,.49,0,.74-.64.28-.91-.41-1.39-.53-.79.85-.76,1.44.48,1.73a.8.8,0,0,1,.49.51,3.61,3.61,0,0,0,.14,2,2.38,2.38,0,0,1-.22,1.53c-.24,1.13-1.12,1.09-2,1.09a1.32,1.32,0,0,0-.79.22C66,75.81,67.23,76.31,67,77Z" style="fill:#c6c5d2"/><path d="M64.73,61.18l.68-9.6c.55.26,0,1.09.7,1.27.71,0,1.45.11,2-.49.89.19,1,.9,1.07,1.62l-.11.06c-.48.27-1.29-.22-1.49.32s.71.6,1,1,.4.72,0,.83c-.62.18-.06.55-.23.77a3.14,3.14,0,0,1-1.79,1.53c-1,.17-.87,1.12-1.25,1.72C65.13,60.55,65.34,61.12,64.73,61.18Z" style="fill:#646285"/><path d="M66.46,42.1c1,.19.5-.65.44-.85A2.71,2.71,0,0,1,67,39.7c.13-.46.42-.43.72-.12a2.79,2.79,0,0,0,0,2.07.69.69,0,0,1,0,.61c-1.66,2.23.87,3.09,1.49,4.57.07.17.44.29.43.4-.12,1,.13,1.36,1.1.72.23-.15.48,0,.51.36s0,.75.06,1.12l-.06,1c-.58.12-.8-.37-1.14-.65-.53-.82-1.12-1.48-2.23-1a.43.43,0,0,1-.27-.2,1.84,1.84,0,0,0-.84-1.67c-.79-.51-.38-1.6-1-2.24A10.48,10.48,0,0,1,66,42.1.32.32,0,0,1,66.46,42.1Z" style="fill:#797896"/><path d="M64.73,61.18c.24-.7.5-1.4.72-2.11a1.08,1.08,0,0,1,1-.89,2.36,2.36,0,0,0,.38,2.41,4.18,4.18,0,0,1,.52,2,3.9,3.9,0,0,0,2,3.11,1.13,1.13,0,0,1,.62.74L70,67.73c-1-.46-1.09-1.69-2-2.24A2.47,2.47,0,0,0,66.21,65a1.2,1.2,0,0,1-1.75-.53A17.68,17.68,0,0,1,64.73,61.18Z" style="fill:#5f5e81"/><path d="M66,53.15c-.23.06-.49.18-.5-.24s0-.88,0-1.32c.11-1.91.21-3.82.32-5.72.18-.3.48-.53.55,0a1.57,1.57,0,0,0,.92,1.22c.66.35.09,1.12.51,1.56h0a14.77,14.77,0,0,1,.53,1.45c.4.79-.07,1.51-.19,2.27a.63.63,0,0,1-.09.33C67.4,53.29,66.58,52.81,66,53.15Z" style="fill:#403e69"/><path d="M64.19,68.47c.7-.15,1.35.47,2.08.12.25-.12.38.08.42.31.17,1.09,1.06,2,.61,3.26-.15.39.43.56.55,1.28-1-1.29-1.76-1.33-2.48.13-.21-.77-.32-1.36-.93-1.58-.33.19-.52-.06-.72-.24,0-.17,0-.34,0-.51L64,71c.58-.25.32-.49,0-.74A3.21,3.21,0,0,1,64.19,68.47Z" style="fill:#cfcfd9"/><path d="M64.46,64.43a4.5,4.5,0,0,0,1.75.53c.53.58,1.5.53,1.92,1.29.14.24.45.67,0,.63-.87-.08-1.78.53-2.6-.18-.51-.45-1-.47-1.33.26A12.62,12.62,0,0,1,64.46,64.43Z" style="fill:#cfcfd9"/><path d="M67.71,48.63c-.22-1.08-1.32-1.66-1.56-2.74-.05-.2-.27-.07-.42,0l0-1.27C66.33,46,67.94,46.86,67.71,48.63Z" style="fill:#6b6a8a"/><path d="M66.46,42.1H66c0-.84,0-1.67,0-2.51C66.69,40.32,66.23,41.28,66.46,42.1Z" style="fill:#5a597d"/><path d="M64,70.23a1.69,1.69,0,0,1,1.13.58c-.37.3-.77.13-1.13.16Z" style="fill:#9f9fb4"/><path d="M48.87,38.84a19.67,19.67,0,0,1,1.66-1.51c1.28-.94,2.92-.9,4.34-1.49.05,3.18-.29,6.34-.51,9.51-.81.47-1.33-.09-1.88-.53a1.3,1.3,0,0,0-1-.61C50.21,44,50,43.69,50.32,42.4c.08-.3-.2-.16-.22-.29-.07-.44.29-.56.56-.7.58-.3,1-.87.81-1.38s-.95-.68-1.55-.79c-.36-.06-.69.31-1.07.1C48.85,39.17,48.86,39,48.87,38.84Z" style="fill:#494870"/><path d="M52.63,44.62a2.56,2.56,0,0,0,1.73.73c0,3.21-.14,6.41-.43,9.61a2,2,0,0,0-2.4-1.3,1.58,1.58,0,0,1-1.28-.27c-.34-.4-.71-.78-.48-1.37.69-.48,1.28.77,2,.06-.76-.24-1.49-.57-1.39-1.62-.86.37-.09,1.09-.53,1.47-.73.42-1.12.06-1.37-.6-.11-.3,0-.65-.18-.94A2,2,0,0,1,50.4,49a4.61,4.61,0,0,0,1.23,0c.56-.13,1.17-.46.91-1.07-.47-1.08-.14-2.44-1.17-3.32A.85.85,0,0,1,52.63,44.62Z" style="fill:#666587"/><path d="M50.38,53.15c.6.67,1.35.11,2,.13,1.25,0,1.69.51,1.56,1.68,0,.48,0,1-.07,1.46s-.52.78-1,.88c-1.27.25-2.55.45-3.81.73-.65.14-1.07,0-1-.79a21.51,21.51,0,0,1,.11-3.11h0C48.77,53.61,49.28,52.7,50.38,53.15Z" style="fill:#42416a"/><path d="M48.1,54.13c0,1,0,2,0,3,0,.35-.08.82.57.64a37.89,37.89,0,0,1,4.61-.89c.21,0,.38-.3.56-.45a6.6,6.6,0,0,1-.19,2.76c-.35.11-.9.1-1,.33-.76,1.41-1.88,1.11-3.17,1-.69,0-.77-1.11-1.5-.61A21.25,21.25,0,0,1,48.1,54.13Z" style="fill:#58567b"/><path d="M53.39,34.81c.22-.89.4-1.8,1.52-2v1.25c-1.36-.3-.36.79-.64,1.12C53.84,35.31,53.69,34.88,53.39,34.81Z" style="fill:#b7b7c7"/><path d="M86.06,41.82l.24.28c-.1.63-.42,1.25.13,1.88.22.24-.12.49-.44.59-.13,0-.13-.22-.26-.12a1.43,1.43,0,0,1,.22.08c.16,0,0,.22.09.08s0,0-.05,0a6.8,6.8,0,0,0,.81,4.3,1.55,1.55,0,0,1-1.67,1.35c-1-.13-1.26-1.11-1.53-1.93A1.83,1.83,0,0,1,83.67,47a21.72,21.72,0,0,0,.9-3.22C85.12,43.13,85,42,86.06,41.82Z" style="fill:#616083"/><path d="M84.79,43.86c-.3,1.33-.59,2.67-.91,4-.22.93.62,1.34,1,2,.14.28.55.28.86,0s.73-.65,1.1-1c.34.46.3,1.11.76,1.51-1.43-.14-2.81.7-4.26.24,0-.15,0-.3,0-.46A20.81,20.81,0,0,0,83,47.22,3.06,3.06,0,0,1,84.79,43.86Z" style="fill:#706e8e"/><path d="M83.3,50.62c1.42-.14,2.8-.81,4.26-.24l.24,0a.2.2,0,0,1,.3,0,.48.48,0,0,1-.23.46,18,18,0,0,0-2.48.75c-.64.34-1.43-.09-2.09-.47Z" style="fill:#8a89a3"/><path d="M88.78,47.62l.08.41c-.1.57-.12,1.18-.73,1.48-.07,0-.28-.14-.37-.25-.5-.66.2-1,.37-1.56S88.52,47.31,88.78,47.62Z" style="fill:#514f76"/><path d="M87.8,50.64l.26-.25c.21-.38.7-.25,1-.52,0-.18,0-.35.07-.53l.2,0c0,.32,0,.65,0,1a1,1,0,0,1-.3.42,1.29,1.29,0,0,1-1.19.15A.2.2,0,0,1,87.8,50.64Z" style="fill:#9f9fb4"/><path d="M89,49.87c-.21.39-.6.44-1,.52l-.26,0C88.06,49.82,88.56,49.88,89,49.87Z" style="fill:#706e8e"/><path d="M32.29,45.11c.84-.36,1.67.2,2.51,0v0c.24.49.06,1,.12,1.53-.17.58-.57.38-.89.21s-.63-.28-.79.15-1.27.66-.92,1.13a2.49,2.49,0,0,0,2.51,1.19c.17.52-.14,1,0,1.55a15.1,15.1,0,0,1-3.34,4.61.86.86,0,0,1-1,.16,2.65,2.65,0,0,1-.65-.56c-.54-.33-.52-1-.81-1.45,0-.33,0-.66,0-1a2.9,2.9,0,0,0,2.56-.46c.94-.69,1-1.29.21-2.11a3,3,0,0,1-.9-3.25C31.15,46.07,32,45.85,32.29,45.11Z" style="fill:#5f5e81"/><path d="M32.29,45.11c.09.23.19.42-.07.66-1.71,1.61-1.67,2.5.11,4.2a1.48,1.48,0,0,1,.42,1.38c-.26,1.31-2.65,2.14-3.7,1.3V47.12c1,.17,1.52-.66,2.2-1.14C31.63,45.72,32,45.4,32.29,45.11Z" style="fill:#4c4a72"/><path d="M29,53.64c.55.25.47,1,1,1.27a3.38,3.38,0,0,1,.27.94,1.94,1.94,0,0,1-.06.59c-.06,1.36-.53,2.69-.32,4.07.1.66-.31,1-.87,1.17,0,.58,0,1.16,0,1.74-.08.42.14.89-.17,1.28A88.73,88.73,0,0,1,29,53.64Z" style="fill:#9d9cb2"/><path d="M34.8,46.86V45.12l.21,0q0,6.57,0,13.13a1.74,1.74,0,0,1-.16.47c-.36-.54-.12-1.12-.14-1.68,0,.56-.26,1.15.15,1.68l-.06,3.74c-.79-.7-1.28-.61-1.49.5a8.74,8.74,0,0,1-.43,1c-.11.35-.1.88-.58.78s-.17-.53-.09-.82c.21-.79-.68-.57-.89-1,.88-1,1.61-2.1,2.44-3.13a.39.39,0,0,0,0-.47c-.69-.67-1.07-1.62-2-2.46.05,1.14.76,1.8.61,2.65-.06.34.52.72,0,1s-.89,0-1.23-.37a.58.58,0,0,1-.16-.46c.22-.46,0-.85-.14-1.3-.32-.91-.63-1.88.43-2.58a1,1,0,0,1,.35-.05c.59,0,1.09.41,1.76.43.1-.51-.41-1.18.31-1.54.34-.17.63-.19.87.2a26.23,26.23,0,0,1,0-3.07,5.41,5.41,0,0,1,.28-.89c-.41-.5-.08-1,0-1.5A2.23,2.23,0,0,1,34.8,46.86Z" style="fill:#747392"/><path d="M53.89,14.73l-.49-.27a.5.5,0,0,1,.25-.49c.13.7,1.45.21,1.25,1.25h0C54.32,15.55,54.16,15,53.89,14.73Z" style="fill:#5f5e81"/><path d="M31,20.77A3.71,3.71,0,0,1,31.54,19c.56-.1,1.15-.12,1.44-.77a.58.58,0,0,1,.63-.32,3.23,3.23,0,0,0,2.88-1.13c.39-.35.88-.91,1.4-.09a.54.54,0,0,1-.56.38,11.36,11.36,0,0,0-2,2.19l-.51.48c-.66-.53-1.13-.09-1.18.47a3,3,0,0,1-1.07,2.05A5.78,5.78,0,0,1,31,20.77Z" style="fill:#747392"/><path d="M91.07,38.08l-.76,0a9.1,9.1,0,0,1,4.52-.74c-.47.44-.28,1-.25,1.51C93.46,38.32,92.14,38.79,91.07,38.08Z" style="fill:#666587"/><path d="M70.25,79,70,78.76c-.9-.69-1-1.29-.25-2.73l1-.82c.06.69.1,1.38.19,2.07,0,.28.21.62,0,.81s-.53-.25-.88-.24C69.74,78.31,70.82,78.49,70.25,79Z" style="fill:#a7a6b9"/><path d="M41.33,10.71h.5a.84.84,0,0,0,.34.63c.28.21.91,0,.85.52s-.66.59-1.06.75a4.45,4.45,0,0,1-1.11.11C40.41,11.91,41.42,11.44,41.33,10.71Z" style="fill:#a9a8bb"/><path d="M42.35,10.7c.27,0,.56-.06.74.24C42.77,11.08,42.4,11.38,42.35,10.7Z" style="fill:#aeadbf"/><path d="M28.28,16.74c-.4-.26-.08-.51,0-.76-.19-.37-.68-.76-.17-1.16s1.05-.12,1.42.41c0,.16,0,.32,0,.48C28.81,15.69,28.81,16.54,28.28,16.74Z" style="fill:#9b9ab0"/><path d="M31,16.21c-.11.92.29,1.89-.24,2.78l0-2.26Z" style="fill:#747392"/><path d="M51.38,44.86a1.06,1.06,0,0,1,1,1.32,2.51,2.51,0,0,0,.29,1.24c.55,1.23,0,2.11-1.46,1.92a3.66,3.66,0,0,0-2.56.53.6.6,0,0,0-.28.52c.13.31.32.64-.23.74.24-2.6.05-5.22.44-7.82a.64.64,0,0,1,.23.26c.23.58,0,1.23.25,1.85C49.88,45.38,50.5,44.53,51.38,44.86Z" style="fill:#727190"/><path d="M48.69,43.58c0-.09-.07-.18-.1-.27a17.6,17.6,0,0,1,.26-4c.64-.54,1.46-.79,2-.08.39.55,1.43-.29,1.2.54s-.29,1.89-1.51,2c-.14,0-.26.19-.38.29C49.83,42.77,50,43.92,48.69,43.58Z" style="fill:#45436c"/><path d="M48.15,51.13c.26-.19.21-.48.23-.74a.48.48,0,0,1,.34.55c-.09.87.47,1,1.15,1h0c-.1.53.28.86.51,1.26-.94-.08-1.38,1-2.29,1Z" style="fill:#58567b"/><path d="M53.89,14.73c.35.12.57.53,1,.49v.24h-1C53.9,15.21,53.89,15,53.89,14.73Z" style="fill:#727190"/><path d="M37.82,16.74c-.86-.56-1.33.21-1.67.68a1.66,1.66,0,0,1-1.41.78c-.84,0-1.61-.15-2,.93-.23.58-.77-.05-1.17-.14a3.25,3.25,0,0,1-.25-1.51c.2-.26.15-.69.54-.83.5.16.6-.37.93-.51.14.21-.18,1,.54.47s1.39-.83,2.21-.17c.16.12.57.32.81,0s-.11-.5-.21-.75c-.43-1,.37-.93,1-1-.34.51,0,.74.3,1.12s1,.2.71.9A.24.24,0,0,1,37.82,16.74Z" style="fill:#7c7a98"/><path d="M34.57,14.16,36.06,13c-.05.76.56,1.09,1,.76.78-.61,1.53-.21,2.29-.26-.32.39-.75.21-1.14.26-.2,0-.56.09-.47.23.67,1.05-.48.49-.65.77,0-.38-.21-.48-.59-.35a2.13,2.13,0,0,1-1.69-.14Z" style="fill:#7c7a98"/><path d="M37.82,16.74h.26A2.83,2.83,0,0,0,39.82,16c-.29,1.55-.45,1.62-2.49,1.09Z" style="fill:#b0afc1"/><path d="M89.05,50.63c.08-.09.15-.18.23-.26,0,.84,0,1.67,0,2.51-1.78-.28-1.53-.82-1.73,1.82a.35.35,0,0,1-.33,0h-.43a1.35,1.35,0,0,1-.45-.79,1.46,1.46,0,0,1,0-.72,5,5,0,0,1,.54-1.33A3.84,3.84,0,0,1,88,51.08C88.41,51,88.81,51,89.05,50.63Z" style="fill:#cacad6"/><path d="M86.55,53.9c.3.19.23.5.26.79,0,.06,0,.13,0,.19h-.2c-.47-.3-1.09.15-1.53-.29,0-.06,0-.13,0-.19A2.28,2.28,0,0,1,86.55,53.9Z" style="fill:#c6c5d2"/><path d="M87.24,54.68l.34,0a1.27,1.27,0,0,1,1.71,0l0,.52C88.67,54.7,87.85,55.12,87.24,54.68Z" style="fill:#c6c5d2"/><path d="M31,59.68a1.48,1.48,0,0,0,1.21.73,8.6,8.6,0,0,0-1-3.21.26.26,0,0,1,.15-.4c.4-.09.93-.16,1.13.22.45.86,1.32,1.48,1.64,2.29s-.69,1.52-1.31,2.09c-.25.22-.59.31-.49.7.25,1-.51.79-1,.84H31l-.5-.76c-.67-.7-.44-1.59-.4-2.38S30.64,59.14,31,59.68Z" style="fill:#7c7a98"/><path d="M31,59.68c-.27-.08-.83-.36-.67.15.25.81-.19,1.6.17,2.36a2,2,0,0,0-1.48-.51c.55-.48.53-1,.46-1.71A14.38,14.38,0,0,1,30,56.4c.35.15.33.43.26.69.14-1.12.14-1.12,1-1.18a2,2,0,0,0,0,2.65C31.6,59,31.83,59.46,31,59.68Z" style="fill:#6b6a8a"/><path d="M94.81,58.87a3,3,0,0,1,4.12-.37c1.19.91,1.72,3,.72,4.2-.51.66-1,.95-1.42-.08-.22-.5-.58-.58-.9,0s-.78.7-1.2,0c-.14-.22-.4-.29-.59-.44-.47-.35-1.11-.53-1.43-1-.45-.66.49-1,.6-1.49C94.76,59.44,94.64,59.14,94.81,58.87Z" style="fill:#58567b"/><path d="M94.81,58.87c.35.63.62,1.23-.32,1.64-.35.15-.49.42,0,.69a4.24,4.24,0,0,1,2,1.57c.22.4.53,0,.57-.39s0-.75.52-.62.94.07,1,.61c0,1.27.64.49,1.08.33A2.86,2.86,0,0,1,95.83,64a16.27,16.27,0,0,1-1.77-2.29l-.17-.06A3.3,3.3,0,0,1,94.81,58.87Z" style="fill:#616083"/><path d="M94.06,61.7A3.68,3.68,0,0,1,95.83,64c-.71-.06-1-.72-1.48-1.06C94.3,62.51,94,62.16,94.06,61.7Z" style="fill:#747392"/><path d="M60.43,84.54c.3-.17.64-.43.39-.77-.39-.51-1-.11-1.5-.17-.27-.29.53-.59,0-.84s-.31.5-.65.53c.05-.4-.16-.93.51-1,1.2,0,1.54,1,2,1.87.11.19,0,.48.27.65C60.84,85.74,60.68,85,60.43,84.54Z" style="fill:#b7b7c7"/><path d="M29.53,15.23c-1.33-.54-1.33-.54-1.25.75-.49-.15-1.24,1.21-1.51-.26,0-.43.36-.65.5-1a.49.49,0,0,0,.26-.49c.63-.35,1.58-.25,1.75-1.24h.22c0,.13.06.27.08.4C29.46,14,29.88,14.62,29.53,15.23Z" style="fill:#bab9c8"/><path d="M37.57,12a2.29,2.29,0,0,1,1.24-.57c.07.37.71.61.32,1.05a1.43,1.43,0,0,1-1.22.43C37.4,12.82,37.63,12.31,37.57,12Z" style="fill:#646285"/><path d="M25.71,2.46A4.65,4.65,0,0,1,26,5.12c-1.49,2.06-3.1,2.27-5,.65s-2.1-3.29-.39-5.06C22.78-.24,24.34.81,25.71,2.46Z" style="fill:#403e69"/><path d="M56.18,17.24l-.47.52a.57.57,0,0,1-.32-.52Z" style="fill:#7c7a98"/><path d="M89.29,54.67l-1.71,0c-.8-.58-.39-1.7-.2-2,.53-.81,1.27,0,1.92.24,0,.08,0,.19,0,.24-.36.35-.91-.69-1.05,0-.11.55.73.65,1.1,1v.25Z" style="fill:#e7e7ec"/><path d="M63.72,71.75l.72.24a4.05,4.05,0,0,0,.12.47c.76,1.78.76,1.78-1.1,2.28V73C63.81,72.64,63.62,72.16,63.72,71.75Z" style="fill:#bab9c8"/><path d="M84.79,43.86a3.29,3.29,0,0,0-1.4,3.6,5.59,5.59,0,0,1-.14,2.7c-.51-1.54-.61-3.24-1.77-4.53,1.2-.34,2.15-.7,2.16-2.36a4.28,4.28,0,0,1,1.45-2.47,2.87,2.87,0,0,1,1,1C85.35,42.32,85.41,43.3,84.79,43.86Z" style="fill:#7c7a98"/><path d="M31.83,16.65l-.54.83a1.8,1.8,0,0,1,.29-1.08Z" style="fill:#747392"/><path d="M70,66.48a8.08,8.08,0,0,1-1.76-1.18A3.85,3.85,0,0,1,67.12,63a5.23,5.23,0,0,0-1-3c-.53-.65-.25-1.31.31-1.85.9,0,1.08-1,1.76-1.26.69-.65,1.7-.82,2.39-1.69a4.29,4.29,0,0,1,.14,2.49A83,83,0,0,1,70,66.48Z" style="fill:#403e69"/><path d="M69.72,76c.21.9-.64,1.89.25,2.73,0,1-.84,1-1.22.53-.62-.73-1.68-1.16-1.79-2.28-.38-.71-1.35-1.28-.49-2.25.25.16.41.62.75.46s-.21-.47,0-.72c.83,0,1.74.21,2.26-.76l0,1.28c-.17.25-.24.49,0,.73Z" style="fill:#b7b7c7"/><path d="M70.22,49.63l1,.75A21.46,21.46,0,0,1,71,54.91c-.88.18-1.18-.63-1.73-1l-1-1.5c-.09.11-.17.11-.25,0h0c-.26-.73.27-.73.72-.75a10.14,10.14,0,0,0,1.35,0c.36-.06.36-.27.2-.52-.43-.56-1.06-.12-1.55-.31a.57.57,0,0,1-.35-.36C68.54,49.23,69.59,49.9,70.22,49.63Z" style="fill:#6d6c8c"/><path d="M69.22,53.9c.79,0,1.08.79,1.73,1a7,7,0,0,1-.2,2.81V55.39a3.08,3.08,0,0,1-2.53,1.53c.21-.23-.82-.69.16-.81.36,0,.28-.36.05-.54a1.9,1.9,0,0,0-.64-.35c-.48-.13-.91-.32-.8-.9s.73-.43,1.13-.51A3.81,3.81,0,0,1,69.22,53.9Z" style="fill:#55547a"/><path d="M87.05,51.87a2.48,2.48,0,0,1-.51,1.28c-.41.65-1.31.5-1.77,1.06-.67.07-.68-1.09-1.47-.79-.11-.6.41-1.14.19-1.75,1.09.08,2.18.38,3.23-.24C87.06,51.23,87.28,51.47,87.05,51.87Z" style="fill:#c6c5d2"/><path d="M69.43,70.22a2.33,2.33,0,0,0-.61-.41c-.92-.23-2.31-.2-.7-1.57.27-.23-.25-.62.06-.95.8.06,1,1,1.79,1.18-.06.76.2,1.54-.19,2.28C69.44,70.72,69.74,70.27,69.43,70.22Z" style="fill:#cfcfd9"/><path d="M87.05,51.87c0-.15-.08-.41-.26-.27a2.65,2.65,0,0,1-3.3.07.53.53,0,0,1-.19-.54c1.6.68,3-.52,4.5-.49v.27a.49.49,0,0,1,.24.23C88,51.78,87.36,51.6,87.05,51.87Z" style="fill:#9f9fb4"/><path d="M69.43,70.22c.51-.08.2.38.35.53l-.09,1.46A1.65,1.65,0,0,1,69.43,70.22Z" style="fill:#9190a9"/><path d="M69.45,75.75c-.76-.23-.41-.48,0-.73C69.44,75.26,69.44,75.51,69.45,75.75Z" style="fill:#9b9ab0"/><path d="M67.71,38.83c-.7-.14-.64-1-1.18-1.29-.16-.09-.09-.47.07-.68.43-.56.9,0,1.35,0Z" style="fill:#797896"/><path d="M51.88,34.81c.09-.16.18-.33.26-.5.55.09.63.41.29.77S51.94,35.16,51.88,34.81Z" style="fill:#7c7a98"/><path d="M33.8,35.57c.63-.36,1-.32,1,.54,0,1.41,0,2.82,0,4.23-.54,0-.85-.49-1.31-.67s-.51-.51-.28-.9a1.44,1.44,0,0,0,0-1.49C33,36.74,34.09,36.32,33.8,35.57Z" style="fill:#403e69"/><path d="M65.7,80c-.17-.16-.34-.33-.5-.5a1,1,0,0,0,.83-.46c.5-.62,1-.54,1.62,0Z" style="fill:#b7b7c7"/><path d="M66.71,81.81c-.23-.07-.69.08-.59-.33s.53-.18.83-.2A.58.58,0,0,1,66.71,81.81Z" style="fill:#83829d"/><path d="M60.92,86c0,.33-.14.5-.4.48a.24.24,0,0,1-.24-.34c.08-.21.13-.53.46-.45C60.84,85.73,60.89,86,60.92,86Z" style="fill:#b7b7c7"/><path d="M84.77,54.21c0-.24-.43-.79.15-.68s1-.42,1.62-.38v.75c-.37.57-1,.51-1.51.5Z" style="fill:#dbdbe3"/><path d="M85.06,54.59c.5.13,1.07-.1,1.53.29C86.07,54.82,85.48,55.17,85.06,54.59Z" style="fill:#706e8e"/><path d="M67.21,74.5c.15.34.84.36.62.93a.5.5,0,0,1-.63.27c-.48-.11-.83-.36-.73-.94Z" style="fill:#9393aa"/><path d="M68.62,73.59a.31.31,0,0,1-.33-.3c0-.19.15-.28.33-.26a.38.38,0,0,1,.25.21A.29.29,0,0,1,68.62,73.59Z" style="fill:#a9a8bb"/><path d="M68,52.39h.25c-.38,1.36-1.51.5-2.26.75C66.52,52.63,67.48,53.15,68,52.39Z" style="fill:#535178"/><path d="M65.8,55.31c-.2,0-.32-.09-.32-.28a.5.5,0,0,1,.31-.5.24.24,0,0,1,.36.19A.52.52,0,0,1,65.8,55.31Z" style="fill:#747392"/><path d="M70.22,49.63c0,.61-.52.4-.79.33a.73.73,0,0,0-1,.43c-.29.15-.36-.12-.5-.26,0-.52-.8-.9-.25-1.5C68.91,47.87,69.36,48.05,70.22,49.63Z" style="fill:#6b6a8a"/><path d="M68,50.13l.5.26.25.25c.55.32,1.22-.18,1.76.26.39.59.75,1-.46,1.11-.64.07-1.61-.81-2.05.38a.45.45,0,0,1-.08-.75C68.42,51.14,68,50.64,68,50.13Z" style="fill:#535178"/><path d="M48.69,43.58c1,0,.78-1.16,1.44-1.49h.72a1,1,0,0,0-.41,1.3c.17.53.55.58,1.09.5a.86.86,0,0,1,1.1.73c-.42,0-.9-.18-1.25.24-.34.13-.69.25-1,.39-1.79.77-1.79.77-1.71-1.17A4.23,4.23,0,0,1,48.69,43.58Z" style="fill:#514f76"/><path d="M51.16,43.55c.17-.65.28-1.09.84-1.16a.28.28,0,0,1,.33.29C52.27,43.27,51.71,43.25,51.16,43.55Z" style="fill:#514f76"/><path d="M49.87,51.89c.1-.45-.91-.72-.22-1.26.26-.22.19-.84.74-.69s.4.51.3.91c-.13.57.45.6.76.83s.78.2.59.75c-.51-.51-.85,1-1.41.11a3.43,3.43,0,0,0-.76-.65Z" style="fill:#706e8e"/><path d="M85.08,44.17c0-.25.16-.5.45-.46s.27.45.4.68c.27.45-.19.2-.25.2C85.39,44.61,85.09,44.59,85.08,44.17Z" style="fill:#5a597d"/><path d="M88.05,51.14l-.24-.23,1.24-.28C89.1,51.55,88.62,51.44,88.05,51.14Z" style="fill:#c6c5d2"/><path d="M34.8,46.86v2.53c-.7.42-1.36.68-1.8-.34-.12-.27-.35-.27-.63-.26a.54.54,0,0,1-.54-.77c.4-.78,1.31-1.15,1.72-2C33.92,46.41,34.2,46.88,34.8,46.86Z" style="fill:#666587"/><path d="M31.29,55.91c-1.31.24-.47,1.37-.85,2-.72-.35-.08-1.08-.41-1.53,0-.16,0-.33,0-.49s.26-.41.5-.5a.49.49,0,0,0,.11,0c.72-.06,2.83-2.28,2.89-3s1-1,1.26-1.57v1a2.77,2.77,0,0,1-1.63,2.79c-.25.1-.32.37-.36.63-.12.83-.63.85-1.27.6Z" style="fill:#666587"/><path d="M30.54,55.41a.91.91,0,0,1-.5.5v-1Z" style="fill:#6b6a8a"/><path d="M31.54,55.91c.34-.06,1,.07.91-.32-.35-1.23.65-1.3,1.26-1.62.89-.46.69-1.41,1.09-2.08V55.4c-.41-.14-.38-1-1-.55s-.23.67.07,1,.3.48.08.66a.87.87,0,0,1-.7.13C32.64,56.44,32.1,56.16,31.54,55.91Z" style="fill:#6b6a8a"/><path d="M34.83,58.7c-.82-.61-.18-1.33,0-2v2Z" style="fill:#616083"/><path d="M68.86,58.71c.2,0,.3.15.25.31a.54.54,0,0,1-.31.32c-.16.06-.3-.06-.3-.25A.34.34,0,0,1,68.86,58.71Z" style="fill:#666587"/><path d="M70.47,50.9c-.59-.11-1.23.21-1.76-.26C69.3,50.68,70,50.13,70.47,50.9Z" style="fill:#6b6a8a"/></g></g></svg>