<svg xmlns="http://www.w3.org/2000/svg" viewBox="0 0 78.61 74.38"><g id="Ebene_2" data-name="Ebene 2"><g id="OBJECTS"><path d="M25,42.69c-1-.48-1.47-1.45-2.27-2.1a24.41,24.41,0,0,0-3-3.06c-.24-.23-.48-.47-.71-.71-.38-.54-.9-1-1.29-1.48l-.25-.28c-.31-.6-1-.91-1.22-1.56l0,0c-.65-.89-1.16-1.79-.42-2.87a2,2,0,0,1,1.79.1c.15.06.28.19.44.21a4.4,4.4,0,0,1,3.45,2.8,2.91,2.91,0,0,1,.24.27,32.81,32.81,0,0,0,3.54,1.44c1.39.57,2.68,1.19,2.85,2.92a.57.57,0,0,0,.12.35,21,21,0,0,0,3,2.29,1.13,1.13,0,0,1,.52.24.69.69,0,0,1-.46.92c-1.43-.59-3-.36-4.46-.61C26,41.46,25.74,42.53,25,42.69Z" style="fill:#7e7d99"/><path d="M58.12,15.72l.25-.27c.23-.27.39-.64.84-.61a4.34,4.34,0,0,0,2.38.81c.43,0,.92,0,1.17.48.06.94-1,1.34-1.09,2.19a2.29,2.29,0,0,1-.18.31,3.09,3.09,0,0,1-2.59,1.45c-.59,0-.82.47-1.06.91a2.05,2.05,0,0,1-.57.78c-1,.62-.91,1.33-.22,2.1a2.28,2.28,0,0,1,.67,1.45.39.39,0,0,1-.37.32c-1-1-2-.69-2.91.06-1.12-.13-2.23-.39-3.36-.47-.49-.27-.52-.77-.65-1.23.29-.74,1-1.1,1.44-1.76,1.16-1.17,2.32-2.35,3.49-3.52C56.16,17.62,57.33,16.84,58.12,15.72Z" style="fill:#777694"/><path d="M13.56,69.69l-.18.19A17.71,17.71,0,0,1,10.8,72.7l-.93.94c-.81.93-1.88.74-2.92.67-.73-1.09-.38-2.17,0-3.25a.78.78,0,0,1,.22-.26c.91-.4,1.39-1,1-2a2.39,2.39,0,0,1,0-1.1,4.09,4.09,0,0,1,.65-1.48.72.72,0,0,1,.59-.6,3.12,3.12,0,0,0,.61,0c.9-.15,1.55-.05,1.18,1.13-.07.2.1.39.27.53,0,.17.25-.09.1,0s0,0,0,0c-.22-.48,0-1,0-1.45,0-.3.26-.7.48-.63,1,.33,1.75-.49,2.73-.32a1.8,1.8,0,0,0,2-.57c.23-.34.7-.11,1.06-.09a.87.87,0,0,1,.49.24.68.68,0,0,1-.4.76c-.05.07-.11.13-.17.2A45.12,45.12,0,0,1,13.56,69.69Z" style="fill:#727190"/><path d="M57.09,45.18a.13.13,0,0,0,0,.18c.48,1.32.25,2.73.47,4.09-.06.44.39.62.51,1-.12,1-1,1-1.61,1.43a3.36,3.36,0,0,1-3.56-1.19c-.21-1.24-1.31-1.55-2.17-2.11-.26-.24-.45-.56-.79-.7-.53-.35-1.77.16-1.45-1.2a2.19,2.19,0,0,0,1.95-1.56c.25-.77,1.43-.67,2.12-1.14a3.45,3.45,0,0,1,3.8-.07A2.2,2.2,0,0,1,57.09,45.18Z" style="fill:#777694"/><path d="M31.68,51.36a4.21,4.21,0,0,0-1.22,1.16,5.53,5.53,0,0,1-1.05,1A12.64,12.64,0,0,1,26.07,53c-.4-.85.61-1.06.77-1.73-1,.5-2-.09-3,0a.52.52,0,0,1-.55-.4,4.39,4.39,0,0,1,1.6-1.74c2.18-.39,4-1.66,6.09-2.37.72-.24.58-1.2,1.25-1.47a.34.34,0,0,1,.32.08c.11,1.11,1.22.76,1.78,1.21a20,20,0,0,0,.61,2c.76,1.39.19,2.4-.92,3.26-.71,0-1-.57-1.27-1.08h0C32.28,50.71,32.11,51.3,31.68,51.36Z" style="fill:#727190"/><path d="M20.64,62.41a2.76,2.76,0,0,0-1,.91c-.37.38-.65.86-1.23,1-.39-.18-.79-.36-.88-.85a.58.58,0,0,1,.11-.35c.36-.43,1.13-.75.17-1.39-.69-.46-1.23-.72-1.64.26,0,.07-.12.11-.19.15a5.39,5.39,0,0,1-.68.22c-1,.72-1.84.27-2.74-.14a.4.4,0,0,1,.1-.51l.23-.25A67.07,67.07,0,0,1,19.5,55c.6,0,.86.41,1.1.86.38.75.61,1.58,1,2.34.26.36.52.15.77,0,.48-.25,1-.39,1.5-.59s.89-.27,1.21.23c-.31,1.09-1.28,1.61-2,2.32-.86.28-1.29-.68-2.07-.72,0,.8.91.88,1.12,1.48A2.8,2.8,0,0,1,20.64,62.41Z" style="fill:#686789"/><path d="M56.61,51.63c.28-.67,1.19-.56,1.49-1.21a.38.38,0,0,1,.15,0,7.06,7.06,0,0,1,1.6,1.8l.69,1c.22.07.23.26.25.45-.89.82-2,1.37-2.61,2.54s-.79,1.58.06,2.82c.32.47.86,1-.14,1.32a9.88,9.88,0,0,1-2.24-.12A3.32,3.32,0,0,1,53.42,59a2.3,2.3,0,0,1,1.06-2,.71.71,0,0,0,.27-1c0-.44-.27-.63-.66-.7C53,54.91,52.84,53.77,52.26,53c-.25-.35.13-.79.48-1s1-.71,1.6-.29A1.76,1.76,0,0,0,56.61,51.63Z" style="fill:#8a89a3"/><path d="M56.82,6.91l-.1,0-.11,0c-.49.26-1,.07-1.52.13a1.87,1.87,0,0,1-1.52-2.23c0-.32-.28-.59-.33-.92.22-1.08,1-.76,1.67-.66.44.06.69.64,1.24.41,0-.64-1.12-.44-.87-1.15a3,3,0,0,1,1.2-1.21c.49,0,1,0,1.45,0,.59.17,1.48-.45,1.75.45s-.63,1-1.14,1.4a9.68,9.68,0,0,0-1.09,1c.49-.19,1.1,0,1.37-.82.16-.54,1.78.09,2.34,1,.36-.56.08-1-.18-1.46-.17-.3-.27-.63,0-.91a.69.69,0,0,1,.92,0c.73.48,1.91.49,1.75,1.88,0,.35.34.15.51-.05a.67.67,0,0,1,.25-.22.52.52,0,0,1,.32.07c.28.3.75.25,1,.58a.88.88,0,0,1,.06.53c-.3,1.13-1.26,1.27-2.18,1.49-.35.11-.74,0-1.07.15l-.46,0c-.75.29-1.56-.08-2.3.22l-.1,0-.1,0C58.72,7,57.74,6.59,56.82,6.91Z" style="fill:#9393aa"/><path d="M41.29,7.43l-.09,0h-.09A2.92,2.92,0,0,1,40,6.94a2,2,0,0,1-1-1.53,1.55,1.55,0,0,1,0-1.25A2.11,2.11,0,0,1,41,2.4l.13.12a1.07,1.07,0,0,1,0,1.08c-.19.31-.25.43.08.77,1.27,1.34,1.92,1.29,2.54-.48.32-.91,1.09-1.21,1.68-1.77.21-.11.46-.07.67-.19l.69,0a4.7,4.7,0,0,1,1.54-.11c.52.23.22.42,0,.55-.45.2-1,0-1.59.49a5.71,5.71,0,0,0,1.74-.5,2,2,0,0,1,2.31.73A15,15,0,0,0,52,4.25a.83.83,0,0,1,0,.35c-.31.63.35.89.52,1.33-.1.92.92.47,1.16,1a.17.17,0,0,1-.12.26l-.44,0a14.69,14.69,0,0,1-2.89.12.84.84,0,0,1-.38-.06c-.47-.86-.68-1.87-1.66-2.41-.52-.29-1-.47-1.51-.09-.79.61-2,.9-1.95,2.24,0,.36-.32.57-.71.57A12.83,12.83,0,0,1,41.29,7.43Z" style="fill:#9695ac"/><path d="M32.5,45.35c-.29.35-.71.65-.67,1.14s-.31.57-.69.63a5.34,5.34,0,0,0-2.45,1.1C27.61,49,26.2,49,25,49.37c.11-.78.77-1.07,1.3-1.49h0a1.83,1.83,0,0,1,.73-.78l.76-.74c.34-.44,0-.66-.28-.92a9.28,9.28,0,0,1-1-1.09c-.49-.56-1.16-1-1.48-1.67.74-.86,1.2-2,2.83-1.24a9.22,9.22,0,0,0,2.37.11,1.57,1.57,0,0,1,1,.53c.19.09.42.21.41.42C31.57,43.57,32.41,44.35,32.5,45.35Z" style="fill:#797896"/><path d="M69.06,13.68l-.42.46a.15.15,0,0,1-.21.14,1.6,1.6,0,0,0-1-.45c-.8-.57-1.54-1.22-2.39-1.74s-1-1.2-.23-1.92c.45-.46.25-.68,0-1a.63.63,0,0,1,.4-.58c1.16.06,2.21.68,3.39.63a7,7,0,0,0,5.19-.6A4.86,4.86,0,0,1,75,8.12a3.21,3.21,0,0,1,.76-.07,4,4,0,0,1,2,.54.45.45,0,0,1,.07.34,2.85,2.85,0,0,0-2.18,1.46c-.25.53-1,.24-1.49.27-.08.33.14.66,0,1a.76.76,0,0,1-.36.37c-.75-.39-1.41.13-2.11.21-.19-.34-.32-.8-.84-.27S69.67,13.14,69.06,13.68Z" style="fill:#807f9b"/><path d="M75.62,35.28c-.32.16-.63.34-1,0s-.92-.11-1.2-.56l0,0a2.8,2.8,0,0,1-1.3-2h0a6.91,6.91,0,0,1-.39-2.74c0-.24.18-.47.37-.4,1.31.55,2.33-.48,3.52-.62,1.34-.15,1.33-.23,1.63,1.12a.41.41,0,0,0,.25.3c.59,0,.15-1,.88-.93a8.61,8.61,0,0,1,.08,2.68c.06.21-1-.14-.22.42a1.6,1.6,0,0,1-.41,1.16v0A2.72,2.72,0,0,1,75.62,35.28Z" style="fill:#47456e"/><path d="M48.61,46.64c0,.41,0,.74.55.72a2,2,0,0,1,1.17.26.92.92,0,0,0,.51.75c.92.47,2.17.59,2.25,2-.34.34-.85.42-1.15.89-1,1.54-1,1.68.26,3s1.31,2.33-.31,3.47c-.41,0-.57-.4-.83-.63a3.26,3.26,0,0,1-1-1h0c-.27-.25-.28-.64-.51-.92a6.17,6.17,0,0,1-.74-2.34c-.31-.38,0-.89-.25-1.28v0a11.33,11.33,0,0,1-.21-5.05Z" style="fill:#83829d"/><path d="M63.64,6.14a2.77,2.77,0,0,0,2-1.48c.22-.28.65-.14.93-.49-.32-.59-1-.82-1.49-1.16-.52-.08-.4.5-.69.65-.06.37.17.94-.48,1s-.6-.59-.69-1,.26-.92,0-.83C62.26,3,62,2,61.33,2c-.28,0-.34.27-.23.57a4.47,4.47,0,0,1,.36,2.82c-.6-1.32-1.31-2.07-2.59-1.94.11.65.55,1.64-.83.85-.51-.29-.56.91-1.31.44a5.77,5.77,0,0,1,1.92-2c.42-.21,1-.33.86-.89s-.72-.16-1.06-.35a1.17,1.17,0,0,0-.37-.08c0-.11,0-.18.1-.21l.44,0c.84-.31,1.73.08,2.57-.22l.45,0a7.35,7.35,0,0,1,2-.11c.82-.09,1.63-.18,2,.86.11.34.53.33.85.38.51.27,1.12,0,1.63.27.21.6.84,1,.9,1.68a8,8,0,0,0-.22,1.3.72.72,0,0,1-.71.82,4.36,4.36,0,0,1-1-.21l-.51.06c-.57.28-1.22-.08-1.79.22l-.47,0A.59.59,0,0,1,63.64,6.14Z" style="fill:#9b9ab0"/><path d="M2.11,40.58l-.5-.5a3.57,3.57,0,0,1-.5-1,.22.22,0,0,0,0-.22,2.83,2.83,0,0,1,.06-1.75v0a3,3,0,0,1,.5-1l.76-.49a.35.35,0,0,1,.44.12c.71,1,1.22.79,1.65-.24.22-.54.68-.55,1.16-.39s.94.4.74,1.07a2.47,2.47,0,0,0,.19,1.58c.22.69.86.95,1.38,1.34-.14.78-.79,1.1-1.34,1.51v0a2,2,0,0,1-1,.51h0A3.87,3.87,0,0,1,2.11,40.58Z" style="fill:#9897ae"/><path d="M61.38,18.48a1.49,1.49,0,0,0,0-.21,5.12,5.12,0,0,1,2.16-1.83c.81-.33,1.66-.61,2.43.14.05.5-.27.72-.68.86l-.44.45A23.21,23.21,0,0,1,62.07,21l0,0a21.62,21.62,0,0,1-4.49,4.42c-.25-.45-.5-.89-.74-1.34-.58-1-.7-1.84.54-2.43.25-.12.36-.44.52-.68A2.28,2.28,0,0,1,59.71,20C60.64,20,60.86,19,61.38,18.48Z" style="fill:#151347"/><path d="M8.57,56.89l-.18,0c-.57-.71-1.47-.61-2.21-.91-.23-.51.2-.57.48-.59,1.14-.09,1.11-.6.56-1.36A1.49,1.49,0,0,1,7,53.48a3.26,3.26,0,0,0-2.71-2.23,3.91,3.91,0,0,1-2.09-.71c-.66-.44-.65-1.06,0-1.38s1.26-1.22,2-.14c.15.21.46,0,.7,0a2.45,2.45,0,0,1,2.77,1.61c.26.56.45.77.92.16.3-.4.71-.94,1.17-.09a13.48,13.48,0,0,1-.4,4.47v0A3.29,3.29,0,0,1,8.57,56.89Z" style="fill:#85849f"/><path d="M.42,55.9l-.08-.25a6.89,6.89,0,0,1,0-4.26,4.42,4.42,0,0,1,1.29-3,.73.73,0,0,1,.22.52c-.36,1.56.19,2.3,2,2.38a3,3,0,0,1,2.85,1.75,1.85,1.85,0,0,1-2.18.13.85.85,0,0,0-1.14.15.68.68,0,0,0-.11.91c.37.71.83,1.42-.1,2.07A2.43,2.43,0,0,1,.42,55.9Z" style="fill:#9d9cb2"/><path d="M58.36,60.14c.35-.53-.16-.73-.41-1-1-1.08-.89-1.79-.1-3a5.12,5.12,0,0,1,2.81-2.51c.34,0,.34.22.37.45s-.38.43.11.49a.2.2,0,0,1,.21.15v0c.42,1.28.66,2.56-.3,3.73l-.7.92c-.36.54-1,.61-1.52.85h-.11l-.11,0C58.5,60.29,58.42,60.26,58.36,60.14Z" style="fill:#9d9cb2"/><path d="M51.89,57.79a3.22,3.22,0,0,1,.3-.55,1.87,1.87,0,0,0-.4-2.87c-1-.85-1.11-1.59-.37-2.76.42-.66.61-1.5,1.67-1.23.86,1.29,2.18,1.31,3.52,1.25-.64,1-1.33,1.24-2.26.29-.63-.65-1.16,0-1.61.36s-.24.6.16,1,.44,1.6,1.43,1.84a2,2,0,0,1,.53.77c.31.31.82.8.23,1-1,.43-1.08,1.42-1.67,2.07A2.13,2.13,0,0,1,51.89,57.79Z" style="fill:#85849f"/><path d="M.42,55.9a2,2,0,0,0,.59.18c.73-.07,1.48.71,2.2-.13s-.34-1.21-.38-1.84c0-.27-.37-.65-.08-.78.49-.22,1-1,1.32-.72.81.76,1.72.37,2.56.53.28-.11.41,0,.48.27s.25.32.37.49c1,1.42.91,1.58-.81,1.77a1.67,1.67,0,0,0-.53.24c-1.29,1.1-3,1.3-4.48,1.84A2.43,2.43,0,0,1,.42,55.9Z" style="fill:#a4a3b8"/><path d="M21.45,58.41a8.3,8.3,0,0,1-1-2.48,1.24,1.24,0,0,0-.79-1c.28-1,1.36-1.4,1.83-2.27.14-.19.24-.41.52-.4,1.05.34,2,.79,1.69,2.17-.15.7.86.63.84,1.25a1.16,1.16,0,0,1-.55.28c-.37.12-.4.4-.25.69s.4.27.63.09c.93-.75,1.09-.06,1.24.66,0,.33-.19.57-.57.57-.56-.66-1-.07-1.49.13a11.22,11.22,0,0,1-1.29.37A.63.63,0,0,1,21.45,58.41Z" style="fill:#a9a8bb"/><path d="M44.18,38.79A4.21,4.21,0,0,0,43,40a.62.62,0,0,1-.49.46c-1-.27-1.27.23-1.17,1.12A.76.76,0,0,1,41,42a2.44,2.44,0,0,1-2-.09A7.88,7.88,0,0,0,39.46,40a17.94,17.94,0,0,1,.5-2.63c.95-.35,1.21.34,1.5,1.26.35-1.08,1.14-1.1,1.87-1.24.32-.07.75-.1.81-.48s-.38-.49-.65-.65-.91-.27-.74-.69A3.19,3.19,0,0,1,44.12,34a.8.8,0,0,1,1.11.54,3.56,3.56,0,0,0,1.45,1.7C46.23,37.47,45.05,38,44.18,38.79Z" style="fill:#45436c"/><path d="M56.43,44.07a5,5,0,0,0-4.65.64,3.14,3.14,0,0,0-1.51,1.7c-.35.84-1.08.26-1.66.23l-.08-.06a1.07,1.07,0,0,1,0-1,.09.09,0,0,0,0-.15,3,3,0,0,1,.78-1.58l0,0a2.64,2.64,0,0,1,1.25-1.28l0,0a3.35,3.35,0,0,1,1.77-.78l0,0a1.12,1.12,0,0,1,1.24,0h0a3.79,3.79,0,0,1,2.77,1.77l0,0A.32.32,0,0,1,56.43,44.07Z" style="fill:#7c7a98"/><path d="M39.28,58.19a3.45,3.45,0,0,0-.26-.28c-.26-.46-.69-.79-1-1.23l-.27-.28c-.18-.39-.6-.62-.69-1.07a1.84,1.84,0,0,1,.3-1.09.71.71,0,0,1,.85-.23,3.23,3.23,0,0,0,2,1.19c.75.31,1.2,1,1.86,1.42a.66.66,0,0,0,.84,0c.72-.23,1.2-.17.93.78-.48.84.27,1,.74,1.33a.55.55,0,0,1-.29.6c-1.2.18-2.44-.21-3.63.24A5.9,5.9,0,0,1,39.28,58.19Z" style="fill:#a4a3b8"/><path d="M1.62,48.9v-.48a5.16,5.16,0,0,1,1.74-2.05,3.61,3.61,0,0,0,1-1,6.88,6.88,0,0,1,2.47-2c.21-.22.47-.14.72-.11.46.6,0,1.1-.22,1.6a2.33,2.33,0,0,0,0,2.34c.45.71,0,1.25-.63,1.6a1.93,1.93,0,0,1-2-.22,1.48,1.48,0,0,0-2.41,0A.75.75,0,0,1,1.62,48.9Z" style="fill:#9b9ab0"/><path d="M43.55,57.41c.05-.22.34-.45.05-.66s-.54.07-.8.16c-.25-.61-.5.18-.76,0a6.18,6.18,0,0,1-1.75-1.51c-.52-.64-1.5-.69-1.89-1.5a1,1,0,0,1,.2-.86A2.09,2.09,0,0,1,40.23,52a1.67,1.67,0,0,1,.69.2l.23.09c.43.17,1.18,0,1.21.59s-.57,1.09-1.25,1.29a5.12,5.12,0,0,0,1.88-1c.31-.08.43.12.55.34l.19.23c.2.09.21.26.19.44a1.32,1.32,0,0,1-.19.29c-.23.4-1.14.73-.11,1.24.09.1.07.39.14.35,1.14-.62,1.26-.6,2.05.51,0,.56.6.75.83,1.17a.57.57,0,0,1-.3.58.66.66,0,0,1-.69-.16c-.38-.56-.75-.32-1.16-.08C44.16,57.83,44.08,57.26,43.55,57.41Z" style="fill:#ababbd"/><path d="M1.66,57.75c-.1-.94.63-.27.93-.47,1.08-.71,2.4-.83,3.55-1.37.83.15,2-.55,2.25,1l-.05.25a2.19,2.19,0,0,0-.81.92,1.19,1.19,0,0,1-.76.55l-.65.3a5.94,5.94,0,0,1-2.75,0h0a4.44,4.44,0,0,1-1-.44C2.11,58.23,1.71,58.17,1.66,57.75Z" style="fill:#7c7a98"/><path d="M34.76,48.87a3.39,3.39,0,0,1-.5-2.26c0-.5.29-.43.55-.25a4.41,4.41,0,0,1,.93,1.09c-.48-1.25-1.82-1.65-2.6-2.61.09-.45.42-.57.82-.62a2.09,2.09,0,0,1,1.45.7c.34.74,1.15.81,1.73,1.2a1.69,1.69,0,0,1,.6.82l.41.46c.55.74,1.68,1.05,1.67,2.22-1.16.41-2.24.81-3.32-.35C36.19,48.93,35.29,49.3,34.76,48.87Z" style="fill:#5c5b7f"/><path d="M31.25,41.33c-.61,0-1.19,0-1.29-.81-.06-.51-.51-.63-.93-.68a1.35,1.35,0,0,1-1.24-1.36c0-1.73-1.28-2.23-2.55-2.64-1.1-.36-2-1.14-3.27-1.18a.57.57,0,0,1-.52-.61c1,.11,1.15-.89,1.7-1.37.29,0,.42.17.55.38h0a6.64,6.64,0,0,1,2.24,1.87l3.6,3.65a2.79,2.79,0,0,1,1,1l0,.09c.29.25.2.75.67.92S31.49,41,31.25,41.33Z" style="fill:#85849f"/><path d="M39.84,34.41,41,33.07c.67-.34,1-1.2,1.77-1.36.33.17.6.68,1.06.23a4,4,0,0,1,2.2-.74c.3.73,1.17.8,1.6,1.38.09.44-.14.64-.54.61-.73,0-1.46.28-2.2,0-.49-.22-1.17.13-1.17.41,0,1.13-.78,1-1.48,1.19s-.58.58-.37,1.07.51.87.09,1.25-.77,0-1.12-.22-.57.09-.85,0C39.4,36.09,40,35.22,39.84,34.41Z" style="fill:#45436c"/><path d="M38.32,35.92a2.68,2.68,0,0,1,1.24-1.29c.49,1.42.06,2.85-.07,4.26a4.57,4.57,0,0,1-.5,2,.53.53,0,0,1-.28.25c-.46-.08-.41-.45-.44-.77s.11-.82-.35-1-.57.47-1,.64c1.14.67,1.29,1.42.59,2.57-.77-.24-1-1-1.31-1.56s-.72-1.12-1.06-1.7c.28-.94,1.09-1.4,1.77-2C38.15,37.6,37.91,36.45,38.32,35.92Z" style="fill:#9393aa"/><path d="M17.68,64.44c-.07.4-1.23-.81-.71.48,0,0,0,.12-.07.19-.82-.66-1.61.55-2.42,0-.27-.18-.63-.31-.78,0-.42.72-.78.75-1.42.22-.32-.27-.61.18-.6.53,0,.64-.19,1.37.94,1.81-1.49-.11-1.68-.36-1.58-1.44,0-.45-.28-.57-.68-.39s-.78.4-1-.21c0-.43.38-.62.53-1,.16-.14.24-.41.53-.36a26.22,26.22,0,0,1,3.11-.4,12.87,12.87,0,0,1,2.94-.47C17,63.7,17.63,63.69,17.68,64.44Z" style="fill:#6b6a8a"/><path d="M24.46,55.65c-.75-.38-1.72-.62-.93-1.84.17-.26-.38-.49-.53-.76s-.92-.24-1-.81a2.67,2.67,0,0,1,1-1.15c.14-.11.22-.35.48-.23l.51.29c.47.39,1.18.51,1.31,1.25-.82.93.25,1.27.58,1.84s1.16.56,1.47,1.18a.91.91,0,0,1-.81.81C26,55.4,25.13,55.91,24.46,55.65Z" style="fill:#a2a1b6"/><path d="M16.42,63.69c-.88-.16-1.29.3-1.37,1.37-.72-1.25-1.47-1.36-2.32-.51-.08.09-.16.19-.25.28-.59-.55-1.44,0-2.05-.5l.22-.41a6.24,6.24,0,0,1,1.91-1.78c.53.14,1.1-.09,1.64.28s.65-.3,1-.48C15.51,62.58,16.28,62.91,16.42,63.69Z" style="fill:#5f5e81"/><path d="M51.84,4.41A14.63,14.63,0,0,1,50.37,3a2,2,0,0,0-2.49-.26,8,8,0,0,1-.74.44c-.35.12-.64,0-.7-.42s0-.62.46-.65,1.16.2,1.68-.22,1.24.05,1.81-.26l.45,0a13.54,13.54,0,0,1,2.7-.11c.86.31.52.75.1,1.14s-.73.36-.93.76S52.57,4.48,51.84,4.41Z" style="fill:#8c8ba5"/><path d="M44.3,59.17l.25-.5.15-.11a2.41,2.41,0,0,1,1.21,3.22c-.15.3-.21.26.11.44.69.39,1.32.9.69,1.83-.31,0-.63.11-.91-.13a4.3,4.3,0,0,1-2-1.24,4.68,4.68,0,0,1-1.31-1.35c.17-.41.51-.38.83-.27a1.54,1.54,0,0,0,1.41-.27C44,60.41,43.54,59.94,44.3,59.17Z" style="fill:#9d9cb2"/><path d="M68.16,2.41c-.46-.33-1.14.69-1.5-.25A1.5,1.5,0,0,1,67.41.32c.43-.13.89.07,1.31-.16l.46,0a29.83,29.83,0,0,1,5.51,0l.44.05a.17.17,0,0,1,.12.25c-.08.1-.18.22-.28.21-1-.05-.8.54-.66,1.12a1.5,1.5,0,0,1-.9,1c-.42.09-.64-.19-.86-.47-.29-.46-.81-.51-1.25-.71s-.94-1-1.72-.78C69,1,68.84,1.9,68,1.6c0,.24.36.38.23.67A1.71,1.71,0,0,0,68.16,2.41Z" style="fill:#9190a9"/><path d="M46.32,58.17l.24-.51a.26.26,0,0,1,.12-.3.34.34,0,0,1,.29.17c.23.55-.07,1-.23,1.51.26-.58.81-.62,1.31-.75.42,0,.58.36.76.67l.94,2c.37.39.23.81.07,1.24-.4.36-.25,1.16-1,1.25-1.34-.47-1.5-.8-1-2a3.1,3.1,0,0,0,.21-.58c.07-.49,0-.93-.61-.53s-1,.21-1.3-.38A1.63,1.63,0,0,1,46.32,58.17Z" style="fill:#9393aa"/><path d="M49.6,71.42a.17.17,0,0,0,0-.2,1.2,1.2,0,0,1-.07-1c1.27-.76,2.09-.66,3,.54a4.12,4.12,0,0,1,1,2.21C52,73.94,50.36,73.27,49.6,71.42Z" style="fill:#706e8e"/><path d="M44.3,59.17c-.18.88-.2.91.53,1.23.39.18.18.37.07.51a1.16,1.16,0,0,1-1.47.5c-.31-.15-.57-.34-.87,0-.07.17-.15.18-.27.05l-1.73-1.74q-.23-.16,0-.27C41.77,58.54,43.06,59.18,44.3,59.17Z" style="fill:#ababbd"/><path d="M54.6,25.52c.87-1.23,1.62-1.23,2.8,0-.37,1-1.26,1.47-1.91,2.19A4.21,4.21,0,0,0,54.33,29c-.1.26-.23.46-.55.43-.66-.43-.18-1-.19-1.52C53.89,27.08,54.31,26.33,54.6,25.52Z" style="fill:#85849f"/><path d="M6.38,37.82A1.94,1.94,0,0,1,6.11,36c.26-.68-.34-.53-.59-.65s-.88-.29-.84.27c.07.87-.68,1.07-1.09,1.22s-.65-.61-1-1l-.25-.27.48-.28c1.81-1.39,2.93-1.54,4.38-.61a1.38,1.38,0,0,1,.77.91C6.78,35.83,6.8,37,6.38,37.82Z" style="fill:#9393aa"/><path d="M52.34,3.16c.29-.72,1.7-.32,1.51-1.51.14-.17.38-.1.54-.24l.47,0a1.83,1.83,0,0,1,1.5.05c0,.19,0,.49-.15.56-.59.39-1.65.73.06,1a.62.62,0,0,1,.49.64c0,.35-.38.26-.52.44-.27.34-.45.14-.7-.05-.7-.54-1.43-1.16-2.19-.06.06.42-.24.38-.5.4C52.2,4.14,52.67,3.48,52.34,3.16Z" style="fill:#9695ac"/><path d="M68.67,9.45a6.5,6.5,0,0,1-3.46-.75c-.17-.12-.15-.2,0-.24l1.16-1.29c.39-.4.58-1,1.28-1a.73.73,0,0,1,.16.3c-.11,1.18,1,1.28,1.6,1.81,0,.51-.36.79-.64,1.13Z" style="fill:#9190a9"/><path d="M8.88,66.18c-.17.51-.33,1-.5,1.52-.16.17,0,.5-.15.58-1,.65-1.05,1.67-1.1,2.69h0A5.39,5.39,0,0,0,5.9,73c-.64.08-.23-.59-.53-.75-.45-.72,0-1.32.26-1.94a8.56,8.56,0,0,1,2-2.9c.26-.32.53-.64.77-1l.24-.27C8.72,66.07,8.8,66.08,8.88,66.18Z" style="fill:#9897ae"/><path d="M38.77,41.08a54.08,54.08,0,0,0,.79-6.45c0-.14.1-.26.28-.22.13.24.75.21.42.67s-.13,1.16-.22,1.74a.33.33,0,0,1,0,.5c.21,1.1-.32,2.15-.28,3.25a.84.84,0,0,0,.44.77c-.27.48-.92,0-1.17.5,0,.21-.14.31-.29.14A.64.64,0,0,1,38.77,41.08Z" style="fill:#3d3c67"/><path d="M77.94,4.12a3.87,3.87,0,0,0-.5,1.55c-1,.36-1.14-.63-1.69-1a2,2,0,0,1-.24-.26c-.7-1.25-.61-1.65.74-1.85.77-.11.28-.76.67-.94.85.07.76.84,1,1.35Z" style="fill:#a4a3b8"/><path d="M40.29,52.14a4.28,4.28,0,0,0-1.52,1,12.19,12.19,0,0,1-2,1.33.88.88,0,0,1-.5.12L36,54.4c-.17-.49-.92-.65-.76-1.33,1.39-.4,2.39-1.55,3.76-2C39.21,51.72,40.16,51.43,40.29,52.14Z" style="fill:#7e7d99"/><path d="M46.32,59.92c.29.27.57.71,1,.1a.65.65,0,0,1,1-.22c.39.21.24.54.14.86s0,.49-.08.6c-1.06,1.05-.18,1.59.54,2.18a1.23,1.23,0,0,0,0,.19,1.12,1.12,0,0,1-1.28.36,11.12,11.12,0,0,1-1.4-3.15A.79.79,0,0,1,46.32,59.92Z" style="fill:#9695ac"/><path d="M17.68,31l-1.82-.29a.34.34,0,0,1,.07-.46h0a1.93,1.93,0,0,1,.75-.75h0a2.5,2.5,0,0,1,2.25-.27c.47.4,1.17.44,1.53,1a.63.63,0,0,1-.3.16c-.32,0-.67-.06-.86.3C18.89,31.55,18.29,31.33,17.68,31Z" style="fill:#9393aa"/><path d="M24.46,55.65c.79-.15,1.79-1,2,.61.12.15.08.28-.08.38a1.59,1.59,0,0,0-.7.77.15.15,0,0,1-.21.07l-.5-.93c-.45.27-.64,1.11-1.34.66a.9.9,0,0,1-.37-1.07C23.46,55.3,24.08,55.8,24.46,55.65Z" style="fill:#b5b4c5"/><path d="M20.19,30.29h.27l.67.28a6.4,6.4,0,0,1,2.17,2.19c-.11.16-.31.32-.31.48,0,1.18-.65,1.26-1.54.82h0a3.71,3.71,0,0,0-1.09-2.95A.72.72,0,0,1,20.19,30.29Z" style="fill:#8f8ea7"/><path d="M53.85,27.75c.19.51-.4,1,0,1.52.18.33-.1.38-.29.49l-.47.46c-.16.35-.35.67-.8.67-.58-.22-.66-.72-.7-1.24a1.21,1.21,0,0,1,.06-.38,1.34,1.34,0,0,1,.3-.48C52.53,28.37,52.74,27.23,53.85,27.75Z" style="fill:#8887a1"/><path d="M67.42.43c-.61.42-.34,1.22-.76,1.73-.57.28-1.25.48-1.38-.36S64.53.87,63.85.88c-.05-.11,0-.18.1-.21l.45,0C65,.35,65.63.7,66.2.41a.26.26,0,0,0,.21,0A.87.87,0,0,1,67.42.43Z" style="fill:#a4a3b8"/><path d="M51.84,29.56a1.48,1.48,0,0,0,.48,1.22c.16.11.15.18,0,.24l-.47.46c-.1.25-.24.44-.55.39a2.13,2.13,0,0,1-1.38-1.68c0-.43.06-.76.56-.83C50.9,29.5,51.42,29.17,51.84,29.56Z" style="fill:#85849f"/><path d="M74.19,1.65c-.08-.51-.45-.78-1-.95.74-.59,1.48,0,2.09-.32.44-.21.71,0,1,.37l.5.41a.37.37,0,0,1,.11.47c-.42.38-.91.65-1.38.2S74.53,2.09,74.19,1.65Z" style="fill:#8c8ba5"/><path d="M5.83,73.05c0-1,.14-1.84,1.3-2.07-.08,1-.17,2-.26,3a.37.37,0,0,1-.49,0l-.28-.26C5.9,73.55,5.64,73.39,5.83,73.05Z" style="fill:#807f9b"/><path d="M66,16.68c-1.59-.65-2.74.2-3.85,1.14a1.39,1.39,0,0,1-.7.45c.07-.89.92-1.31,1.24-2.05a5.18,5.18,0,0,1,3.83-.17.36.36,0,0,1-.1.4l-.24.23-.09.17Z" style="fill:#666587"/><path d="M50.08,30.28c.24.65.82,1,1.25,1.49.16.35-.11.4-.33.49l-.43.28a.83.83,0,0,1-.84.17c-.41-.21-.29-.7-.53-1a1.78,1.78,0,0,1,.56-1.45A.27.27,0,0,1,50.08,30.28Z" style="fill:#616083"/><path d="M41,2.4l.51-.26a.87.87,0,0,1,.74-.06c.49.62.47,1.46,1,2.08.33.37,0,.66-.52.65a1.68,1.68,0,0,1-1.63-1.65c0-.24.09-.5-.09-.71Z" style="fill:#9695ac"/><path d="M45.56,56.66c-.33-.83-.77-1.3-1.58-.45-.13.14-.29.22-.42.12s0-.45,0-.68c-.42-.58-.11-1,.24-1.5l.08-.06c.6.14.87.64,1.17,1.1l.77,1C46,56.46,46,56.66,45.56,56.66Z" style="fill:#ababbd"/><path d="M48.53,34.76l-.22,0a1.59,1.59,0,0,1,1.27-2.2h1l-1,1.18a13,13,0,0,0-1,1.07Z" style="fill:#8f8ea7"/><path d="M38.32,35.92c.43.66-.07,1.3-.26,1.83s-.68-.35-1.13-.23a1.31,1.31,0,0,1,.36-.71C37.6,36.48,37.81,36,38.32,35.92Z" style="fill:#9f9fb4"/><path d="M31.25,41.33l-.06-.49c-1.19.16-.68-.69-.72-1.21l1.44,1.23a.23.23,0,0,1,.16.21.42.42,0,0,1-.33.27Z" style="fill:#8c8ba5"/><path d="M46.29,56.41c.15.33.58.49.57.92l-.3.33c-.41-.26-1.13-.21-1-1a.53.53,0,0,0,.25-.5Z" style="fill:#b7b7c7"/><path d="M36.27,54.59l.25-.2a.89.89,0,0,1,1,0l-.27,1.06c-.26.08-.34-.16-.48-.28S36.3,54.9,36.27,54.59Z" style="fill:#b3b2c3"/><path d="M49.86,7.2c0,.07-.07.13-.1.19l-.43,0-2,0c.73-1,1.6-.62,2.47-.25Z" style="fill:#9695ac"/><path d="M7.42,58a1,1,0,0,1,.92-.85l-.48.64C7.79,58,7.62,58.05,7.42,58Z" style="fill:#85849f"/><path d="M32,41.11l.56.53c.68.81,1.92,1.3,1.5,2.71l-.76.5c-.16.3-.27.67-.75.51h0c-1-.87-1-2.12-1.26-3.26l.5-.75Z" style="fill:#747392"/><path d="M20.19,30.29A6.13,6.13,0,0,0,21.45,32c.92.66,0,1.4,0,2.1,0,0-.1,0-.11,0a5.51,5.51,0,0,0-3.66-3c.53-.08,1.32.54,1.39-.72C19.11,29.73,19.79,30.15,20.19,30.29Z" style="fill:#85849f"/><path d="M67.9,14.72a6.45,6.45,0,0,1-1.47,1.48l-3.79,0c-.54-.53-1.29-.31-1.9-.35A2.2,2.2,0,0,1,59.11,15c1.76-2.08,3.8-3.89,5.73-5.79.41.08.91.11,1,.59s-.56.31-.8.54c-.51.46-.63,1,0,1.42a13.48,13.48,0,0,1,2.63,2A2.21,2.21,0,0,1,67.9,14.72Z" style="fill:#7c7a98"/><path d="M53.85,27.75c-1-.13-1.12.93-1.77,1.27-.4-.33-.85-.59-1.28-.89a1.12,1.12,0,0,1-.2-.33,10.52,10.52,0,0,1-.28-1.68c0-.45,0-.91.54-1.09a8.64,8.64,0,0,1,3.74.49C55,26.48,54.22,27.05,53.85,27.75Z" style="fill:#4e4d74"/><path d="M50.86,25c-.69,1,.24,2,0,3a.64.64,0,0,1-.64.19,2.19,2.19,0,0,1-.33-.12c-.71-.5-1.73-.35-2.33-1.09l3-3C50.77,24.32,51.11,24.59,50.86,25Z" style="fill:#535178"/><path d="M61.38,18.48c-.36.95-.74,1.85-2,1.77-.56,0-.81.54-1.25.75a.34.34,0,0,1-.5,0c.12-.85.53-1.42,1.48-1.24C60.24,20,60.61,18.88,61.38,18.48Z" style="fill:#616083"/><path d="M57.62,21h.5c-.13.21-.21.55-.39.61-1.31.45-1.12,1.41-.87,2.4-1-1.14-1-1.47.1-2.33A8.64,8.64,0,0,0,57.62,21Z" style="fill:#31305d"/><path d="M7.13,71A2.35,2.35,0,0,0,7,70.15c-.49-.77-.26-1.24.55-1.48.51-.15.58-.65.88-1A6.43,6.43,0,0,0,8.44,69C8.77,70.25,8.51,70.69,7.13,71Z" style="fill:#85849f"/><path d="M18.48,64.27l-.21.22-.59,0a4.13,4.13,0,0,0-1.26-.75c-.5-.53-1.35-.8-1.25-1.75h.75a3,3,0,0,1,1.76,1.5C17.9,63.76,18.36,63.84,18.48,64.27Z" style="fill:#727190"/><path d="M50.84,48.37c-.5,0-.78-.21-.51-.75Z" style="fill:#7c7a98"/><path d="M35.17,53.19A4.61,4.61,0,0,1,34,51.91c0-.2,0-.53.11-.58,1.26-.56.91-1.52.65-2.46.75.11,1.44-.11,2.22.57a2.75,2.75,0,0,0,2.82-.09L41,50.63a.21.21,0,0,1,.09.19c0,.07,0,.1-.05.1-.68.17-1.41-.3-2,.21C37.84,52,36.79,53.13,35.17,53.19Z" style="fill:#6b6a8a"/><path d="M29.43,53.38a.62.62,0,0,1,0,.19c-.86.45-1.34,1.35-2.12,1.88-.51-.36-1.23-.42-1.57-1.05a.88.88,0,0,0,0-.16A2.55,2.55,0,0,1,25.85,53l.13-.11A11.88,11.88,0,0,1,29.43,53.38Z" style="fill:#9190a9"/><path d="M32.5,45.36l.75-.51a5.37,5.37,0,0,1,3,2.84c.08.2.26.37,0,.52s-.34-.15-.5-.31c-.44-.47-.54-1.37-1.46-1.29-.21,0-.41,0-.61,0C32.64,46.76,32.19,46.41,32.5,45.36Z" style="fill:#666587"/><path d="M25.22,52.38C24.89,51.88,24,52,24,51.15c.25-.37.56-.18.89-.11a11.64,11.64,0,0,0,1.46.15c.36,0,.65-.7.94-.29s-.24.78-.52,1.12l-.74.83v.08a.33.33,0,0,1-.29,0A.83.83,0,0,1,25.22,52.38Z" style="fill:#616083"/><path d="M17.68,63.44c-.56-.53-1.35-.79-1.76-1.5.48-.21,0-1.15.76-1.09a3.88,3.88,0,0,1,2.11,1.2c.26.22,0,.65-.34.81S17.82,63.09,17.68,63.44Z" style="fill:#616083"/><path d="M23,59.93a3.11,3.11,0,0,1-1,1,2.61,2.61,0,0,1-1.58-1.91C21.47,58.68,22,60,23,59.93Z" style="fill:#777694"/><path d="M19.37,55.09l.24-.25a.85.85,0,0,1,.81,1.09C20.1,55.61,20,55.08,19.37,55.09Z" style="fill:#9695ac"/><path d="M21.45,58.41l.78,0C21.93,59.19,21.69,58.8,21.45,58.41Z" style="fill:#8a89a3"/><path d="M54.86,55.92c-.5,0-.53-.4-.53-.77C54.76,55.23,55.3,55.24,54.86,55.92Z" style="fill:#4e4d74"/><path d="M54.85,6.89,53.64,7c-.49-.27-1.49.11-1.3-1a1.37,1.37,0,0,1-.23-1.16c.09-.39.41-.49.74-.59a.53.53,0,0,0,.5-.25,1.24,1.24,0,0,1,.56,1.43c-.1.36-.24,1.26.8,1C54.86,6.32,54.84,6.69,54.85,6.89Z" style="fill:#8887a1"/><path d="M65.15,2.66l1.31.89c.28.2.77.28.58.78s-.59.49-1,.35a1.48,1.48,0,0,0-.37,0v-.5c-.29-.25-.43-.79-1-.5h0C64.37,3.1,64.73,2.86,65.15,2.66Z" style="fill:#8c8ba5"/><path d="M64.65,3.66c.73-.61.93-.17,1,.5C65.2,4.24,64.66,4.47,64.65,3.66Z" style="fill:#9190a9"/><path d="M65.15,2.66c-.14.34-.54.56-.5,1H64.4C64.6,3.29,63.88,2.22,65.15,2.66Z" style="fill:#9190a9"/><path d="M49.8,7.14c-.82.15-1.69-.19-2.47.25l-3,0A3.05,3.05,0,0,1,46,4.76c1.42-.78,2.92-.52,3.58,1.06A2.15,2.15,0,0,1,49.8,7.14Z" style="fill:#8a89a3"/><path d="M42.3,2.18l3.26,0c0,.07-.05.18-.11.22-1.12.76-1.47,2.09-2.31,3.05a.93.93,0,0,1-1.6-.17c-.29-.67-.81-.81-1.59-1.19,1.19-.2,1.1-.94,1.13-1.63.18,0,.3.06.3.28,0,1.34.33,1.65,2.12,1.76A2.05,2.05,0,0,1,42.3,2.18Z" style="fill:#8c8ba5"/><path d="M52.34,4.66V5.92c-1-.8-1-.8-.5-1.25C52,4.67,52.17,4.49,52.34,4.66Z" style="fill:#8c8ba5"/><path d="M52.34,4.66c-.17,0-.33.28-.5,0V4.41c.59-.25.5-.77.5-1.25.41.22.1.79.51,1Z" style="fill:#9393aa"/><path d="M71.72,16.43V12.2c.61-.47,1.16-1.41,2-.25,1-.11,1.43.63,2,1.18-.25-.89-1-1.14-1.76-1.43,0-.17,0-.33,0-.49,0-.39-.71-.67-.31-1.08s.59.3,1,.3,1,.07,1-.42c.22-1.37,1.12-1.25,2.09-1.07a18.65,18.65,0,0,1,.22,4.78c-.13.25-.09.61-.35.77-1.59.92-3,2.23-5,2.3A1.07,1.07,0,0,1,71.72,16.43Z" style="fill:#7e7d99"/><path d="M75.71,8.2l-.51.23a.72.72,0,0,0-.91.05,4.5,4.5,0,0,1-2.51.82c-.91-.87-.42-1.69.08-2.51a.61.61,0,0,1,.86-.26c.49.36.94,0,1.41.06S74,8,75,7.15a.62.62,0,0,1,.61-.32c.51.31.46.75.29,1.22Z" style="fill:#9695ac"/><path d="M75.45,6.92a.52.52,0,0,0-.25.5c-.74.35-1,.11-.78-.65a1.91,1.91,0,0,1,.43-.71L75,5.77c.38-.39.24-.92.38-1.38a.2.2,0,0,1,.29,0H76a41.85,41.85,0,0,0,1.74,4v.26a6.39,6.39,0,0,1-2-.49v0C75.77,7.73,76.21,7.2,75.45,6.92Z" style="fill:#83829d"/><path d="M73.94,11.7c1.16-.39,1.66.64,2.39,1.14.21.14-.08.44-.27.61a.57.57,0,0,1-.79,0A3.79,3.79,0,0,0,73.68,12Z" style="fill:#514f76"/><path d="M71.68,9.19c.89-.28,1.87-.23,2.64-.9a.6.6,0,0,1,.88.14c-1.46.38-2.73,1.26-4.31,1.36a5,5,0,0,1-2.22-.34v0a1.43,1.43,0,0,1,.93-.31A4.08,4.08,0,0,0,70.75,9,1,1,0,0,1,71.68,9.19Z" style="fill:#8f8ea7"/><path d="M67.9,14.72c-.52-.23-.49-.6-.24-1,.57-.33.8-.14.75.48Z" style="fill:#646285"/><path d="M72,29.79c0-.17,0-.34,0-.51a18.89,18.89,0,0,0,3.81-.67A2.47,2.47,0,0,1,78.2,29c0,.14,0,.29,0,.44s0,.33,0,.49c-.07.4.19,1.11-.52,1a.93.93,0,0,1-.76-1.23c.21-.57-.06-.82-.43-.64-.54.28-1.23.09-1.58.38A2.58,2.58,0,0,1,72,29.79Z" style="fill:#403e69"/><path d="M78.24,32.35a.15.15,0,0,1,0,.19c-.3-.06-.74.18-.86-.25s.27-.51.54-.54C78.39,31.67,78.12,32.15,78.24,32.35Z" style="fill:#403e69"/><path d="M68.91,3.92a1.33,1.33,0,0,0-.26-.39c-.48-.42-.61-.68-.49-1.12h0a16,16,0,0,1,1.3-1.3.81.81,0,0,1,.91-.2c.38.17.37.49.3.83s.06.92-.26,1.3S69.34,3.5,68.91,3.92Z" style="fill:#9190a9"/><path d="M68.91,3.92c-.2-1.11,1-.41,1.27-1a.57.57,0,0,1,.2.44,1.27,1.27,0,0,1,0,.34,1.09,1.09,0,0,1,0,.17,3.8,3.8,0,0,1-.55,1.08,2,2,0,0,0-.3.66c-.32,1.21-.55,1.31-1.77.82V6.15l.25-.23c.41,0,.83-.19.63-.66S68.69,4.33,68.91,3.92Z" style="fill:#8f8ea7"/><path d="M8,35.8a2.83,2.83,0,0,1-.09,3.27,1.41,1.41,0,0,1-1.48-1.25,8.26,8.26,0,0,1,.07-1.21C6.4,35.69,7.05,35.37,8,35.8Z" style="fill:#8a89a3"/><path d="M9.65,49.62l0,.76a1.09,1.09,0,0,0-.93.73c-.11.24,0,.73-.37.65A1.19,1.19,0,0,1,7.4,51c-.59-1.61-1.28-1.94-2.93-1.44a.68.68,0,0,1-.7-.06,1.3,1.3,0,0,0-1.51-.12c-.26.23-.55.56-.14.81a4,4,0,0,0,1.8.77c1,0,2-.14,2.38,1.14,0,.16.41.22.62.35.43.25.66.54.19,1l-.48-.27a3.51,3.51,0,0,0-3.15-1.53c-1.7,0-2.36-1-1.86-2.71l.58-.49c1.2-1.1,1.56-1.15,2.79,0,.57.54,1.11.08,1.64.22A9.51,9.51,0,0,0,9.65,49.62Z" style="fill:#807f9b"/><path d="M60.93,54.11a.59.59,0,0,1,.23.52c-.18.23-.37.69-.68.29S60.59,54.29,60.93,54.11Z" style="fill:#686789"/><path d="M46.84,36.11l-.25.24c-.19-.3-.49-.28-.78-.29s-.78,0-.59-.61-.3-1.07-.77-1.25-.52.46-.76.74a5.11,5.11,0,0,1-.83.62c.42.21.82.38,1.18.6s.86.12.7.69a1.14,1.14,0,0,1-.93.73c-.79.22-1.93-.13-2.14,1.23,0,.13-.9.09-.75-.35.33-1-.47-.86-.88-1.14v-.5c.71-1.46,1.18.29,1.77.17.3-.32.06-.6-.05-.82-.64-1.39-.38-1.84,1.16-1.94.16,0,.32.33.5,0s0-.38-.24-.45-.25-.32-.11-.32c.79,0,1.12-1.42,2.27-.57a2,2,0,0,0,2.23-.36c.42-.44-.37-.9,0-1.34a14,14,0,0,1,2.23-.92c-.16.5-.33,1-.5,1.5a2.33,2.33,0,0,1-1.74,1.82c-.57.11-1.08.37-1.63.51C46,35,47.13,35.21,46.84,36.11Z" style="fill:#4e4d74"/><path d="M41,41.83a10.6,10.6,0,0,1-2.48,2.52c-.78-.07-.76-.7-.88-1.24.29-.67.32-1.45.9-2l.22,0c.13.24-.23.64.26.76Z" style="fill:#4c4a72"/><path d="M42.54,40.33a3,3,0,0,1-1.26,1.22c-.26-.39-.58-.63,0-1.18S42.1,40,42.54,40.33Z" style="fill:#4c4a72"/><path d="M38.51,53.88c.44.68,1.75.35,1.78,1.52-1,0-1.8-.13-2-1.27C38.23,53.93,38.31,53.84,38.51,53.88Z" style="fill:#b5b4c5"/><path d="M43.55,57.41c.56-.29.77.14,1,.5.47.25.34.5,0,.76h0C43.38,58.76,43.19,58.53,43.55,57.41Z" style="fill:#ababbd"/><path d="M38.51,53.88l-.25.25c-.27,0-.56,0-.74.26h-1a6.47,6.47,0,0,1,2.25-1.25Z" style="fill:#9393aa"/><path d="M42,56.91a2.13,2.13,0,0,1,.26-.26c.22-.18,0-.84.53-.62s-.12.57,0,.88C42.55,57.23,42.3,57.23,42,56.91Z" style="fill:#ababbd"/><path d="M9.65,49.62c-1.09.36-2.74-.19-3-1,.67-.4,1-.86.33-1.57s-.24-1.33,0-2,.46-1.13.7-1.69c1.69-.1,2.38.39,3.21,2.26a4.54,4.54,0,0,1-.45,2.23c-.1.36-1,.4-.42,1Z" style="fill:#7c7a98"/><path d="M44.56,58.67a.7.7,0,0,0,0-.76c.43-.26.28-.76.42-1.19.35.63.58,1.29,1.34,1.45,0,.58-.23,1.17,0,1.75,0,1.48,1,2.62,1.25,4h-.75c0-1.07-.72-1.54-1.65-1.82C46.27,61.29,45.9,59.35,44.56,58.67Z" style="fill:#a4a3b8"/><path d="M39,51.13c.5-1.16,1.26-.51,2-.28a1.21,1.21,0,0,0,1.06,1h0c-.13.88-.71.67-1.26.51l-.5-.25C40,51.66,38.64,52.48,39,51.13Z" style="fill:#8887a1"/><path d="M40.79,52.39c.49,0,1,.08,1.26-.51l.47.28.58.9a2,2,0,0,1-3.08.79c1,.09,1.87,0,2.11-1C41.76,52.42,41.12,52.88,40.79,52.39Z" style="fill:#9695ac"/><path d="M43.79,54.15l-.24,1.5H42.22C43,55.31,43,54.24,43.79,54.15Z" style="fill:#a4a3b8"/><path d="M37.78,43.12c.27.4.34.91.75,1.23a4.09,4.09,0,0,1-1.24,1.31,1.85,1.85,0,0,0-2-.56c-.29-.48-.93-.35-1.26-.75-.09-1.13-1.28-1.65-1.5-2.71a6.19,6.19,0,0,0,2.27-2.3l.43-.06c1.19.81,1.51,2.23,2.31,3.32C37.74,42.7,38,42.82,37.78,43.12Z" style="fill:#666587"/><path d="M35.27,45.1c1-.82,1.5-.68,2,.56-.09.23-.17.46-.25.69C36.5,45.86,35.41,46.15,35.27,45.1Z" style="fill:#747392"/><path d="M42.76,31.72A1.75,1.75,0,0,1,43.5,31c.38-.09.85.12,1-.54s.68-.71,1.21-.3c.27.32.68.61.34,1.12-.14.27-.32.54-.67.4a1,1,0,0,0-1.22.39C43.39,33,43,32.64,42.76,31.72Z" style="fill:#363561"/><path d="M46.06,31.29c0-.44-.36-.66-.5-1a.74.74,0,0,1,1.2.27c.18.33.52.35.72.59l.09.15c.16.42.8.84,0,1.26C46.83,32.41,46.09,32.28,46.06,31.29Z" style="fill:#3b3965"/><path d="M37.78,43.12l-.26-.52c.15-.91.58-1.87-.75-2.35-.36-.13,0-.23.15-.35.3-.31.08-1.11.89-.93.43.1.83.26.83.79s-.06.91-.09,1.36A3.74,3.74,0,0,1,37.78,43.12Z" style="fill:#9897ae"/><path d="M78.2,29a3.29,3.29,0,0,1-.26.24c-1.29-1.12-2.54-.07-3.81.06-.72.07-1.45.43-2.17,0,0-.58,0-1.16-.08-1.74,1.39-.27,1.7-1.69,2.67-2.36-.09-.54-1-.28-.77-1,.18-.47,2-1.23,2.27-.91a15,15,0,0,0,2,2,18.94,18.94,0,0,0,.1,3C78.19,28.52,78.2,28.78,78.2,29Z" style="fill:#2f2d5b"/><path d="M72.65,16.49a10.86,10.86,0,0,0,5.27-2.77c0,.9,0,1.8.07,2.7-.52,1.32-.94,1.6-2.42,1.62-1-.23-1.77-1.07-2.82-1.2A.29.29,0,0,1,72.65,16.49Z" style="fill:#777694"/><path d="M77.69,8.43a5.77,5.77,0,0,1-1.74-4c.49.42.71,1.18,1.49,1.25A9.87,9.87,0,0,1,77.69,8.43Z" style="fill:#8f8ea7"/><path d="M75.41,17.75c1.25.31,1.84-.65,2.58-1.33a5.2,5.2,0,0,1,.15,2,.56.56,0,0,1-.37.13C77,18.39,75.88,18.93,75.41,17.75Z" style="fill:#706e8e"/><path d="M77.94,18.47h.2c0,3.27,0,6.54,0,9.81-.48-1.06-.08-2.19-.24-3.27a3.44,3.44,0,0,1-.35-2.07c0-1.06,0-2.13,0-3.19A1.72,1.72,0,0,1,77.94,18.47Z" style="fill:#403e69"/><path d="M25.22,52.38c.16.18.33.35.5.52a2.1,2.1,0,0,1,0,1.5h0c-.62-.13-.81-.74-1.12-1.14S24.56,52.36,25.22,52.38Z" style="fill:#aeadbf"/><path d="M70.17,3.41c0-.17,0-.34,0-.5.57-.42-.27-1.12.29-1.61.07-.06-.42-.35-.75-.08-.5.42-.79,1.11-1.55,1.18,0-.61-.44-.67-1-.71a6,6,0,0,0,2-1.06c.76-.74,1.59.19,2.25.77.3.44,1,.26,1.26.75.26.16.36.55.75.5,1.26-.1,1.63.72,1.83,1.74a.61.61,0,0,1-.49.2c-.88.15-1.56-.65-2.44-.51C71.8,3.27,70.84,3.81,70.17,3.41Z" style="fill:#83829d"/><path d="M75.2,4.41a2.69,2.69,0,0,0-1.76-1.76l.75-1c.85-.66,1.72.36,2.57,0a.32.32,0,0,1,.19.05L77.1,3a1.31,1.31,0,0,0-1.64.1c-.57.5.37.82.25,1.31h-.25A.17.17,0,0,1,75.2,4.41Z" style="fill:#9190a9"/><path d="M72.69,2.15c-.4-.28-1.15,0-1.26-.75C71.89,1.57,72.53,1.46,72.69,2.15Z" style="fill:#9190a9"/><path d="M46.82,57.39c.7,0,.93.55,1.3,1-.35.45-.91.45-1.48.73C46.71,58.45,46.76,57.92,46.82,57.39Z" style="fill:#8887a1"/><path d="M49.6,68.22l.45-.77a14.44,14.44,0,0,0,3-1.34.68.68,0,0,1,.6.07h0c.62.55.57,1-.21,1.29s-1,.67-.09,1.13a1,1,0,0,1,.54.81c0,.54.21.81.87.94,1.05.21.14.88.13,1.35-.43.52-.59,1.34-1.5,1.33-.25-.63-.61-1.22-.91-1.8a2.07,2.07,0,0,0-2.84-1Z" style="fill:#807f9b"/><path d="M77.92,23c0,.67,0,1.34,0,2a1.17,1.17,0,0,1-1.61-.89c-.3-1-.8-.74-1.37-.34-.32.23-.56.62-1.24.44a1.49,1.49,0,0,0,1.11.4c.49,0,.41.33.18.58-.69.76-1.77,1.25-1.81,2.49l-1.32-.14a41.84,41.84,0,0,1-.18-6.23c0-1.63,0-3.25,0-4.88l.93.06a1.94,1.94,0,0,1,0,.24c-.75,1-.2,2.17-.4,3.25,0,.59,0,1.17,0,1.76a.79.79,0,0,0,.53.77.65.65,0,0,0,.84-.36c.4-.83,1-.79,1.64-.4C76.13,22.23,77.23,22.17,77.92,23Z" style="fill:#282656"/><path d="M72.44,3.91c.16-.23.51-.35.62-.2.42.58,1.13.39,1.64.7a1,1,0,0,1,.5,1.51h0a2.87,2.87,0,0,1-1,.75c-.49.35-1,1-1.54.07,0-.06-.3,0-.46,0,.2.7-1.08.87-.6,1.64.16.28.26.5.09.79h-1c-.66.31-.82-.34-1.19-.61l-.07-.15c-.92-.37-1.92-.68-1.76-2,.66-.09,1.77.44,1.37-1.07-.08-.28.34-.53.64-.69.49-.17.29-.69.51-1h0c.84-.16,1.34.12,1,1-.22.67.13,1.5-.27,1.76A5.24,5.24,0,0,1,72.44,3.91Z" style="fill:#9897ae"/><path d="M69.67,9.44l-1,0a1.2,1.2,0,0,1,.75-1h0C69.81,8.69,70,9,69.67,9.44Z" style="fill:#9897ae"/><path d="M49.83,30.29a2.69,2.69,0,0,1-2.26,1h0c-.34-1-.73-1.89-2-2-.1,0-.12-.18-.05-.3l.72-.76a11,11,0,0,1,3,1.21c.37-.31.11-.69.13-1s.18-.64.63-.4h0a.65.65,0,0,0,1,0c.42.24,1,.33,1,1l-.24.26c-.42.1-.78.49-1.26.26-.53,0-.49.39-.5.74Z" style="fill:#3b3965"/><path d="M50.08,28c-.71.09-.38.51-.22.81s-.07.63-.26.87c-.33.41-.52,0-.71-.16C48.06,29,47,29,46.27,28.25A5.34,5.34,0,0,1,47.53,27C48.39,27.3,49.43,27.19,50.08,28Z" style="fill:#47456e"/><path d="M45.55,29c.4.43,1,0,1.61.69s.2,1.11.41,1.59c-.93.19-1-1.27-2-1-.45-.27-.85-.21-.86.36,0,1.45-.61.87-1.2.37Z" style="fill:#45436c"/><path d="M50.58,29.54l1.26-.26v.28C51.42,29.47,51,30.05,50.58,29.54Z" style="fill:#4e4d74"/><path d="M61.16,39.14l-.58.63c-1.37.44-2.68.62-3.72-.69.27-.34.71,0,1-.28-.53-.47-.76,0-1,.28l-.45-.29a5.2,5.2,0,0,1-.3-2.73,6.64,6.64,0,0,1,1.56-1.94c.88-.25,1.75-.64,2.66-.09a6,6,0,0,0,.56,3.35C61.13,37.93,61.47,38.49,61.16,39.14Z" style="fill:#83829d"/><path d="M61.16,39.14c-.27-1.3-1.1-2.41-1.22-3.75,0-.49-.37-1.09.39-1.36,1.84.87,2.27,2.15,1.52,4.51Z" style="fill:#494870"/><path d="M54.85,71.69c-.22-.33.93-1.76-.79-.93-.44.21-.46-.43-.45-.78,0-.67,0-1.24-.92-1.31-.33,0-.47-.35-.51-.63,0-.44.37-.45.63-.63s1.47-.23.8-1.24c.69.07,1,.72,1.45,1.07a6.37,6.37,0,0,1,.26,4Z" style="fill:#85849f"/><path d="M46.84,36.11c-.28-.9-1.48-1.27-1.42-2.4a4.46,4.46,0,0,0,3.91-1.92c.67.06.16.5.25.75a2.6,2.6,0,0,0-1.27,2.2Z" style="fill:#616083"/><path d="M10,48.89c-.4,0-.85-.16-.78-.61.12-.73.91.07,1.2-.41l0,.48Z" style="fill:#807f9b"/><path d="M42.06,51.87c-.73.05-1.71.35-1.06-1a.78.78,0,0,1,0-.22l.45.3Z" style="fill:#9d9cb2"/><path d="M53.62,66.18a2.24,2.24,0,0,0-.71.15c-.87.6-1.63,1.44-2.86,1.12l.08-.45.74-.76,1.26-.48C52.62,65.91,53.21,65.76,53.62,66.18Z" style="fill:#85849f"/><path d="M51.09,28a.47.47,0,0,1-.57.48c-.3,0-.41-.22-.44-.48h1Z" style="fill:#47456e"/><path d="M25.72,54.4V52.9l.25,0C25.89,53.42,26.16,54,25.72,54.4Z" style="fill:#a2a1b6"/><path d="M74.19,6.67c.19-.45.64-.54,1-.75,0,.4-.36.53-.52.82-.37.64,0,.69.52.68-.22.43-.54.67-1,.35S74,7.05,74.19,6.67Z" style="fill:#8f8ea7"/><path d="M75.45,6.92c.62.07.67.3.25,1.26C75.64,7.75,75.87,7.27,75.45,6.92Z" style="fill:#8f8ea7"/><path d="M75.2,5.92a3,3,0,0,0-.5-1.51h.76A1.07,1.07,0,0,1,75.2,5.92Z" style="fill:#8f8ea7"/><path d="M69.67,9.44a1.71,1.71,0,0,0-.25-1c.63-.09.68.77,1.26.76C70.41,9.55,70,9.4,69.67,9.44Z" style="fill:#9695ac"/><path d="M72.44,3.91c-.46.41.13,1.49-1,1.51-.25,0,0,.51,0,.79,0,.59-.2,1-.85,1-.29,0-.65,0-.73-.32s.24-.37.48-.44c1.19-.37,0-1.52.7-2.16.25-.23-.48-.49-.86-.59V3.41a1.91,1.91,0,0,0,1.71-.65C72.51,3,71.52,3.85,72.44,3.91Z" style="fill:#9190a9"/><path d="M70.18,3.66c-.05.4.17.92-.51,1Z" style="fill:#9190a9"/><path d="M8.54,48.84c0,.26-.26.27-.46.26s-.35-.07-.33-.28a.36.36,0,0,1,.4-.36C8.38,48.46,8.5,48.61,8.54,48.84Z" style="fill:#807f9b"/><path d="M71.94,20c0-.8,0-1.61,0-2.42,0-.54.12-.88.74-.82,1.17-.35,1.85.62,2.74,1,.68.82,1.77.18,2.53.72,0,1.5,0,3,0,4.51a12,12,0,0,1-2.72-1C74.62,20.51,73.36,20.12,71.94,20Z" style="fill:#1e1c4e"/><path d="M71.94,20c.81-.53,1.48.13,2.21.22,1.27.17.63,1.26,1,1.81-.55-.21-1.13-.56-1.3.45-.08.51-.52.63-1,.49s-1-.13-1-.86S71.94,20.68,71.94,20Z" style="fill:#232152"/><path d="M48.42,28.33c0,.28-.17.41-.4.36s-.65-.19-.68-.61c0-.21,0-.49.27-.45A1.25,1.25,0,0,1,48.42,28.33Z" style="fill:#535178"/><path d="M56.86,39.08c0-.43,0-.88.56-1s.65.31.91.57a.29.29,0,0,1,.06.44.77.77,0,0,1-.81.16l-.72-.2Z" style="fill:#686789"/><path d="M60.23,38.94a.4.4,0,0,1-.42.35c-.17,0-.36,0-.34-.26a.4.4,0,0,1,.41-.38A.34.34,0,0,1,60.23,38.94Z" style="fill:#686789"/><path d="M59.33,36.88A1.43,1.43,0,0,1,59,37c-.18,0-.29-.13-.19-.3a.34.34,0,0,1,.3-.09C59.16,36.65,59.22,36.77,59.33,36.88Z" style="fill:#666587"/></g></g></svg>