<svg xmlns="http://www.w3.org/2000/svg" viewBox="0 0 92.26 78.49"><g id="Ebene_2" data-name="Ebene 2"><g id="OBJECTS"><path d="M66.69,64.2l-.47.7A4.39,4.39,0,0,1,65.47,66h0a7.48,7.48,0,0,1-.77,1v0a.86.86,0,0,1-.53.51,6.43,6.43,0,0,0-2,.55c-1,.84-2.12.3-3.2.32a3,3,0,0,0-1.3.18c-1.54.62-3,1.4-4.8.65-.6-.26-1.22.2-1.84.26-.22,0-.42,0-.51-.29-.33-1.49-.2-3-.39-4.52,0-.91,0-1.82,0-2.73A1.79,1.79,0,0,1,52.76,60a2.94,2.94,0,0,0,1.32.16A1.66,1.66,0,0,1,56,61.84a4.16,4.16,0,0,0,.17,1.72c.32,1.06.08,2.19.31,3.26.5,0,.57-.39.8-.6l.23-.25c.35-.56.91-.94,1.26-1.5l.24-.26c.3-.45.73-.8,1-1.25l2.75-3.76a10.84,10.84,0,0,1,.79-1v0a8.88,8.88,0,0,1,1-1.28v0a5.4,5.4,0,0,1,.77-1h0c.28-.62.91-1,1.24-1.54l.24-.25a3.51,3.51,0,0,1,1.08-1.09,1,1,0,0,1,.66.29c.69.82,1.25,1.73,2,2.52a2.24,2.24,0,0,1,.4,2.53,3.18,3.18,0,0,1-1.78,1,2.41,2.41,0,0,0-1.39.72c-.77.91-.06,2-.33,3A2.43,2.43,0,0,1,66.69,64.2Z" style="fill:#777694"/><path d="M14.16,23.64c0-.37.25-.57.49-.79.26-.43.73-.73.8-1.28a.62.62,0,0,1,.36-.33,5.6,5.6,0,0,0,1.65-1.81,7.87,7.87,0,0,1,1.77-1.78c.47-.11.7-.48,1-.82l.22-.25c.23-.35.54-.63.74-1l1.1-1.49a1.35,1.35,0,0,1,1.41-.22,6.15,6.15,0,0,0,5-1,4.26,4.26,0,0,1,2.88.16,4.77,4.77,0,0,1,.37,2.64c-.66.17-.66.17-1-.79-.41,0-.63.4-1,.52a1.82,1.82,0,0,0-1.41,2.19c.19,1.1.32,2.23,1.72,2.61a1.62,1.62,0,0,1,1.05,2.12,2.9,2.9,0,0,0,0,1.84c.33.83-.15,1.37-.76,1.79a1.36,1.36,0,0,1-1.82-.25,2.91,2.91,0,0,0-1.44-.94c-.51.8-.13,1.67-.23,2.49-.08.59.15,1.25-.39,1.74-.6-.2-.31-.7-.32-1.06,0-2,0-3.93,0-5.89a3.8,3.8,0,0,0-.06-1.12c-.09-.31,0-.77-.38-.87s-.49.37-.72.59v0a8,8,0,0,1-1.33,1.51l-1.43,1.26c-1.27.1-2.32.84-3.51,1.2-1.5.44-2.86-.06-4.27-.29A.51.51,0,0,1,14.16,23.64Z" style="fill:#6b6a8a"/><path d="M1.36,24.51c-.33-.46-.82-.81-1-1.39,0-.86.3-1.46,1.32-1.3.66.1.64-.3.58-.76a3.37,3.37,0,0,0-.56-1.37,1.49,1.49,0,0,1-.13-1.84l.31-.46a19.31,19.31,0,0,1,3.55-2.08c.63-.2.87-1,1.18-1.57a1.41,1.41,0,0,1,.37-.4c.72-.36,1.33-.9,2.05-1.26a29.75,29.75,0,0,1,5.79-.7,1.66,1.66,0,0,1,1.48.46,18,18,0,0,1-3.21,5.7,3.39,3.39,0,0,1-.82,1l-.42.57a7.66,7.66,0,0,1-1.8,1.7c-.69.26-.89,1.18-1.72,1.26-1.16,0-2.32.09-3.48.08-.58,0-1.31,0-1.52.59a1.48,1.48,0,0,0,.71,1.59,1.11,1.11,0,0,1,.27.26l-.5.27a1.6,1.6,0,0,1-1.25,0H2.34C1.88,25.14,1.61,24.84,1.36,24.51Z" style="fill:#646285"/><path d="M85,26.87a6.55,6.55,0,0,1,1.49-4c.71-.37,1.39-.87,2.26-.47h0c.83.2,1.67.39,2,1.33l1,2.92c.3.39,0,.9.24,1.28h0a10.57,10.57,0,0,1-.06,5,11.61,11.61,0,0,1-.75,1.64,2.66,2.66,0,0,1-2.64,1.12,3.11,3.11,0,0,1-2.3-1.47,6.56,6.56,0,0,1-1-3c-.31-.48,0-1-.24-1.53v0A5.65,5.65,0,0,1,85,26.87Z" style="fill:#5f5e81"/><path d="M39.15,30.12l-.41.49a7.17,7.17,0,0,1-1.34,1.52L35,34.41c-1.07.15-.71-.61-.65-1.09s.38-.81.43-1.29c.11-1.23-.07-2.31-1.31-3a1,1,0,0,1-.65-.84c.16-.72.9-1,1.21-1.62l.49-.51.78-1,.22-.25c.24-.35.53-.66.77-1l.24-.27c.26-.33.52-.65.77-1l.48-.53c.6-.82,1.45-1.41,2-2.24l.47-.52a1.48,1.48,0,0,1,.91-.71c.86,0,1.11.6,1.31,1.26s.07,1.17.29,1.72.56.69.93.95.89.49,1,1.06a3.05,3.05,0,0,1-1,1.24L42.5,26.06a4,4,0,0,1-1.09,1.29l-.17.21a4.6,4.6,0,0,1-1.05,1.31L40,29.1A3.1,3.1,0,0,1,39.15,30.12Z" style="fill:#5f5e81"/><path d="M14.16,23.64a7.13,7.13,0,0,0,6.89-.32c.56-.43.92-.48,1.37,0l-2.26,2.5a6,6,0,0,1-.78,1h0a3,3,0,0,1-.83,1l-.16.23a3.43,3.43,0,0,1-.83,1l-.42.49a11.16,11.16,0,0,1-1.6,1.76l-1.43,1.46a3,3,0,0,1-1.4,1.42c-1.42.17-2.75-.56-4.21-.38-.74.09-1.3-.65-1.75-1.28.2-1.26,1.29-1.92,1.93-2.88.24-.36.68-.6.71-1.1a1.21,1.21,0,0,1,.87-.84,8.52,8.52,0,0,0,2.41-2.66,1.78,1.78,0,0,1,.7-.74Z" style="fill:#5c5b7f"/><path d="M71.56,19.32a55.58,55.58,0,0,0-4.43,4.52,2.79,2.79,0,0,1-1.08,1.1.5.5,0,0,1-.37-.35,5,5,0,0,0-.76-2c-.47-1.36-.4-1.6.79-2.34a3.28,3.28,0,0,0,.91-.83,1.29,1.29,0,0,1,.78-.58,4.18,4.18,0,0,0,2.86-2.36,2.62,2.62,0,0,1,.67-.52c1.43-.93,1.54-1.5.55-2.9-.73-1.69-.73-1.69,1.38-3.24a7.07,7.07,0,0,1,3.55-1.28.9.9,0,0,1,.51.26h0a3.27,3.27,0,0,1,1.28,1.25h0a4.18,4.18,0,0,1,.77,1.75h0a8,8,0,0,1,.38,3.07,11.26,11.26,0,0,1-3.55.51,14.38,14.38,0,0,0-1.74.1c-.82.19-1.2.58-.55,1.38a.61.61,0,0,1,.07.35c-.08.36-.35.49-.66.58h0A7.71,7.71,0,0,1,71.56,19.32Z" style="fill:#666587"/><path d="M33,28.09c0,.47.39.58.7.78a3,3,0,0,1,1,4.25c-.26.47-.52,1,.28,1.29l-.28.24c-.56.46-.91,0-1.27-.3s-.42-.62-.7-.86a.81.81,0,0,0-1.13,0c-.34.26-.22.58,0,.88a9,9,0,0,1,.88,2.29,2.23,2.23,0,0,1-2.4.5,2.65,2.65,0,0,1-1.57-.74l-.24-.23a4.21,4.21,0,0,1-.76-1.27c-.27-.19-.19-.48-.22-.74-.36-.36,0-.89-.28-1.27h0c-.3-.39,0-.89-.24-1.28v0a6.05,6.05,0,0,1-.05-2.71c0-1.45,0-2.89,0-4.34,0-.4,0-1,.5-.23.12.12,0-.07.1.07,1,2.32,3.24,2.74,5.2,3.6A1.24,1.24,0,0,1,33,28.09Z" style="fill:#5f5e81"/><path d="M44.55,23.65c-.4-.9-1.7-.81-2-1.8.64-.27,1.51.17,2-.63.36-1.17.16-2.52,1.07-3.52A18.51,18.51,0,0,0,47,16.44c1.9-1.51,4.05-1.11,6.09-.89-.18-.05-.59,0-.49-.49,1.31-.57,1.78-.44,2.24.58A14.33,14.33,0,0,1,55,18.09c0,.95-.56,1.87-.19,2.85a.87.87,0,0,1-.14.73c-1,.56-1.85,1.52-3.16,1.59-.52,0-.66.55-.7,1a1,1,0,0,1-1.18,1,1,1,0,0,1-1-1.14c0-.49,0-1,0-1.49-.07-1,.13-2,.12-3,0-.28.16-.75-.45-.6-.48.66-1,1.33-1.45,2A4.85,4.85,0,0,1,46,22.1h0a4.17,4.17,0,0,1-.82,1l-.19.22C44.92,23.5,44.85,23.74,44.55,23.65Z" style="fill:#5f5e81"/><path d="M78.78,46.65l.78,2.5a69.67,69.67,0,0,1,1.14,8.27,12.34,12.34,0,0,1,.24,2.19c-.56.91-1.65.92-2.45,1.42-.21.14-.55-.23-.57-.53-.09-1-.82-2.08-.06-3.15.14-.19.06-.48,0-.73-1.18.37-1.49.2-1.86-1-.1-.33,0-.89-.57-.78-.38.08-.24.56-.26.89s.27.92-.25,1.25c-.24,0-.28-.18-.39-.32h0c-.39-.65.23-1.57-.55-2.12-.22-.49.13-.87.27-1.28,0-.06-.1,0-.19,0-.35.17-.4.82-1,.61a.55.55,0,0,1-.43-.55,1.36,1.36,0,0,1,.74-1.09,4.56,4.56,0,0,1,.71-.24,1.93,1.93,0,0,0,1.35-2.51c-.15-.55-.92.09-1-.54s-.43-1.43-.6-2.16.1-.9.74-.76A2.32,2.32,0,0,1,76,47.24c.28.41,1,.64.6,1.43C77.36,48,77.67,46.85,78.78,46.65Z" style="fill:#bcbcca"/><path d="M25.64,68.46a1,1,0,0,0-.09-.22c-.28-.39.05-.89-.24-1.27h0c-.31-.38,0-.89-.25-1.27h0c-.33-.37,0-.89-.26-1.27h0a10.92,10.92,0,0,1-.4-2.73c0-.28-.16-.56,0-.86a.79.79,0,0,1,.74-.57c.42,0,.59.26.6.64.05.88.45,1.12,1.32.94.72-.15,1.93,1.18,2.23,2.32.48-.45-.07-1.62,1.07-1.54a10.11,10.11,0,0,1,.59,1.84c.1.38.31.28.52.08a6.23,6.23,0,0,1,1-.73c1.08.29,2.1-.17,3.13-.31.47-.06.79,0,.85.39.17,1.16.93,2.11,1.08,3.26a6.69,6.69,0,0,1-2.08,2.25,2.24,2.24,0,0,1-1.47,0,1.29,1.29,0,0,0-1.3.18.82.82,0,0,1-.35,0c-1.26-.55-.37-1.72-.74-2.48-.12.34-.38.71-.78.36s-.88-.32-1.38,0a3.3,3.3,0,0,1-2.16.45A2.45,2.45,0,0,0,25.64,68.46Z" style="fill:#807f9b"/><path d="M8,65c.16-1,1.27-1.48,1.52-2.46a.92.92,0,0,1,.61-.71c.42-.18.61-.59.89-.9a.14.14,0,0,0,0-.15,9.39,9.39,0,0,1,1.35-1.25.77.77,0,0,1,.72-.1c1,.62,2.22.8,3.22,1.45.3.58,1.22.33,1.42,1.05l-1,1.43c-.24.67-.89,1-1.26,1.58v0A4.88,4.88,0,0,1,14.4,66.2l-.9,1a3.1,3.1,0,0,1-2.77,0A15.92,15.92,0,0,1,8.4,66.09C8,65.85,7.59,65.58,8,65Z" style="fill:#747392"/><path d="M55.86,26.62a19.76,19.76,0,0,1,2.82-2.74,3.81,3.81,0,0,1,4,.35c.27.2.55.4.37.8a1,1,0,0,1-.45.41,6.65,6.65,0,0,0-3.71,3.36,3.92,3.92,0,0,1-.67.85c-.87,1-1.1,2.24-1.76,3.3-.75,1.22-1.36,1.42-2.7.89-.69-.63-1.3-1.3-.94-2.35s.48-1.92.81-2.85c.52-1.5.19-3.06.29-4.58,0-.61-.13-1.27.45-1.74.58.22.26.71.28,1.06.06,1.38,0,2.76.06,4.2C55.37,27.39,55.57,27,55.86,26.62Z" style="fill:#6b6a8a"/><path d="M16.33,11.84a17.92,17.92,0,0,0-5.84.37,7.06,7.06,0,0,1-1.6.11c-.56.46-1.36.59-1.78,1.24l-.25.26c-.66.8-1.17,1.81-2.42,1.86-.29,0-.6.12-.59-.35a14.83,14.83,0,0,1,2.26-2.8,19.37,19.37,0,0,1,2.48-2.48,29.62,29.62,0,0,0,3.3-2.48A1,1,0,0,1,13,7.16a5.72,5.72,0,0,1,1.65.11l.45.29c.8.31,1,1,1.31,1.75a.71.71,0,0,0,0,.25,3.67,3.67,0,0,1,0,2Z" style="fill:#9d9cb2"/><path d="M51.18,69.24a1.71,1.71,0,0,1,1.71-.46c1.78.92,3.25-.1,4.81-.56.22.35.06.74.16,1.1a1.5,1.5,0,0,1-.9,2A2.45,2.45,0,0,0,55.73,73c1-.52,1.74-1.62,3-1,.56.26,1,.52,1.13,1.2a3.23,3.23,0,0,1-1.47,1.54A6.11,6.11,0,0,1,56.16,76c-1.27.75-1.92-.38-2.46-1.05a15.21,15.21,0,0,1-2.07-3.25c-.17-.37-.43-.79-.11-1.17C52.06,69.9,51.63,69.58,51.18,69.24Z" style="fill:#9b9ab0"/><path d="M10.17,71.73A5,5,0,0,0,9,73c-.35.48-.64,1-1.31,1.15a.8.8,0,0,1-.6-.41c-.44-1.36-1.39-1-2.3-.7a5.49,5.49,0,0,1-1,.27c-.86.11-1.13-.21-1.09-1.23.33-.3.27-.88.75-1.08.24-.34.52-.65.76-1l2.32-3c.63.13.64.57.48,1-.09.28-.07.5.19.64s.3-.22.46-.33a10.37,10.37,0,0,0,1-.77c.48-.43.94-.54,1.38,0,.1.14.2.3.35.35a1.63,1.63,0,0,1,1.11,2l-.27.46A5.88,5.88,0,0,1,10.17,71.73Z" style="fill:#9d9cb2"/><path d="M28.3,47.94a.34.34,0,0,0,0,.2c.5.56.32,1.24.38,1.88a20.36,20.36,0,0,1-4.33,1.22c-.67.17-.89-.43-1.38-.54.32.77-.12.86-.72.79-.55-.46-.91-1.12-1.6-1.44a.74.74,0,0,1-.35-.84c.05-.46.41-.62.76-.8a.46.46,0,0,0,.24-.45,1.21,1.21,0,0,1,.75-.81.45.45,0,0,0,.25-.45.61.61,0,0,1,.49-.47,1,1,0,0,1,.34.07,17,17,0,0,0,1.62,1c-.34-.53-1.22-.64-1.22-1.49a2.63,2.63,0,0,1,3.26,0h0a2.72,2.72,0,0,1,1,1h0A2.89,2.89,0,0,1,28.3,47.94Z" style="fill:#9d9cb2"/><path d="M37.37,67.25c-.38-1-1.12-1.91-1.22-3,0-.36,0-.39-.58-.36-1,0-2.1,1.13-3.16.13-.29-.53.24-.54.47-.74l.46-.51c.24-.36.53-.67.77-1s.51-.78.76-1.18,1-.7,1.12-1.39a2.17,2.17,0,0,1,1.31-1.32c.82-.46,1.15-1.53,2.17-1.74a1.33,1.33,0,0,0,2.11.18,1.21,1.21,0,0,1,1.59-.1,4.74,4.74,0,0,0-.56,2.41.85.85,0,0,1-.62.95c-.41-.16-.25-.58-.42-.91a7.55,7.55,0,0,0-2,1.17.87.87,0,0,1-.58-.18c-1.16-.78-1.56-.68-2.08.6-.74,1.78,0,3.51,1.69,3.73a1.16,1.16,0,0,1,.94.54c-.5.58-.76,1.35-1.45,1.77-.17-.15-.27-.36-.42-.52a2.34,2.34,0,0,0,.42.52c.09.46-.42.61-.52,1C37.55,67.34,37.47,67.35,37.37,67.25Z" style="fill:#8f8ea7"/><path d="M41.88,59.44a1.15,1.15,0,0,0,.47-1.33c-.46-1,.14-1.45.79-1.93,1.63-.29,1.68-1.6,1.82-2.85a2.27,2.27,0,0,1,1.26-.88,4,4,0,0,1,1.2-.12,2.59,2.59,0,0,1,2.06.63c.22.71-.45.91-.78,1.28a12.27,12.27,0,0,1-1.12,1.16,1.55,1.55,0,0,0-.69.74,5.43,5.43,0,0,1-1.07,1.27l-.18.24a3.34,3.34,0,0,1-.85,1l-.17.21a5.94,5.94,0,0,1-1.33,1.54l-.92,1a5.28,5.28,0,0,1-2,2,2.14,2.14,0,0,1-.16-2.58,4.21,4.21,0,0,1,.66-.74A1.4,1.4,0,0,1,41.88,59.44Z" style="fill:#777694"/><path d="M21.16.76a.76.76,0,0,0,0-.21,1.73,1.73,0,0,1,1-.41,5.69,5.69,0,0,1,3.19.18,3.69,3.69,0,0,1,1,1c.05.76.59,1.44.3,2.24a2,2,0,0,0,0,.24,1.57,1.57,0,0,1-1.26.37c-.93-.26-.93.69-1.45.94-.32.16.09.14.1.15.37.17.81.26.67.84a2.65,2.65,0,0,1-2.3.73c-.39-.21-.89-.15-1.23-.48L20.67,6a.55.55,0,0,1-.14-.32c.2-.87.92-1.47,1.21-2.29C20.59,3,20.59,3,20.41,4.13c-.06.38-.07.78-.62.73a2.5,2.5,0,0,1-.21-2.58A1.09,1.09,0,0,1,19.77,2C20.26,1.58,20.66,1.12,21.16.76Z" style="fill:#b0afc1"/><path d="M74.54,48.9c.62.65.66-.24,1.07-.43a5.51,5.51,0,0,1,0,3c-.09.56-1,.74-1.64.92-.23.07-.54,0-.67.24s-.73.55-.37.92c.61.62.36-.32.61-.41s.77-.29,1.31-.5l-.83,1.83c.1.15.14.3,0,.43-1.2,1.16-1.91,2.75-3.24,3.8a.16.16,0,0,1-.08-.19c0-.07,0-.1.07-.1a3.24,3.24,0,0,0-1.18-3.08,10.19,10.19,0,0,1-1.32-1.92,1.33,1.33,0,0,1,1.52.2,9.3,9.3,0,0,0,1.54.52,2.32,2.32,0,0,0-.53-.35c-.41-.19-1-.36-.87-.92s.73-.75,1.27-.82c.36,0,.75.09,1-.27A6.59,6.59,0,0,1,73.75,51c.22-.06.64.14.49-.42-.1-.36-.27-.41-.61-.45-1.39-.14-1.58-.39-1.47-1.64a.35.35,0,0,1,.28-.14c.29,0,.12.75.65.43C73.57,48.83,74.09,48.49,74.54,48.9Z" style="fill:#b3b2c3"/><path d="M17.73,62c-.33-.57-1.26,0-1.47-.75-.08-.45-.47-.61-.8-.86a2.16,2.16,0,0,1,0-3.57c.88-.64,1.64-1.61,3-1.23.35.1.57-.27.8-.51a2.62,2.62,0,0,1,1.16-.92c.47,1,.35,1.32-1.06,2.49a12.75,12.75,0,0,0,1.26-.8,1,1,0,0,1,1.46.09c0,.49-.34.74-.64,1L21,57.4a3.65,3.65,0,0,1-.81,1Z" style="fill:#8887a1"/><path d="M65.88,24.62l.23.24c.14.09.14.18,0,.25l-.22.23a23,23,0,0,1-1.79,2c-.75.73-1.49,1.47-2.23,2.21a13,13,0,0,0-1.05,1.05l-3.72,4.22c-.11.21-.27.21-.46.14,0-1.14-.43-2.34.56-3.31A2.75,2.75,0,0,1,58.33,31c.81-.15.73-.7.66-1.26.07-.05.1-.09.09-.11a.26.26,0,0,1-.23,0c-.3-.31-.1-.65-.08-1,1.45-.52,2.16-2.05,3.58-2.61a1.92,1.92,0,0,0,.74-2.28,1.85,1.85,0,0,1,1.09-2.12c.86-.29.49.64.82.88.55.75-.59,1.27-.23,2C65.11,24.69,65.56,24,65.88,24.62Z" style="fill:#a4a3b8"/><path d="M25.64,68.46c.18-.47.3-.79,1-.78,1.11,0,2.42.28,3.19-1,.15-.25.54-.23.69.14.48,1.21.68.37,1-.2a1.55,1.55,0,0,1,.37,1.59,1.09,1.09,0,0,0,.45,1.3c0,1-.84,1.22-1.44,1.66a5.07,5.07,0,0,1-1.75.61c-.84.16-1.68.52-2.5,0A6.61,6.61,0,0,1,25.64,68.46Z" style="fill:#777694"/><path d="M76.36,74.24c0-.16,0-.32-.07-.48-.29-.48.06-1.06-.23-1.54a.5.5,0,0,0,0-.21,5.4,5.4,0,0,1-.13-1.83c.1-.29.26-.27.45-.09s.25.94.83.74a2.91,2.91,0,0,0,1.67-1c.27-.42.28-1.07,1-.9a1.68,1.68,0,0,1,0-1.45,10.89,10.89,0,0,1,1.6-1.27,20,20,0,0,1,.38,3.52c.08,1.15.24,2.29.4,3.43A3.74,3.74,0,0,1,82,75.51a.48.48,0,0,0-.21.48c-.13.21-.24.45-.56.28-.3-.53-.36-1.14-.88-1.6s.19-1.26-.09-1.92C78.71,72.54,77.61,73.61,76.36,74.24Z" style="fill:#ababbd"/><path d="M89.9,16.31c-.25.29-.15.65-.17,1-.17.21,0,.64-.5.64-1-.2-2,0-2.83-.77-.06-1.52-1.18-1.63-2.3-1.74,0-.37-.11-.76.13-1.1a.21.21,0,0,0,0-.19,2.59,2.59,0,0,1,.5-1.06h0a2.65,2.65,0,0,1,3.75-.75h0a2.15,2.15,0,0,1,1,1.06l.19.46C90,14.64,90.43,15.43,89.9,16.31Z" style="fill:#7e7d99"/><path d="M45.79,17.83c-.89,1.11-.55,2.55-1,3.77-.93.36-1.55-.39-2.14-.79s-.24-1.31.72-2.14a5.17,5.17,0,0,1-1.24-1.82L43,15.57c.4-.37.54-1.1,1.32-.93.31.44.12.81-.18,1.18.79-.39,1.08-.79.09-1.27a.34.34,0,0,1,0-.48,4.19,4.19,0,0,1,1.28-1.2c.63-.26,1.18-.86,2-.42a1.22,1.22,0,0,0,.9.38c.56,0,.81.34.93.84.07.29.14.59-.2.76s-.8,0-1.14-.27c-.07-.06-.15-.08-.14,0C46.56,15.05,46.57,16.65,45.79,17.83Z" style="fill:#7c7a98"/><path d="M48.67,45.13a.5.5,0,0,0,0-.21,3,3,0,0,1,2.24-1.72,1,1,0,0,1,.53.06.61.61,0,0,1,.28.39,1.93,1.93,0,0,0,1.75,1.76,2.35,2.35,0,0,1,1.51.43c-.06,1-.74,1.13-1.49.86s-1,0-.9.72c.16,1.87-.68,2.53-2.55,2-.36-.1-.66-.34-1.07-.21s-.76-.17-.85-.62a1.39,1.39,0,0,0-.6-.92,1.29,1.29,0,0,1-.45-.53C47.33,46.25,48.27,45.9,48.67,45.13Z" style="fill:#bcbcca"/><path d="M53.07,31.65c-.32.89.45,1.36.76,2a2,2,0,0,0,.8.56c.4.14,1,.11,1,.69s-.55.66-.89.93A5.38,5.38,0,0,0,53,37.48a2,2,0,0,1-1.66.86.43.43,0,0,1-.52-.16,4,4,0,0,1-1.25-1.27h0c-.43-.4-.37-1-.49-1.47a1.28,1.28,0,0,1,1.09-1.64A2.54,2.54,0,0,0,52.1,32a1.3,1.3,0,0,1,.74-1C53.21,31.15,53.27,31.35,53.07,31.65Z" style="fill:#777694"/><path d="M47.66,47.39c.14.1.39.19.39.29.07,1.43,1.46,1,2.16,1.53.48.36,2.09-.29,2.25-.73s-.28-.86-.22-1.39c.08-.81.21-1.25,1.06-.76A1,1,0,0,0,55,45.89c.07-.08.14-.08.2,0l.05,0c.22.35.08.73.11,1.09a1.28,1.28,0,0,1-.78.92,2.51,2.51,0,0,0-1.36,1.53,1.79,1.79,0,0,1-1.6,1.18c-1.16.12-1.4.59-1,1.68.17.45.31.87-.09,1.27-.2.2-.31.46-.51.66a.2.2,0,0,1-.28-.07.54.54,0,0,0,0-.22c-.27-.17-.15-.47-.23-.71a2.89,2.89,0,0,0-2-.56c-.33-.29-.36-.73-.57-1.09-.58-.73-.73-1.36.33-1.85a1.06,1.06,0,0,0,.51-1.39C47.61,48,47.36,47.71,47.66,47.39Z" style="fill:#b0afc1"/><path d="M6.86,32.41c.88.84,1.7,1.49,3.16,1.1.82-.22,1.87.4,2.81.65.17.1.16.18,0,.23l-.18.23a5.6,5.6,0,0,1-.77,1v0a38.4,38.4,0,0,1-3.35,3.52l-.17.22a1.32,1.32,0,0,1-.81.74c-.84,0-1.23-.26-.69-1.1,1-1.51.33-3.23.63-4.83,0-.26-.09,0-.13,0-.84.18-1.1-.3-1.18-1C6.34,32.87,6.29,32.36,6.86,32.41Z" style="fill:#686789"/><path d="M2.84,40.46c-.28-.19-.17-.51-.25-.77a1.6,1.6,0,0,1,0-1.25c-.12-1.23,1-1.91,1.29-3,.33-.36.86-.57.89-1.16a1,1,0,0,1,.86-.81.85.85,0,0,1,.35.08c1.1,1,.85,2.45,1,3.73,0,.16-.06.43-.21.42-.9-.08-.36.68-.6,1A3.31,3.31,0,0,0,5.25,40a1.82,1.82,0,0,1-1.56,1.18C3.27,41.09,3.07,40.75,2.84,40.46Z" style="fill:#7e7d99"/><path d="M45.15,53.42a6.32,6.32,0,0,0-.11.86c0,1.72-.15,1.85-1.9,1.9a2.33,2.33,0,0,0-1.5.34c-1.27,1-1.46.93-2.35-.38a.94.94,0,0,1,0-.5c.07-.54.48-.75.9-1a.45.45,0,0,0,.25-.44,1.1,1.1,0,0,1,.64-.78l.33-.07A1.31,1.31,0,0,0,42.52,52a.55.55,0,0,1,.42-.3C43.86,52.06,44.26,53.06,45.15,53.42Z" style="fill:#9897ae"/><path d="M20.54,54.17c-.91.78-1.38,2-3.14,1.69-.71-.15-2,1.1-2.52,2-.42.74.16,1.86,1,2.49a.86.86,0,0,1,.39.84c-.24-.13-.34-.52-.68-.48a2.37,2.37,0,0,1-2.09-.85c-.31-.32-.79-.14-1.2-.17-.16-.07-.17-.15,0-.24h0c.19-.38.53-.65.72-1q1.27-1.87,2.53-3.77c.3-.34.49-.82,1-.86a2,2,0,0,1,1.13.71c.46.6.94.58,1.23-.08.35-.82,1.45-1.1,1.46-2.13a.81.81,0,0,1,1,.69C21.51,53.62,21.12,54,20.54,54.17Z" style="fill:#83829d"/><path d="M65.76,41.15l.74-.77c1-.4,1.55-.3,2,.85a5.63,5.63,0,0,0,1.31,2.24.85.85,0,0,1,.24.91l-.54.74c-.57.46-1,.1-1.43-.25s-.74-.48-1,.27a2.06,2.06,0,0,1-1.77,1.41c-.41,0-.58-.38-.81-.65l-.15-.31c.11-.38-.12-.73-.09-1.1s.14-.66.64-.74c1.11-.17,1.35-.68.91-1.69C65.67,41.76,65.46,41.46,65.76,41.15Z" style="fill:#9190a9"/><path d="M59.72,73.27a1.73,1.73,0,0,0-2.88-.55c-.41.31-1,1-1.34.69-.61-.46.23-1,.36-1.48,0-.12,0-.32.12-.34,1.69-.56,1.64-2,1.72-3.37.36-.39.84-.19,1.26-.24a2,2,0,0,1,1.57,2.18c0,.52.32.69.72.84l-1,2C60.09,73.15,60,73.4,59.72,73.27Z" style="fill:#a7a6b9"/><path d="M41.12,60.19c-1.12.52-.71,1.74-1.14,2.58-.1.18.24.37.47.47a.84.84,0,0,1-.39.71l-.49.51L39,64.29c-2.86-.75-3.5-2.77-1.74-5.19.56-.77.95-.77,1.54-.13a9.76,9.76,0,0,0,.84.73.36.36,0,0,1,0,.32c-.35.56-1.15.18-1.5.73,1.08.91,1.5-.15,2.08-.72A.8.8,0,0,1,41.12,60.19Z" style="fill:#83829d"/><path d="M64.89,22.61l-.45-.94c-.65.8-1.78,1.21-.85,2.6.25.37-.38,1.5-1,2.1a.77.77,0,0,1,.25-1.25,1.72,1.72,0,0,0-1.72-1.23,22.61,22.61,0,0,0-2.47,0,6.54,6.54,0,0,1,1.43-1.54.68.68,0,0,1,.31-.14c.88-.06,1.4-.87,2.21-1.07.36-.1,0-.19,0-.26a.45.45,0,0,1,.2-.73c.81-.38,1.42-1.11,2.33-1.33.27.25.11.63.3,1,.49.18.88-.72,1.42-.17-.27.3-.49.77-.82.86-1.25.36-1.34,1.13-.92,2.16A.14.14,0,0,1,64.89,22.61Z" style="fill:#8887a1"/><path d="M75.68,36.67c-.33-.27-.2-.65-.24-1a24.83,24.83,0,0,1-.64-4.54c.69-.61,1-.05,1.31.44a3.5,3.5,0,0,1,.43,1.68,3.44,3.44,0,0,0,2.1,3,10.36,10.36,0,0,1,2.07,1.59.2.2,0,0,1-.07.32l-.21.17c-.28.55-.86.4-1.3.58s-.62.37-.95,0A3.3,3.3,0,0,1,75.68,36.67Z" style="fill:#686789"/><path d="M6.18,76l-1,1.26a2.77,2.77,0,0,1-1,1h0a2.3,2.3,0,0,1-2,0h0a2.65,2.65,0,0,1-1-1h0A1.13,1.13,0,0,1,1,75.89,4,4,0,0,1,3.66,74C4.72,73.7,5.78,74.63,6.18,76Z" style="fill:#9b9ab0"/><path d="M6.18,76c-.41-.47-.82-.94-1.24-1.39a1.17,1.17,0,0,0-1.59-.23c-.65.59-1.54.76-2.14,1.37a.33.33,0,0,1,0-.49v-.52a1.67,1.67,0,0,1,.29-1h0c.21-.45.21-1,.74-1.27a.73.73,0,0,1,.51-.44c.14,1,.64,1.26,1.53.8a.92.92,0,0,1,.23-.09c1.06-.22,2.29-1.12,2.8.75.06.2.34.34.52.51s.08.36-.13.46C7.16,75,6.67,75.51,6.18,76Z" style="fill:#a7a6b9"/><path d="M74.54,48.9c-.51-.19-1,.56-1.52,0-.18-.14-.32-.33-.5-.49h-.24c-.58.08-.51-.48-.73-.75A5,5,0,0,1,73,45.84a2.94,2.94,0,0,1,.74-.71.6.6,0,0,1,.52-.26,3.22,3.22,0,0,1,3.26,0l.25.23a.39.39,0,0,1,.1.31,4.8,4.8,0,0,1-2.11,2c-.46-.59-.91-1.19-1.78-1.13C74.08,47.16,74.87,47.92,74.54,48.9Z" style="fill:#cfcfd9"/><path d="M76.36,74.24a1.68,1.68,0,0,1,1-.95,6.39,6.39,0,0,1,2.88-1c.42,0,.81-.24.52.58-.21.61-.9,1.59.42,2.1.34.13.09.86.15,1.31s-.3.54-.57.71l-.45.22a.49.49,0,0,1-.1-.58c.35-.76.63-1.42-.71-1.34-.53,0-.14-.57-.3-.9-.7.86,1.14,2.06-.43,2.7-.4.11-.67-.15-1-.33A3.59,3.59,0,0,1,76.36,74.24Z" style="fill:#a2a1b6"/><path d="M11.49,70l-.35-.11c.49-1.4-1.2-1.36-1.49-2.26-.11-.36-.34-.18-.56,0-.44.37-1.15.61-1.34,1.07-.32.76-.64.28-.93.15-.58-.24-.45-.49,0-.87s0-.68-.24-1A6.78,6.78,0,0,1,8,65c0,.25,0,.52.24.66,1.68.78,3.24,1.93,5.26,1.55l-.27.25c-1.3.07-1.33,1.09-1.48,2C11.72,69.7,11.74,69.91,11.49,70Z" style="fill:#9190a9"/><path d="M72.92,10.06c-.13.16-.22.42-.38.47-1.49.44-1.33,1.43-.87,2.52a2,2,0,0,1-1,3.06c-.64.26-1,0-1.17-.68-.21-.85-.11-1.74-.4-2.56-.13-.5.36-.7.52-1.06l.49-.51a6.67,6.67,0,0,1,1.5-1.5,4.6,4.6,0,0,1,1.53-1C73.83,9.4,73.35,9.73,72.92,10.06Z" style="fill:#bcbcca"/><path d="M71.55,47.65c.54,0,.39.59.73.75.11,1.38.29,1.52,1.66,1.31.5-.07,1-.16.55.65-.27.45.54.48.37,1-1-.62-1.68.45-2.58.54-.37.48-.59.34-.71-.17-.16-.74-.49-.84-1.12-.4a.9.9,0,0,1-1.38-.16C69.9,50,70.73,48.83,71.55,47.65Z" style="fill:#c3c3d0"/><path d="M29.07,71.5a5.17,5.17,0,0,0,3.27-2h.23c.75.68,1.51,1.35,1,2.53l-.76,1.2a4,4,0,0,1-1,.79l-.46,0a9,9,0,0,0-1.73-1.15C29.13,72.64,28.34,72.3,29.07,71.5Z" style="fill:#a4a3b8"/><path d="M65.13,18.84a7.16,7.16,0,0,1-2.39,1.67c0,.48.57.25.7.68l-3.09,1.15c0-.6.59-.78.78-1.24l.48-.52c.31-.44.73-.79,1-1.24l1.23-1.25a1.75,1.75,0,0,0,.74-.76l.09,0A3.36,3.36,0,0,1,68,17a1,1,0,0,1-.19.49C67.15,18.41,66.57,19.46,65.13,18.84Z" style="fill:#7c7a98"/><path d="M51.18,69.24c.4,0,.83-.08,1.08.41s-.16.71-.49.95-.08.48,0,.73a14,14,0,0,0,2.91,4.2,1.82,1.82,0,0,0,1.43.48l-.2.25A3.32,3.32,0,0,1,53.19,76h0a2.69,2.69,0,0,1-1-1h0c-.28-.27-.3-.67-.51-1a6.83,6.83,0,0,1-.75-2.8c-.3-.38,0-.88-.25-1.27h0a.56.56,0,0,1,0-.76Z" style="fill:#a4a3b8"/><path d="M4.34,24.62C3,24.75,3,23.48,2.84,22.8c-.15-.51.78-.89,1.46-.94a14.94,14.94,0,0,0,3.2-.16c.37-.12.55.31.86.4C7,22.91,6,24.2,4.34,24.62Z" style="fill:#5c5b7f"/><path d="M20.29,52.41c.2.51.84,1.1-.36,1.28-.37.05-.56.48-.71.91-.33.93-1.22,1-1.67.21-.27-.49-.87-.49-1.08-1a.31.31,0,0,1,.06-.43.15.15,0,0,0,0-.16,14.38,14.38,0,0,1,2-1.78,2.45,2.45,0,0,1,1.22.24,1.65,1.65,0,0,1,.6.38A.27.27,0,0,1,20.29,52.41Z" style="fill:#797896"/><path d="M69.07,51.18A1.32,1.32,0,0,0,70.4,51c.81-.65,1.17-.47,1.38.66.08.44.28.28.5.21-.1.42-.12.87-.79.5a1,1,0,0,0-1.33.41c-.23.56.48.47.8.66a5.7,5.7,0,0,1,.89.83c-1.42.39-2.37-.77-3.59-.89l-.49-.24a.15.15,0,0,1-.1-.16c0-.07,0-.1.07-.1Z" style="fill:#bcbcca"/><path d="M86.48,17.09a3.8,3.8,0,0,0,2.35.35c.33-.11.39.21.45.44s.09.36-.15.43l-.41.43c-1.06,1.1-2.26.86-3.49.36L85,18.84a1.89,1.89,0,0,1-.71-1.17C84.68,16.43,85.32,16.26,86.48,17.09Z" style="fill:#616083"/><path d="M31.48,13.06c-.92.17-1.84-.31-2.76,0-1.13-.59-1-1.56-.75-2.55-.22-1.33.66-.78,1.24-.72h.24a2.64,2.64,0,0,1,2,2.27h0A.73.73,0,0,1,31.48,13.06Z" style="fill:#8a89a3"/><path d="M67.64,17.33l.25-.26c.11-.27.36-.42.56-.62.58-.58.88-1.18,0-1.81-.24-.19-.51-.44-.34-.83a2,2,0,0,1,0-.24c.27-.23.7-.26.83-.67l.13-.1c.23.08.75-.1.55.38-.34.81.33,1.5.15,2.26-.09.35.15.42.37.53a.43.43,0,0,0,.55-.17c.58-.82,1.63-1.49.91-2.75,1.1,1,1,2.19-.15,3-.35.22-.73.39-1.1.58-.39.41-.64.94-1,1.36a1,1,0,0,1-1.23.24C67.81,18,67.33,17.91,67.64,17.33Z" style="fill:#aeadbf"/><path d="M28.46,10.55c-.78.93-.21,1.72.26,2.52A5.46,5.46,0,0,1,24,14.26a7.72,7.72,0,0,0-1.72-.17l.2-.45a.57.57,0,0,1,.44-.31c1.32,0,2.5-1,4.05-.43-.23-.82-.67-1.48-.08-2A1.28,1.28,0,0,1,28.46,10.55Z" style="fill:#9897ae"/><path d="M68.14,13.81a3.5,3.5,0,0,0,.37.49c1.3,1.26,1.16,1.9-.62,2.78a13.11,13.11,0,0,0-3.19.28l.18-.26a3.74,3.74,0,0,0,1-1l1.23-1.28c.27-.32.51-.65.79-1Z" style="fill:#8887a1"/><path d="M32.43,36.65c-.91-.7-.78-1.95-1.5-2.79-.24-.29.35-.73.71-.85s1.06-.3,1.42.32.69,1.37,1.63,1.32a1,1,0,0,1,0,.17,9.93,9.93,0,0,1-2.06,1.82Z" style="fill:#686789"/><path d="M28.46,10.55a7.38,7.38,0,0,0-.95.26c-.67.27-1.08.66-.34,1.28a.62.62,0,0,1,.17.86c-.16.32-.43.25-.74.22-.91-.11-1.86-.42-2.61.53-.24.31-.68-.16-1-.13.09-.84.92-1.13,1.32-1.74l.22-.26A2.54,2.54,0,0,0,27,9.79l.26-.23c.66.08,1.37-.23,2,.24C29,10,27.63,9.22,28.46,10.55Z" style="fill:#a2a1b6"/><path d="M1.6,17.85a2,2,0,0,0,.49,1.84c.67.58.44,1.38.64,2.07.13.48-.29.49-.65.38a1.24,1.24,0,0,0-1.69,1c0-.17-.07-.34-.11-.51a2.33,2.33,0,0,1,0-2.26A3.55,3.55,0,0,1,1.6,17.85Z" style="fill:#9d9cb2"/><path d="M29.07,71.5c-.28.87.39,1.08,1,1.23A1.58,1.58,0,0,1,31.33,74l-.5.26a1.5,1.5,0,0,1-1.26,0c-.33-.06-.72.1-1-.25a6.11,6.11,0,0,1-1.51-1.49,1.26,1.26,0,0,1-.42-.8Z" style="fill:#9695ac"/><path d="M42.12,16.85c.78.43,1,1.37,1.81,1.85-.37.25-.65.48-1,.67a.67.67,0,0,0-.33.94c.13.27,0,.65.68.43s.66,1.05,1.46.86a2,2,0,0,1-2.25.25,3.44,3.44,0,0,1-.28-1.45c-.11-.77-.19-1.63-1.31-1.6a.34.34,0,0,1,.11-.45h0c.18-.38.52-.65.72-1Z" style="fill:#777694"/><path d="M55.15,45.9H55A8.33,8.33,0,0,1,51.43,45c-.27-.1-.6-.23-.23-.6a.75.75,0,0,0,.23-1,1.25,1.25,0,0,1,1.33-.23,3.35,3.35,0,0,1,2.43,2.49Z" style="fill:#c8c8d4"/><path d="M65.2,46.4c.78-.41,1.73-.64,1.66-1.86,0-.37,1.06-.43,1.33,0a1.2,1.2,0,0,0,1.27.56l-.21.48a1.77,1.77,0,0,1-.75.78l-.75.53a3.53,3.53,0,0,1-2.25,0h-.24A.34.34,0,0,1,65.2,46.4Z" style="fill:#9d9cb2"/><path d="M47.55,12.56c-.74-.42-1.25.72-2,.31a2.82,2.82,0,0,1,1-1c.55-.35,1-.88,1.47-1.27l.3-.27c1-.48,1-.48,1.23,1.07.19.3.34,0,.51,0,.53-.14,1-.59,1.57-.45A.87.87,0,0,1,51.07,12,31.8,31.8,0,0,0,47.55,12.56Z" style="fill:#8f8ea7"/><path d="M61.25,71c-.37.1-.92.63-.92-.29A3.14,3.14,0,0,0,59,68c1.09,0,2.24.6,3.27-.25A5.27,5.27,0,0,1,62,70C61.75,70.33,61.7,70.81,61.25,71Z" style="fill:#9897ae"/><path d="M75.79,47.39a9.87,9.87,0,0,1,2-2c.47-.15.53.3.74.52s.15.5.23.75c-.87.69-1.31,1.8-2.42,2.38C76.76,48.21,76,47.93,75.79,47.39Z" style="fill:#c6c5d2"/><path d="M3.55,41a1.94,1.94,0,0,0,1.59-1.53.83.83,0,0,1,1-.75c.54.56.5,1.38.9,2-.26.84-1.07.75-1.69,1a1.41,1.41,0,0,1-1.48-.24C3.7,41.31,3.46,41.23,3.55,41Z" style="fill:#8887a1"/><path d="M78.8,77.05c.2-.62.45-1.09-.12-1.83-.42-.55.28-1.21,1.18-1.08.09.39-.54.48-.43.94.24,0,.47,0,.71-.06.85,0,1.22.21.62,1.07a4.92,4.92,0,0,0-.45,1.14c-.49.06-1,.47-1.45,0-.11,0-.15-.06-.13-.12S78.77,77.05,78.8,77.05Z" style="fill:#9695ac"/><path d="M65.76,41.15a1.42,1.42,0,0,0,.13.47c.57.81,1.35,1.64-.27,2.19-.05,0,0,.37,0,.63-2-1.29-.78.85-1.31,1.15,0-.15-.08-.31-.11-.47a2.1,2.1,0,0,1,0-1.5A3.15,3.15,0,0,1,65.76,41.15Z" style="fill:#9b9ab0"/><path d="M24.71,6.06a1.07,1.07,0,0,0-1.24-.61c-.23,0-.39-.13-.43-.35a.49.49,0,0,1,.16-.29c1,.38.58-1.17,1.3-1s1.43-.19,2.15,0A3.42,3.42,0,0,1,24.71,6.06Z" style="fill:#bab9c8"/><path d="M51.34,38.34c.93-.19,1.38-1,1.91-1.62a3.45,3.45,0,0,1,1.33-1,1.35,1.35,0,0,1,1.19-.11.23.23,0,0,1,0,.35c-.47.16-.48.67-.75,1a2.87,2.87,0,0,1-2.3,1.53Z" style="fill:#9695ac"/><path d="M33.59,72c.22-1.07-.87-1.61-1-2.53.28-.55.57-1,1.27-.42.44.38,1,.12,1.53.23.08.31-.12.5-.31.7C34.36,70.5,34.18,71.4,33.59,72Z" style="fill:#c1c0ce"/><path d="M47.16,51.41a2.13,2.13,0,0,1,.26,1.24l-1.26,0a.8.8,0,0,0-.72-.93A3.08,3.08,0,0,1,43.86,51c-.11-.35.14-.56.3-.8l.27-.42a.22.22,0,0,1,.23-.2,2,2,0,0,1,1.58,1.08A2.16,2.16,0,0,0,47.16,51.41Z" style="fill:#9897ae"/><path d="M70.76,58.42c0,.1,0,.19,0,.29L70,59.92a5.51,5.51,0,0,1-.78,1l-.22.24a.25.25,0,0,1-.3.09c-.45-.41-1.09-.63-1.21-1.33.42-.77,1.27-.65,1.92-.93Z" style="fill:#b0afc1"/><path d="M3.85,15.33a1.81,1.81,0,0,0,2-.63c.31-.31.67-.59,1-.88A2.84,2.84,0,0,1,4.71,16,3.66,3.66,0,0,0,3,17.09c-.31.31-.59.6-1.06.3A8.26,8.26,0,0,1,3.85,15.33Z" style="fill:#9393aa"/><path d="M67.49,59.94a3.13,3.13,0,0,1,1.26,1.24,1.41,1.41,0,0,1-.55,1c-.42.19-.44.68-.71,1-.08.12-.16.11-.25,0A12.45,12.45,0,0,1,67,61C67,60.56,67.05,60.16,67.49,59.94Z" style="fill:#9d9cb2"/><path d="M62,70a2.46,2.46,0,0,1,.26-2.23,2.87,2.87,0,0,1,2-.5c.06.63-.56.81-.81,1.24l-.21.23A6.5,6.5,0,0,1,62.16,70Z" style="fill:#a4a3b8"/><path d="M27.18,9.76a3.31,3.31,0,0,0-.23.56c-.31,1.45-1.25,1.61-2.47,1.25a2.4,2.4,0,0,1,1-1C26,10.23,26.41,9.6,27.18,9.76Z" style="fill:#b5b4c5"/><path d="M72.92,10.06a1.15,1.15,0,0,0,.26-1.22l.49-.28c.94-.17,1.9-.52,2.78.21A13.47,13.47,0,0,0,72.92,10.06Z" style="fill:#a4a3b8"/><path d="M11.75,69.5a.92.92,0,0,1,0-.37c.22-.54-.88-1-.18-1.49.47-.35,1.11-.1,1.66-.16A7.16,7.16,0,0,1,11.75,69.5Z" style="fill:#9f9fb4"/><path d="M68.65,13l.49-.24c.1.78-.42.79-1,.77A.85.85,0,0,1,68.65,13Z" style="fill:#bcbcca"/><path d="M50.4,64.52a1.69,1.69,0,0,1-.2-1.08q-.16-4.62-.31-9.24c.07-.26,0-.59.27-.77a2,2,0,0,1,1.21,1.26c.07.15.11.31.17.46.79,2.08.79,2.08,2.9,1.24.42-.19.84-.32,1.23,0a47.69,47.69,0,0,1,.27,7.27c-.43-.46-.21-1-.23-1.55,0-1.3-.79-1.84-2-1.36-.37.14-.53,0-.72-.26a1.34,1.34,0,0,0-1.71-.24,1.56,1.56,0,0,0-.86,1.49C50.48,62.69,50.41,63.61,50.4,64.52Z" style="fill:#807f9b"/><path d="M31.73,15.83c.7,3.17.48,6.4.57,9.6a6.39,6.39,0,0,0,.42,2.9c-.7.46-1-.35-1.55-.52-1.73-.6-3.64-1.16-4-3.44a2.29,2.29,0,0,1,1.65,1c.39.52,1,.79,1.51.31s1.2-.77.59-1.62a1.57,1.57,0,0,1-.05-1.56c.46-1.16.07-1.94-1.19-2.13s-1-1.15-1.3-1.78a2.38,2.38,0,0,1,1.27-3.47A1.82,1.82,0,0,1,31.73,15.83Z" style="fill:#616083"/><path d="M7.11,13.56c.21-1,1.07-1,1.78-1.24C8.5,13,7.74,13.21,7.11,13.56Z" style="fill:#9393aa"/><path d="M73.72,21.82l-.3-4.48v-.25c.83.34.73,1.29,1.21,1.88a4,4,0,0,1,1.15,2.94c-.05.53.33.82.8,1a3.22,3.22,0,0,1,1.82,1.44c.19.32.48.67.86.65.53,0,.3-.6.47-.89A1,1,0,0,1,80,23.8c.32,2.52.65,5,1,7.55a8.34,8.34,0,0,0,.2.83c.12,1.16.27,2.32.35,3.49a2.49,2.49,0,0,1-.84,2.25,18.47,18.47,0,0,1-4-2.74c-.46-.43-.35-1.47-.53-2.23s-.14-1.8-1.27-2h0c-.22-.42,0-.66.36-.74.83-.19.76-.75.59-1.34-.26-.93-.24-2-1.27-2.56-.28-.16-.2-.43-.12-.66a.85.85,0,0,0-.27-1Z" style="fill:#616083"/><path d="M80,23.8c0,.09,0,.17,0,.25-.11.5.29,1.3-.31,1.45a1.5,1.5,0,0,1-1.56-1,2.33,2.33,0,0,0-1.89-1.4c-.48-.11-.8-.32-.76-.81a3.72,3.72,0,0,0-.94-2.95,9.68,9.68,0,0,1-1.07-2.27c-.41-.18-.85-.29-.77-.91,0-.42.16-.77.6-.84a19.15,19.15,0,0,1,5.9-.27C79.47,18,79.87,20.88,80,23.8Z" style="fill:#5c5b7f"/><path d="M67.64,17.33c.78.93,1.31,1,1.93.14a2.12,2.12,0,0,1,.85-.88,3.45,3.45,0,0,1-2.87,2.51.84.84,0,0,0-.67.49,1.57,1.57,0,0,0-.49.07c-.39.19-.56,1-1.19.55s.09-.91-.07-1.37C66.34,19,67,18.16,67.64,17.33Z" style="fill:#9f9fb4"/><path d="M64.89,22.61h.25a2.18,2.18,0,0,1,.74,2,1.11,1.11,0,0,0-.46-.09c-.39.08-.42,1.12-.9.57a1.28,1.28,0,0,1,.2-1.76A.52.52,0,0,0,64.89,22.61Z" style="fill:#8c8ba5"/><path d="M48.83,30.15a28,28,0,0,1,0-7.59c0,.58,0,1.17,0,1.75s.65.72,1.11.69.71-.34.52-.89c-.36-1,.51-1.12,1.11-1.25.77-.16,1.55-.14,2-1,.18-.37.68-.23,1-.25,0,.26,0,.51,0,.76-.5,1.58-.11,3.21-.22,4.81,0,.62,0,1.26-.51,1.72a1.39,1.39,0,0,1-1.13.67,14.08,14.08,0,0,0-2.66,1C49.55,30.69,49.09,30.69,48.83,30.15Z" style="fill:#666587"/><path d="M53.09,9l.43.07c2.09,2,1.58,4.37,1.08,6.75-.35-1.42-1.26-.72-2-.54-1.43.3-2-.19-2-1.6a3.7,3.7,0,0,0-.09-1.24c-.14-.48.28-.51.54-.66a1.38,1.38,0,0,0,.49-1h0c.44-.31.89-.58.82-1.27C52.35,9.14,52.55,8.79,53.09,9Z" style="fill:#686789"/><path d="M51.07,11.82A7.49,7.49,0,0,0,51,14.65c0,.48.89.78,1.57.67a1.45,1.45,0,0,1,1.14.43,29.3,29.3,0,0,1-3.76,0c-1.64-.05-2.56.8-3.57,1.72-.19.17-.31.38-.59.38a2.32,2.32,0,0,0,.26-1.07c0-.81.09-1.59,1-2,.19-.07.38-.18.33-.45s-.57-.59.06-.76c.31-.08.69-.1.84.31a.53.53,0,0,0,.69.37c.27-.08.22-.27.09-.48s0-.8-.6-.73c-.4,0-1.11.55-.91-.51C48.58,11.64,49.84,11.81,51.07,11.82Z" style="fill:#706e8e"/><path d="M54.76,18.36a7,7,0,0,1-.16,2.5c-.32-.16-.62-.39-.37-.76C54.59,19.57,54.45,18.9,54.76,18.36Z" style="fill:#666587"/><path d="M75,59c-.44-.64-.17-1.36-.24-2,.52-.55,0-1.16,0-1.75s.15-.76.63-.83.7.31.82.73a.49.49,0,0,1,0,.12c0,.57,0,1.14.63,1.37s.77-.57,1.4-.93c-.32.94.09,1.68-.47,2.53-.39.58.36,1.59.38,2.47,0,.33.46.23.66,0a1.94,1.94,0,0,1,1.9-.64c0,.76.4,1.48.25,2.25-.76-.32-1,.55-1.61.66-.42.14-.88,0-1.29.2A1,1,0,0,1,77.8,63c-.69-.55-.83-1.56-1.73-2-.28-.13-.11-.63,0-.93A4.09,4.09,0,0,0,76,57.2C75.41,57.71,75.45,58.45,75,59Z" style="fill:#b5b4c5"/><path d="M24.31,61.45c0-.51.1-1.05-.24-1.51a12.88,12.88,0,0,0-.5-3.27c0-.56,0-1.11-.05-1.67-.1-.4-.79-.27-.73-.75.11-.79-.37-1.61-.16-2.28s1.13-.58,1.78-.69.74.37.72.82c-.05,1,.82.88,1.36,1.24-.8-1.14.41-1.37.86-1.79.71-.67,1,.25,1.45.61v.26a13.57,13.57,0,0,0-.6,2c-.17.46-.08,1-.22,1.46.45.22,1-.13,1.32.3.41,1.23.25,2.57.73,3.79.1.92.19,1.83.29,2.74-.3.24-.86.36-.46.93.27.39.08.62-.25.8s-.54.37-.81.2-.12-.57,0-.85,0-.48-.29-.54a.94.94,0,0,1-.77-.72c-.14-.54-.41-.54-.93-.3-.73.35-1.23,0-1.46-.81-.09-.31.43-.86-.22-.91s-.6.57-.66,1Z" style="fill:#8a89a3"/><path d="M34.06,64.59c.66-.13,1,0,1.24.44A1.15,1.15,0,0,1,34.06,64.59Z" style="fill:#8f8ea7"/><path d="M56.62,35l-.75.71H54.58l1-.76c-.64-.44-1.64-.24-1.73-1.25,1.26.55,2,0,2.57-1.13a9.68,9.68,0,0,1,1.7-3.14c.76,1.14-.36,1.72-.76,2.51a1.14,1.14,0,0,0-.52,1.46A2.09,2.09,0,0,1,56.62,35Z" style="fill:#83829d"/><path d="M50.06,30.39c1.06-1,2.51-1,3.77-1.5a9.44,9.44,0,0,1-.76,2.76.49.49,0,0,0-.25-.5C51.39,32.31,51,32.2,50.06,30.39Z" style="fill:#706e8e"/><path d="M62.87,25.12a2.08,2.08,0,0,0-.25,1.25,2.32,2.32,0,0,0-1.71,1.14,2.33,2.33,0,0,1-2.06,1.13c-.08.12-.17.12-.25,0,.57-.45.68-1.19,1.11-1.7A7.48,7.48,0,0,1,62.87,25.12Z" style="fill:#7e7d99"/><path d="M58.6,28.64h.25c0,.34-.11.74.25,1,.55.81.74,1.45-.6,1.61-.4,0-.77.42-1.16.65,0-.9,1-1.53.76-2.51C58.25,29.13,58.63,29,58.6,28.64Z" style="fill:#9695ac"/><path d="M13.63,9.84c0,.3-.11.61-.49.59s-.38-.31-.41-.54.25-.4.48-.47S13.61,9.58,13.63,9.84Z" style="fill:#8c8ba5"/><path d="M28.8,52.16c-.18-.39-.89.33-.93-.48,0-.23-.34-.25-.44.11-.15.55-.6.59-.95.77-.11.56,1.09.14.62.91s-.75.16-1.13,0c-.65-.28-1.46-.33-1.08-1.45.12-.39-.36-.8-.84-.42s-.86.27-1.38.42c1,.83.1,2.11.85,3-.73-.08-.88.72-1.41,1-1.17-.53-1.74.54-2.54,1-.22.12-.35.61-.65.31a.59.59,0,0,1,.21-.94,2.27,2.27,0,0,0,1.41-2.12c.49-.67,1.3-1.38-.25-1.76a1.93,1.93,0,0,1,0-.24,5.65,5.65,0,0,1,2-.76c.52-.67,1.19-.45,1.86-.56,1.19-.2,2.69.18,3.68-1,.22-.26.45.24.72.3A7.53,7.53,0,0,1,28.8,52.16Z" style="fill:#9190a9"/><path d="M22.29,51.41a2.19,2.19,0,0,1-2,.76.55.55,0,0,1-.51-.25c-.27-.25-.72-.33-.78-.8.33-.64,1.18-.9,1.28-1.72l.28-.21c0,.35,0,.6.47.72A2,2,0,0,1,22.29,51.41Z" style="fill:#a7a6b9"/><path d="M23.05,46.42l.45-.34a6.09,6.09,0,0,1,2.13,1.71A3.8,3.8,0,0,1,23.05,46.42Z" style="fill:#706e8e"/><path d="M24.45,48.4c-.73,0-1.25-.24-1.47-1.29Z" style="fill:#7e7d99"/><path d="M39.63,60c0-.09,0-.17,0-.25.18-1.11,1.51-.85,2-1.65.08-.13.45.14.44.42a7.87,7.87,0,0,1-.17,1l-.76.75h-1A.52.52,0,0,1,39.63,60Z" style="fill:#a2a1b6"/><path d="M38.12,66.23c-.56-.11-.84-.53-1.31-1.15.89.16,1.2.56,1.31,1.15Z" style="fill:#807f9b"/><path d="M42.85,51.89l1-1c.82.35,1.8.27,2.45,1.11.31.41-.07.45-.12.66l-1,.75C43.94,53.58,43.63,52.39,42.85,51.89Z" style="fill:#ababbd"/><path d="M20.67,5.78l-.74-.51,0-.48c.08-.09.21-.18.22-.28.23-1.92.22-1.92,2.07-1.38A12.91,12.91,0,0,1,20.67,5.78Z" style="fill:#bcbcca"/><path d="M72.52,48.4c.35,0,.5.16.5.49C72.38,49.2,72.55,48.7,72.52,48.4Z" style="fill:#8c8ba5"/><path d="M59.07,29.66c.26-.38.47-.57.8-.44.05,0,.12.15.1.19C59.78,29.81,59.39,29.56,59.07,29.66Z" style="fill:#9695ac"/><path d="M76,70a.46.46,0,0,1,0-.2c-.08-1,.33-.94.88-.41.21.2.29.57.65.26.51-.44-.2-.47-.26-.73,0-.08-.06-.2-.11-.22-1.79-.48-1.27-2-1.46-3.21a3,3,0,0,0,1.67-1,.55.55,0,0,1,.64-.27c.34.11.28.43.34.71a1.91,1.91,0,0,1-.55,2c-.13.1-.19.22-.08.09l0,0c.6-.45,1.23-1,2-.79.4.1.21.72.11,1.11,0,.06-.15.09-.07.13s-.09,0,.06-.08a.12.12,0,0,1,.2,0c0,.46,0,.92,0,1.38,0,.12,0,.31-.06.35-1,.6-1.53,2-3,2.05C76,71.34,76.52,70.29,76,70Z" style="fill:#a4a3b8"/><path d="M80.06,67.48h-.25c-.27-.32-.13-.69-.09-1.16-.68.55-1.67.39-2,1.4-.13.38-.39,0-.49-.17a.38.38,0,0,1,0-.35c1-.71.82-1.77.82-2.88-.8.37-1.06,1.8-2.28,1.15-.08.12-.15.13-.22,0l0-.75c-.17-.27,1.24-.28.12-.73-.4-.16-.28-.59-.19-.88a.67.67,0,0,1,.91-.43c1.82.82,3.68,1.62,4.94,3.3a.49.49,0,0,1,0,.21C81.54,67.23,80.64,67.2,80.06,67.48Z" style="fill:#9897ae"/><path d="M84.48,17.82l-.2,0,0-2.21c.3-.06.16-.75.49-.52.57.42,1.51.17,1.79,1.08.11.35-.06.64,0,.95C85.67,17,84.68,16.32,84.48,17.82Z" style="fill:#706e8e"/><path d="M44.24,14.53c.41.15,1-.21,1.22.36s-.42.82-.87,1-.13.76-.63.85c-.64-.83.69-1.39.29-2.17Z" style="fill:#706e8e"/><path d="M46.66,47.39l.25-.26a.49.49,0,0,0,.24,0l.51.26c.55,1.21.91,2.25-.86,2.9-.77.29.39.68.36,1.12a1,1,0,0,1-1-.54,2.33,2.33,0,0,0-1.43-1.12c0-.43.41-.63.7-.87A2.58,2.58,0,0,0,46.66,47.39Z" style="fill:#a2a1b6"/><path d="M50.06,30.39c.14.08.37.12.42.24.52,1.37,1.44.92,2.34.52-.49,1.24-.83,2.7-2.4,3-.94.15-1.18.55-1.13,1.36-.47-.62,0-1.45-.45-2.07,0-1.08,0-2.16,0-3.24A1.89,1.89,0,0,0,50.06,30.39Z" style="fill:#7c7a98"/><path d="M51.17,54.69l-1-1.26c.78-.4.19-.85,0-1.24a1.32,1.32,0,0,1,1.33-1.94,1,1,0,0,0,1.27-.67,3.79,3.79,0,0,1,2.4-2.44v.76a4.89,4.89,0,0,1-.45.46c-.49.41-1.1.71-1.15,1.46a.92.92,0,0,1-.19.28c-.4.37-1,.58-.6,1.37.29.6-.2.86-1,.9,1,.5,1.72.9,1.93,1.83C53.15,55.73,52.12,55,51.17,54.69Z" style="fill:#a4a3b8"/><path d="M7.61,39.94c-.09.41-.41.61-.72.83a4.92,4.92,0,0,1-.78-2.09c0-.29,0-.58-.3-.77s-.57-.38-.3-.68.39.23.62.31.7.23.61-.23c-.25-1.23,0-2.59-.9-3.68.16-.18.32-.36.49-.53.19.5.2,1.19,1.1.77.49-.23.25.32.25.42C7.56,36,8.25,37.84,7,39.41,6.71,39.7,6.76,39.75,7.61,39.94Z" style="fill:#727190"/><path d="M41.36,53.66c.15-.35.54-.56.53-1,.17-.17.33-.35.5-.53a.59.59,0,0,0,.23,0C43.12,53.41,42.08,53.4,41.36,53.66Z" style="fill:#ababbd"/><path d="M39.63,60a.51.51,0,0,1,.5.25c-.27,1.2-.62,1.42-1.7.94-.32-.14-.5.32-.77,0C37.75,59.87,38.89,60.22,39.63,60Z" style="fill:#8f8ea7"/><path d="M19,51.12a1.64,1.64,0,0,1,.78.8l-1.31-.3Z" style="fill:#9190a9"/><path d="M81.32,66a38.55,38.55,0,0,0-4.72-3,.82.82,0,0,0-.9.09.51.51,0,0,0-.13.44c.14.55.45.11.67.09.49-.05.42.19.36.53-.13.66-.61.55-1.06.56a9.34,9.34,0,0,1-.26-3,1,1,0,0,1,.12-1.14c.52.75,1.59.85,1.86,1.84.12.4.53.34.79.52h0c.48.22.87,0,1.26-.25.21-.55,1-.39,1.23-1.08.08-.25.18.5.5.57A21.72,21.72,0,0,1,81.32,66Z" style="fill:#a4a3b8"/><path d="M55.41,50.4l.06,2.47c.11.32.25.7-.17.85a1.73,1.73,0,0,1-1.66-.12,2.77,2.77,0,0,1-.2-3.7c.27-.35.38-.93,1-.78C54.67,49.63,54.76,50.21,55.41,50.4Z" style="fill:#8c8ba5"/><path d="M53.44,49.9c-.8,1.11-.46,2.18.13,3.24.36.66.93.25,1.41.33s.41-.34.49-.6a11.27,11.27,0,0,1,.21,3.57,1.82,1.82,0,0,0-1.23.25.74.74,0,0,1-.34-1,1.39,1.39,0,0,0-.42-1.56c-.67-.4-.91-1.41-1.95-1.33-.28,0-.32-.33-.26-.58s.32-.35.58-.27.82,0,.53-.4C51.61,50.32,52.78,50.27,53.44,49.9Z" style="fill:#9b9ab0"/><path d="M55.41,50.4c-.38,0-.76-.29-1.12.21.06-.61.1-1,.15-1.47-.35-.44.11-.68.25-1a.49.49,0,0,1,.49-.24A6.8,6.8,0,0,1,55.41,50.4Z" style="fill:#7e7d99"/><path d="M74.2,24.62l.58.14c-.27.94.56,1.42.87,2.12a16.74,16.74,0,0,1,.73,2.74c.13.52-.1.79-.64.77-.39,0-.76,0-.83.53A31.84,31.84,0,0,1,74.2,24.62Z" style="fill:#6d6c8c"/><path d="M78.05,63c-.4,0-.87.1-1.06-.4s-.43-.91-1.11-.9c-.48,0,0-.6-.39-.78-.37.21-.11.58-.21.86-.47-.89-.13-1.85-.25-2.77s.35-1.36.49-2c.08-.41.51,0,.62.13a3.33,3.33,0,0,1,.35,2.73c-.1.63-.82,1.38.56,1.4.11,0,.22.4.31.63A2.28,2.28,0,0,0,78.05,63Z" style="fill:#aeadbf"/><path d="M75.57,65.47h.22c-.17.32.53.43.17.85s-.18.61.35.56c.32,0,.53.27.33.46-1.37,1.26.13.68.51.83s.78.72,1.07,1.07-.5.58-.81.87c-.61.57-.77.36-.65-.37,0-.22,0-.43-.31-.45s-.38.25-.43.49l-.22,0C76,68.3,75.43,66.9,75.57,65.47Z" style="fill:#ababbd"/><path d="M29.31,56.18l-2,.24c.64-1.11.5-2.22.8-3.26.13-.47.39-.54.66-.74.41.79.05,1.73.48,2.53C29.3,55.36,29.31,55.77,29.31,56.18Z" style="fill:#9190a9"/><path d="M53.09,9c-.33,0-.6.2-.45.57.51,1.19-.2,1.25-1.07,1.2C51.48,8.89,51.81,8.51,53.09,9Z" style="fill:#83829d"/><path d="M53.69,54.17a.86.86,0,0,1,.81,1.37c-.26.47,0,.77,0,1.15-.5.36-1.15.35-1.67.73s-.79-.22-.92-.52a20.25,20.25,0,0,1-.69-2.21c.09-.23.12-.92.37-.52C52.36,55.5,53,54.73,53.69,54.17Z" style="fill:#ababbd"/><path d="M50.82,28.13c-.48,0-.93-.06-1-.6s.4-.65.85-.65,1,.22,1,.73S51.17,28.11,50.82,28.13Z" style="fill:#5c5b7f"/><path d="M79.31,62.71c-.37.31-.64,1.15-1.26.25C78.39,62.46,78.88,62.73,79.31,62.71Z" style="fill:#aeadbf"/><path d="M79.51,68.4c-.24-.36-.29-.64.07-.86a.86.86,0,0,1,.23-.06C79.76,67.77,79.94,68.12,79.51,68.4Z" style="fill:#9897ae"/><path d="M54.69,48.14c-.09.34-.17.67-.25,1l-1,.76C53,48.69,54.11,48.61,54.69,48.14Z" style="fill:#9b9ab0"/></g></g></svg>