<svg xmlns="http://www.w3.org/2000/svg" viewBox="0 0 82.6 88.32"><g id="Ebene_2" data-name="Ebene 2"><g id="OBJECTS"><path d="M63.36,39.41l-.15-.31c-.26-.7.18-1.33.19-2A2.55,2.55,0,0,1,64,35.63a6.1,6.1,0,0,1,1.69-.38c1.12-.07,2.24-.08,3.36-.17a20,20,0,0,1,3,.45,6.74,6.74,0,0,1,3.59,1.56c1.36.21,2.74.23,4.11.34.4,0,.85-.14,1.11.35a.92.92,0,0,1-.17.8v0c-.16.35-.17.79-.56,1l-.23.27c-1,1-2.34.6-3.49,1a50.08,50.08,0,0,0-5.94,1.23.71.71,0,0,1-.77.26.92.92,0,0,1-.46-.26,2.62,2.62,0,0,0-2.4-.48,1.43,1.43,0,0,1-1.48-.31c-.25-.57-1-.31-1.32-.75S63.36,39.93,63.36,39.41Z" style="fill:#807f9b"/><path d="M27.56,41.35c-.77-3.42-2.12-6.66-3-10-.26-.26-.13-.58-.17-.88.12-.25.36-.26.49-.09.65.87.9.5,1.1-.3.41-1.59.58-1.61,2-.92.66.32,1.36-.07,2-.4a.23.23,0,0,1,.29.11,61.88,61.88,0,0,0,2.18,6.76c.42.51.35,1.19.58,1.76v0c.26.27.12.61.18.91-.15.45-.57.69-.84,1.06a4.15,4.15,0,0,0-.78,3.58.75.75,0,0,1-.69.15,4.25,4.25,0,0,1-1.52-1.17C28.84,41.41,28,42,27.56,41.35Z" style="fill:#7e7d99"/><path d="M8.11,21.51a5.56,5.56,0,0,0-1,2C6.67,24.7,7.12,26,7,27.2a2.54,2.54,0,0,1-1.3.91c-.61.29-.82.78-.47,1.32a10.53,10.53,0,0,1,1.19,3.21,5.54,5.54,0,0,0,1.68,2.72,1.77,1.77,0,0,1,.68,1.88.36.36,0,0,1-.3.18c-.37-.14-.53-.49-.76-.78-.47-.74-1.11-1.34-1.57-2.1s-1.69-.59-2.48-1a3.07,3.07,0,0,1-.46-.27c-.72-.48-1.78-.56-2-1.66.05-.29.24-.4.52-.45s.75.29.8-.27c0-.39-.4-.49-.68-.66A3.08,3.08,0,0,1,.15,28.34c0-.63,0-1.27,0-1.9a.89.89,0,0,1,.11-.35c1.06-.32,1.41,0,1.51,1.47.39-.1.66-.49.52-.7-.62-1,.14-1.07.71-1.41a1.31,1.31,0,0,0,.62-1.7c-.32-1-.3-2.13-1.47-2.66C1.87,21,2,20.57,2,20.28c.21-.43.43-.86.65-1.29s.41-.9.81-1.22l0,0a4.27,4.27,0,0,1,.76-1l0,0c.17-.31.34-.62.75-.67.58,0,1.15-.21,1.74,0s1.13.6.6,1.24-.66,1.8-1.39,2.55c-.47.48.29.91.73,1.14S7.67,21.15,8.11,21.51Z" style="fill:#807f9b"/><path d="M45.46,80a1.42,1.42,0,0,0-.15.92,7.28,7.28,0,0,1-.6,2.34c-.14.43-.29.85-.44,1.27-1.13,1.4-2,1.61-3.93,1a2.23,2.23,0,0,1-1.52-2.26c0-.15.17-.34,0-.43s-.29.12-.45.14a1.78,1.78,0,0,1-1.69-1c0-.76.21-1.51.25-2.28.06-1,1.22-1.36,1.95-1.92a4.42,4.42,0,0,1,1.65-.56,8.41,8.41,0,0,0,2.53-1,2.27,2.27,0,0,1,3.15.64A10.63,10.63,0,0,1,45.46,80Z" style="fill:#5a597d"/><path d="M63.68,21c-.1.3-.2.6-.29.89A1.73,1.73,0,0,1,62.62,23c-1.73.12-3.46.18-4.53-1.56-.28-.44-1,0-1.09-.63.06-.23.12-.46.17-.69a1.84,1.84,0,0,0,.75-1.45c.06-.48.54-.57.79-.88l0,0c.57-1.11.88-2.42,2.23-2.94.63-.17,0,1.17.88.73.1-.06.27,0,.36-.09,1-1.07,1.72-1,2.87.18.16-.46-.16-.7-.43-1a.8.8,0,0,1-.11-1.21.74.74,0,0,1,1.11-.13c.26.18.6.48.84,0,.49-1,1.24-.76,2-.48a3.75,3.75,0,0,0,1,.86,1.67,1.67,0,0,1,.28.18c.32.77,1,1.44.75,2.38a.84.84,0,0,1-.49.1c-.39-.07-.73-.08-.8.43s-.43.63-.85.69c-.2.1-.45,0-.63.2h0a16,16,0,0,0-2,1l0,0a2.36,2.36,0,0,1-.74.5c-.68.18-1.14-.4-1.86-.54.1.61.12,1.08-.73,1.2-.61.08,0,.79-.16,1,0-.4.11-.9.79-.85S64,20.32,63.68,21Z" style="fill:#6d6c8c"/><path d="M57,20.79a3.71,3.71,0,0,1,1.86,1.09c1,1,2.51.85,3.87.9.08.19.1.36-.13.47a1.47,1.47,0,0,0-.47.92c-.51,1-1,2.09-1.56,3.09-.24.18-.18.45-.19.69a36.31,36.31,0,0,1-1.58,4.42,3.24,3.24,0,0,0-2.08-.69c-.89.05-1.57-.83-2.11-1.58a9.13,9.13,0,0,0-.94-1.3,3.21,3.21,0,0,1,.46-1.51c.32-.64.45-1.35.74-2,.08-.26,0-.59.26-.79a1.78,1.78,0,0,0,.31-1.26,2.93,2.93,0,0,1,.5-1.09c.52-.2.67-.71.93-1.13A2.53,2.53,0,0,0,57,20.79Z" style="fill:#747392"/><path d="M8.67,37.33a3.05,3.05,0,0,0-1-2,5.43,5.43,0,0,1-1.75-3.57,2,2,0,0,0-.32-1.16c-1.7-2.37-1-2.44,1.29-3.31.28.22.08.59.25.84a8,8,0,0,0,3.14,5.51,1.9,1.9,0,0,0,1.38.44c.19.16.43.1.64.19s.62.09.63.31c.05,1.23.93,1.65,1.86,2.05a.82.82,0,0,1-.38.75c-1.6,1-1.5,2.64-1.54,4.21a8.58,8.58,0,0,1-.43,1.58.94.94,0,0,1-.51.51c-.89-.44-.15-1.47-.72-2a1.33,1.33,0,0,0-1-1c-1.17-.24-1.5-1-1.39-2.08a1.18,1.18,0,0,0-.14-.71A.52.52,0,0,1,8.67,37.33Z" style="fill:#7c7a98"/><path d="M72,52c0,.18,0,.37.16.48a1,1,0,0,1,.07,1.22v0c-.17.35-.16.8-.58,1l-.43.42c-.43.61-1.12.67-1.76.84h0a5.57,5.57,0,0,1-2.75,0,4.19,4.19,0,0,1-2.24-.74,5.53,5.53,0,0,1-1.53-1.52l-.26-.74a2.33,2.33,0,0,1,0-1.5c.09-.77.77-.95,1.28-1.3a9,9,0,0,1,3,0,.13.13,0,0,0,.19,0c.75.29,1.57-.09,2.32.22l1.44.54A2,2,0,0,1,72,52Z" style="fill:#1a184b"/><path d="M8.11,21.51c-1.34.27-2.19-.48-3-1.41a.28.28,0,0,1,.13-.5c1.47-.3,1.1-1.86,1.82-2.71.45-.53-.59-.47-1-.62s-.84.5-1.24-.05c0-.83.84-.84,1.28-1.24a12.18,12.18,0,0,1,4.22-1.21,2.87,2.87,0,0,0,1.39-.46c.84-.53,1.39-.32,1.73.6.28.75.26,1.59,1.15,2.08.48.26.21.87-.26,1.09a7.05,7.05,0,0,0-1.47,1.12c-1.55.13-2.61,1.17-3.79,2a2.67,2.67,0,0,1-.84,1Z" style="fill:#7c7a98"/><path d="M46.16,76.79a3,3,0,0,0-3.73.28,5,5,0,0,1-2.54.68c-1.2.12-1.57,1.42-2.64,1.69-.14,0-.22.38-.07.56.67.81,0,1.35-.37,2,0,.12-.09.13-.18,0a.49.49,0,0,0-.08-.23c-.21-.56-.27-1.16-.5-1.72-.4-.34-.11-.92-.43-1.29a1.59,1.59,0,0,0,.53-.79,1.71,1.71,0,0,1,.21-.26c.72-.6.55-1.2,0-1.83-.87-1-.8-2,.35-2.7.79-.47.77-1.61,1.76-1.84a1.34,1.34,0,0,1,.35,0,2.9,2.9,0,0,1,1.88,1.52c.09.58.46,0,.65.14a2.85,2.85,0,0,0,1.84,1.35,12.63,12.63,0,0,1,3.33,1.2l0,.43C46.33,76.17,46.7,76.7,46.16,76.79Z" style="fill:#646285"/><path d="M47,51.16c-.21-.34.21-.47.26-.72.47.33.91.71,1.5.14s1.41-.13,2.05,0c.15-.07.23-.17.18-.22-.75-1-.66-1.56.5-2.17.68-.35,1-1.3,1.87-1.56.27-.08.27-.41.24-.66s-.34-.28-.56-.23a1.18,1.18,0,0,1-1.45-.87c-.23-.65-.52-.83-1.21-.49a1.63,1.63,0,0,1-1.42-.25,4.22,4.22,0,0,1,.43-1.81c.31-.31-.11-.94.49-1.13.85,0,1.54.59,2.38.57a14.74,14.74,0,0,1,2.57.37c.33.06.67.11.72.54-.54,2.6-1.18,5.18-1.94,7.72l0,0c-.22.58-.13,1.27-.6,1.77a.87.87,0,0,0-.15.7A8.84,8.84,0,0,1,52,55.42a1.6,1.6,0,0,1-1.47-.78c.07-.49-.47-.38-.64-.63a.45.45,0,0,1,0-.32c.26-.47,1.1-.84.55-1.44s-1.14,0-1.68.29a.93.93,0,0,1-.33,0,2.93,2.93,0,0,0-1.23-.74C46.91,51.62,47,51.38,47,51.16Z" style="fill:#2a2958"/><path d="M30.05,28.73a1.5,1.5,0,0,1-2.48.27c-.31-.4-.56-.35-.9,0a1.58,1.58,0,0,0-.43,1.25,1.19,1.19,0,0,1-.91,1.2c-.74.16-.22-.64-.5-.87a2.86,2.86,0,0,0-.42-.24c-.5,0-.12-.57-.42-.72l-1.73-4.83a5.83,5.83,0,0,1-.41-1,.78.78,0,0,1,.5-1.07.66.66,0,0,1,.37,0,6.55,6.55,0,0,0,4.82,1.42,2.5,2.5,0,0,1,1.25.48.54.54,0,0,1,.19.3,8.5,8.5,0,0,0,.65,2.17A2.05,2.05,0,0,1,30.05,28.73Z" style="fill:#7c7a98"/><path d="M52.49,4.21l.64-.56a14.12,14.12,0,0,1,2-.7c1.4-.47,2.72.45,4.11.25a.66.66,0,0,1,.68.6,12.46,12.46,0,0,1,.44,1.67,2.73,2.73,0,0,1-.71,1.44A1.09,1.09,0,0,0,59.31,8c0,.11,0,.22.06.33a10.1,10.1,0,0,0-.48,2.31h0c-.36.11-.49-.22-.72-.37s-.7-.32-.94-.6c-.73-.87-1.41-.58-2.1,0-.3.27-.64.7-1.06.49S54,9.53,54,9.15a.87.87,0,0,0,0-.48.11.11,0,0,0-.19,0c-.86,1.62-.86,1.62-2.29,0,.88-1.2,1.18-2.85,2.53-3.46a1.35,1.35,0,0,1-1.87-.6C52.24,4.44,52.27,4.26,52.49,4.21Z" style="fill:#5f5e81"/><path d="M74.92,29.59c.1-1.13,1.14-1.91,1.15-3.08-.08-.69.19-.94.85-.65.82.37,1.68.61,2.53.92a2.32,2.32,0,0,1,1.86,2.34,2.38,2.38,0,0,0,1.09,1.73,7.14,7.14,0,0,1-.46,3.39c-.6.79-1.3.34-2,.15-.23-.1-.53-.18-.64-.37-1-1.83-2.89-2.67-4.37-4C74.82,29.94,74.85,29.76,74.92,29.59Z" style="fill:#747392"/><path d="M18.71,19.73l-1.05-1c-.24-.32-.66-.31-1-.53a1.24,1.24,0,0,1-.93-.25.24.24,0,0,1-.14-.29c.06-.2.2-.37.24-.57.35-1.76.37-1.78,2.3-2-.08-.18-.25-.14-.38-.13C16.32,15.17,16,15,16,13.6c0-1-.47-1-1.23-1.09-.54,0-1.33.38-1.55-.58A10.31,10.31,0,0,1,16.7,12h0c.37.3.94-.16,1.26.33a10.48,10.48,0,0,1,1.95.68,4.26,4.26,0,0,1,1.31.78h0a18,18,0,0,1,1.88,1.51.36.36,0,0,1-.12.31c-.43.23-1,.36-1.1.95.17.29.51.2.77.31.93.39,1,.69.18,1.38S21.44,20,20.08,19.3c-.36-.18-.68.4-1.07.54A.27.27,0,0,1,18.71,19.73Z" style="fill:#8a89a3"/><path d="M53.67,28.8c.53-.08.79.25.92.67.27.93,1.18,1.25,1.76,1.89a.55.55,0,0,0,.69.11c1.08-.6,1.4.11,1.66.94a12.49,12.49,0,0,1-1.42,4.4H57.2l-.06,0a13.3,13.3,0,0,1-2.79-.72c-.47-.31-.93-.06-1.39,0-.73,0-1.6.2-1.5-1a2.61,2.61,0,0,1,.41-1.27c.43-.89.6-1.87,1-2.76C52.82,30.19,53.66,29.64,53.67,28.8Z" style="fill:#706e8e"/><path d="M29.29,64.2c.53.58.49,1.41.89,2A3.66,3.66,0,0,1,30,70v0a2.6,2.6,0,0,1-1.36,1.25c-.22.33-.57.23-.88.29a2.07,2.07,0,0,1-1.51,0,1.09,1.09,0,0,1-1-.48,24.42,24.42,0,0,1-1.5-2.38.71.71,0,0,1,.06-.86c1.33-.75,2.1-2.39,3.88-2.43.35,0,.51-.4.73-.64S28.81,64,29.29,64.2Z" style="fill:#727190"/><path d="M32.78,64.27a.72.72,0,0,1-.15-.85c.38-.59-.05-1.32.34-1.92.82-.26,1.71,0,2.51-.37.56,0,.65.46.79.83.41,1.06.88,2.34.44,3.28-.8,1.74.29,3.08.48,4.6,0,.19.24.33.36.5.46,1.08.3,1.53-.76,1.57-.84,0-1.74.79-2.54-.09-.19-.35,0-.77-.2-1.1v0c-.33-.38,0-.89-.25-1.29l0,0c-.4-.45,0-1.06-.28-1.52h0c-.32-.37,0-.88-.25-1.27v0c-.34-.38,0-.89-.26-1.28l0,0C32.71,65.13,33.1,64.61,32.78,64.27Z" style="fill:#777694"/><path d="M58.4,10.21l.48.48-.25.48a10,10,0,0,1-2.78,2.72,1.76,1.76,0,0,1-1,.58c-1.16.43-2.38-.07-3.55.19-1-.26-1.36-1.1-1.68-2h0a3.83,3.83,0,0,1,0-2.75.18.18,0,0,0,0-.2.36.36,0,0,1,.28-.19c1.25.08,2,1.2,3.24,1.47.44.1.6.09.87-.15l.09-.08C56,9,56,9,58.4,10.21Z" style="fill:#666587"/><path d="M48.93,44.12c.71-.27,1.51.16,2.19-.37.26-.2.45,0,.49.34.2,1.48,1,1.72,2.34.94-.11,1,.21,1.86-1.15,2.22-.87.23-1,1.79-2.22,1.73,0,.52.45.37.46.63,0,.46.75.8.41,1.2s-1,.16-1.34-.11c-.63-.44-1-.1-1.42.26-.87.8-1.27.46-1.46-.52a2.48,2.48,0,0,1,.37-1.35c.24-.55.29-1.15.51-1.71A14,14,0,0,1,48.93,44.12Z" style="fill:#232152"/><path d="M74.92,29.59c.19.69,1,.92,1.38,1.07,1.71.69,2.27,2.51,3.7,3.42.44.5.38.93-.22,1.25-.32.18-.56.46-.89.61a4.11,4.11,0,0,0-1.15.22A2.44,2.44,0,0,0,76.6,37c-.28.41-.63.62-1.12.34-.15-.05-.38,0-.45-.14-.68-1-1.8-1.08-2.82-1.37a.91.91,0,0,1,.77-.31c1.11,0,1.48-.65,1.4-1.68-1.29.45-1.29.45-1.42-.3C73.61,32.23,74.26,30.91,74.92,29.59Z" style="fill:#8c8ba5"/><path d="M64.16.29a.29.29,0,0,0,0,.13c1.19.77-.27.68-.36,1.14,1.22-.48,2.08.61,3.19.61-.1-.22-.26-.44-.11-.69a.21.21,0,0,1,.31-.07c1,.23,1.2,1.11,1.64,1.8a1.69,1.69,0,0,1,.36,1.73c-.25,1-1.06,1.44-1.8,2h0a5.45,5.45,0,0,1-1.51.54h0c-.26.23-.59.1-.88.19-.5-.09-.47-.41-.28-.74.27-.5.58-1,.86-1.43-1.34-.2-1.34-.2-1.36,1.29a4.22,4.22,0,0,1,0,.87.63.63,0,0,1-.41.32l-.68,0-.12,0c.45-1.18-.42-2.07-.7-3.09a11.08,11.08,0,0,1,0-3.45c0-.51,0-.78-.48-1A.19.19,0,0,1,62,.18a.17.17,0,0,0,.2,0C62.84.07,63.52-.21,64.16.29Z" style="fill:#7c7a98"/><path d="M36.52,53.25c-.11,1,.65,1.9.53,2.93a.53.53,0,0,1,0,.69c-.2.22-.46,0-.66-.11A1,1,0,0,1,36,56.3c-.55-1.71-1.79-3-2.72-4.46-.69-1.5-.86-3.18-1.58-4.68a1.09,1.09,0,0,1,.36-1.34,6.08,6.08,0,0,0,1-1.26c.45-.34.74-1.12,1.51-.51.15.27,0,.6.17.87l0,0C35.31,47.68,36,50.46,36.52,53.25Z" style="fill:#151347"/><path d="M82.21,52.14a5.51,5.51,0,0,1-1.45,1.77,2.88,2.88,0,0,1-2.51-.26h0c-.36-.29-.83-.48-.84-1A2.36,2.36,0,0,1,78,51.52c.61-.73.92-.67,1.25.28.12.36.39.22.77.46-.18-.51-.47-.78-.45-1.13,0-.57-.2-.61-.66-.44-.62.22-.76-.12-.88-.67a4.44,4.44,0,0,1,.4-3.82c.14-.19-.35-.1-.4-.32a2.83,2.83,0,0,1,3.65,1.67c.21.52.35,1.07.52,1.61C82.46,50.15,82.94,51.14,82.21,52.14Z" style="fill:#a2a1b6"/><path d="M61.85.38l1,.08c-.21,1.71-.61,3.36,0,5,.07.19.07.49.21.56,1.08.61.53,1.25.08,1.9l-2,1a1.61,1.61,0,0,1-2-.74h0a4.12,4.12,0,0,1,1.57-2.71,2.23,2.23,0,0,0,.78-1.17c-.26-.12-.44.1-.62.17-.71.25-1.15.15-1.09-.73a2,2,0,0,0-.15-1c-.21-.44-.56-.72-1-.38-.86.68-1.41.22-2-.41-.16-.19-.28-.39,0-.56.74-.5,1.7-.26,2.43-.77.4-.3.9,0,1.3-.24a.2.2,0,0,0,.21,0A1.63,1.63,0,0,1,61.85.38Z" style="fill:#706e8e"/><path d="M11.91,43.6l.29-.46c1-1.42,2-2.66,3.88-2.85.86.31,1.79-.18,2.65.21.36.16,1,.09.75.8-.18.49-.37,1-.55,1.45a1.84,1.84,0,0,1-1,1.1l-1.22.76a7.42,7.42,0,0,1-1.37.48,2.49,2.49,0,0,0-1.14.27,6.6,6.6,0,0,1-2.17.12C11.14,44.91,11.4,44.26,11.91,43.6Z" style="fill:#1c1a4c"/><path d="M2.89,43.87a8.06,8.06,0,0,1-1-3.78c-.08-1.16-.38-2.31-.37-3.48v-.4c.19-.34.41-.16.63,0,.27.32.39.82.95.79a3.25,3.25,0,0,1,2.17.64c.19.15.37.33.55.49a.85.85,0,0,1,.12,1.31.91.91,0,0,1-1.32.15A3.79,3.79,0,0,0,3.73,39c0,.6.46.62.76.77a6.84,6.84,0,0,1,2.19,2A1.5,1.5,0,0,1,7,43.29c.09,1.36-.19,1.68-1.52,1.41-.82-.17-1.75-.2-2.31-1C3,43.5,3,43.85,2.89,43.87Z" style="fill:#747392"/><path d="M35.55,61.19c-.19.81-.84.44-1.31.5a14.4,14.4,0,0,1-1.47,0c-.2.2.13.69-.39.71A3.27,3.27,0,0,1,32,60.94c-.22-.63-.28-1.31-.49-1.95-.4-1.46-.81-2.93-1.18-4.4-.05-.2.11-.45.18-.68a.2.2,0,0,1,.06-.32c1.45,0,2,1,2.29,2.14a1.09,1.09,0,0,0,1,.93,2.26,2.26,0,0,1,1.26.69,25.71,25.71,0,0,0,.6,3.36A.54.54,0,0,1,35.55,61.19Z" style="fill:#83829d"/><path d="M13.12,12.18c.83,0,1.67.05,2.5,0,.65,0,.89.2.77.9-.17.94-.35,2,1.26,1.65a3.76,3.76,0,0,1,1.42.31c0,.46-.43.63-.54.54-.75-.67-1.35.32-2.06.14-.36-.08-.56.19-.29.55.57.77,0,1.12-.53,1.46s-1.37-.08-2,.21c-.24.07-.41.35-.7.22.28-.6.39-1.37,1.34-1.31.21,0,.34-.22.37-.44a.35.35,0,0,0-.33-.43c-.8,0-.83-.58-.9-1.22-.17-1.61-.5-1.74-1.81-.78-.41.29-.78-.18-1.18,0-.34-.42-.59-.84,0-1.25l1.25-.49A2,2,0,0,1,13.12,12.18Z" style="fill:#83829d"/><path d="M44.6,59.18a1.79,1.79,0,0,1,.33-1.24c-.06-.26.88.3.33-.4a.31.31,0,0,1,.28-.45,1.92,1.92,0,0,0,1.66-.62.53.53,0,0,1,.78.13c.56.89,1.52,1.34,2.2,2.08A2.68,2.68,0,0,1,49,60.34a.75.75,0,0,0-.32.36c-.8,1.58-1.59,1.93-3.24,1.44.15.6.4,1.27-.32,1.64a.92.92,0,0,1-1.35-.46,10.6,10.6,0,0,1,.39-1.86h0C44.27,60.71,44.39,59.94,44.6,59.18Z" style="fill:#34325f"/><path d="M15.92,40.37a14,14,0,0,0-3.72,2.77,3.77,3.77,0,0,1,.49-1.53,5.13,5.13,0,0,1,.91-.83.82.82,0,0,0,.34-.86c-.35-2.35.36-3.26,2.67-3.45.69-.08,1.4-.42,2.05.13.7.26.59,1,1,1.51.3.18.17.46.16.71-.87,1-1.78,1.86-3.23,1.8A.81.81,0,0,1,15.92,40.37Z" style="fill:#686789"/><path d="M76.48,40.6c1.1-.52,2.35-.31,3.46-.76l-1.22,1.71A10.2,10.2,0,0,1,76.32,44a3.56,3.56,0,0,1-1.18-.43c-.13-.1-.06-.38-.33-.35,0,.16.17.26.24.4a4.66,4.66,0,0,1-1.16,2,2.18,2.18,0,0,1-.76.42h-.41a8.74,8.74,0,0,0-1.1-1.18c.51-.9-.36-1.46-.53-2.19.8-1,1.87-.36,2.68-.65-.34-.43-.38-1,.55-1A6,6,0,0,0,76.48,40.6Z" style="fill:#8f8ea7"/><path d="M78.46,16.82l.27.46c.1.21,0,.39-.1.58s-.42.53-.12.76.5-.21.79-.21.45.48.52.82a2.38,2.38,0,0,0,.27,2.28c.58.77-.33.85-.83,1a2.18,2.18,0,0,1-.72,0,1.9,1.9,0,0,1-.83-.37,1.23,1.23,0,0,1-.23-.28c-.16-1.08-1.43-1.25-1.83-2.22.2.65.16,1.13-.65,1.12-.37,0-.55.35-.87.44a.87.87,0,0,1-.37-.77c-.3-1.73.39-2.37,2.47-2.32-.84-1.43-.75-2.13.41-2.95C77.57,15.35,78,16.11,78.46,16.82Z" style="fill:#777694"/><path d="M23.81,58.21,25.17,58a.18.18,0,0,1,.14.25A1.49,1.49,0,0,0,25,59.44c.46-.27.4-.9.83-1.11.19,0,.35,0,.4.23l.52.63a1.64,1.64,0,0,1,.75.79c.23.66.77,1.21.77,2a2,2,0,0,1-2.57.85c-.31-.12-.55-.38-.87-.49-.23.12-.08.28,0,.41a1.12,1.12,0,0,1-.45,1.42c-.51.35-.83-.17-1.2-.38a1.07,1.07,0,0,1-.43-.44.51.51,0,0,1-.06-.32c.33-.71-.41-1.38-.07-2.08.05-.22,0-.44.05-.66a3,3,0,0,0,.95-1.83A.32.32,0,0,1,23.81,58.21Z" style="fill:#7e7d99"/><path d="M22.76,63.2a3.23,3.23,0,0,0,.66.35c.3.08.38.8.87.3a.86.86,0,0,0,.18-1.21c-.15-.23-.6-.5-.14-.82s.57.09.83.3a2.18,2.18,0,0,0,3.1-.18.43.43,0,0,1,.21.52A2.5,2.5,0,0,0,28.23,64c.26,1-.1,1.34-1.15,1.44-.67.06-1.32-.1-1.53,1-.17.83-1.08.23-1.74.35.12.4.53.78.18,1.22-.26.17-.25.33,0,.5a1.3,1.3,0,0,1,0,1.24,3.07,3.07,0,0,1-1-2.25C22.85,66.05,22.32,64.65,22.76,63.2Z" style="fill:#83829d"/><path d="M77.74,22l.75.26a1.1,1.1,0,0,0,1.07.22c.7-.28,1-.29,1.41.63s-.2,1.88.55,2.59c.15.43,0,.83-.42.84-.68,0-1.19.52-1.85.48a14.69,14.69,0,0,1-2.48-.92c-.67-.4-.47.28-.7.4a6,6,0,0,1-.59-2c-.16-.21-.13-.47-.21-.71,0-.75.54-.83,1.1-.81s.91.44.83,1.13C78,23.49,77.3,22.63,77.74,22Z" style="fill:#6d6c8c"/><path d="M2,20.28c.08.19.11.48.25.55a2.75,2.75,0,0,1,1.56,2.5c.22,1.69.12,2.33-1.58,2.8,0,.39.95.16.59.75s-.48,1.17-1.09,1.28c-.4.07-.59-.37-.41-.79.38-.94-.13-1.23-.93-1.34a1.83,1.83,0,0,1,0-1.52A10.06,10.06,0,0,1,2,20.28Z" style="fill:#83829d"/><path d="M50.11,58.68A3.21,3.21,0,0,1,48,57c-.13-.3-.62-.72-.85-.17-.39.9-.93.79-1.59.41-.34.68.65.65.46,1.27-.46,0-.63-.61-1.09-.55a3.18,3.18,0,0,1,.49-1.77,2.89,2.89,0,0,1,1.15-.45c1.13-.36,1.34-.76,1.15-2-.1-.63,0-1.19.85-1.18a1.2,1.2,0,0,1,.74.75,7,7,0,0,1,.2,1.11c.06.4,0,.72.65.5.81-.3,1.18.6,1.81.82,0,.19,0,.36-.23.41l-.15.7a26.11,26.11,0,0,1-.74,2.58h0a.19.19,0,0,1-.26.08A1.33,1.33,0,0,1,50.11,58.68Z" style="fill:#45436c"/><path d="M2.89,43.87c0-.28-.05-.59.23-.8a4,4,0,0,0,3.45,1.4c.77-.31-.28-.77.09-1.11a16.66,16.66,0,0,1,2.08-.42.76.76,0,0,1,.57.85c-.09.35-.48.43-.68.69.22.32.69.28.88.63a1.27,1.27,0,0,1-.29,1,1.8,1.8,0,0,1-.58,1.14c-.21.42-.5.18-.69,0A1,1,0,0,0,6.8,47.1H6.23c-.41-.25-.92,0-1.33-.23A4.67,4.67,0,0,1,2.89,43.87Z" style="fill:#6b6a8a"/><path d="M28.59,75.54h.87c.43.21,1,0,1.28.61l.42.41c.54.36.62,1,.84,1.51v0a3.28,3.28,0,0,1-.22,3.26h0c-.13.2-.26.4-.54.4A2.56,2.56,0,0,1,29.66,80c0-.32-.19-.25-.38-.17-1.3.28-1.23-.68-1.35-1.47.1-.77-.55-1.43-.32-2.22C27.83,75.7,28.23,75.66,28.59,75.54Z" style="fill:#5c5b7f"/><path d="M19,19.68c.48-.42.73-1.32,1.68-.54a.73.73,0,0,0,1.23-.48c.13-.59.95-.61,1.25-1.17-.53-.6-1.34-.43-2.42-.64,1.07-.4,1-1.75,2.22-1.35.41-.29.6.11.87.28a2.75,2.75,0,0,0,.8.83,1.52,1.52,0,0,1,.32.4c.09.4.41.67.55,1s.56.53.52,1c.31.45,0,.62-.35.71-1,.3-1.92,1-2.9.07-.32-.29-.3.1-.41.18a2.55,2.55,0,0,1-2.66.48A1.36,1.36,0,0,1,19,19.68Z" style="fill:#85849f"/><path d="M51.46,35.09c.24.94,1,.73,1.66.74.24.45,0,.93.07,1.4.07.62-.33,1.3.29,1.84a1.18,1.18,0,0,1,.15.67,1.47,1.47,0,0,1-.08.35,12.06,12.06,0,0,1-1.44,2,6.28,6.28,0,0,1-2.3-.78,1,1,0,0,1,0-.94,11.2,11.2,0,0,1,.86-3,2.4,2.4,0,0,0,.49-1.49C51,35.52,51.37,35.35,51.46,35.09Z" style="fill:#777694"/><path d="M28.77,24.78a14,14,0,0,0-3.91-.5c-1.14,0-1.53-1.1-2.38-1.51-.26-.94.62-1.1,1.08-1.45a3.29,3.29,0,0,1,3.94.44l.39.53c.44.31.37.86.6,1.26v0C28.64,23.93,29,24.29,28.77,24.78Z" style="fill:#807f9b"/><path d="M78,45.88c.24.14,1.11-.43.55.59a2.65,2.65,0,0,0-.23,2.86c.24.39-.18.72,0,1.19L80,50a1.7,1.7,0,0,0,.82,2.3c-.83.35-1.45-.18-2.08,0-.22-.43.79-.65.22-1s-.61.34-.87.61-.43.5-.64.76c-.05.1-.12.1-.19,0-.23-.43-.47-.86-.7-1.3a1.23,1.23,0,0,0-.05-1l-.25-.24a1.4,1.4,0,0,1,0-1.26C76.4,47.63,76.57,46.38,78,45.88Z" style="fill:#9d9cb2"/><path d="M71.21,42.86c.06.1.11.29.2.3,1.56.31.74,1,.31,1.7.87.72.87.72,0,1.5l-.24.24c-.36.29-.78.1-1.17.14-1.38-.28-2.57-1.09-3.93-1.43a.69.69,0,0,1-.54-.84c.55-.33,1.22-.42,1.5-1.21.16-.46.82-.47,1.33-.36.71.71,1.32.87,1.76-.27.06-.15.27-.16.44-.14S71.13,42.7,71.21,42.86Z" style="fill:#58567b"/><path d="M71.75,3.75c.11-.35.49-.38.72-.59.48-.22,1-.05,1.48-.11a1.56,1.56,0,0,1,1.21.71c.41.66.74.22,1.11.05a1.21,1.21,0,0,1,1.06.51c0,1,0,1.85-1.07,2.31-.19.09-.35.28-.14.49.77.77.27,1.07-.46,1.25-.51.13-.68.58-1,.92-.62.24-.8-.42-1.22-.58a.52.52,0,0,1,.1-.18c.14-1-.49-2.14.25-3.15,0,0,.35-1-.6-.57C72.49,5.11,71.88,4.61,71.75,3.75Z" style="fill:#8a89a3"/><path d="M34.47,44.09c-.62-.3-.78.43-1.21.54a1.59,1.59,0,0,1-.59.31c-.24-.06-.34-.26-.44-.47-.07-.61-.67-1-.71-1.6-.92-1.49-.25-3.45,1.53-4.53.36.25.26.72.47,1a13.37,13.37,0,0,0,.64,3A1.94,1.94,0,0,1,34.47,44.09Z" style="fill:#727190"/><path d="M76.78,15.15c-1.22.91-.7,2.1-.35,3.44-.87-.48-1.39,0-2,.19-1,.26-.14,1.23-.67,1.65l-.28-.17a2.21,2.21,0,0,0-.76-.76l-.53-.5a7.06,7.06,0,0,0-1-.72l-1.07-.53c-.15-.2-.48-.1-.58-.37A.94.94,0,0,1,70,16.24h.51a6.85,6.85,0,0,1,2.59,1.62c.28-.61-.09-1.26.27-1.79.12-.55.25-1.11,1-1s.84.69.88,1.36c.31-.6.45-1.29,1.16-1.5C76.57,14.88,76.73,14.92,76.78,15.15Z" style="fill:#6d6c8c"/><path d="M53.37,40.1v-.26a1.56,1.56,0,0,1,1-1.51c.23-.61-.45-.68-.63-1a2.29,2.29,0,0,1,0-1.19c.06-.34.25-.5.59-.28.91.36,2,.29,2.76,1-.16,1.29-.91,2.42-1,3.73-.24.24.08.74-.4.87C54.85,41.13,53.77,41.21,53.37,40.1Z" style="fill:#9b9ab0"/><path d="M58.4,10.21c-1.67-1-3.06-.78-4.18.92-.21.3-.85,1.14-1.22,0-1.42.34-2-1.24-3.19-1.41a1.62,1.62,0,0,1,.07-1.24,1,1,0,0,0,.1-.21c.58-.05.7.46,1,.79s.54.35.59-.19c0,0,.05-.09.07-.14.72,0,.9.64,1.19,1.2.48-.33.35-1,.68-1.26s.08-.83.61-.53a.78.78,0,0,1,.37.86c-.07.39-.46.68-.38,1.14C56.58,8.62,56.58,8.62,58.4,10.21Z" style="fill:#616083"/><path d="M36.63,82a.61.61,0,0,0,.18,0c.56.31,1,.88,1.73.84a.48.48,0,0,1,.5.27,2.35,2.35,0,0,0,1.29,2.22c-.3.59.06,1,.34,1.48.51.85.27,1.21-.85,1.29a2.25,2.25,0,0,1-1.23-1.25,6,6,0,0,1-1.29-2.45A6,6,0,0,1,36.63,82Z" style="fill:#83829d"/><path d="M35.54,60.7a4.84,4.84,0,0,1-.5-3.27c-.15-.48-.08-.86.43-1.06a3.52,3.52,0,0,0,2.08,1.83h.13a7.17,7.17,0,0,1,.6,2.31c0,.32,0,.63.07.94a1,1,0,0,1-.05.16,1,1,0,0,1-.21.25.7.7,0,0,1-.64.14A2.28,2.28,0,0,1,35.54,60.7Z" style="fill:#45436c"/><path d="M27.5,21.76c-1.53-.86-3.91-.88-5,1h0a.46.46,0,0,1-.5.06c-.3-.67.44-1.23.25-1.95-.74,0-1.48.43-2.18,0l-.3-.09a.36.36,0,0,1-.12-.46c1,0,2.05.3,2.7-.86.24-.4.38-.32.58.22.05.13.24.31.34.3,1-.1,2,0,2.74-.93l.53.48a3.74,3.74,0,0,0,.86,1.19,1.15,1.15,0,0,1,.15.81Z" style="fill:#8a89a3"/><path d="M18.66,36.6a8.23,8.23,0,0,0-2.21.23c-.54-.34-1.2.09-1.75-.24-1.44.31-1.91-.46-1.92-1.72,0-.43-.51-.23-.6-.53a.65.65,0,0,1,.75-.05l.66.06c.51.24,1.09-.05,1.6.21C16.46,35.05,17.81,35.4,18.66,36.6Z" style="fill:#83829d"/><path d="M39.82,88.07c.67-.22,1.36-.4.49-1.29-.07-.08-1.67-1,0-1.48a4,4,0,0,0,3.94-.76,6.85,6.85,0,0,1-1.47,3.17c-.21.44-.67.43-1,.59C41.11,88.23,40.42,88.5,39.82,88.07Z" style="fill:#8a89a3"/><path d="M71.75,3.75C73,5,73,5,74.06,3.62c-.27,1,.51,1.79-.29,2.63-.23.23-.07,1,.16,1.46.32.57-.06.63-.36.82a.26.26,0,0,1-.38-.08c-.32-.27-.65-.52-1-.78L72,7.45a3.47,3.47,0,0,1-.77-1.29.31.31,0,0,0,0-.23,2.27,2.27,0,0,1,0-1.5C71.29,4.13,71.37,3.83,71.75,3.75Z" style="fill:#7e7d99"/><path d="M73,33.54c.37,1,.71,0,1.06,0s.31-.47.6-.23a.71.71,0,0,1,.24.78c-.34,1.6-.56,1.76-2.65,1.78-2.24-.75-4.52-.14-6.78-.25.31-.73,1.1-.91,1.61-1.4.14-.13.51-.17.58,0,.6,1,1.79.42,2.56,1a1,1,0,0,0,1.42-.26C72,34.38,72.5,34,73,33.54Z" style="fill:#9190a9"/><path d="M32.49,44.41c.09.15.17.31.26.47.38.53-.15.62-.41.78a1.27,1.27,0,0,0-.63,1.75c-.11,1.25-.9,1.3-1.86,1.08-.11-.07-.19-.21-.12-.3.79-1,0-1.1-.68-1.33a1.75,1.75,0,0,1-.29-.18c-.4-.27-.13-.54,0-.81A.94.94,0,0,1,29,45a15.37,15.37,0,0,1,1.93-.9A1.16,1.16,0,0,1,32.49,44.41Z" style="fill:#bab9c8"/><path d="M48.6,52.66c-.53.06-.84.68-.67.84.83.77.35,1.3-.16,1.91a2.81,2.81,0,0,1-2.35.76,13.74,13.74,0,0,1,.92-3.07c.26-.54.28-1.16.53-1.7l.1-.24.17.48c.41.24.92.34,1.22.76h.24c.06.06.08.11.06.17S48.62,52.66,48.6,52.66Z" style="fill:#3d3c67"/><path d="M9.17,43.86a.76.76,0,0,0-.5-.75A1,1,0,0,1,8.26,42c.31-.58.72-.39,1.16-.16a1.5,1.5,0,0,0,1.85-.12l.16-.07c.74.53.07,1.4.48,2,.13.57-.51,1.14,0,1.71-.12.24-.29.2-.47.07-.41,0-.84.06-1.18-.29l-.45-.17C9.3,44.74,9.28,44.28,9.17,43.86Z" style="fill:#797896"/><path d="M28.25,78.27c0,.88.1,1.57,1.25,1.27a.3.3,0,0,1,.27.24c.47.66.8,1.44,1.6,1.81,0,.25-.21.32-.34.45l-.28.13A2.26,2.26,0,0,1,28.27,82h0a1.71,1.71,0,0,1-.92-1C26.87,79.36,27,79.09,28.25,78.27Z" style="fill:#6d6c8c"/><path d="M65.93,44.37a.73.73,0,0,0,.7.74,11.38,11.38,0,0,1,3.58,1.49,3.14,3.14,0,0,1-2,0c-.31-.23-.76.15-1-.25-.31-.22-.75-.2-1-.56l0,0a5.52,5.52,0,0,1-2.3-2c-.16-.25-.32-.49-.47-.74a1.91,1.91,0,0,1-.35-1.27c1.2-.37,1.78.32,2.21,1.28C65.46,43.57,65.84,43.9,65.93,44.37Z" style="fill:#262454"/><path d="M1.39,31.56c.35.92,1.4.91,2,1.51a2.38,2.38,0,0,1-1.33,1.18l-.41.3c-.32.19-.64.33-1,0,.11-.61-.45-1.11-.3-1.73a25.39,25.39,0,0,1-.38-6c0-.25,0-.5.33-.56l0,2.31C.66,29.57,1.39,30.44,1.39,31.56Z" style="fill:#8c8ba5"/><path d="M24,68c0-.25,0-.55-.22-.67s-.65-.34-.49-.72.79-.25,1-.18c1.48.54,1.33-.23,1-1.19,0-.1,0-.23.06-.47a2.4,2.4,0,0,0,2.06.44c.58-.17.94-.58.56-1.09-.66-.86-.1-1.22.49-1.64.27.58.54,1.16.82,1.74a4.43,4.43,0,0,1-2.63,1.71C25.69,66.08,25,67.4,24,68Z" style="fill:#7e7d99"/><path d="M70.18,35.09H68.7c-.12,0-.32.09-.35,0-1.28-1.77-1.92.54-2.92.46-.47,0-.93.45-1.42.05C65.69,33.16,67.6,33,70.18,35.09Z" style="fill:#a2a1b6"/><path d="M81.51,25.78c-.79,0-1.35-.21-.57-1.07.41-.45.27-.74-.25-.92-.2-.07-.43-.14-.32-.42.58-1.47-.35-.74-.87-.6-.19-.12-.4-.22-.25-.5.33-.05.69-.09.81-.44,0-.1-.21-.34-.37-.45-1.08-.72-.24-1.42,0-2.12.19,0,.21.15.27.28v0a7.38,7.38,0,0,1,.53,1.3A3.29,3.29,0,0,0,81,22.27a1.56,1.56,0,0,1,.5,1.5c-.11.53.27.86.49,1.26a1.45,1.45,0,0,1,.08.94C81.8,26.23,81.65,26,81.51,25.78Z" style="fill:#727190"/><path d="M74.13,21.2c0-1.09.71-.81,1.33-.68.26-.46-.92-.95.08-1.29.19-.06.41-.17.57-.11.35.12.22.37.07.59s-.14.5.1.49c1.16-.07,1,1,1.46,1.57a16.19,16.19,0,0,1-3.17.48A2,2,0,0,1,74.13,21.2Z" style="fill:#706e8e"/><path d="M52.33,4.6c1,.53.94.52,1.51-.06a.44.44,0,0,1,.66.07c.2.25.21.64-.11.74-.78.23-1,1-1.46,1.47s-.72.81.15,1c-.4.64-1.35-.06-1.46.84h0c-.71-.09-.85-.69-.49-1,.8-.71.52-1.44.32-2.22l.17-.28C51.84,5,51.94,4.59,52.33,4.6Z" style="fill:#616083"/><path d="M37.55,58.2c-1-.17-2.28-.1-2-1.76a1.79,1.79,0,0,1-.23-.25c-.26-.94-1-1.64-1.31-2.55a3.75,3.75,0,0,0-.54-.84,1.17,1.17,0,0,1-.15-.32.81.81,0,0,1,.21-.82c.93,1.51,2.27,2.77,2.75,4.56,0,.21.3.63.71.43.08,0,0-.31.06-.47A4.31,4.31,0,0,1,37.55,58.2Z" style="fill:#262454"/><path d="M74.57,22.25a4.49,4.49,0,0,1,3.17-.48V22c.49,1.88.32,2.32-1.09,2.63,0-.44.74-.94.06-1.27-.45-.22-1.1-.32-1.28.49-.39,0-.24-.42-.45-.56C74.82,23,74.53,22.67,74.57,22.25Z" style="fill:#706e8e"/><path d="M29,45.14c-.09.25-.19.49-.28.73l-.25-.5c-.28-.4,0-.91-.23-1.31a5.68,5.68,0,0,1-.49-1.71c.66-.05.91-1.07,1.73-.75l1.26,1.25c.34.8-.26,1-.79,1.18A1.19,1.19,0,0,0,29,45.14Z" style="fill:#a2a1b6"/><path d="M63.68,21c0-.49-.3-.79-.81-.72s-.47.48-.38.85-.12.73-.46.7-.32-.39-.2-.69a.85.85,0,0,0,0-.83c-.52-.87.14-1,.66-.84.73.21.43-.24.41-.49s-.46-.34-.13-.61.55-.08.81.06c.47.24.87.66,1.47.59a.79.79,0,0,1-.43.7Z" style="fill:#747392"/><path d="M51.45,5.45c.73.75,1.1,1.47,0,2.25-.52.36-.07.7.2,1,0,.31.7.56.13.89a.68.68,0,0,1-1.08-.38,1.85,1.85,0,0,0-.69-1A6.49,6.49,0,0,1,51.45,5.45Z" style="fill:#6b6a8a"/><path d="M67.2,1.41c-.62.59.46.63.34,1.05a3.67,3.67,0,0,1-2.32-.53,1,1,0,0,0-1.16-.12c-.29.2-.59.62-.84,0-.17-.45.23-.62.55-.84s1.11.21.4-.56A4.61,4.61,0,0,1,67.2,1.41Z" style="fill:#8887a1"/><path d="M65.18,43.37a2.24,2.24,0,0,0-2-1.51,2.73,2.73,0,0,1,0-2.27.93.93,0,0,1,.16-.18c.52.77,1.42,1.08,2.08,1.69A3.58,3.58,0,0,0,66,42.61C66,43.1,65.6,43.28,65.18,43.37Z" style="fill:#514f76"/><path d="M28.25,78.27a3,3,0,0,0-.75,2.78c-.09.11-.17.11-.24,0h0a2.87,2.87,0,0,1-.5-1.06.2.2,0,0,0,0-.2c-.33-1.13-.55-2.24.31-3.25v0c.18-.27.26-.67.73-.52C27.71,76.82,28.45,77.44,28.25,78.27Z" style="fill:#8c8ba5"/><path d="M20.05,20.85c.66-.23,1.36,0,2-.43.49-.3.7.27.55.73s-.44,1.08-.67,1.61c-.15.23,0,.62-.35.75-.29-.5-.59-1-.89-1.49s-.51-.67-.76-1A.38.38,0,0,1,20.05,20.85Z" style="fill:#9897ae"/><path d="M10.43,12.73c-.28.41.08.83,0,1.25l-4.34,1.2c0-.42.33-.55.66-.67A10.15,10.15,0,0,1,10.43,12.73Z" style="fill:#9d9cb2"/><path d="M71.19,11.82a.77.77,0,0,0,0,.15c-.36.55-.39,1.24-.72,1.81a.82.82,0,0,1-1,.2h0a3.64,3.64,0,0,1-.87-.88c0-.54-.4-1.16.36-1.51C69.69,11.73,70.48,11.32,71.19,11.82Z" style="fill:#797896"/><path d="M15.92,40.37c1.09,0,2.23.27,2.82-1.09.12-.29.59-.42,1-.44.74.75.13,1.51,0,2.26l-.25.2A2.53,2.53,0,0,0,17,40.72C16.56,40.8,16.11,41.05,15.92,40.37Z" style="fill:#58567b"/><path d="M.69,34.55a1.49,1.49,0,0,0,.94-.24,2.46,2.46,0,0,1,1.78,1.47A.74.74,0,0,1,3,37a.66.66,0,0,1-.7-.45c-.1-.31-.23-.6-.65-.39l-.06.26a.13.13,0,0,1-.21,0Z" style="fill:#a2a1b6"/><path d="M59.16,8.2a7.68,7.68,0,0,0,2,.74l-2.24,1.74A4.44,4.44,0,0,1,59.16,8.2Z" style="fill:#666587"/><path d="M46.54,75.52a15.4,15.4,0,0,1-3.48-1,1.13,1.13,0,0,1,.87-.39C45,74,46.09,74,47.17,73.78a2.06,2.06,0,0,1-.45,1.45Z" style="fill:#363561"/><path d="M51.12,14.48c1.24-.51,2.49-.12,3.73,0a1.51,1.51,0,0,1-1,.54,4,4,0,0,1-2,0l-.76-.25c-.08-.06-.11-.12-.08-.17S51.09,14.48,51.12,14.48Z" style="fill:#747392"/><path d="M30,52.71c-.33-.29-.19-.69-.24-1.05-.24-.31-.12-.65-.1-1a.85.85,0,0,1,1.36.13,2,2,0,0,1,.09,1,1.81,1.81,0,0,1-.79.87A.36.36,0,0,1,30,52.71Z" style="fill:#9d9cb2"/><path d="M79.27,18.45c-.27.39-.55,1.05-1.1.63s-.21-.91.18-1.31c.14-.15.25-.33.38-.49h.18A1.23,1.23,0,0,1,79.27,18.45Z" style="fill:#6d6c8c"/><path d="M76.29,3.9c-.51.19,0,.69-.27,1-.88-.29-1-1.3-1.8-1.67a.33.33,0,0,1,.5,0,4,4,0,0,0,1.49.53C76.31,3.73,76.33,3.8,76.29,3.9Z" style="fill:#9897ae"/><path d="M24,69.72V68.48c.43.84,1.19,1.51,1.25,2.53A2,2,0,0,1,24,69.72Z" style="fill:#7e7d99"/><path d="M70.45,13.72c0-.67-.18-1.47.76-1.75l.9,0c.27.21.77-.11.92.39a.72.72,0,0,1-.71.38,2.16,2.16,0,0,0-1.7,1Z" style="fill:#747392"/><path d="M29.52,41.6c-.73-.11-.81,1.29-1.73.75-.07-.33-.15-.67-.23-1C28.18,41.69,28.93,41,29.52,41.6Z" style="fill:#8f8ea7"/><path d="M23.73,58.43a1.35,1.35,0,0,1-1,1.76.32.32,0,0,1-.05-.5c.17-.23,0-.59.27-.78S23.28,58.28,23.73,58.43Z" style="fill:#646285"/><path d="M71.71,46.36l-.13-.57c1.58-.07-.24-.67.14-.93.54.25,1.2.4,1,1.24A1.41,1.41,0,0,1,71.71,46.36Z" style="fill:#666587"/><path d="M32.38,62.41l.39-.71c.73.64.72,1.22-.14,1.72C32.47,63.11,32.13,62.83,32.38,62.41Z" style="fill:#616083"/><path d="M51.21,35.86c.26.64.35,1.22-.49,1.49A2.36,2.36,0,0,1,51.21,35.86Z" style="fill:#686789"/><path d="M76.49,50.39c.44.32.94.63.05,1A.69.69,0,0,1,76.49,50.39Z" style="fill:#646285"/><path d="M30.55,53.75a.22.22,0,0,1,0,.16h-.17c-.35-.3-.19-.66-.12-1,.32-.17.66-.27.84.15S30.74,53.52,30.55,53.75Z" style="fill:#9d9cb2"/><path d="M21.62,23.51c.21-.21,0-.6.35-.75h.51c-.26.28-.6.52-.49,1-.09.15-.18.15-.26,0Z" style="fill:#807f9b"/><path d="M36.3,78a.69.69,0,0,1-.68.76l.17-.52C35.79,77.8,36,77.91,36.3,78Z" style="fill:#3b3965"/><path d="M36.3,78a.54.54,0,0,0-.51.24l-.14,0c0-.23,0-.46-.07-.69.4-.09.73,0,.72.48Z" style="fill:#646285"/><path d="M81.45,36.29c-.22.54-.43,1.09-.65,1.63-1.3-.11-2.61-.21-3.91-.34-.48,0-1,.18-1.41-.24.33,0,.69,0,.8-.39.22-.74.88-.88,1.47-1.12a.67.67,0,0,0,1,0c.34-.22.43-.7.93-.77.69-.1.36-.61.34-1a2.48,2.48,0,0,0,1.77.24Z" style="fill:#85849f"/><path d="M65.18,43.37l.75-.76a5.72,5.72,0,0,1,3.52-.75l.24.25c0,.67-.57.76-1,1-.68,0-1.29-.1-1.37,1,0,.89-.9.24-1.4.25A1.21,1.21,0,0,1,65.18,43.37Z" style="fill:#5c5b7f"/><path d="M71.21,42.86,71,42.61c-.33-.14-.4-.46-.5-.75a19.72,19.72,0,0,1,6-1.26,1.73,1.73,0,0,1-2,.64.46.46,0,0,0-.64.18c-.6,1.06-.6,1.07-2,1A.64.64,0,0,0,71.21,42.86Z" style="fill:#85849f"/><path d="M69.45,41.86c-1.1.58-2.36.43-3.52.75-.55-.37-1.07-.76-.49-1.51a1.73,1.73,0,0,0,1.67.13C68.12,40.68,68.72,41.47,69.45,41.86Z" style="fill:#666587"/><path d="M70.46,41.86l.5.75c-.21,0-.45.08-.46.33a1.06,1.06,0,0,1-1,1.08c-.65.1-.45-.69-.83-.91.17-.49.7-.63,1-1C70,42.1,70.28,42.15,70.46,41.86Z" style="fill:#6b6a8a"/><path d="M65.91,37.42a.59.59,0,0,1-.61.63.48.48,0,0,1-.53-.41.68.68,0,0,1,.58-.7C65.68,36.85,65.85,37.11,65.91,37.42Z" style="fill:#5c5b7f"/><path d="M71.31,40.07c-.21.28-.42.61-.81.68-.21,0-.28-.17-.26-.33.06-.46.43-.59.79-.68C71.21,39.69,71.32,39.85,71.31,40.07Z" style="fill:#535178"/><path d="M29,45.14c-.55-.84-.05-1.3.68-1.35a1,1,0,0,0,1.06-.94l.74,0a2.16,2.16,0,0,1,1,1.54c-.81-.52-1.47,0-2.17.3A11.31,11.31,0,0,1,29,45.14Z" style="fill:#9695ac"/><path d="M8.42,41.86c.08.42.17.83.25,1.25-.66.15-1.25.87-2,.25.2-1-.65-2.36-1.91-3.08a6.68,6.68,0,0,0-.9-.41c-.61-.24-.91-.79-.59-1.27s.65.22,1,.32.7,1,1.33.46c.83-.75-.08-1.08-.44-1.53a6,6,0,0,1,3.27-.52h.25l.25.26a2.86,2.86,0,0,1-.35,2.52.86.86,0,0,1-.54.11c-.5-.34,0-.83-.19-1.22a.9.9,0,0,0-.82.41c.17.3.55.35.7.65,0,.83-.57.73-1.16.65.85.83,1.18-.43,1.79-.43a.47.47,0,0,1,.26.26A1.39,1.39,0,0,1,8.42,41.86Z" style="fill:#7c7a98"/><path d="M8.42,37.33a7.31,7.31,0,0,1-3.27.52c-.56-.83-1.6-.24-2.26-.76L3,37c1.2-.5,1.21-.59.48-1.6-.43-.6-1.18-.75-1.61-1.31l1.5-1,.26.24c.61.25,1.2.44,1.16,1.34s.58,1.06,1.27,1.09a2.06,2.06,0,0,1,1.84.84A.8.8,0,0,1,8.42,37.33Z" style="fill:#9190a9"/><path d="M7.92,36.58a3.53,3.53,0,0,0-2-.51c-.89,0-1.57-.51-1.45-1.32s-.39-1-.81-1.44C6,33.25,7,34.84,7.92,36.58Z" style="fill:#8887a1"/><path d="M1.39,31.56l-.38,0c.27-1.1-1-1.88-.63-3A4.3,4.3,0,0,0,2.19,30c.51.22,1.05.36.78,1.14s-.76.23-1.17.18C1.67,31.33,1.52,31.48,1.39,31.56Z" style="fill:#83829d"/><path d="M39,83.08l-.5-.27c.2-.22.21-.8.63-.58S39.34,82.82,39,83.08Z" style="fill:#31305d"/><path d="M66.72,11.76h1c.19.59.34.05.5,0h.51c.21.5,0,1,0,1.5a.14.14,0,0,1-.25,0c-.61-.07-1.43-1-1.65.51-.07.46-.78.52-1.21,0s-.61-.6-1-.07-.11.61.3.85c.85.49.74,1.14,0,1.86-.12-1.29-1.25-1.17-2-1.55a.34.34,0,0,0-.45.06c-.22.27.08.33.2.46.37.41.14.73-.26.57-.67-.28-1.15.22-1.74.28-.1-.51,1-.66.29-1.24a10.47,10.47,0,0,1,4.52-2.76Z" style="fill:#727190"/><path d="M69.45,14l1-.26h0c.62.12,1.61-.67,1.76.7,0,.15.17,0,.24,0,.23-.2.48-.39.75-.12a.53.53,0,0,1-.08.78c-.73.66-.11.9.34,1.2.26.32-.59.83.25,1.18.18.08-.72.55-1,1.2-.14-1.61-1.77-1.39-2.25-2.38C70.12,15.48,69.79,14.73,69.45,14Z" style="fill:#747392"/><path d="M69.7,17.47H68.2c.16-.31.79-.16.71-.73-.19-1.27.51-.72,1-.5C69.87,16.65,69.79,17.06,69.7,17.47Z" style="fill:#747392"/><path d="M68.45,13.22h.25c.49,0,.57.44.75.76A1.17,1.17,0,0,1,68.45,13.22Z" style="fill:#747392"/><path d="M14.7,36.59c.58.09,1.22-.24,1.75.24-1.95,0-2.71,1.16-2.17,3,.38,1.27-.86,1.35-1.59,1.76-.25-1.65-.35-3.24,1.35-4.28A3.39,3.39,0,0,0,14.7,36.59Z" style="fill:#706e8e"/><path d="M8.42,40.1a4.63,4.63,0,0,0,.5-2.51s.08.06.08.08c0,1.42.26,2.7,2,3,.48.08.18.67.42.94h0c-.13.16-.31.45-.45.34-.8-.63-1.9-.76-2.56-1.6h0c-.09-.06-.12-.11-.09-.17S8.39,40.1,8.42,40.1Z" style="fill:#797896"/><path d="M48.82,68.2a6,6,0,0,0-.52,2,10.94,10.94,0,0,0-.76,2.5c-.16.35-.31.71-.46,1.06-1.18,1.11-2.71.4-4,.77-.89-.19-1.71-.45-1.78-1.56.11-.56.23-1.13.34-1.69a8.82,8.82,0,0,0,.76-2.5A10.4,10.4,0,0,0,43.1,66l.48-1.27c.15-.58.32-.93,1.12-.93s1.71-.14,2.58-.1,1.36-.29,1.34-1.23a2.71,2.71,0,0,1,.46-1.65.8.8,0,0,1,.82-.44c.47.09.3.51.33.82a1.13,1.13,0,0,1-.09.6c0,.38,0,.76-.08,1.14Q49.44,65.56,48.82,68.2Z" style="fill:#211f50"/><path d="M34.59,73.46a2.46,2.46,0,0,0-.25-1.25c0-.15,0-.3,0-.44,1,.46,1.93-.23,2.92-.25.65,0,.22-.66,0-1,.88-.25,1.21.2,1.26,1-.38.4-1,.64-.86,1.38.08.46-.37.31-.61.42a1.35,1.35,0,0,0-.4,2.44c.87.78.71,1.68-.39,2.28l-.72-.48L35.1,76a2.49,2.49,0,0,0-.26-1.25A2.5,2.5,0,0,0,34.59,73.46Z" style="fill:#686789"/><path d="M38.56,71.49c-.32-.46-.62-.94-1.26-1-1.06-1-.82-2.41-1.19-3.62a3.3,3.3,0,0,0-.92-1.68c1.54.76,1.47,0,1.28-.83-.24-1.07-.18-2.24-.92-3.17,0-.16,0-.33,0-.49.52.66,1.41.71,2,1.25A1.78,1.78,0,0,1,38,63.58c-.07.3-.17.6-.26.89a4.49,4.49,0,0,0-.07,1.93,2.92,2.92,0,0,1-.48,1.18c.57.26,1.11.52,1.29,1.19A2.36,2.36,0,0,0,38.82,70a1.1,1.1,0,0,1,0,1.45Z" style="fill:#47456e"/><path d="M38.81,71.48c0-.58.07-1.17-.47-1.59s0-.77,0-1.16a2.91,2.91,0,0,1,1.6,2.35.71.71,0,0,0,.43.66l.18.05c0,.4,0,.81.07,1.21A4.38,4.38,0,0,0,38.81,71.48Z" style="fill:#393763"/><path d="M55.68,41.43c0,.38-.06.75-.1,1.13a.47.47,0,0,1-.17,0,20.42,20.42,0,0,0-3.3-.52c-.14-1,1-1.24,1.26-2C54,40.87,55.1,40.66,55.68,41.43Z" style="fill:#8887a1"/><path d="M48.6,52.66v-.25c.32-.17.35-.75.81-.68s1.26-.37,1.45.48-.34,1.32-1,1.7-.55-.27-.75-.5Z" style="fill:#31305d"/><path d="M49.11,53.41c.26.15.36.54.75.5h0c.12.37.52.31.75.51.24.56,1,.5,1.27,1l-.05.25c-.24.08-.54.4-.69-.08s-.39-.61-.61-.52C48.23,56.05,49.59,54,49.11,53.41Z" style="fill:#393763"/><path d="M48.36,52.4a1.9,1.9,0,0,1-1.22-.76C47.69,51.66,48.3,51.6,48.36,52.4Z" style="fill:#31305d"/><path d="M50.61,54.42c-.36,0-.73,0-.75-.51C50.06,54.16,50.64,53.83,50.61,54.42Z" style="fill:#31305d"/><path d="M55.1,3.16a1.12,1.12,0,0,1,1-.3c.73.07.82-.35.76-.91.83-.68.27,1.08,1,.57.41-.28.92-.79,1.25-.71a1.3,1.3,0,0,1,.92,1.54c-.06.36-.35.75.11,1s.66-.08.89-.31.52-.47.85-.17,0,.59-.22.81-.13,1-.78,1a1.89,1.89,0,0,1-.75,0c0-.63-.57-1.11-.53-1.78A.44.44,0,0,0,59,3.45C57.68,3.89,56.44,2.78,55.1,3.16Z" style="fill:#666587"/><path d="M56.71,8.46A.62.62,0,0,1,56.06,8c.47-.1.79-.57,1.32-.52.34,0,.64.22.56.51C57.79,8.5,57.26,8.44,56.71,8.46Z" style="fill:#616083"/><path d="M60.16,5.69a.65.65,0,0,1,.75,0A7.5,7.5,0,0,0,59.15,8.2a.78.78,0,0,1,.07-1.26C59.68,6.61,59.72,6,60.16,5.69Z" style="fill:#666587"/><path d="M82,26a11.82,11.82,0,0,1,.28,4.77c-.89.07-1.22-.54-1.22-1.23A2.28,2.28,0,0,0,79.25,27c.65-.23,1-1.16,2-.74a5.08,5.08,0,0,0,.31-.51Z" style="fill:#646285"/><path d="M54.38,35.82c-.66.34-.1,1.08-.49,1.5a.56.56,0,0,1-.31.21.72.72,0,0,1-.7-.19,2.62,2.62,0,0,1,.24-1.51C53.54,35.66,54,35.35,54.38,35.82Z" style="fill:#7e7d99"/><path d="M35.39,62.86a.44.44,0,0,1-.48.31.32.32,0,0,1-.31-.43.32.32,0,0,1,.37-.25A.42.42,0,0,1,35.39,62.86Z" style="fill:#5f5e81"/><path d="M78.73,35.83c0,.36-.12.71-.55.66s-.43-.35-.43-.66A.77.77,0,0,1,78.73,35.83Z" style="fill:#47456e"/><path d="M65,7.48a1,1,0,0,1-.82.21c-.5-.72-.06-1.53-.2-2.29-.08-.44.36-.5.7-.45s.86.21,1.17.28C66.06,6.21,64.83,6.54,65,7.48Z" style="fill:#8887a1"/><path d="M33.53,51.66v1a.28.28,0,0,1-.35,0,6.78,6.78,0,0,1-.87-2.45c-.25-.92-.49-1.86-.8-2.77a1.14,1.14,0,0,1,.54-1.8c.31-.16.71-.24.7-.72a.54.54,0,0,1,.51-.25s0,.1,0,.12c-2.12,1.85-.63,3.76-.05,5.63C33.3,50.8,33.11,51.32,33.53,51.66Z" style="fill:#42416a"/><path d="M2.39,36.33c.17.17.33.34.5.5S3,36.94,3,37s0,.09-.08.09h0c-.83.32-.71-.3-.76-.76A.16.16,0,0,1,2.39,36.33Z" style="fill:#9190a9"/><path d="M2.39,36.33H2.13l-.48-.21C2.06,35.63,2.27,35.81,2.39,36.33Z" style="fill:#9897ae"/><path d="M33.29,52.66h.24a2.4,2.4,0,0,0,.75.77c.16,1,1.28,1.63,1.25,2.75-1,.41-1.21-.86-2-.82.12.52.72.7.83,1.24-1,.64-1.28-.25-1.79-.69a2.15,2.15,0,0,0-2-2.16c.21-.39.77-.89-.29-.84a.25.25,0,0,1,0-.19,1.68,1.68,0,0,1,.8-.82C31.84,52,32.44,52.72,33.29,52.66Z" style="fill:#9d9cb2"/><path d="M32.53,55.91c.6,0,.74,1.11,1.54.66-.34-.58-1.54-1-.94-1.68.39-.46,1.14.46,1.65.89a1.23,1.23,0,0,0,.75.4,2.28,2.28,0,0,0,0,.26l-.51,1C34.24,56.87,32.88,57.22,32.53,55.91Z" style="fill:#85849f"/><path d="M34.1,61c-.08-.11-.2-.21-.18-.28a.3.3,0,0,1,.24-.18c.17,0,.32.09.26.28S34.23,60.88,34.1,61Z" style="fill:#616083"/><path d="M50.14,61.78l0-.74c0-.2,0-.47-.28-.47a.63.63,0,0,0-.48.31,4.69,4.69,0,0,0-.43,1.52c0,1.41-.47,1.82-1.88,1.67-.74-.08-1.49,0-2.23-.13s-.93.34-1.23.77c0-.32,0-.64.05-1l.22-.29c.45,0,1,.54,1.36-.07.5-.77-.47-1.14-.54-1.74a.5.5,0,0,1,.79.06c.94.95,1.74,0,2.6-.17a.39.39,0,0,0,.22-.28c-.31-1.52,1.51-1.52,1.83-2.58a.94.94,0,0,1,.54.82C50.07,60.17,50.7,61.11,50.14,61.78Z" style="fill:#2a2958"/><path d="M74.7,45.35c-.35,0-.6.39-1,.25l1.26-2c.06-.1.14-.11.24,0,.47-.31.72.16,1.07.3C75.91,44.54,75.17,44.8,74.7,45.35Z" style="fill:#9b9ab0"/><path d="M75.22,43.6l-.24,0c-.36,0-.8,0-.7-.56a.52.52,0,0,1,.64-.43C75.6,42.77,75.23,43.25,75.22,43.6Z" style="fill:#5c5b7f"/><path d="M79.25,22.27c.08.16.16.33.25.5-.57.31-.77-.13-1-.5Z" style="fill:#706e8e"/><path d="M25.27,58.15a.51.51,0,0,1,.51.23,2.52,2.52,0,0,1-.06.48c-.15.47-.29,1-.8,1.16a.28.28,0,0,1-.34-.36C24.83,59.16,24.15,58.24,25.27,58.15Z" style="fill:#5a597d"/><path d="M22.54,61a.59.59,0,0,0,.17-.1c.06.41,0,.84.28,1.19s.14.67-.25.87A5.19,5.19,0,0,1,22.54,61Z" style="fill:#83829d"/><path d="M2.49,25.2a.68.68,0,0,1-.52.48c-.27,0-.34-.18-.28-.41a.46.46,0,0,1,.52-.41A.32.32,0,0,1,2.49,25.2Z" style="fill:#807f9b"/><path d="M9.92,44.85c-.2,0-.43,0-.52.27,0,0-.09,0-.12,0-.4-.27-1.21,0-1.26-.57s.84-.29,1.15-.67C9.85,43.87,9.44,44.7,9.92,44.85Z" style="fill:#797896"/><path d="M29.77,79.78l-.27-.24c.05-.18.05-.5.3-.39S30,79.58,29.77,79.78Z" style="fill:#2a2958"/><path d="M52.88,37.34h.75a2.85,2.85,0,0,1,.09,1.23,4.3,4.3,0,0,1-.35.52c-.35,0-.78.07-.61-.57A6.56,6.56,0,0,0,52.88,37.34Z" style="fill:#666587"/><path d="M53.37,39.09c.08-.17.16-.34.25-.51a.9.9,0,0,1,1.26,0c-.63.26-1.37.39-1.5,1.25Z" style="fill:#8887a1"/><path d="M77.29,4.4l.4.1c1.82,2,1.83,3.09,0,4.94a4,4,0,0,1-3,0,1.1,1.1,0,0,1,0-.18c-.24-1.32,1-1,1.6-1.43-.08-.6-.75-.49-1-.88.07-.09.1-.19.16-.21A2.84,2.84,0,0,0,77.29,4.4Z" style="fill:#7e7d99"/><path d="M73.47,16.24a2.23,2.23,0,0,0-1.35,0c.17-.8.78-1.18,1.07-1.88-.64-.06-.93.83-1.55.47-.36-.41.74-.31.29-.79a.69.69,0,0,0-1-.09c-.28.15-.47.11-.48-.25.33-1.45,1.51-1.2,2.53-1.27l1.69.82,1,.8.24.17.59.66c-.25.53-1,.78-.82,1.58.1.56-.48.23-.74.34s-.41-.1-.32-.35c.18-.47.5-1-.28-1.16S73.78,15.94,73.47,16.24Z" style="fill:#686789"/><path d="M54.88,38.59H53.62a1,1,0,0,1,0-1.24l.26,0C54.81,37.28,55,37.85,54.88,38.59Z" style="fill:#807f9b"/><path d="M40.34,71.74a2.31,2.31,0,0,1-.46-.12c.09-1.3-1.19-1.85-1.57-2.89-.14-.15-.24-.37-.41-.44-1.07-.44-1-1.07-.35-1.82a9,9,0,0,0,0-2c0-.27,0-.57.25-.75.41-.63-.27-1.4.25-2l.21-.26A66.85,66.85,0,0,1,40,69.2C40.19,70,39.85,71,40.34,71.74Z" style="fill:#232152"/><path d="M38.05,61.7c-.1.66.26,1.39-.25,2-.08-.59-.16-1.18-.25-1.76Z" style="fill:#363561"/><path d="M31.51,47.4c.91.7.8,1.79,1.05,2.74-.81.28-.65-.28-.63-.73-.36.56.81,1.91-.91,1.74-.25-.59-.77-.5-1.26-.5l-.22-.27c0-.16,0-.33,0-.49.27-.18.1-.34,0-.5l-.23-.25c0-.25,0-.5,0-.74a.32.32,0,0,1,.49,0C30.42,48.19,31.35,48.48,31.51,47.4Z" style="fill:#a4a3b8"/><path d="M29.77,48.38l-.49,0c-.08-.18-.17-.35-.26-.52L29,46.65a1.52,1.52,0,0,1,1.64.8C30.88,48.08,29.77,47.81,29.77,48.38Z" style="fill:#bebecc"/><path d="M8.42,40.35c.89.31,1.88.45,2.44,1.38,0,.05.37-.08.57-.12-.42,1.25-1.3.79-2.07.51-.31-.11-.51-.54-.94-.26Z" style="fill:#83829d"/><path d="M2.9,37.08a2,2,0,0,1,0-.25c.78-.39.38-.89.06-1.28a15.48,15.48,0,0,0-1.32-1.24l.26-.24c1.26.13,1.82,1.13,2.49,2,.43.55-.06.77-.39.91A3.89,3.89,0,0,1,2.9,37.08Z" style="fill:#9897ae"/><path d="M34.28,53.43a.75.75,0,0,1-.75-.77A1.35,1.35,0,0,1,34.28,53.43Z" style="fill:#42416a"/><path d="M77.36,22.63c-.43.21-.76.17-1-.2a.22.22,0,0,1,.16-.36C77,22,77.16,22.3,77.36,22.63Z" style="fill:#706e8e"/><path d="M31,51.15c1.41-.19.26-1.44.92-2,.2.33-.09,1.06.62,1,.24.84.49,1.68.73,2.52-.08.18-.08.69-.21.52-.54-.71-1.7-.35-2-1.28C31,51.65,30.62,51.4,31,51.15Z" style="fill:#a4a3b8"/><path d="M68.19,11.73c0,.32.07.71-.35.83-.1,0-.3-.13-.4-.24-.27-.33.19-.37.25-.57Z" style="fill:#6d6c8c"/><path d="M29.5,49.39c.25.16.59.25.57.65l-.54-.15Z" style="fill:#9d9cb2"/><path d="M72.88,42c-.18,0-.31.1-.39.07s-.1-.18-.15-.27.17-.1.21-.08A1.68,1.68,0,0,1,72.88,42Z" style="fill:#807f9b"/><path d="M8.42,40.1v.25c-1.28,1.42-1.49,1.41-2.62-.12.61-.35,1.36,1,1.86-.13a.16.16,0,0,1,.25,0Z" style="fill:#747392"/><path d="M7.91,40.1H7.66c-.42-.2-1.28-.06-.77-1,.27-.49.82-.72,1.14-.44S8.12,39.62,7.91,40.1Z" style="fill:#8887a1"/><path d="M37.55,64.46a1.57,1.57,0,0,1,0,2A1.94,1.94,0,0,1,37.55,64.46Z" style="fill:#363561"/></g></g></svg>