<svg xmlns="http://www.w3.org/2000/svg" viewBox="0 0 87.47 88.22"><g id="Ebene_2" data-name="Ebene 2"><g id="OBJECTS"><path d="M70.56,80l-2.26-.8a9.44,9.44,0,0,0-.91-.65,1.93,1.93,0,0,1-.92-2.8A17.72,17.72,0,0,0,66.94,73a.83.83,0,0,0-.47-1,4.34,4.34,0,0,1-2.81-3.67,2.44,2.44,0,0,0-.28-.56,28.82,28.82,0,0,1-.71-5.63c0-1,.5-1.56,1.46-1.35,1.94.44,4.14.41,5.39,2.41a15.92,15.92,0,0,1,.71,3.81c.27,1.82.64,3.62.87,5.44A1.64,1.64,0,0,0,72.41,74a27,27,0,0,1,5.93,2.67,1.84,1.84,0,0,1,.85.71c.09.57-.37.69-.73.86a13,13,0,0,0-1.73,1,2.59,2.59,0,0,1-.87.38c-1.22.5-2.53.68-3.77,1.08A1.4,1.4,0,0,1,70.56,80Z" style="fill:#5c5b7f"/><path d="M63.75,67.73c.61,1.07.45,2.51,1.67,3.28.27.17.47.46.84.48a1,1,0,0,1,1,1.48c-.35,1.18-.08,2.46-.69,3.58-.32.59-.27,1.09.48,1.37a2.22,2.22,0,0,1,1.24,1.32L62,77.52c-.34-.31-.85.06-1.19-.27h0c-.47-.31-1.06.08-1.53-.26l-.08,0-.08,0c-.59-.27-1.26.09-1.84-.22l-.1,0-.1,0c-.92-.33-1.9.13-2.81-.25h0a38.86,38.86,0,0,0-4.58-.13,3.15,3.15,0,0,1-1.46-.12h-.75a45.17,45.17,0,0,1-5.33.13c-.41-.18-.21-.37,0-.51a2.56,2.56,0,0,1,1.34-.22h7.28A6.51,6.51,0,0,0,52,75.59a1,1,0,0,0,.87-.79c.1-.49-.2-.77-.59-1-.23-.12-.46-.21-.68-.33a1.43,1.43,0,0,1-.8-1.88,10.3,10.3,0,0,0,.19-1.2,5,5,0,0,1,3-.22c2.86.26,5.72.51,8.55,1,1.26.24,1.28.16,1.18-1.1C63.62,69.34,63.16,68.52,63.75,67.73Z" style="fill:#616083"/><path d="M22.31,80.53l-3,1c-.69.39-1-.07-.93-.61.11-1.07-.07-2.14.12-3.2a1.63,1.63,0,0,1,1.1-1.4,2,2,0,0,0,1.53-1.56l4.27-1.54c.23-1.33.24-2.69.54-4,.34-.06.42.22.51.43.32.71.82.8,1.53.6a7.64,7.64,0,0,1,2.89-.4,1.51,1.51,0,0,1,1,1.79,2.69,2.69,0,0,1-1.64,2.07,5.7,5.7,0,0,0-2.68,2.45A4,4,0,0,1,24.26,78c0,.58.5.94.66,1.45,0,.22-.2.27-.33.38l-.48.23C23.53,80.25,22.9,80.32,22.31,80.53Z" style="fill:#6b6a8a"/><path d="M77.09,49.38l-.09,0h-.1c-2.29-.51-3.25-2.57-2.08-4.5a3.71,3.71,0,0,1,1.52-2,2.57,2.57,0,0,1,1-1h0a1.78,1.78,0,0,1,2.25-.27.27.27,0,0,0,.2,0,3.32,3.32,0,0,1,2.6,3.47,5.32,5.32,0,0,1-4.13,4.51A1.4,1.4,0,0,1,77.09,49.38Z" style="fill:#8a89a3"/><path d="M28.62,23c-2.72-.47-5.35-1.3-8-2-.37-1,.42-1.37.94-1.91,2.35-2.37,5.21-1.49,7.93-1.15,1,.13,1.3,1.44,1.88,2.22.32.43-.16.74-.47,1a3.37,3.37,0,0,0-1,1.07A1.31,1.31,0,0,1,28.62,23Z" style="fill:#6b6a8a"/><path d="M25.58,13.54l.24.46c-.57,1-1.47.14-2.17.4-1,.55-1.79,1.52-3.21,1.18,1.11,1.78,1.45,3.51-.11,5.17a3,3,0,0,1-1.48-.32c0-.25.2-.48-.15-.73a1.22,1.22,0,0,1-.16-2c.37-.4.31-.59-.15-.81s-.85-.6-.68-1.17c.3-1-.42-.81-.95-.83a1,1,0,0,1-.06-1.68,5.27,5.27,0,0,1,3.5-1.61c.59,0,1.68-.11,1.44-1.32a2.14,2.14,0,0,1-.06-.35,1,1,0,0,1,.18-.69c1,0,1.13,1,1.68,1.58a5.35,5.35,0,0,0,1,1.27A3.84,3.84,0,0,1,25.58,13.54Z" style="fill:#a7a6b9"/><path d="M23.34,14c.83-.21,1.65.57,2.48,0a6.94,6.94,0,0,0,2.05,1.21,5.74,5.74,0,0,1,4,2.48c.09.65-.09,1.33.43,1.9.76.82.37,1.33-.53,1.64A1.1,1.1,0,0,1,30.62,21c.56-.39.54-.61.18-1.31-.85-1.62-2.19-1.55-3.64-1.78-1-.15-1.94.07-2.92-.05a1.82,1.82,0,0,0-1.49.74,1.72,1.72,0,0,1-1.16.65,1.42,1.42,0,0,1,.72-1.48c.77-.37.68-1.39,1.54-1.66.35-.11,0-.52-.19-.7A1.09,1.09,0,0,1,23.34,14Z" style="fill:#9393aa"/><path d="M21.84,10.21c.35.63.53,1.19-.51,1.26-.3,0-.46.14-.39.48s-.1.5-.34.33c-1.73-1.19-2.57.64-3.78,1.14-.42.17-.42.86,0,1.31a4.54,4.54,0,0,1-.39,1.7.5.5,0,0,1-.79-.29c-.13-1.05-1.2-1.61-1.3-2.65a.66.66,0,0,1,.22-.48c.47-.51-.22-1,0-1.54-.21-.53-.12-1.11-.32-1.63a1.9,1.9,0,0,1,.4-1.32,5.91,5.91,0,0,0,1.74-.28A2.24,2.24,0,0,1,19,9.91c0,.08,0,.21.07.22a8.18,8.18,0,0,1,2,.59C21.4,10.9,21.57,10.38,21.84,10.21Z" style="fill:#9f9fb4"/><path d="M79.86,54.15c1.09,1.1,1,2.42.73,3.78-.35.26-.21.65-.24,1-.41.76.3,1.55,0,2.31-.28.49-.69.22-.73,0-.19-1-1-1.17-1.75-1.3.45,1.12-.7,1.69-1.07,2.56-.18.38-.46.53-.77.19a1.49,1.49,0,0,1-.49-1.45c.1-.37.41-.62.58-1s.1-.5-.19-.71-1.22-.41-.63-1.25c.16-.23-.16-.13-.24-.16a1.73,1.73,0,0,1-1.14-1.48.85.85,0,0,1,.27-.62c.41-.26.36-.79.67-1.11h0a.52.52,0,0,1,.51-.07,2.29,2.29,0,0,1,.11,2c.56.06,1-.43,1.5-.05.44-1-1.21-.95-.67-1.86a.59.59,0,0,1,.69,0C78.21,55.69,79.07,55.1,79.86,54.15Z" style="fill:#c6c5d2"/><path d="M14.55,13.47c.34.46.31,1.24,1.13,1.29.07,0,.22.34.18.38-.73.76.25.92.45,1.35.42.84.52,1.84,1.5,2.38a1,1,0,0,1,.26,1.32,5.8,5.8,0,0,1-2.56-.94c-.29-.21-.68-.24-.95-.49a3,3,0,0,1-1.5-.79c.23-.68.59-1.3-.08-2-1.08-1.14-1.86-1.18-3,0A2.3,2.3,0,0,1,8.6,14.71C9.44,13.23,13.3,12.43,14.55,13.47Z" style="fill:#a7a6b9"/><path d="M15.54,83.54l-.74.51c-.68.21-.66-.19-.56-.65s.33-.72,0-.91-.58.33-.82.58a14.25,14.25,0,0,1-1.24,1.22A2.08,2.08,0,0,1,9,83.72c-.3-.57-1-.93-.91-1.69a13.25,13.25,0,0,0,2.48-1.83c1.37-1.14,2.57-.41,3.77.11.44.19.79.69,1.24,1s.5.89.21,1.43A7.19,7.19,0,0,0,15.54,83.54Z" style="fill:#9b9ab0"/><path d="M40.64,76.5l-.47,0a9.44,9.44,0,0,1-2.19.11c-.08,0-.18,0-.24,0-1.07-.63-2.49-.68-3.2-1.91a.83.83,0,0,1,0-.72c.42-.89,0-1.29-.82-1.5-.43-.12-.88-.27-1-.84a.61.61,0,0,1,.15-.36,5.62,5.62,0,0,1,3.58-.53c1.07,1.31,1.72,2.9,2.81,4.21a3.69,3.69,0,0,0,1.36,1.19A.22.22,0,0,1,40.64,76.5Z" style="fill:#83829d"/><path d="M83.6,71.23l-.24.24c-.49,1-1.37,1-2.26.9-.62-.22-.25-.74-.35-1.12s-.36-.58-.61-.82c-.46-.42-.92.14-1.39,0a1.33,1.33,0,0,1-.8-.67c-.09-1.33.55-2.09,1.79-1.78,1,.23,2-.71,2.82.26a1.66,1.66,0,0,1,1.07-.75l.22,0A2.66,2.66,0,0,1,83.6,71.23Z" style="fill:#bcbcca"/><path d="M8,82.05a6,6,0,0,1,1.24,1.64,1.71,1.71,0,0,0,2.67.4c.47-.56,1.2-.89,1.46-1.67a.65.65,0,0,1,1-.45c.54.28.44.73.33,1.19s-.81.67.08.89L12.53,85.5a4.93,4.93,0,0,1-1,.8l-.22,0c-2-.27-4.22-.08-5.35-2.36.67-.32.67-.32,1.67.5.37-.82-1-1.08-.58-1.9l.49-.51a.37.37,0,0,1,.41-.11Z" style="fill:#a4a3b8"/><path d="M14.55,13.47a2.86,2.86,0,0,0-3,.15c-.9.59-2.21,0-2.92,1.09A2.56,2.56,0,0,1,7.76,13a1.93,1.93,0,0,1-.09-1.23c.23-1.53,1.63-2,3.1-1,.93,1.31,2.6,1.37,3.78,2.25Z" style="fill:#a2a1b6"/><path d="M83.63,67.47c-.41.48-1,.87-.93,1.75-.37-1.07-.88-1.58-1.89-.86-.22.16-.46.06-.71,0-1.39-.38-1.89,0-2,1.37-.7-.11-1.09-.7-1.49-1.16-.53-.61-.15-1.13,1-1.57a2,2,0,0,0,1.3-.44c-.12-.54-1-.47-.95-1.11a2.24,2.24,0,0,1,.51-1.36c.63-.61,1.09,0,1.52.41a3.32,3.32,0,0,0,1.35,1.4c.42.88,1.23,0,1.77.39.35.11.28.49.45.72Z" style="fill:#b5b4c5"/><path d="M6,83.83c1,1.77,3,1.73,4.64,2.22.24.07.5,0,.66.27a9.41,9.41,0,0,1-2.77,1.77A4.57,4.57,0,0,1,6.06,88a2.86,2.86,0,0,1-1-2.45c-.21-.79.41-1.2.79-1.72C5.87,83.7,5.93,83.7,6,83.83Z" style="fill:#8887a1"/><path d="M33.61,77.26c-2.13.26-4.13,1.12-6.24,1.48.09-1.71,1.2-2.52,2.66-3,1.13-.12,1.66-1.2,2.58-1.63a1,1,0,0,1,.53,0c.73.45.09,1.11.26,1.71.36-.51.57-1.49,1.38-.47a4.84,4.84,0,0,1,.72,1.39.28.28,0,0,1-.14.28l-.46,0C34.51,77.31,34,77,33.61,77.26Z" style="fill:#a7a6b9"/><path d="M74.63,69.93a7.27,7.27,0,0,1-1.58-3.16c-.13-.42-.26-.84.41-.88a3.36,3.36,0,0,1,3,2.28c.24.89.51,1.74,1.64,1.87a.71.71,0,0,1,.58.58,1.34,1.34,0,0,0,1.06.91c.28.19.58.36.4.78a1.24,1.24,0,0,1-1-.06,3.06,3.06,0,0,1-1.79-.5,4.71,4.71,0,0,1-2.7-1.81Z" style="fill:#5f5e81"/><path d="M32.89,71.49v.26c-.24.52-.82.75-1.08,1.25-.49.9-1.56.86-2.27,1.41A22.21,22.21,0,0,1,27,78.27c-.08.09.12.3.06.47l-1,.56c-.42,0-.77.52-1.25.21-.86-.31-.59-1.42-1.68-1.89,1.23-.11,2.15.13,2.91-.54a6.53,6.53,0,0,0,1.24-1.42,4.9,4.9,0,0,1,2.37-2.13c1.87-.61,2.38-2,1.19-3.54,0-.57-.38-.86-.81-1.12.32-.55.84-.46,1.33-.42a1,1,0,0,1,.79.88C32.24,70.11,32.1,71,32.89,71.49Z" style="fill:#727190"/><path d="M15.31,82.8c.6-.73.48-1.14-.43-1.55-.65-.29-1.22-.76-1.87-1.1a1.53,1.53,0,0,0-1.78,0,6.92,6.92,0,0,0-1.89,1.38A1.47,1.47,0,0,1,8,82.05L8,82c0-.39.33-.47.51-.7a56.91,56.91,0,0,1,5.83-3.71c.52,1.12,2,1.78,1.62,3.35,0,.21.44.08.6.27s0,.48.16.49c.86,0,.86,0,.38.88l-.77.48C15.87,83.36,15.59,83.07,15.31,82.8Z" style="fill:#a4a3b8"/><path d="M23.34,14c-.12.62.24,1,.68,1.33.67.55.86,1.07-.28,1.26l-.34.05c.22,1.45-1.63,1.48-1.81,2.64-.33.57-1,.95-1,1.7l-.27-.21c0-.12,0-.28.07-.36,1.27-1.48.69-2.94-.07-4.37-.17-.32-.37-.64-.15-.9.47-.55.36.33.65.3A3.28,3.28,0,0,0,23.34,14Z" style="fill:#9b9ab0"/><path d="M30.62,21h1.26c1.43-.06,1.87.19,2,1.5,0,.67,1,1.13.48,1.78-.43.49-1.21,0-1.8.23a1.83,1.83,0,0,1-.73.15c-.51-.14-.59-.53-.56-1s-.22-.46-.55-.33a.33.33,0,0,1-.3-.07A3.69,3.69,0,0,1,28.62,23C29.65,22.68,29.68,21.37,30.62,21Z" style="fill:#a7a6b9"/><path d="M18.07,20.19c-.29-.7-.21-1.59-1.42-1.7-.34,0-.35-1.28-.34-2s-.15-1.31.5-1.76c.39.13.56-.67,1.07-.19s.33.67.14,1.08c-.33.71.17,1,.73,1.11.73.19.68.7.3,1.08-1,1-.93,1.36.32,1.93a2.49,2.49,0,0,1,.28.15c-.12.46-.61.26-.8.54Z" style="fill:#9b9ab0"/><path d="M16.56,81.29c-.45,0-.77.06-.89-.63s.18-1.83-1.17-1.84a6.56,6.56,0,0,1-.19-1.24,3.81,3.81,0,0,1,1.26-.74c1.56.16,1.8.5,1.3,1.77.89.19.72-1,1.43-1.1.45.56,0,1.22.19,1.81-.42.42-1,.69-1,1.44C17.44,81.05,17,81.26,16.56,81.29Z" style="fill:#9b9ab0"/><path d="M10,16c0-1,.56-1.3,1.46-1.26a3.22,3.22,0,0,1,2.31,2c.13.66-.23,1-.74,1.24A17.35,17.35,0,0,1,10,16Z" style="fill:#9d9cb2"/><path d="M18.32,79.53c-.1-.67.23-1.39-.24-2-.26-.7.18-1.22.48-1.77a4.64,4.64,0,0,1,2.52-1c.38,1.09-.18,1.57-1.17,1.71a1.35,1.35,0,0,0-1.15,1.16c-.2,1.11,0,2.26-.17,3.4-.08.45.31.52.67.5-.08.23-.3.2-.47.26-.64.34-.92,0-1-.58A1.93,1.93,0,0,1,18.32,79.53Z" style="fill:#777694"/><path d="M18.56,75.74c.2.69-.23,1.21-.48,1.77.2.94-.35,1.28-1.12,1.53a.52.52,0,0,1-.64-.14c-.24-.27,0-.4.16-.59.61-.66.53-.92-.32-1.09a.79.79,0,0,1-.59-.38A5.86,5.86,0,0,1,18.56,75.74Z" style="fill:#a4a3b8"/><path d="M27.09,78.74c-.17-.31-.66-.12-.79-.54,1.82-.68,1.88-2.75,3.07-3.94a6.61,6.61,0,0,1,1,.71c.74.5.41.81-.21,1-1.51.31-2.16,1.5-2.75,2.73Z" style="fill:#83829d"/><path d="M18.32,79.53c-.08.48-.18,1-.24,1.42s.08.89.71.83a3,3,0,0,1-1.72.79l.17-.84c-.5,0-.61.57-1,.66-.14-.46.28-.73.37-1.1a1.27,1.27,0,0,1,.62-.57c.12-.08.28-.24.29-.36C17.51,79.54,17.5,79.53,18.32,79.53Z" style="fill:#a4a3b8"/><path d="M35.43,76.79c-.43-.32-.52-.85-.78-1.28a.75.75,0,0,1-.12-.63l.12-.12c1,.68,2.23.84,3.05,1.78,0,.11,0,.18-.1.21l-.44,0A2.92,2.92,0,0,1,35.43,76.79Z" style="fill:#8c8ba5"/><path d="M6,83.83H5.82A2.76,2.76,0,0,1,7,82.56c.15.62.85.85,1,1.49.09.36.32.7-.17.92a.54.54,0,0,1-.79-.36A1,1,0,0,0,6,83.83Z" style="fill:#aeadbf"/><path d="M15.31,82.8l1,.25a.77.77,0,0,1-.76.49C15.26,83.36,15.32,83.07,15.31,82.8Z" style="fill:#a4a3b8"/><path d="M63,62a17,17,0,0,1-.43-3.82c.43,0,.6.48,1,.48a.53.53,0,0,0,.25,0c1-.39,2-1,2,.86,0,.31.42.49.81.33a2.27,2.27,0,0,1,.94-.31c.62.2,1.32.3,1.47,1.11a10.62,10.62,0,0,1,.28,2.51c-1.56-1.77-3.71-2-5.85-2.13C62.74,61,63.16,61.7,63,62Z" style="fill:#686789"/><path d="M79.13,77.51a8.62,8.62,0,0,1,2.26,1.25c-.45.54-1.12,0-1.9.49a7.43,7.43,0,0,0,3.65.75l.27.22c.92,1.18-.5,1.21-.87,1.77-.88.31-1.73.47-2.33-.52-.36-.26.05-1-.68-1-.77-.5-1.27-1.59-2.48-1.18a.6.6,0,0,1-.47-.22A10.92,10.92,0,0,1,79.13,77.51Z" style="fill:#8f8ea7"/><path d="M76.58,79h.51c.26.32.08.57-.13.81-.65.85.48.49.57.83a2.84,2.84,0,0,0,.15,1.12c-.2.41.25.87-.09,1.27L75.1,82l-.81-.68a3,3,0,0,1,1.55-2Z" style="fill:#a7a6b9"/><path d="M75.84,79.3l-1.55,2-2.23-.85C73.24,79.81,74.63,79.84,75.84,79.3Z" style="fill:#9190a9"/><path d="M36.66,71a58,58,0,0,1,8.83-.51l5.49,0c.14.26.86.16.32.84-.7.89-.39,1.54.76,1.94.74.26,1.51.55,1.35,1.49s-.89,1.26-1.87,1.24c-2.76,0-5.52,0-8.28,0-.45,0-.93-.16-1.32.22l-1.24.08c-1.08.2-1.25-.7-1.73-1.33A9.76,9.76,0,0,1,36.66,71Z" style="fill:#5a597d"/><path d="M60.78,40.6a54,54,0,0,1-1-7.28c2.61.85,4.57,0,5.77-2.55.49,2.41.75,4.84,1,7.28.29.84-.16,1.3-.84,1.64a7.2,7.2,0,0,0-1.36.52c-.47.44-.6,1.09-1,1.59a.41.41,0,0,1-.31.14c-.24,0-.5-.18-.73-.09C61.11,42.34,60.81,41.66,60.78,40.6Z" style="fill:#616083"/><path d="M67.08,41.84c.21,1.72.49,3.43.61,5.15.17,2.31.65,4.59.62,6.92-.57.22-1-.23-1.56-.26a6.41,6.41,0,0,1-3.21-4.25,12.45,12.45,0,0,0-.45-3.59,3.34,3.34,0,0,0-.44-1c-.42-.48-.13-.64.25-1.11.79-1,2-.93,2.81-1.61C66.11,41.77,66.56,41.51,67.08,41.84Z" style="fill:#8887a1"/><path d="M59.49,30.81a4.31,4.31,0,0,1-.24-2,2.39,2.39,0,0,0,.41-2.55,3,3,0,0,1,.11-2.74c1-.09,1.75.07,2.08,1.23.17.6,1.26.76.93,1.7,0,.14.12.2.26.18,1.58-.13,1.82,1.1,2.23,2.17a4.38,4.38,0,0,1,.26,1.76A50.76,50.76,0,0,1,59.49,30.81Z" style="fill:#686789"/><path d="M65.27,28.79c-.32-.47-.63-1-1-1.42s-.71-.72-1.27-.43c-.21.1-.39.41-.64.15a.51.51,0,0,1,0-.69c.46-.56.13-.79-.35-1-.19-.08-.51-.22-.51-.32.08-1.07-.55-1.33-1.45-1.33,0,0,0-.15-.06-.23a1.15,1.15,0,0,1,1.11-1.14,2.2,2.2,0,0,0,2.1-2.81,1.51,1.51,0,0,1,1.7-.25c.37.2.79.45.89.82.25,1,1.07,1.38,1.79,1.9,0,.06,0,.13-.08.2-3.22.59-3.21.59-2.64,3.74C65.05,26.91,65.14,27.85,65.27,28.79Z" style="fill:#6d6c8c"/><path d="M82.37,81.79c.24-.59,1.5-.51,1-1.57,1.22.76,2.61,1.31,3.45,2.58.38.62.81,1.22.51,2h0a.27.27,0,0,1-.32.06c-.51-.38-1-.56-1.18.28-.1.38-.4.66-.73.34-1.09-1.06-1.94-.29-2.84.29l-.43.25a14.47,14.47,0,0,1-2.77-2,1.1,1.1,0,0,1,1-.38c.16,0,.43.09.42-.09C80.49,82.3,81.67,82.3,82.37,81.79Z" style="fill:#a9a8bb"/><path d="M59.49,30.81a18.32,18.32,0,0,1,4.72-.51,2.31,2.31,0,0,1,1.32.25.25.25,0,0,1,0,.22,2.45,2.45,0,0,1-2.19,2.78,11.88,11.88,0,0,1-2.5.45c-.71,0-.79-.35-1.08-.68A8.8,8.8,0,0,1,59.49,30.81Z" style="fill:#5c5b7f"/><path d="M67.08,41.84c-.64.19-1.22.26-1.58,1.09s-.94-.2-1.56-.23c.34,1.22-.19,1.65-1.48,1.28,1.51,1.68,1.31,3.57,1.32,5.41-1.09-.55-1.39-1.63-1.76-2.67-.27-1.8-.17-3.5,1.26-4.86h0A3.6,3.6,0,0,0,64,40.1c.2-.47.62-.45,1-.52.85-.14,1.5-.54,1.5-1.53A13.91,13.91,0,0,1,67.08,41.84Z" style="fill:#807f9b"/><path d="M66.8,53.41a2.92,2.92,0,0,1,1.51.5.41.41,0,0,1,0,.22,4.53,4.53,0,0,1-1.1,3.18c-.4.61-.33.78.14,1.15s1,.69.19,1.23-1.4,1-2.12,0a.24.24,0,0,0-.08-.09c-.59-.37.65-1-.13-1.2-.34-.08-.8.47-1.23.69-.1,0-.3-.11-.46-.18a5.46,5.46,0,0,1-.81-1.79,1.35,1.35,0,0,1,.71-1.58.91.91,0,0,1,1.36.41.78.78,0,0,0,.91.49c.53-.11.41-.53.42-.89a.64.64,0,0,1,.35-.62C67.43,54.6,66.94,54,66.8,53.41Z" style="fill:#727190"/><path d="M81.88,86c1-1.67,2-1.86,3.64-.59.21-.51,0-1.33.7-1.43a.92.92,0,0,1,.93.83c0,.44.09.91-.35,1.22l-.44.43c-.27.53-.85.38-1.27.58A5.12,5.12,0,0,1,81.88,86Z" style="fill:#8c8ba5"/><path d="M67.55,59.69c.24-.38.19-.64-.23-.91a2.61,2.61,0,0,1-1.14-1.09c1.57-.68,1.44-2.37,2.14-3.56a62.61,62.61,0,0,1,.7,6.56C68.71,60.1,67.92,60.21,67.55,59.69Z" style="fill:#7e7d99"/><path d="M82.37,81.79c0,.37-.24.49-.57.51s-.79.28-.77.53c.12,1.67-1.14,1.06-1.92,1.22l-1.52-1c.36-.42-1.09-.85,0-1.27a1.63,1.63,0,0,1,1.21.07c.71.34,1.36.5,1.55-.57A1.43,1.43,0,0,0,82.37,81.79Z" style="fill:#9897ae"/><path d="M83.14,80c0,.56-.14,1.23-.79.42-.47-.57-1-.17-1.49-.34s-.82,0-1.19-.28-.55-.47-.44-.81a.7.7,0,0,1,.82-.41,3.59,3.59,0,0,0,1.34.18A5,5,0,0,1,83.14,80Z" style="fill:#797896"/><path d="M26.07,69.17a15.36,15.36,0,0,1,.34-3.45c.71-.26.89.26,1,.74A1.74,1.74,0,0,0,28.9,68a1.66,1.66,0,0,1,1.23,1c1-.19.83.43.75,1a19.92,19.92,0,0,0-2.69.49C26.67,71,26.24,70.74,26.07,69.17Z" style="fill:#616083"/><path d="M51.24,25a48.71,48.71,0,0,1-11.06-.23c-.73-1-.65-1.54.25-2.28a12.91,12.91,0,0,1,3.5-2c.44-.36.66-1,1.26-1.16,3.84,0,7.66-.37,11.49-.57,1.32-.13,1.5,0,1.36,1.28a4.09,4.09,0,0,0,.1,1.35c.37,1.72-.55,2.7-2.27,2.66-1.1,0-2.31-.38-3.2.78C52.4,25.15,51.71,24.77,51.24,25Z" style="fill:#5f5e81"/><path d="M51.24,25c.59-.35,1.65,0,1.69-1.21,0-.18.34-.29.54-.2,1,.44,2-.23,3.05.13.85.29,1.71-1.21,1.32-2.23a1.71,1.71,0,0,1-.15-1.42c.44-1,0-1.4-1-1.34a3.85,3.85,0,0,1,1.78-.26c1.44.46,3,.33,4.44.83a.86.86,0,0,1,.38.46c.6,1.62.35,2.14-1.18,2.62-.77.24-1.62.35-2.09,1.15a3.5,3.5,0,0,0,.05,2.87c.51,1.3.29,1.91-.81,2.41A10.83,10.83,0,0,1,59,25.21c0-.61-.08-.83-.83-.77A50.45,50.45,0,0,1,51.24,25Z" style="fill:#616083"/><path d="M69.54,15.21c2.53-1,5-2.33,7.55-3.23,0,.59,0,1.18.81,1.24a2.91,2.91,0,0,0-.16,2.37c.27.54.07,1.11-.75,1-.36-.05-.63.18-.95.27-1,.26-.93.76-.38,1.41-.63,1.15-1.33.34-2,.07-.42-.22-.93-.3-1.24-.71-.48-.79-.67-1.89-2-1.61C70.05,16.09,69.66,15.65,69.54,15.21Z" style="fill:#a4a3b8"/><path d="M69.54,15.21a2.86,2.86,0,0,0,1.81.53c.84-.13.85,1.12,1.22,1.76-.45,1.48-.45,1.48-2.22,1.3-1.23-.13-2.5-.76-3.65.28a7.7,7.7,0,0,1-1.49.43H65c-.58.09-1.22-.21-1.75.25L63,19.51c-.42-.37-1.21-.47-1-1.32.47-.23.75.18,1.11.33.65.29,1.46.32,1.74-.35A4.12,4.12,0,0,1,67.05,16Z" style="fill:#9393aa"/><path d="M86.9,12c-.09.09-.17.18-.26.26-.42.16-.73.51-1.22.58-1.58.21-1.76.6-1,2a10.11,10.11,0,0,1-3.31,2c-.43-.88-.16-1.88-.52-2.77-.65-.88-1-1.57.46-2.16.88-.37.17-1.24,0-1.88l.3-.22a.37.37,0,0,1,.46.06,2.91,2.91,0,0,0,3.1,1.15c.68-.12.8-.19.82-.77,0-.34.11-.71.6-.42a1.48,1.48,0,0,1,.33,1A1,1,0,0,1,86.9,12Z" style="fill:#b3b2c3"/><path d="M45.19,19.29c-.36.39-.49,1-1,1.22-.43.58-.94.44-1.42.11a.84.84,0,0,0-1.37.26,4.92,4.92,0,0,1-.78.8,2.86,2.86,0,0,0-.7,3.07h-1c-.32-.42-.81-.72-1-1.27a4.27,4.27,0,0,0-3.19-3.32,1.13,1.13,0,0,1-1-.83c.21-.76.71-.51,1.16-.3,1.15.55,2.46.72,3.53,1.49a2.07,2.07,0,0,0,1.41.23c.22-.62-.77-1.19.05-1.72l1.76,0C42.82,19.4,44,19.14,45.19,19.29Z" style="fill:#8887a1"/><path d="M86.34,9.72c-.59.08-.2.47-.27.73-.13.44.07,1.6-1,.69-.08-.07-.3-.1-.33-.06-.76,1.07-1.51-.25-2.32-.05-.3.08-.34-1.11-1-1.33.47-.54,1.23-.56,1.76-1l2.25,0C85.68,9.08,86.21,9.2,86.34,9.72Z" style="fill:#bcbcca"/><path d="M80.86,13.73a6,6,0,0,1,.25,3,1,1,0,0,1-.24,0c-.49-.17-.68.29-1,.46l-.73.3c-.33.1-.35-.12-.31-.33A4.91,4.91,0,0,1,79.28,16c.67-1.41.68-1.41-.81-2.06a1.19,1.19,0,0,1-.62-.75c-.39-.06-.82.51-1.12.07s.23-.87.36-1.31l.75-.28a3.26,3.26,0,0,1,2.23,1.45C80.25,13.48,80.61,13.52,80.86,13.73Z" style="fill:#9695ac"/><path d="M80.86,13.73c-.43,0-.84.07-1.07-.53-.32-.86-1.49-.74-2-1.5l3.22-1.78c1.06,1,.91,2-.36,2.43C80,12.58,80,12.58,80.86,13.73Z" style="fill:#a2a1b6"/><path d="M67.05,16a7.51,7.51,0,0,0-2,2.58,1.45,1.45,0,0,1-2.09.2c-.28-.24-.5-.56-.93-.56a.54.54,0,0,1-.28-.53A51.81,51.81,0,0,1,67.05,16Z" style="fill:#9f9fb4"/><path d="M61.75,17.71a.6.6,0,0,1,.28.53c.33.43.66.85,1,1.27-1.52-.39-3.22.07-4.57-1.05Z" style="fill:#747392"/><path d="M14.89,8.48A2.77,2.77,0,0,1,16.56,6.7a2.9,2.9,0,0,1,3,.29.69.69,0,0,0,0,.2c.28.3.11.58,0,.9-.34,1.05.13,1.61,1.15,1.29.66-.21.91,0,1.1.58v.25c-.07.34.15,1-.33.92-.91-.07-1.71-.75-2.69-.61-.05,0-.16-.19-.19-.3-.47-1.72-1.22-2-3-1.2C14.92,9.34,15.16,8.61,14.89,8.48Z" style="fill:#9393aa"/><path d="M21.84,10c-.31-.2-.5-.76-1-.28a1.13,1.13,0,0,1-1.36.14c.32-.66-1.31-1.23-.09-1.95.24-.14.18-.44.19-.68,1,.36,1.57,1.27,2.26,2Z" style="fill:#a2a1b6"/><path d="M66.54,19c.69-1.43,1.93-.6,2.94-.71a2.7,2.7,0,0,1,.83.22,11.23,11.23,0,0,0,1.76.38c.63,0,1.31.25,1.27,1.14a25.43,25.43,0,0,1-5.74,2c-.88-.16-1.82-.23-1.85-1.48,0-.48-.73-.53-.72-1.06h0C65.5,19.23,66.06,19.21,66.54,19Z" style="fill:#666587"/><path d="M77.85,13.22c.44.14.62.79,1.37.46.51-.22,1.11,1.16.73,1.79a4,4,0,0,0-.82,2.06,9,9,0,0,1-2.28,1c-.43-.06-.91.13-1.26-.26-.48-.13-.83-.37-.8-.92s.47-.59.91-.61.75-1,1.59-.4c.32.22.33-.55.16-.82A1.53,1.53,0,0,1,77.85,13.22Z" style="fill:#aeadbf"/><path d="M84.42,14.76c-.72-.2-1.12-.9-.84-1.36s.9-1.3,1.6-.92.87-.93,1.46-.26c.13.54-.29.85-.51,1.24a2.61,2.61,0,0,1-1,1Z" style="fill:#a4a3b8"/><path d="M73.34,20c-.36-.77-1.12-.84-1.82-1a2.43,2.43,0,0,1-1.21-.49,1.72,1.72,0,0,0,2.26-1,2.59,2.59,0,0,0,1.25.5c0,.59.34,1.13.25,1.74Z" style="fill:#83829d"/><path d="M74.07,19.74A1.33,1.33,0,0,1,73.82,18c.54.4,1.06,1,1.77.25.42.05.91-.17,1.26.26A14.09,14.09,0,0,1,74.07,19.74Z" style="fill:#9b9ab0"/><path d="M79.86,17.23c.5-1,.5-1,1-.46A1.51,1.51,0,0,1,79.86,17.23Z" style="fill:#b3b2c3"/><path d="M76.33,68.24c-.33-1.5-1.71-1.58-2.79-2-.59-.25-.4.31-.49.57a8.24,8.24,0,0,1-.51-3.51,2.37,2.37,0,0,1-.09-1c0-.77.37-.83,1-.56.1.06.26.14.27.24.13,1.5,1.18,1.65,2.36,1.61a.64.64,0,0,1,.38.53c0,.31-.49.41-.38.79,0,.1.07.2.1.3C76.16,66.2,77.18,67.17,76.33,68.24Z" style="fill:#777694"/><path d="M73.57,62c-1.57-.54-.78.79-1,1.3-.21-2.88-.05-5.68,1.79-8.11.48.29.48.29,0,1a.54.54,0,0,0-.26.49,1.17,1.17,0,0,0-.11.49c-.13.68,0,1.38-.12,2.07,0,.11,0,.23-.08.34a8.48,8.48,0,0,0-.09,2.25Z" style="fill:#8a89a3"/><path d="M75.56,54.15a2.82,2.82,0,0,1,4-.24c-.17.28-.7.12-.71.59,0,1-.63,1-1.26.64S76.09,54.81,75.56,54.15Z" style="fill:#cacad6"/><path d="M75.56,54.15a8.49,8.49,0,0,1,2.21.85c.27.14.55.24.81,0s-.08-.43-.1-.64c-.12-1.35.85,0,1.13-.45l.25.24c0,.78-1.16,1-.72,2.07a10.49,10.49,0,0,0-2.8-1.3c-.34.2-.67,0-1,0l-.51,0A1.54,1.54,0,0,1,75.56,54.15Z" style="fill:#bcbcca"/><path d="M74.32,56.17c-.06-.34.47-.68,0-1a.48.48,0,0,1,.49-.25C74.73,55.35,75.15,56,74.32,56.17Z" style="fill:#bcbcca"/><path d="M33.89,19.25c.38.67,1.12.62,1.71.85a3.89,3.89,0,0,1,2.56,3.42c-1,1-1.23.92-1.54-.45-.07-.29-.17-.49-.46-.45-.77.1-1-.28-.74-1.28-.44.73-.38,1.07,0,1.36s.54.61.31.85c-.71.75-.41,1.82-1,2.61-1.08.1-1.93-.59-2.88-.91a.54.54,0,0,1-.3-.72,3,3,0,0,1,2.79-.18c-.31-.64-.87-.72-.81-1.3.14-1.25-.65-1.79-1.74-2,.52-.37.88-.74.13-1.27s-.47-1.3-.37-2l1.22,0c.13.08.29.14.42.22A2.12,2.12,0,0,1,33.89,19.25Z" style="fill:#9f9fb4"/><path d="M1.49,6A3.11,3.11,0,0,1,.5,4.4a.5.5,0,0,1,.29-.61A3.81,3.81,0,0,0,2.46,2.43c.19-.3.57-.28.9-.13.23.74.74,1.36,1,2.08a.58.58,0,0,0,.83.34c.47-.3,0-.57-.18-.77a1.45,1.45,0,0,1-.22-2.11,1.37,1.37,0,0,1,.68-.76c.43,0,.56.33.75.61h0A4,4,0,0,1,7,3.44H7a1.47,1.47,0,0,1-.06,1.49c-.22.2-.18.46-.19.72A2.83,2.83,0,0,1,2.51,6.92h0A2.79,2.79,0,0,1,1.49,6Z" style="fill:#9393aa"/><path d="M3.5,2.42c-.24,0-.68,0-.69.07C2.53,3.74,1.18,3.66.5,4.4.06,4.24,0,3.85,0,3.47.46,2.68,1.27,2.07,1.1,1,1,.61,1.43.34,1.78.18A3.83,3.83,0,0,1,5,.67c.19.16.5.21.52.53L5,1.92c-.24.23-.49.1-.74,0s-.45.21-.63.38Z" style="fill:#9190a9"/><path d="M80.09,61.45a1.69,1.69,0,0,1,.28,1c-1.24.55-2.41-.14-3.61-.22l-.17,0c-.22-.66,1-.65.64-1.37,1-.37.3-.84,0-1.4.84.19,1.6.77,2.44,0A1.47,1.47,0,0,0,80.09,61.45Z" style="fill:#bcbcca"/><path d="M75.33,54.92c.34-.46.67-.13,1,0,0,.21-.12.58.26.57,1,0,.87.93.84,1.34s-.61.69-1,0c-.6.41-1.19.75-1.75-.17C75.88,56.45,75.13,55.53,75.33,54.92Z" style="fill:#cfcfd9"/><path d="M76.34,60.19c-.29.74-1.06,1.45-.18,2.27.36.34.36,0,.43-.26h0c.49-.07,1-.17,1.34.3s-.06,1.07-.34,1.55a.72.72,0,0,1-.27.25c-.86.06-1.11-1.15-2-1a1,1,0,0,1-.45-.8,3.07,3.07,0,0,1,.38-1.9c.24-.37.45-.72,1-.55Z" style="fill:#bcbcca"/><path d="M73.82,56.92l.24-.26c.3.52.47,1.17,1.22,1.26l.24,0c-.72,1.33,1,1.1,1.17,1.8.07.23-.16.34-.35.43h0a1.59,1.59,0,0,0-1.84-.08l-.38.38c-.75.23-.77.18-.54-1.05h0a1.23,1.23,0,0,0,.2-1.58A.91.91,0,0,1,73.82,56.92Z" style="fill:#bcbcca"/><path d="M31.64,72.75a2.15,2.15,0,0,1,1.25-1,1.63,1.63,0,0,0,1,.5c1.42.38,1.48.53.89,1.91a2,2,0,0,0-.08.6h0c-.8.74-.91-.59-1.5-.5h-.5c-.46.2-.85.26-.76-.44A2.06,2.06,0,0,0,31.64,72.75Z" style="fill:#9695ac"/><path d="M76.33,68.24c.35-1.17-.54-2.15-.49-3.27,1.09-.22,1.26,1,2,1.32a.84.84,0,0,1,.2.29.58.58,0,0,1-.17.64c-.48.1-1,.21-1.17.73s.45.71.79.92.32.66.64.85l.75.52a2.34,2.34,0,0,1,.76,1.5c-1.25-.49-2-1.66-3.13-2.33C76.27,69.29,76.37,68.64,76.33,68.24Z" style="fill:#8a89a3"/><path d="M79.61,71.74a2,2,0,0,1-.76-1.5c.5,0,1-.79,1.5,0a.4.4,0,0,1-.53.1c.4.33.9.54,1.29.9-.08.33-.17.66-.25,1l-.79,0Z" style="fill:#9f9fb4"/><path d="M81.11,71.24a1.18,1.18,0,0,1-1.17-.55c-.49-.71.24-.33.41-.45C80.62,70.57,81.16,70.68,81.11,71.24Z" style="fill:#85849f"/><path d="M77.84,67.22v-.75s0-.06.08-.07l-.07.07c-1,0-1-1.4-2-1.5h0c-.17-.48.3-.53.51-.75-.09-.17-.17-.33-.25-.5-.14-.33-.84.16-.74-.51,1-.3,1.28.77,2,1,.15,0,.26.15.42.09-.08-.18-.27-.23-.41-.34.73-1.38.72-1.41-.76-1.76,0,0,.06-.09.09-.09l3.69.34c-.05.44.41.64.46,1-.75.39-1.24-.63-2.09-.29.84.38,1.75.56,2.19,1.39a.47.47,0,0,1-.25.44c-.35.13-.55-.16-.81-.28-.2-.43-.62-.75-1-.64-.56.17-.26.93-.62,1.36-.18.23.4.41.7.51s.49.18.53.46-.25.5-.55.55S78.31,67.57,77.84,67.22Z" style="fill:#ababbd"/><path d="M80.6,65l.27-.27c.45-.32.71.15,1,.26l1.19,1.52a5.09,5.09,0,0,0-1.1.13c-.39.07-.9,0-.65-.65C81.08,65.65,80.47,65.6,80.6,65Z" style="fill:#bcbcca"/><path d="M80.6,65l.76,1a1.64,1.64,0,0,1-1.49-1.23Z" style="fill:#8c8ba5"/><path d="M31.64,72.75c.49.24,1,.42.51,1.17-.28.46.29.26.49.34C31.89,75,31.32,76,30.12,76c0-.25.88-.44.07-.76a1.12,1.12,0,0,1-.82-1c0-.44.32-.5.68-.52A1.87,1.87,0,0,0,31.64,72.75Z" style="fill:#9d9cb2"/><path d="M33.14,74.26c.24-.35.63-.85.68,0s.54.37.82.5c0,.25,0,.5,0,.75-.25,0-.61-.94-.71,0s-.7.51-1.26.84A2.9,2.9,0,0,0,33.14,74.26Z" style="fill:#9d9cb2"/><path d="M30.13,69a8.26,8.26,0,0,0-2.05-.84,1.21,1.21,0,0,1-1-1.3c0-.53,0-1-.71-1.11.08-.51.15-1,.22-1.52a1.18,1.18,0,0,1,1.45-.58c.28.5.57.38,1,.1,1.14-.75,1.58-.57,2.05.76,0-.49-.14-1,.57-1a.77.77,0,0,1,.81.89,1.43,1.43,0,0,1-.1.84h0c-.7.67-.46,1.46-.28,2.25l0,.75c-.1.38-.49.32-.72.5C31,68.8,30.48,68.57,30.13,69Z" style="fill:#807f9b"/><path d="M31.38,68.73l.72-.5c0,.44.11.89-.19,1.28C31.88,69.14,31.89,68.76,31.38,68.73Z" style="fill:#8a89a3"/><path d="M33.89,19.25,33.14,18a1,1,0,0,1,1,0,3,3,0,0,0,1.71.26c.4.28.91-.06,1.3.25a.28.28,0,0,0,.2,0c.57.3,1.24-.1,1.8.24h0c.21.25.51.18.77.26-.31.56.06,1,.37,1.34.59.64,0,.72-.35.72a4.41,4.41,0,0,1-2.23-.59,25.47,25.47,0,0,0-3.54-1.44C34.11,19,34,19.18,33.89,19.25Z" style="fill:#9190a9"/><path d="M22.66,16.62a2,2,0,0,0-1.95-.12C21.78,15.56,21.78,15.56,22.66,16.62Z" style="fill:#a7a6b9"/><path d="M31.64,24.53c.84,1,2.17,1,3.25,1.49.79-.41,1.15-.16,1.14.72,0,.48,0,1,0,1.46,0,.16,0,.34-.2.41a4.93,4.93,0,0,1-4.73-.1c-.41.43.17,1.31-.69,1.53.08-1.83.17-3.66.25-5.49.23-.45.37-.89,0-1.32,0-.36.24-.52.57-.39a.52.52,0,0,1,.38.66A1.08,1.08,0,0,0,31.64,24.53Z" style="fill:#797896"/><path d="M81.92,65l-1-.26c-.68-.42-1.21-1.12-2.15-1a.51.51,0,0,1-.56-.55c0-.5.43-.37.74-.41.79-.09,1.25.61,1.93.76Z" style="fill:#7c7a98"/><path d="M32.4,65.23a8.39,8.39,0,0,0-.06-1,.64.64,0,0,0-.64-.51c-.5,0-.34.3-.36.58a.84.84,0,0,1-.63.9c-.32-.21-.2-.36,0-.53.37-.39.1-.68-.18-1a.65.65,0,0,0-1,0,3.93,3.93,0,0,1-.64.59c-.26.15-.56.53-.88.2s.05-.54.15-.8A5.51,5.51,0,0,1,26.9,62a1.34,1.34,0,0,1,.17-1.05c.49-.14,1.19.4,1.47-.24s-.31-1.06-.67-1.5a5,5,0,0,1-.48-.72c0-.49,0-1,0-1.48a3.84,3.84,0,0,0,.25-1.77c.35-.55.17-1.17.24-1.76l.22-.27c.2-.5.38-1,1.07-1,.33,0,.72,0,.9.29s-.14.52-.36.69-.43.57-.16.85.47-.12.63-.28a.8.8,0,0,1,1.21-.09c.43.36.85.56,1.3.08-.15-.07-.52.07-.51,0a5.29,5.29,0,0,0-.53-2c-.12-.41,1.76-1.25,2.72-1.26a29.17,29.17,0,0,1-.7,5c-.25,1-.71,1.94-.34,3C33,60.69,32.91,63,32.4,65.23Z" style="fill:#8a89a3"/><path d="M27.39,58.44a2.94,2.94,0,0,1,1.26,1.28c.17.43.69.73.26,1.31s-.88.23-1.33.15a1.72,1.72,0,0,1-.51-.28A8.89,8.89,0,0,1,27.39,58.44Z" style="fill:#7c7a98"/><path d="M26.9,62c.45.56,1.29.84,1.22,1.76l-1.49.49A9.55,9.55,0,0,1,26.9,62Z" style="fill:#797896"/><path d="M28.9,46.37a38,38,0,0,0,.24-4,19.68,19.68,0,0,0,.5-4.26c0-.45-.12-.92.2-1.32.26.39.51.81,1,.92a.8.8,0,0,1,.2.28,2.44,2.44,0,0,1,0,1.2c-.14.46.19.84.22,1.27s-.65.76.06,1.18c.3.19.21.68.11,1a2.09,2.09,0,0,0,.13,2c.42.62-.32,1-.83,1A6.49,6.49,0,0,0,28.9,46.37Z" style="fill:#b3b2c3"/><path d="M35.9,31.06v.5a9.71,9.71,0,0,1-2.64,1.1c-.7-.49-1.21-.65-1.58.43-.25.73-.92.76-1.52.22,0-.25,0-.5,0-.76s.09-.48.25-.68A2.92,2.92,0,0,1,33,30a3.39,3.39,0,0,0,1.85-.92c.31-.28.64-.57,1.09-.24a1,1,0,0,1,0,.76.59.59,0,0,1,0,.23c-.21.77-.86,1-1.53,1.21C34.91,31.09,35.41,30.58,35.9,31.06Z" style="fill:#807f9b"/><path d="M30.15,33.31c.64,0,1.5.44,1.39-.85,0-.36.56-.66.64-.63.37.14.92.13,1,.73A5,5,0,0,1,32,34.1c-.59.7-.19,1.55-.36,2.32a1.32,1.32,0,0,1-.08.33c-.14.42-.55.67-.7,1.09-.66,0-1.19-.2-1-1.05A15.08,15.08,0,0,1,30.15,33.31Z" style="fill:#8f8ea7"/><path d="M30.38,32.06c-.07.16-.14.33-.22.49,0-.49,0-1,0-1.48l.19-.06A.72.72,0,0,1,30.38,32.06Z" style="fill:#8f8ea7"/><path d="M28.9,46.37c.29-.66.58-1,1.52-.86s1.1-.37.55-1.2c-.38-.55.12-1.05.19-1.56.05-.31.35-.7.06-.9-.72-.51-.29-1-.09-1.5a2.36,2.36,0,0,1,2.27.27,1.91,1.91,0,0,0-.27,1.67c.13.39-.08.9-.09,1.35,0,.85-.41,1.62-.42,2.46,1.07.16,1,1.38,1.67,1.87a1,1,0,0,1,0,.87c-.48.47-.91.19-1.33-.1s-.54-.57-1-.22c.18.35,1,.12.84.73s-.54.59-.85.85a4.2,4.2,0,0,1-2.64,1.45c-.51,0-.47.89-1.1.85,0-.25,0-.49,0-.74C28.64,49.93,28.54,48.12,28.9,46.37Z" style="fill:#ababbd"/><path d="M30.38,32.06c0-.35,0-.7,0-1.05s.05-.64.07-1c.42-.51.15-1.11.22-1.67.05-.4.33-.77.61-.46,1.18,1.32,2.48,1,3.84.44.3-.12.55.08.81.2.07.05.09.1.07.15s0,.08-.07.08a7.36,7.36,0,0,1-4.28,1.83c-.3,0-.45.34-.47.65C31.1,31.73,30.89,32,30.38,32.06Z" style="fill:#706e8e"/><path d="M28.14,52.4A2.19,2.19,0,0,1,30.05,51c1-.09,1.54-1.41,2.75-1.82-.35-.17-.42-.24-.49-.23-.35,0-.76.33-1-.14-.14-.29.13-.75.28-.72.4.07.85-.49,1.25.16a1.24,1.24,0,0,0,1.29.59.8.8,0,0,1,.26,1c0,.17,0,.33,0,.5l-1.52.78c-.86.45-.83.43-.19,1.06s-.56.67-.4,1.27c.43-.28.89-.46,1.32.2-.89.1-1.64,1.47-2.54,0-.18-.3-.5-.05-.68.24s-.42.58-.65.89c-1.09-1.53-1.09-1.54.19-2.18-1-.31-1-.31-1.8.54Z" style="fill:#9897ae"/><path d="M66.8,53.41c.81.6,1.45,1.19-.09,1.69a.47.47,0,0,0-.33.68c.17.37.72.8-.22.92-.57.08-1.29.6-1.56-.32-.18-.64-.59-1-1-.61s-1,.83-.53,1.54a2.39,2.39,0,0,1,.48,1.62c-.63.16-.71-.4-1-.73q-.54-5.51-1.07-11c-.09-.37-.34-.88.15-1s.41.49.63.74l1.5,2.51A7.51,7.51,0,0,0,66.8,53.41Z" style="fill:#686789"/><path d="M31.88,33.82c.42-.42.69-1,1.26-1.26a5.14,5.14,0,0,1,2.75-1,31,31,0,0,1-.27,5.28c-.35.46-.42,1.31-1.28,1.07-.69-.2-1.71,0-1.66-1.2-.5-.12-.78,1.11-1.31.12a2.09,2.09,0,0,0,0-.25C31.72,35.69,31.24,34.66,31.88,33.82Z" style="fill:#6d6c8c"/><path d="M31.37,36.83c.7.49.66-.32.95-.54s.27-.36.51-.29a.44.44,0,0,1,.28.5c0,.33-.28,1,.14.87.64-.27,1.41,1.09,1.85-.21,0-.15.34-.22.52-.32a22.37,22.37,0,0,1-.25,3.75c-.18.38-.39.73-.9.67a5.67,5.67,0,0,1-.81-.21.53.53,0,0,1-.26-.21c-.69-.47-1.56-.11-2.27-.49,0-.36-.77-.52-.27-1a1.8,1.8,0,0,0,0-1.49h0C30.61,37.29,31.16,37.14,31.37,36.83Z" style="fill:#777694"/><path d="M33.4,40.84l.24,0a.87.87,0,0,0,.75.24c.43,0,.66-.33,1-.51,0,.61.18,1.23-.18,1.8a2,2,0,0,0-.29,2.48,8.47,8.47,0,0,1-.22,3.05,4.91,4.91,0,0,0-.55,0c-.18.06-.55.19-.54,0,.09-1.1-1.47-1.47-1.33-2,.23-.83.27-1.69.49-2.52a2,2,0,0,0-.08-1.58C32.23,41,32.64,40.76,33.4,40.84Z" style="fill:#b3b2c3"/><path d="M35.89,28.78a.88.88,0,0,0,0-.23c0-.53,0-1.06,0-1.59.08-.79-.33-1-1-.94,0-.86-.38-1.8.63-2.41a.35.35,0,0,0,0-.55c-.85-.4-.74-1.14-.73-1.95l1.16.2c.14.46-.51.55-.4,1H36.6c.34,0,.64.16.49.52-.9,2.13.58.69,1.07.73a2.53,2.53,0,0,1,.76,1.22l-.76-.23c-.39-.27-.89,0-1.28-.22-.77-.07-.7.45-.74,1-.09,1.43.25,2.89-.21,4.31C35.92,29.31,35.9,29.05,35.89,28.78Z" style="fill:#9897ae"/><path d="M62.28,46.88c-.19-.19-.45-.56-.57-.52-.38.13-.1.55-.21.82C61.13,45,61,42.8,60.78,40.6c.24.81.52,1.53,1.58.85.45-.28.64.21.92.41A8.2,8.2,0,0,0,62.28,46.88Z" style="fill:#6d6c8c"/><path d="M39.92,24.75c-.7-1.7-.52-2.48.87-3.56.26-.2.29-.49.46-.7.42-.53.94-.86,1.54-.24a1,1,0,0,0,1.4.26c0,.55-.48.48-.83.55-1.28.27-2.09,1.3-3.12,2-.62.4-.21,1.15-.06,1.74Z" style="fill:#727190"/><path d="M35.9,31.06a3.4,3.4,0,0,0-1.88.69c-.16-.63-.33-1.17.54-1.19a2.06,2.06,0,0,0,1.36-.76C35.91,30.22,35.91,30.64,35.9,31.06Z" style="fill:#a2a1b6"/><path d="M34.9,44.87a2.21,2.21,0,0,1,0-2.78c.28-.22.26.16.34.3C35.1,43.22,35,44.05,34.9,44.87Z" style="fill:#85849f"/><path d="M32.13,67.48c-.8-1-.7-1.77.28-2.25A5.22,5.22,0,0,1,32.13,67.48Z" style="fill:#8a89a3"/><path d="M33.34,58.41c-.89-1.11-.17-2,.34-3A14.28,14.28,0,0,1,33.34,58.41Z" style="fill:#7e7d99"/><path d="M34.13,47.88c.11-.11.21-.3.33-.32s.17.22.22.36c-.11.66.16,1.37-.28,2-.09-.34-.17-.68-.26-1Z" style="fill:#8f8ea7"/><path d="M36.88,24.29c.43,0,.91-.18,1.28.22C37.72,24.51,37.26,24.63,36.88,24.29Z" style="fill:#9f9fb4"/><path d="M78.85,82a2,2,0,0,1-1.25-.25c-.24-.33-.51-.67,0-1-.22-.36-.84-.41-.75-1,.08-.25.17-.5.25-.76,1.41-.72,1.8.59,2.52,1.25a1.27,1.27,0,0,1,.28.69c0,.35.54.67.22,1A1,1,0,0,1,78.85,82Z" style="fill:#b0afc1"/><path d="M78.85,82,80.08,82a2.25,2.25,0,0,1-.47-1.69c.9-.15.38.76.75,1-.1.42.21.74.42,1.47C80.13,81.89,79.28,83,78.85,82Z" style="fill:#a9a8bb"/><path d="M76.84,79.79c.25.33.81.43.75,1a3.19,3.19,0,0,1-.94-.15c-.25-.13-.71-.27-.64-.62S76.55,79.85,76.84,79.79Z" style="fill:#8f8ea7"/><path d="M64,40.1a1.34,1.34,0,0,1-.75,1.76C63.25,41.15,63.73,40.66,64,40.1Z" style="fill:#6d6c8c"/><path d="M65.16,44.88c-.4.14-.64.7-1.12.43-.14-.08-.28-.4-.1-.53A1,1,0,0,1,65.16,44.88Z" style="fill:#807f9b"/><path d="M74.3,14.62c0,.32-.21.54-.54.56s-.42-.2-.41-.47.14-.68.56-.63C74.17,14.1,74.3,14.35,74.3,14.62Z" style="fill:#9190a9"/><path d="M66.54,19A2.23,2.23,0,0,1,65,19.5,1.77,1.77,0,0,1,66.54,19Z" style="fill:#6d6c8c"/><path d="M75.35,63.2l.74.51c-2.15.3-2.25.23-2.52-1.75h0a1.85,1.85,0,0,1,1.5.51Z" style="fill:#8a89a3"/><path d="M76.34,64.21l-.51.75C75.32,64.26,75.82,64.23,76.34,64.21Z" style="fill:#8a89a3"/><path d="M75.08,62.46a1.92,1.92,0,0,1-1.5-.51,2.78,2.78,0,0,1,0-2.51c0,.34-.13.71.13,1a3.7,3.7,0,0,0,.36-.26c.23.05.51.39.64.21s-.3-.26-.38-.47c.79-.85,1.41-.38,2,.26C75,60.42,75.3,61.6,75.08,62.46Z" style="fill:#b5b4c5"/><path d="M73.82,56.92c0,.28,0,.69.14.82,1,.86.41,1.29-.38,1.7C73.71,58.6,73.3,57.71,73.82,56.92Z" style="fill:#b5b4c5"/><path d="M4.25,1.67,5,1.92a1.52,1.52,0,0,0,.71,2.22c.35.22.15.87-.4,1S4,4.88,4.1,4.6c.27-.93-1.66-1.15-.6-2.18h0C3.79,2.21,3.78,1.7,4.25,1.67Z" style="fill:#9f9fb4"/><path d="M4.25,1.67a1,1,0,0,1-.75.75C3.68,2.09,3.47,1.39,4.25,1.67Z" style="fill:#9393aa"/><path d="M77.35,64c.46-.2.82-.14,1,.39.05.19.05.48-.21.5a.67.67,0,0,1-.77-.64Z" style="fill:#9897ae"/><path d="M74.33,59.93c.35,0,.85-.37,1,.32a.53.53,0,0,1-.44.63c-.53.11-.74-.22-.79-.69Z" style="fill:#9393aa"/><path d="M77.85,66.47c.36-.88.61-.24,1,0-.4.31-.67-.08-1,0Z" style="fill:#8a89a3"/><path d="M36.83,19.5a.74.74,0,0,1,.31-.15.15.15,0,0,1,.13.25c-.06.08-.22.09-.33.1S36.88,19.59,36.83,19.5Z" style="fill:#8887a1"/><path d="M30.88,37.84a1.08,1.08,0,0,1,0,1.49C30.87,38.83,30.87,38.34,30.88,37.84Z" style="fill:#8f8ea7"/><path d="M31.88,33.82c-.31.89,0,1.89-.5,2.76C31.58,35.67,30.91,34.59,31.88,33.82Z" style="fill:#777694"/><path d="M34.39,41.1c0,.17,0,.39-.22.38-.37,0-.37-.4-.53-.62C33.92,40.86,34.21,40.81,34.39,41.1Z" style="fill:#ababbd"/></g></g></svg>